<svg width="20" height="14" viewBox="0 0 20 14" fill="none" xmlns="http://www.w3.org/2000/svg">
<path fill-rule="evenodd" clip-rule="evenodd" d="M2.28911 0H17.3459C17.5589 0 17.7654 0.0295551 17.9614 0.0846532L9.8417 6.28105L1.68531 0.0815773C1.87788 0.0284852 2.08035 0 2.28911 0ZM19.4121 1.30671L10.4614 8.13767C10.1045 8.42052 9.57891 8.42052 9.22198 8.13767L0.226678 1.29882C0.0814436 1.59891 0 1.93512 0 2.28925V11.7108C0 12.9699 1.03015 14 2.28925 14H17.346C18.605 14 19.6353 12.9699 19.6353 11.7108V2.28925C19.6353 1.9382 19.555 1.6048 19.4121 1.30671Z" fill="white"/>
</svg>
