<svg width="100" height="100" viewBox="0 0 100 100" fill="none" xmlns="http://www.w3.org/2000/svg">
<path d="M74.9173 88.2758L23.7377 59.6557C21.1212 58.1937 19 54.2712 19 50.8947V13.0131C19 9.63663 21.1212 8.08481 23.7377 9.54681L74.9173 38.167C77.5338 39.629 79.655 43.5515 79.655 46.9279V84.8095C79.655 88.186 77.5338 89.7378 74.9173 88.2758Z" fill="url(#paint0_linear)"/>
<path d="M75.5286 85.639L25.0701 57.4261C22.9644 56.1309 21.6621 53.543 21.6621 50.8949V12.7646C21.6621 12.1371 22.3674 11.7475 22.9268 12.0646C22.9918 12.1016 23.0436 12.1306 23.0752 12.1484L73.5871 40.3973C76.0937 41.7958 76.995 44.2807 76.995 46.9288V84.939C76.995 85.6118 76.2434 86.0337 75.6391 85.7004C75.5914 85.6741 75.5536 85.653 75.5286 85.639Z" fill="url(#paint1_linear)"/>
<path d="M76.262 37.4772L25.0827 8.857C24.0475 8.27862 23.09 8.17169 22.3105 8.46317C22.2114 8.50014 20.8905 9.17935 20.7974 9.22945C20.7949 9.23068 20.793 9.2322 20.793 9.2322C21.6002 8.85273 22.624 8.92361 23.74 9.54752L74.9196 38.168C77.5362 39.63 79.6573 43.5525 79.6573 46.9286V84.8102C79.6573 86.9172 78.8312 88.3135 77.5737 88.7104C77.6763 88.7159 77.8039 88.6771 77.9889 88.5738C78.0489 88.5405 79.4824 87.7574 79.5396 87.7186C80.4397 87.1088 81 85.8552 81 84.1197V46.2381C80.9997 42.8617 78.8785 38.9392 76.262 37.4772Z" fill="url(#paint2_linear)"/>
<path opacity="0.6" d="M75.1445 38.0576L23.965 9.43747C22.8919 8.8377 21.9056 8.75245 21.1113 9.08457C21.7891 8.98069 22.5677 9.13926 23.3964 9.60246L74.576 38.2226C77.1925 39.6846 79.3137 43.6071 79.3137 46.9836V84.8649C79.3137 86.8567 78.5721 88.2062 77.4296 88.6841C78.8913 88.4598 79.882 87.0067 79.882 84.6999V46.8186C79.8823 43.4421 77.7611 39.5199 75.1445 38.0576Z" fill="url(#paint3_radial)"/>
<path d="M65.769 27.2252L31.7835 8.2554C31.4567 8.0733 31.0488 8.30153 31.0488 8.66634V67.7546C31.0488 68.105 31.2424 68.4289 31.5562 68.604L65.5417 87.5738C65.8685 87.7559 66.2763 87.5277 66.2763 87.1629V28.0746C66.276 27.7242 66.0828 27.4003 65.769 27.2252Z" fill="url(#paint4_linear)"/>
<path d="M65.7685 27.2256L31.7829 8.25575C31.5279 8.11367 31.226 8.22305 31.1045 8.45068C31.244 8.38102 31.4167 8.37277 31.5724 8.45954L65.5579 27.4294C65.8717 27.6044 66.0649 27.9283 66.0649 28.2788V87.367C66.0649 87.4471 66.0425 87.5192 66.0084 87.583C66.1622 87.5063 66.2755 87.3548 66.2755 87.1632V28.0753C66.2755 27.7245 66.0823 27.4006 65.7685 27.2256Z" fill="url(#paint5_radial)"/>
<path d="M48.0788 29.1854L50.3598 30.4598V29.5618L48.0788 28.2875V29.1854ZM53.9679 31.5778L51.0234 29.9325V30.8304L53.9679 32.4757V31.5778ZM52.5994 35.8565L57.7835 38.753V37.855L52.5994 34.9582V35.8565ZM53.8022 33.5576V34.4556L56.6224 36.0316V35.1336L53.8022 33.5576ZM59.935 36.9845L57.286 35.5042V36.4022L59.935 37.8825V36.9845ZM39.8258 31.9661L35.9843 29.8197V30.7177L39.8258 32.8641V31.9661ZM37.7936 26.6855L35.9843 25.6745V26.5725L37.7936 27.5835V26.6855ZM38.4986 29.1518L35.9843 27.747V28.6449L38.4986 30.0498V29.1518ZM36.7982 24.0567L35.9843 23.6021V24.5L36.7982 24.9547V24.0567ZM37.5448 22.4013L35.9846 21.5293V22.4273L37.5448 23.2993V22.4013ZM55.8915 32.6526L54.6315 31.9487V32.8467L55.8915 33.5506V32.6526ZM40.4894 24.9446L42.6459 26.1496V25.2516L40.4894 24.0466V24.9446ZM42.6046 28.1992L43.6 28.7552V27.8573L42.6046 27.3012V28.1992ZM43.3095 26.5205L47.4152 28.8148V27.9168L43.3095 25.6226V26.5205ZM40.6138 28.2612L38.4572 27.0561V27.9541L40.6138 29.1591V28.2612ZM44.2633 29.1258L47.7054 31.0492V30.1512L44.2633 28.2279V29.1258ZM42.1067 33.2405L40.4894 32.3367V33.2347L42.1067 34.1385V33.2405ZM43.6413 32.0254L39.1622 29.5227V30.4207L43.6413 32.9233V32.0254ZM45.5905 36.0853L49.6962 38.3796V37.4816L45.5905 35.1874V36.0853ZM55.316 39.4468L58.945 41.4747V40.5764L55.316 38.5489V39.4468ZM55.71 41.7396L59.5255 43.8716V42.9737L55.71 40.8416V41.7396ZM45.4247 31.8473L48.3279 33.4693V32.5714L45.4247 30.9493V31.8473ZM50.0697 36.5152L52.8898 38.0912V37.1932L50.0697 35.6176V36.5152ZM45.9636 34.2213L49.4061 36.1446V35.2466L45.9636 33.3233V34.2213ZM48.3693 31.4201L51.1894 32.9958V32.0978L48.3693 30.5221V31.4201ZM50.3598 37.852V38.7499L51.4379 39.3524V38.4545L50.3598 37.852ZM38.2084 22.7719V23.6699L39.8258 24.5737V23.6757L38.2084 22.7719ZM44.7611 30.5787L41.2774 28.6321V29.5301L44.7611 31.4766V30.5787ZM52.1018 39.7234L55.0464 41.3687V40.4704L52.1018 38.8251V39.7234ZM53.1386 33.187L51.8531 32.4687V33.3667L53.1386 34.085V33.187ZM53.5534 37.5638V38.4618L54.6524 39.0759V38.178L53.5534 37.5638ZM45.3004 32.9524L44.305 32.3963V33.2943L45.3004 33.8503V32.9524ZM48.9912 33.8403L51.9358 35.4856V34.5876L48.9912 32.9423V33.8403ZM60.4584 37.2769V38.1752L61.3295 38.6619V37.764L60.4584 37.2769ZM58.5093 39.1587L61.3295 40.7344V39.8364L58.5093 38.2608V39.1587ZM60.1888 44.2422L61.3295 44.8796V43.9816L60.1888 43.3443V44.2422ZM61.2878 41.8856L59.6083 40.947V41.845L61.2878 42.7836V41.8856ZM61.2673 35.6564L56.4358 32.9567V33.8546L61.2673 36.5543V35.6564ZM37.4618 25.3256L41.941 27.8282V26.9303L37.4618 24.4276V25.3256ZM42.7703 34.5094L44.9269 35.7144V34.8165L42.7703 33.6114V34.5094ZM55.316 53.2641L58.945 55.2917V54.3937L55.316 52.3661V53.2641ZM55.0464 54.288L52.1018 52.6427V53.5406L55.0464 55.1859V54.288ZM50.111 40.6837L52.9312 42.2593V41.3613L50.111 39.7857V40.6837ZM43.3095 42.4185L47.4152 44.7128V43.8148L43.3095 41.5205V42.4185ZM53.8022 50.3542L56.6224 51.9298V51.0319L53.8022 49.4562V50.3542ZM51.0234 46.729L53.9679 48.3743V47.476L51.0234 45.8307V46.729ZM45.4247 40.1071L48.3279 41.7292V40.8312L45.4247 39.2091V40.1071ZM45.9636 48.0385L49.4061 49.9619V49.0639L45.9636 47.1406V48.0385ZM48.0788 45.0837L50.3598 46.3581V45.4601L48.0788 44.1857V45.0837ZM47.7057 46.0495L44.2636 44.1261V45.0241L47.7057 46.9475V46.0495ZM51.8531 49.2649L53.1386 49.9833V49.0853L51.8531 48.367V49.2649ZM53.5534 52.2791L54.6524 52.8932V51.9952L53.5534 51.3811V52.2791ZM39.2038 34.5891L43.683 37.0918V36.1938L39.2038 33.6912V34.5891ZM58.9863 44.7449L55.5442 42.8215V43.7195L58.9863 45.6428V44.7449ZM51.4382 53.17V52.272L50.3601 51.6695V52.5675L51.4382 53.17ZM43.5997 43.7552L42.6043 43.1991V44.0971L43.5997 44.6532V43.7552ZM45.3417 37.1208L44.3463 36.5647V37.463L45.3417 38.0191V37.1208ZM54.6315 48.7449L55.8915 49.4489V48.5509L54.6315 47.847V48.7449ZM42.6459 41.1496L40.4894 39.9446V40.8425L42.6459 42.0476V41.1496ZM49.4474 39.4148L46.0053 37.4914V38.3894L49.4474 40.3127V39.4148ZM49.6962 51.2986L45.5905 49.0043V49.9023L49.6962 52.1966V51.2986ZM51.1894 47.9961L48.3693 46.4204V47.3184L51.1894 48.894V47.9961ZM52.8898 51.0102L50.0697 49.4342V50.3322L52.8898 51.9081V51.0102ZM45.3004 46.7696L44.305 46.2136V47.1115L45.3004 47.6676V46.7696ZM41.2774 37.7899L44.7611 39.7365V38.8385L41.2774 36.892V37.7899ZM42.7703 48.3266L44.9269 49.5317V48.6337L42.7703 47.4287V48.3266ZM54.8803 42.4506L53.5948 41.7323V42.6302L54.8803 43.3485V42.4506ZM37.5448 38.2996L35.9846 37.4276V38.3255L37.5448 39.1975V38.2996ZM37.7936 34.9454L35.9843 33.9344V34.8323L37.7936 35.8434V34.9454ZM36.7982 39.955L35.9843 39.5003V40.3986L36.7982 40.8532V39.955ZM38.2084 39.5685L39.8258 40.4722V39.574L38.2084 38.6702V39.5685ZM38.4986 42.9691L35.9843 41.5642V42.4622L38.4986 43.867V42.9691ZM59.6083 55.6626L61.2878 56.6012V55.7032L59.6083 54.7646V55.6626ZM57.286 52.3005L59.935 53.7808V52.8828L57.286 51.4025V52.3005ZM61.2673 51.5546L56.4358 48.8549V49.7529L61.2673 52.4526V51.5546ZM38.5402 33.3202L35.9846 31.8922V32.7901L38.5402 34.2182V33.3202ZM60.4584 54.0735L61.3295 54.5602V53.6622L60.4584 53.1755V54.0735ZM40.6138 36.521L38.4572 35.316V36.214L40.6138 37.419V36.521ZM59.6496 46.0137L61.3291 46.9523V46.0544L59.6496 45.1158V46.0137ZM42.1067 47.0578L40.4894 46.154V47.052L42.1067 47.9557V47.0578ZM37.4618 41.2239L41.941 43.7265V42.8285L37.4618 40.3259V41.2239ZM43.6413 45.8426L39.1622 43.34V44.238L43.6413 46.7406V45.8426ZM39.8258 45.7834L35.9843 43.637V44.5353L39.8258 46.6816V45.7834ZM36.7982 51.737L35.9843 51.2824V52.1804L36.7982 52.635V51.737ZM42.7703 62.19L44.9269 63.3951V62.4968L42.7703 61.2918V62.19ZM35.9846 58.3983L39.8261 60.5447V59.6465L35.9846 57.5001V58.3983ZM38.4986 56.8325L35.9843 55.4276V56.3256L38.4986 57.7304V56.8325ZM44.305 60.9746L45.3004 61.5307V60.6324L44.305 60.0763V60.9746ZM37.7936 54.3659L35.9843 53.3549V54.2528L37.7936 55.2638V54.3659ZM40.4894 60.9153L42.1067 61.8191V60.9212L40.4894 60.0174V60.9153ZM59.6083 69.5257L61.2878 70.4643V69.566L59.6083 68.6274V69.5257ZM35.9307 64.231L39.3308 66.1397V65.2414L35.9307 63.3328V64.231ZM60.4584 65.8556L61.3295 66.3423V65.444L60.4584 64.9573V65.8556ZM55.316 67.1272L58.945 69.1547V68.2565L55.316 66.2289V67.1272ZM54.6524 66.7566V65.8586L53.5534 65.2445V66.1428L54.6524 66.7566ZM59.6496 61.2585L61.3291 62.1971V61.2988L59.6496 60.3602V61.2585ZM57.7835 65.5354L52.5994 62.6389V63.5372L57.7835 66.4336V65.5354ZM52.1018 67.404L55.0464 69.0493V68.1511L52.1018 66.5057V67.404ZM42.6459 52.932L40.4894 51.727V52.6249L42.6459 53.83V52.932ZM50.3598 66.4306L51.4379 67.0331V66.1351L50.3598 65.5326V66.4306ZM47.4152 55.5969L43.3095 53.3026V54.2006L47.4152 56.4949V55.5969ZM45.5905 63.7657L49.6962 66.06V65.1617L45.5905 62.8674V63.7657ZM52.8898 64.8736L50.0697 63.2976V64.1959L52.8898 65.7719V64.8736ZM48.3276 60.2517L45.4244 58.6296V59.5276L48.3276 61.1497V60.2517ZM43.5997 55.5376L42.6043 54.9815V55.8795L43.5997 56.4356V55.5376ZM58.5093 66.8391L61.3295 68.4147V67.5168L58.5093 65.9411V66.8391ZM50.3598 57.2422L48.0788 55.9675V56.8655L50.3598 58.1402V57.2422ZM49.4474 54.6598L46.0053 52.7365V53.6344L49.4474 55.5578V54.6598ZM47.7057 57.8316L44.2636 55.9082V56.8062L47.7057 58.7295V57.8316ZM54.6315 60.5273L55.8915 61.2313V60.3333L54.6315 59.6294V60.5273ZM44.7611 58.259L41.2774 56.3125V57.2104L44.7611 59.157V58.259ZM58.9863 59.9896L55.5442 58.0662V58.9642L58.9863 60.8875V59.9896ZM38.2084 51.3505L39.8258 52.2543V51.3563L38.2084 50.4526V51.3505ZM43.6413 59.7057L39.1622 57.2031V58.1011L43.6413 60.6037V59.7057ZM39.2038 49.8342L43.683 52.3368V51.4388L39.2038 48.9362V49.8342ZM56.6224 62.814L53.8022 61.238V62.136L56.6224 63.7119V62.814ZM37.4618 53.0059L41.941 55.5086V54.6106L37.4618 52.108V53.0059ZM40.6138 55.9415L38.4572 54.7365V55.6345L40.6138 56.8395V55.9415ZM37.5448 50.0816L35.9846 49.2096V50.1076L37.5448 50.9796V50.0816ZM59.935 64.6649L57.286 63.1846V64.0825L59.935 65.5629V64.6649ZM61.2673 63.3367L56.4358 60.637V61.535L61.2673 64.2347V63.3367ZM45.3417 52.3655L44.3463 51.8095V52.7074L45.3417 53.2635V52.3655ZM38.5402 48.5653L35.9846 47.1372V48.0352L38.5402 49.4632V48.5653ZM53.9679 59.2581L51.0234 57.6128V58.5108L53.9679 60.1561V59.2581ZM54.8803 58.5936V57.6956L53.5948 56.9773V57.8753L54.8803 58.5936ZM53.1386 60.8674L51.8531 60.1491V61.047L53.1386 61.7654V60.8674ZM52.9312 56.6064L50.111 55.0307V55.9287L52.9312 57.5043V56.6064ZM51.1894 59.7781L48.3693 58.2025V59.1005L51.1894 60.6761V59.7781ZM51.9358 62.268L48.9912 60.6227V61.5206L51.9358 63.1659V62.268ZM45.9636 61.9016L49.4061 63.825V62.9267L45.9636 61.0033V61.9016Z" fill="#B9AFBF"/>
<path d="M47.3093 67.8698C47.189 67.4485 46.9266 67.0819 46.5791 66.8017L46.4291 67.037C46.7502 67.3104 46.951 67.6486 47.0346 67.9432C47.1874 68.4782 47.1016 69.0321 46.98 69.5772C46.7997 69.2521 46.7224 68.8964 46.7555 68.5484C46.8171 68.4354 46.8443 68.3126 46.8187 68.176C46.8067 68.113 46.7514 68.0663 46.6855 68.0632C46.6059 68.0559 46.5598 68.1017 46.5418 68.1632C46.5128 68.2609 46.4919 68.3602 46.479 68.4604C46.3742 68.6196 46.156 68.7727 45.9426 68.9224C45.8716 68.9725 45.8012 69.0217 45.7355 69.0709C45.4372 69.2939 45.1998 69.5665 45.0293 69.8739C44.9134 69.7361 44.7982 69.6041 44.6871 69.4791C44.4541 69.2176 44.2132 68.9579 43.972 68.6978C43.4681 68.1543 42.9554 67.6019 42.5135 67.0278C42.4671 66.7467 42.4014 66.4515 42.3168 66.1396C42.2536 65.9065 42.0611 65.1982 41.3375 65.0308C41.2889 65.0195 41.2352 65.0345 41.2001 65.0708C41.1654 65.1072 41.1531 65.1588 41.1689 65.2062C41.3915 65.8897 41.7785 66.5276 42.2432 67.1378C42.3455 67.7999 42.3351 68.3776 42.2148 68.9132C42.0876 69.4794 41.824 69.9964 41.4527 70.4373L41.609 70.6912C42.044 70.2008 42.3484 69.6148 42.4929 68.9716C42.5921 68.5326 42.6214 68.069 42.5801 67.5606C42.9539 68.0116 43.3599 68.4497 43.7608 68.8818C44.001 69.1406 44.2407 69.3987 44.4721 69.6588C44.6104 69.8134 44.7537 69.9787 44.8973 70.1531C44.7382 70.5497 44.6798 70.9918 44.7325 71.4544C44.8282 72.2946 45.244 73.0801 45.6462 73.8397C45.8425 74.2112 46.126 74.4169 46.4345 74.4169C46.466 74.4169 46.4973 74.4147 46.5292 74.4105C46.587 74.4025 46.634 74.3616 46.6476 74.3066C47.0346 72.7694 46.1478 71.2616 45.2257 70.1119C45.38 69.7932 45.6108 69.5127 45.9101 69.2884C45.9739 69.2408 46.0417 69.1934 46.1102 69.1455C46.2318 69.0602 46.3584 68.9713 46.4714 68.8754C46.5058 69.2735 46.6618 69.6664 46.9308 70.011C46.9639 70.0535 47.0188 70.0724 47.0741 70.063C47.1281 70.0517 47.1704 70.0113 47.183 69.9591C47.3364 69.3111 47.5107 68.5768 47.3093 67.8698ZM41.5449 65.4112C41.7738 65.5563 41.9342 65.8169 42.0412 66.209C42.0639 66.2936 42.0857 66.3764 42.1056 66.4583C41.8817 66.1185 41.6898 65.7702 41.5449 65.4112ZM46.3944 74.1391C46.1488 74.115 45.9814 73.87 45.8987 73.7138C45.5082 72.9763 45.1044 72.2136 45.0144 71.4235C44.9737 71.0682 45.0059 70.7266 45.105 70.4131C45.9275 71.4681 46.6776 72.8021 46.3944 74.1391Z" fill="#45108A"/>
<path opacity="0.8" d="M40.8573 68.0167L35.9854 65.3164V66.2147L40.8573 68.9147V68.0167Z" fill="url(#paint6_linear)"/>
<path opacity="0.8" d="M56.2994 27.2828L42.8262 19.7V20.8482L56.2994 28.431V27.2828Z" fill="url(#paint7_linear)"/>
<path opacity="0.8" d="M53.5373 27.8941L45.5889 23.3667V24.5149L53.5373 29.0423V27.8941Z" fill="url(#paint8_linear)"/>
<path d="M59.4899 75.6754C57.0309 74.3289 54.6265 72.0321 52.6117 69.1057L52.5846 69.0904C50.5694 69.7651 48.1654 69.3752 45.7064 67.9734L45.6123 67.9199L45.7452 72.3667C46.2118 79.2596 48.6411 82.2597 52.5508 88.6683L52.6458 88.7214C56.5555 86.6823 58.9848 86.3966 59.4514 80.0253L59.584 75.727L59.4899 75.6754Z" fill="url(#paint9_linear)"/>
<path d="M60.3169 74.9815C57.8579 73.635 55.4535 71.3383 53.4387 68.4119L53.4116 68.3966C51.3967 69.0712 48.9924 68.6813 46.5334 67.2795L46.4393 67.2261L45.6387 67.9346L45.7062 67.9731C48.1652 69.3746 50.5696 69.7648 52.5844 69.0902L52.6116 69.1054C54.6267 72.0319 57.0307 74.3286 59.4897 75.6751L59.5838 75.7264L59.4509 80.0247C59.1463 84.183 58.0053 85.7489 56.1626 86.902C58.4647 85.5861 59.9352 84.0055 60.2777 79.3311L60.4106 75.0328L60.3169 74.9815Z" fill="url(#paint10_linear)"/>
<path d="M60.4112 75.0327L60.3171 74.9814C57.8581 73.6349 55.4537 71.3382 53.4389 68.4118L53.4118 68.3965L52.585 69.0901L52.6121 69.1053C54.6272 72.0318 57.0313 74.3285 59.4903 75.675L59.5844 75.7263L60.4112 75.0327Z" fill="url(#paint11_linear)"/>
<path d="M59.5834 75.7263L59.4504 80.0246C59.1458 84.1829 58.0049 85.7488 56.1621 86.9019C58.4642 85.5859 59.9347 84.0054 60.2773 79.331L60.4102 75.0327L59.5834 75.7263Z" fill="url(#paint12_linear)"/>
<path d="M52.1116 85.7506C49.0765 80.8782 47.5501 78.4272 47.1816 73.0797L47.0977 70.2725C49.0465 71.1252 50.9145 71.3968 52.5975 71.0727C54.2802 73.2774 56.1482 75.0932 58.097 76.4183L58.013 79.1318C57.6449 84.0683 56.1182 84.8135 53.0827 86.2945C52.9239 86.3721 52.7623 86.4509 52.5975 86.5322C52.4324 86.2667 52.2704 86.006 52.1116 85.7506Z" fill="url(#paint13_linear)"/>
<path d="M49.3076 77.0139L52.0763 83.4491L56.4826 77.0005L54.3405 75.2461L52.0226 80.1469L51.0285 77.3384L49.3076 77.0139Z" fill="url(#paint14_linear)"/>
<path d="M47.1376 78.0313L48.354 77.4593L49.0464 79.5192L50.6012 79.7487L50.6643 81.6241L52.3211 82.6198L51.7453 84.025L53.2521 85.6358L52.1251 86.3565L53.2521 88.337L51.7453 88.264L52.3211 90.3126L50.6643 89.4568L50.6012 91.2616L49.0464 89.7532L48.354 91.0398L47.1376 89.1085L45.9215 89.6805L45.2292 87.6205L43.6741 87.3911L43.6112 85.5157L41.9541 84.52L42.53 83.1148L41.0234 81.504L42.1505 80.7832L41.0234 78.8028L42.53 78.8758L41.9541 76.8272L43.6112 77.683L43.6741 75.8782L45.2292 77.3863L45.9215 76.1L47.1376 78.0313Z" fill="url(#paint15_linear)"/>
<path d="M51.3737 91.0507L52.3208 90.3125L51.745 88.2639L50.7979 89.0024L51.3737 91.0507Z" fill="url(#paint16_linear)"/>
<path d="M53.2499 88.3372L52.3028 89.0757L51.1758 87.0952L52.1229 86.3567L53.2499 88.3372Z" fill="url(#paint17_linear)"/>
<path d="M53.2518 85.6357L52.3047 86.3739L50.7979 84.7631L51.745 84.0249L53.2518 85.6357Z" fill="url(#paint18_linear)"/>
<path d="M51.3736 83.3582L52.3207 82.6198L50.6639 81.624L49.7168 82.3622L51.3736 83.3582Z" fill="url(#paint19_linear)"/>
<path d="M49.6525 80.4869L50.5996 79.7487L49.0448 79.5193L48.0977 80.2578L49.6525 80.4869Z" fill="url(#paint20_linear)"/>
<path d="M48.3539 77.4592L47.4068 78.1974L46.1904 78.7694L47.1375 78.0312L48.3539 77.4592Z" fill="url(#paint21_linear)"/>
<path d="M44.9746 76.8386L45.9217 76.1001L47.1378 78.0314L46.1907 78.7696L44.9746 76.8386Z" fill="url(#paint22_linear)"/>
<path d="M43.6737 75.8782L42.7266 76.6163L44.2817 78.1248L45.2288 77.3863L43.6737 75.8782Z" fill="url(#paint23_linear)"/>
<path d="M41.953 76.8271L41.0059 77.5656L42.663 78.4214L43.6101 77.683L41.953 76.8271Z" fill="url(#paint24_linear)"/>
<path d="M41.0223 78.8027L40.0752 79.5412L41.5817 79.6142L42.5288 78.8758L41.0223 78.8027Z" fill="url(#paint25_linear)"/>
<path d="M41.0223 81.5042L40.0752 82.2426L41.2023 81.5216L41.0223 81.5042Z" fill="url(#paint26_linear)"/>
<path d="M49.6523 91.9998L50.5994 91.2613L50.6626 89.4565L49.7155 90.195L49.6523 91.9998Z" fill="url(#paint27_linear)"/>
<path d="M48.3534 91.04L47.4062 91.7782L48.0986 90.4919L48.7773 90.1497L48.3534 91.04Z" fill="url(#paint28_linear)"/>
<path d="M46.1894 78.7693L47.4058 78.1974L48.0981 80.2576L49.6529 80.4867L49.7161 82.3621L51.3729 83.3582L50.797 84.763L52.3039 86.3738L51.1768 87.0949L52.3039 89.0754L50.797 89.0023L51.3729 91.0507L49.7161 90.1952L49.6529 92L48.0981 90.4915L47.4058 91.7778L46.1894 89.8468L44.9733 90.4188L44.281 88.3586L42.7258 88.1294L42.663 86.254L41.0059 85.258L41.5817 83.8531L40.0752 82.2424L41.2023 81.5213L40.0752 79.5411L41.5817 79.6141L41.0059 77.5655L42.663 78.4213L42.7258 76.6162L44.281 78.1246L44.9733 76.8383L46.1894 78.7693Z" fill="url(#paint29_linear)"/>
<path d="M50.875 86.928C50.875 89.7679 48.8018 90.9118 46.2447 89.4829C43.6875 88.0539 41.6143 84.5934 41.6143 81.7534C41.6143 78.9134 43.6875 77.7695 46.2447 79.1985C48.8018 80.6272 50.875 84.0877 50.875 86.928Z" fill="url(#paint30_linear)"/>
<path opacity="0.2" d="M46.3498 89.3044C43.7926 87.8754 41.7194 84.4149 41.7194 81.5749C41.7194 80.7726 41.8896 80.1114 42.1847 79.5996C41.8217 80.1303 41.6143 80.8569 41.6143 81.7533C41.6143 84.5933 43.6872 88.0541 46.2447 89.4828C48.0795 90.5079 49.6602 90.2029 50.4097 88.9032C49.6223 90.0544 48.0997 90.2824 46.3498 89.3044Z" fill="url(#paint31_linear)"/>
<path d="M48.8623 82.5354C48.742 82.114 48.4797 81.7474 48.1321 81.4672L47.9822 81.7025C48.3032 81.9759 48.504 82.3142 48.5877 82.6087C48.7405 83.1437 48.6546 83.6976 48.5331 84.2427C48.3528 83.9176 48.2754 83.562 48.3086 83.214C48.3701 83.1009 48.3973 82.9781 48.3717 82.8415C48.3597 82.7786 48.3045 82.7318 48.2385 82.7288C48.1589 82.7214 48.1129 82.7673 48.0949 82.8287C48.0658 82.9265 48.045 83.0258 48.032 83.126C47.9272 83.2852 47.7091 83.4382 47.4957 83.5879C47.4246 83.638 47.3542 83.6872 47.2886 83.7364C46.9905 83.9595 46.7528 84.232 46.5823 84.5394C46.4665 84.4016 46.3512 84.2696 46.2401 84.1446C46.0071 83.8831 45.7662 83.6234 45.525 83.3634C45.0212 82.8198 44.5085 82.2674 44.0662 81.6933C44.0198 81.4122 43.9541 81.1171 43.8695 80.8051C43.8064 80.572 43.6138 79.8638 42.8902 79.6963C42.8416 79.685 42.7879 79.7 42.7529 79.7364C42.7182 79.7727 42.7058 79.8243 42.7216 79.8717C42.9442 80.5552 43.3312 81.1931 43.796 81.8033C43.8982 82.4654 43.8878 83.0432 43.7675 83.5788C43.6403 84.1449 43.3767 84.6619 43.0054 85.1028L43.1617 85.3567C43.5967 84.8663 43.9011 84.2803 44.0457 83.6371C44.1448 83.1981 44.1742 82.7346 44.1328 82.2262C44.5066 82.6771 44.9129 83.1153 45.3135 83.5473C45.5538 83.8061 45.7934 84.0643 46.0248 84.3243C46.1631 84.4789 46.3064 84.6442 46.4501 84.8186C46.2909 85.2152 46.2325 85.6573 46.2853 86.1199C46.3809 86.9601 46.7967 87.7457 47.1989 88.5052C47.3953 88.8768 47.6788 89.0824 47.9872 89.0824C48.0188 89.0824 48.05 89.0803 48.0819 89.076C48.1397 89.068 48.1867 89.0271 48.2003 88.9721C48.5873 87.4349 47.7005 85.9271 46.7784 84.7774C46.9328 84.4587 47.1635 84.1782 47.4628 83.954C47.5266 83.9063 47.5945 83.859 47.663 83.811C47.7845 83.7257 47.9111 83.6368 48.0241 83.5409C48.0586 83.939 48.2145 84.3319 48.4835 84.6766C48.5166 84.719 48.5716 84.738 48.6268 84.7285C48.6808 84.7172 48.7231 84.6769 48.7357 84.6246C48.8895 83.9766 49.0637 83.2424 48.8623 82.5354ZM43.0979 80.0767C43.3268 80.2218 43.4872 80.4825 43.5942 80.8745C43.6169 80.9591 43.6387 81.0419 43.6586 81.1238C43.4348 80.784 43.2428 80.4357 43.0979 80.0767ZM47.9471 88.8047C47.7015 88.7805 47.5342 88.5355 47.4515 88.3794C47.0609 87.6418 46.6572 86.8792 46.5672 86.0891C46.5265 85.7337 46.559 85.3921 46.6578 85.0786C47.4805 86.1337 48.2303 87.4676 47.9471 88.8047Z" fill="white"/>
<defs>
<linearGradient id="paint0_linear" x1="78.97" y1="88.6084" x2="18.3347" y2="1.91265" gradientUnits="userSpaceOnUse">
<stop stop-color="#311B61"/>
<stop offset="0.2031" stop-color="#290F52"/>
<stop offset="0.4949" stop-color="#200041"/>
<stop offset="1" stop-color="#0F001F"/>
</linearGradient>
<linearGradient id="paint1_linear" x1="24.2056" y1="12.2445" x2="75.6723" y2="92.2099" gradientUnits="userSpaceOnUse">
<stop offset="0.0101" stop-color="#9F19AB"/>
<stop offset="0.4293" stop-color="#5F27BD"/>
<stop offset="0.904" stop-color="#3D065F"/>
</linearGradient>
<linearGradient id="paint2_linear" x1="92.4283" y1="90.4509" x2="44.8913" y2="11.9661" gradientUnits="userSpaceOnUse">
<stop offset="0.0556" stop-color="#200041"/>
<stop offset="0.2576" stop-color="#210243"/>
<stop offset="0.3572" stop-color="#25084B"/>
<stop offset="0.4341" stop-color="#2C1358"/>
<stop offset="0.4697" stop-color="#311B61"/>
<stop offset="0.482" stop-color="#351F65"/>
<stop offset="0.4954" stop-color="#422C73"/>
<stop offset="0.5093" stop-color="#584188"/>
<stop offset="0.5235" stop-color="#765FA7"/>
<stop offset="0.5303" stop-color="#8770B8"/>
<stop offset="0.5366" stop-color="#7E67AE"/>
<stop offset="0.5617" stop-color="#5C468D"/>
<stop offset="0.5857" stop-color="#442E75"/>
<stop offset="0.6078" stop-color="#362066"/>
<stop offset="0.6263" stop-color="#311B61"/>
<stop offset="0.6724" stop-color="#2A1155"/>
<stop offset="0.7491" stop-color="#230446"/>
<stop offset="0.8131" stop-color="#200041"/>
<stop offset="1" stop-color="#200041"/>
</linearGradient>
<radialGradient id="paint3_radial" cx="0" cy="0" r="1" gradientUnits="userSpaceOnUse" gradientTransform="translate(78.2846 46.5531) scale(8.48488 8.21168)">
<stop stop-color="#AF8AFC"/>
<stop offset="1" stop-color="#10054D"/>
</radialGradient>
<linearGradient id="paint4_linear" x1="-19.1676" y1="62.6304" x2="119.055" y2="30.6145" gradientUnits="userSpaceOnUse">
<stop offset="0.0505" stop-color="#D9D9D9"/>
<stop offset="0.5101" stop-color="#E7E3EC"/>
<stop offset="1" stop-color="white"/>
</linearGradient>
<radialGradient id="paint5_radial" cx="0" cy="0" r="1" gradientUnits="userSpaceOnUse" gradientTransform="translate(55.9513 19.7783) scale(31.5561 30.5401)">
<stop stop-color="white"/>
<stop offset="0.2771" stop-color="#C2C1C1"/>
<stop offset="1"/>
</radialGradient>
<linearGradient id="paint6_linear" x1="60.1737" y1="93.1899" x2="-5.15486" y2="9.58405" gradientUnits="userSpaceOnUse">
<stop offset="0.096" stop-color="#45108A"/>
<stop offset="1" stop-color="#7C1DC9"/>
</linearGradient>
<linearGradient id="paint7_linear" x1="106.134" y1="91.8761" x2="-63.7642" y2="-125.555" gradientUnits="userSpaceOnUse">
<stop offset="0.096" stop-color="#45108A"/>
<stop offset="1" stop-color="#7C1DC9"/>
</linearGradient>
<linearGradient id="paint8_linear" x1="84.4784" y1="68.057" x2="-20.3819" y2="-66.1407" gradientUnits="userSpaceOnUse">
<stop offset="0.096" stop-color="#45108A"/>
<stop offset="1" stop-color="#7C1DC9"/>
</linearGradient>
<linearGradient id="paint9_linear" x1="44.4101" y1="80.8261" x2="69.5156" y2="66.7771" gradientUnits="userSpaceOnUse">
<stop offset="0.0354" stop-color="#FFA98C"/>
<stop offset="0.3523" stop-color="#FFC698"/>
<stop offset="0.7201" stop-color="#FEE2A4"/>
<stop offset="0.9343" stop-color="#FEECA8"/>
</linearGradient>
<linearGradient id="paint10_linear" x1="39.5696" y1="75.0662" x2="54.1819" y2="77.7144" gradientUnits="userSpaceOnUse">
<stop offset="0.0354" stop-color="#FFA98C"/>
<stop offset="0.3523" stop-color="#FFC698"/>
<stop offset="0.7201" stop-color="#FEE2A4"/>
<stop offset="0.9343" stop-color="#FEECA8"/>
</linearGradient>
<linearGradient id="paint11_linear" x1="49.8529" y1="65.8563" x2="63.2838" y2="79.95" gradientUnits="userSpaceOnUse">
<stop offset="0.0354" stop-color="#FFA98C"/>
<stop offset="0.3523" stop-color="#FFC698"/>
<stop offset="0.7201" stop-color="#FEE2A4"/>
<stop offset="0.9343" stop-color="#FEECA8"/>
</linearGradient>
<linearGradient id="paint12_linear" x1="57.456" y1="80.5109" x2="69.4129" y2="87.5288" gradientUnits="userSpaceOnUse">
<stop offset="0.0354" stop-color="#FFA98C"/>
<stop offset="0.3523" stop-color="#FFC698"/>
<stop offset="0.7201" stop-color="#FEE2A4"/>
<stop offset="0.9343" stop-color="#FEECA8"/>
</linearGradient>
<linearGradient id="paint13_linear" x1="56.6731" y1="84.3994" x2="49.4498" y2="69.6244" gradientUnits="userSpaceOnUse">
<stop stop-color="#2A0C5C"/>
<stop offset="0.6869" stop-color="#5F27BD"/>
<stop offset="1" stop-color="#B4299A"/>
</linearGradient>
<linearGradient id="paint14_linear" x1="49.3077" y1="79.3476" x2="56.4827" y2="79.3476" gradientUnits="userSpaceOnUse">
<stop offset="0.0354" stop-color="#FFA98C"/>
<stop offset="0.3523" stop-color="#FFC698"/>
<stop offset="0.7201" stop-color="#FEE2A4"/>
<stop offset="0.9343" stop-color="#FEECA8"/>
</linearGradient>
<linearGradient id="paint15_linear" x1="48.6242" y1="81.6579" x2="40.8819" y2="92.2897" gradientUnits="userSpaceOnUse">
<stop offset="0.0354" stop-color="#9F19AB"/>
<stop offset="0.2438" stop-color="#AE25B1"/>
<stop offset="0.6455" stop-color="#D744BF"/>
<stop offset="1" stop-color="#FF63CE"/>
</linearGradient>
<linearGradient id="paint16_linear" x1="52.7586" y1="90.5016" x2="50.5671" y2="88.8545" gradientUnits="userSpaceOnUse">
<stop offset="0.0354" stop-color="#9F19AB"/>
<stop offset="0.2438" stop-color="#AE25B1"/>
<stop offset="0.6455" stop-color="#D744BF"/>
<stop offset="1" stop-color="#FF63CE"/>
</linearGradient>
<linearGradient id="paint17_linear" x1="53.6511" y1="88.7287" x2="51.0226" y2="86.7531" gradientUnits="userSpaceOnUse">
<stop offset="0.0354" stop-color="#9F19AB"/>
<stop offset="0.2438" stop-color="#AE25B1"/>
<stop offset="0.6455" stop-color="#D744BF"/>
<stop offset="1" stop-color="#FF63CE"/>
</linearGradient>
<linearGradient id="paint18_linear" x1="53.5118" y1="86.2462" x2="50.7944" y2="84.2038" gradientUnits="userSpaceOnUse">
<stop offset="0.0354" stop-color="#9F19AB"/>
<stop offset="0.2438" stop-color="#AE25B1"/>
<stop offset="0.6455" stop-color="#D744BF"/>
<stop offset="1" stop-color="#FF63CE"/>
</linearGradient>
<linearGradient id="paint19_linear" x1="52.3565" y1="83.4328" x2="49.9117" y2="81.5953" gradientUnits="userSpaceOnUse">
<stop offset="0.0354" stop-color="#9F19AB"/>
<stop offset="0.2438" stop-color="#AE25B1"/>
<stop offset="0.6455" stop-color="#D744BF"/>
<stop offset="1" stop-color="#FF63CE"/>
</linearGradient>
<linearGradient id="paint20_linear" x1="50.3621" y1="80.7167" x2="48.5099" y2="79.3246" gradientUnits="userSpaceOnUse">
<stop offset="0.0354" stop-color="#9F19AB"/>
<stop offset="0.2438" stop-color="#AE25B1"/>
<stop offset="0.6455" stop-color="#D744BF"/>
<stop offset="1" stop-color="#FF63CE"/>
</linearGradient>
<linearGradient id="paint21_linear" x1="47.8357" y1="78.511" x2="46.8059" y2="77.737" gradientUnits="userSpaceOnUse">
<stop offset="0.0354" stop-color="#9F19AB"/>
<stop offset="0.2438" stop-color="#AE25B1"/>
<stop offset="0.6455" stop-color="#D744BF"/>
<stop offset="1" stop-color="#FF63CE"/>
</linearGradient>
<linearGradient id="paint22_linear" x1="47.5195" y1="78.465" x2="44.8454" y2="76.4552" gradientUnits="userSpaceOnUse">
<stop offset="0.0354" stop-color="#9F19AB"/>
<stop offset="0.2438" stop-color="#AE25B1"/>
<stop offset="0.6455" stop-color="#D744BF"/>
<stop offset="1" stop-color="#FF63CE"/>
</linearGradient>
<linearGradient id="paint23_linear" x1="45.4509" y1="78.0386" x2="42.7587" y2="76.015" gradientUnits="userSpaceOnUse">
<stop offset="0.0354" stop-color="#9F19AB"/>
<stop offset="0.2438" stop-color="#AE25B1"/>
<stop offset="0.6455" stop-color="#D744BF"/>
<stop offset="1" stop-color="#FF63CE"/>
</linearGradient>
<linearGradient id="paint24_linear" x1="43.5955" y1="78.5306" x2="41.2426" y2="76.7622" gradientUnits="userSpaceOnUse">
<stop offset="0.0354" stop-color="#9F19AB"/>
<stop offset="0.2438" stop-color="#AE25B1"/>
<stop offset="0.6455" stop-color="#D744BF"/>
<stop offset="1" stop-color="#FF63CE"/>
</linearGradient>
<linearGradient id="paint25_linear" x1="42.2363" y1="79.8661" x2="40.5289" y2="78.5829" gradientUnits="userSpaceOnUse">
<stop offset="0.0354" stop-color="#9F19AB"/>
<stop offset="0.2438" stop-color="#AE25B1"/>
<stop offset="0.6455" stop-color="#D744BF"/>
<stop offset="1" stop-color="#FF63CE"/>
</linearGradient>
<linearGradient id="paint26_linear" x1="40.9185" y1="82.0792" x2="40.4071" y2="81.6948" gradientUnits="userSpaceOnUse">
<stop offset="0.0354" stop-color="#9F19AB"/>
<stop offset="0.2438" stop-color="#AE25B1"/>
<stop offset="0.6455" stop-color="#D744BF"/>
<stop offset="1" stop-color="#FF63CE"/>
</linearGradient>
<linearGradient id="paint27_linear" x1="50.9635" y1="91.2956" x2="49.4904" y2="90.1884" gradientUnits="userSpaceOnUse">
<stop offset="0.0354" stop-color="#9F19AB"/>
<stop offset="0.2438" stop-color="#AE25B1"/>
<stop offset="0.6455" stop-color="#D744BF"/>
<stop offset="1" stop-color="#FF63CE"/>
</linearGradient>
<linearGradient id="paint28_linear" x1="48.4009" y1="91.1816" x2="47.8183" y2="90.7437" gradientUnits="userSpaceOnUse">
<stop offset="0.0354" stop-color="#9F19AB"/>
<stop offset="0.2438" stop-color="#AE25B1"/>
<stop offset="0.6455" stop-color="#D744BF"/>
<stop offset="1" stop-color="#FF63CE"/>
</linearGradient>
<linearGradient id="paint29_linear" x1="55.9939" y1="91.2103" x2="38.0763" y2="77.7434" gradientUnits="userSpaceOnUse">
<stop offset="0.0354" stop-color="#9F19AB"/>
<stop offset="0.2438" stop-color="#AE25B1"/>
<stop offset="0.6455" stop-color="#D744BF"/>
<stop offset="1" stop-color="#FF63CE"/>
</linearGradient>
<linearGradient id="paint30_linear" x1="44.1207" y1="87.8833" x2="49.9977" y2="77.4163" gradientUnits="userSpaceOnUse">
<stop offset="0.0354" stop-color="#9F19AB"/>
<stop offset="0.2438" stop-color="#AE25B1"/>
<stop offset="0.6455" stop-color="#D744BF"/>
<stop offset="1" stop-color="#FF63CE"/>
</linearGradient>
<linearGradient id="paint31_linear" x1="44.0707" y1="87.9612" x2="48.4156" y2="80.2227" gradientUnits="userSpaceOnUse">
<stop offset="0.0354" stop-color="#9F19AB"/>
<stop offset="0.2438" stop-color="#AE25B1"/>
<stop offset="0.6455" stop-color="#D744BF"/>
<stop offset="1" stop-color="#FF63CE"/>
</linearGradient>
</defs>
</svg>
