<svg width="100" height="100" viewBox="0 0 100 100" fill="none" xmlns="http://www.w3.org/2000/svg">
<path d="M79.4727 75.5985L62.6797 65.9525C60.7855 64.8643 59.2499 61.9452 59.2499 59.4324V14.9379C59.2499 13.6601 58.1941 13.3776 58.8337 12.9184C58.8581 12.901 60.3329 12.2345 60.3605 12.2238C61.0489 11.9614 61.7854 11.8446 62.6797 12.3582L79.4727 22.0042C81.3669 23.0923 82.9025 26.0115 82.9025 28.5242V73.0185C82.9025 74.3536 82.4691 75.3056 81.7784 75.7413C81.7376 75.7671 79.9607 76.6077 79.9151 76.6229C79.3032 76.826 80.3009 76.0741 79.4727 75.5985Z" fill="url(#paint0_linear)"/>
<path d="M79.3187 22.0556L62.5258 12.4093C61.6315 11.8955 78.3903 22.3633 78.3903 22.3633C80.2845 23.4514 81.8201 26.3706 81.8201 28.8833C81.8201 28.8833 82.7486 74.405 82.7486 73.0699V28.5756C82.7486 26.0629 81.213 23.1437 79.3187 22.0556Z" fill="url(#paint1_radial)"/>
<path opacity="0.6" d="M78.1701 76.1919L61.3771 66.5459C59.4829 65.4578 57.9473 62.5386 57.9473 60.0259V15.5313C57.9473 13.0186 59.4829 11.8635 61.3771 12.9516L78.1701 22.5976C80.0643 23.6857 81.5999 26.6049 81.5999 29.1177V73.6122C81.5999 76.1249 80.0643 77.28 78.1701 76.1919Z" fill="url(#paint2_radial)"/>
<path d="M77.8702 76.3525L61.0773 66.7065C59.183 65.6184 57.6475 62.6992 57.6475 60.1865V15.692C57.6475 13.1792 59.183 12.0241 61.0773 13.1123L77.8702 22.7583C79.7645 23.8464 81.3001 26.7656 81.3001 29.2783V73.7726C81.3001 76.2856 79.7645 77.4407 77.8702 76.3525Z" fill="url(#paint3_linear)"/>
<path d="M58.1152 60.4824V15.9333C58.1152 13.7305 59.4614 12.7181 61.1219 13.6718L77.8256 23.2667C79.486 24.2204 80.8322 26.7795 80.8322 28.9823V73.5314C80.8322 75.7341 79.486 76.7466 77.8256 75.7929L61.1219 66.198C59.4614 65.2443 58.1152 62.6852 58.1152 60.4824Z" fill="url(#paint4_linear)"/>
<path d="M58.7842 60.7532V16.4295C58.7842 14.5856 59.911 13.7383 61.3008 14.5365L77.6484 23.9268C79.0384 24.7253 80.165 26.8671 80.165 28.711V73.0345C80.165 74.8782 79.0381 75.7258 77.6484 74.9273L61.3008 65.5369C59.9108 64.7389 58.7842 62.5969 58.7842 60.7532Z" fill="url(#paint5_linear)"/>
<path d="M61.4902 15.027C60.1802 14.2744 59.1182 14.877 59.1182 16.3725V61.1944C59.1182 62.69 60.1802 64.5123 61.4902 65.2649L77.4589 74.4378C78.769 75.1904 79.831 74.5878 79.831 73.0923V28.2704C79.831 26.7749 78.769 24.9525 77.4589 24.1999L61.4902 15.027Z" fill="url(#paint6_linear)"/>
<path d="M81.751 39.5734V36.5696C81.751 36.1855 81.9858 35.7394 82.2751 35.573C82.5648 35.4066 82.7995 35.5832 82.7995 35.9673V38.971C82.7995 39.3551 82.5648 39.8012 82.2751 39.9676C81.9858 40.134 81.751 39.9575 81.751 39.5734Z" fill="url(#paint7_linear)"/>
<path d="M82.0669 39.9176C81.9174 39.9176 81.8643 39.7321 81.8643 39.5734V36.5697C81.8643 36.228 82.0784 35.8163 82.3318 35.6708C82.3859 35.64 82.4383 35.6234 82.4831 35.6234C82.6327 35.6234 82.6858 35.8089 82.6858 35.9676V38.9713C82.6858 39.3128 82.4717 39.7244 82.2182 39.8702C82.1641 39.9012 82.1118 39.9176 82.0669 39.9176Z" fill="url(#paint8_linear)"/>
<path d="M82.0188 39.6505V36.6468C82.0188 36.3051 82.2329 35.8935 82.4864 35.7479C82.5342 35.7206 82.5796 35.7067 82.6207 35.7033C82.5888 35.6554 82.5444 35.6234 82.4831 35.6234C82.438 35.6234 82.3859 35.64 82.3318 35.6708C82.0784 35.8163 81.8643 36.228 81.8643 36.5697V39.5734C81.8643 39.7321 81.9174 39.9176 82.0671 39.9176C82.0724 39.9176 82.0789 39.9151 82.0841 39.9146C82.038 39.8462 82.0188 39.7443 82.0188 39.6505Z" fill="url(#paint9_radial)"/>
<path d="M77.4582 24.1996L61.4892 15.027C60.1792 14.2744 59.1172 14.877 59.1172 16.3725V61.1944C59.1172 62.69 60.1792 64.5123 61.4892 65.2649L77.4582 74.4376C78.7682 75.1899 79.8302 74.5876 79.8302 73.092V28.2702C79.8302 26.7746 78.7682 24.952 77.4582 24.1996ZM79.6239 73.092C79.6239 73.5563 79.5142 73.9379 79.3063 74.1955C79.1159 74.4316 78.845 74.5566 78.523 74.5566H78.5227C78.2313 74.5566 77.8989 74.4539 77.5614 74.26L61.5924 65.0871C60.3412 64.3685 59.3236 62.6225 59.3236 61.1944V16.3723C59.3236 15.4692 59.7455 14.908 60.4247 14.908C60.7161 14.908 61.0486 15.0107 61.3863 15.2046L77.3553 24.3774C78.6062 25.0961 79.6241 26.8423 79.6241 28.2702V73.092H79.6239Z" fill="#BCBEC0"/>
<g opacity="0.8">
<path opacity="0.8" d="M73.1892 70.3803L67.4553 62.701L63.9004 55.2255L62.6662 49.2833L59.1172 44.6447V53.326L60.6019 54.7092L62.8683 59.084L62.5817 60.8179L63.4989 62.1959L64.187 61.8056L69.3723 69.7931L73.8641 72.3733L73.1892 70.3803Z" fill="url(#paint10_linear)"/>
<path opacity="0.8" d="M77.1776 33.1295L79.8297 34.6531V34.0802L77.1776 32.5569V24.039L76.6791 23.7525V32.2705L75.0311 31.324L73.4865 27.3351L59.1172 19.0809V19.6538L62.2581 21.458V28.9464L59.1172 27.1421V27.715L62.2581 29.5192V34.6231L59.1172 32.8138V33.3869L62.7566 35.4833V29.8056L73.5157 35.9857V47.316L72.178 46.5475L67.5476 47.9379L59.1172 43.0952V43.668L64.7922 46.9279V54.3766L59.1172 56.89V57.4326L64.9861 54.8333L70.1798 63.6573L65.2732 67.4387L65.7396 67.7065L74.0501 61.301L76.6793 62.7988V73.6956H77.1778V63.0827L79.7894 64.5706L79.8302 64.4997V64.0223L77.178 62.5114V55.2003L79.8302 56.7227V56.1501L77.178 54.6275V49.9916L79.8302 51.5152V50.9423L77.178 49.419V38.089L79.8302 39.6126V39.0398L77.178 37.5162V33.1295H77.1776ZM65.2907 47.214L67.3918 48.4209L67.4853 48.4745L72.1157 47.0841L73.5157 47.8883V52.5257L71.5365 51.3894L65.2907 54.1559V47.214ZM76.6791 62.2275L74.0089 60.7064L70.5771 63.3511L65.4442 54.6305L71.507 51.9454L73.5157 53.0982V53.1136H73.5426L76.6791 54.9139V62.2275ZM76.6791 54.3414L74.0142 52.8116V48.1744L76.6791 49.7052V54.3414ZM76.6791 49.1326L74.0142 47.6019V36.2719L76.6791 37.8026V49.1326ZM76.6791 37.2298L62.7566 29.2326V21.7442L73.0847 27.6768L74.6293 31.6657L76.6791 32.8431V37.2298Z" fill="#6B24D6"/>
<path d="M78.538 74.4564L79.4333 74.0195L71.9582 58.8528V51.142L69.2821 46.1681V19.5035L68.2852 18.9309V46.417L70.9613 51.3909V59.0829L78.538 74.4564Z" fill="#F49587"/>
</g>
<path d="M67.8239 38.7695V40.6615C67.8239 41.248 67.464 41.7752 66.9161 41.9917C65.6236 42.5017 64.1645 42.3706 62.9851 41.6376L57.7475 38.2071C56.7448 37.5839 56.7184 36.1702 57.6298 35.4954V30.1233L55.8879 31.1601C52.2966 33.2974 52.3275 38.4848 55.944 40.5797L61.1083 43.5658C63.3203 44.8471 66.0707 44.7707 68.2072 43.3684C68.7942 42.9833 69.1623 42.3438 69.1992 41.6452L69.2099 39.5531L67.8239 38.7695Z" fill="url(#paint11_linear)"/>
<path d="M67.6822 38.5284V40.6617C67.6822 41.1941 67.361 41.665 66.8635 41.8612C65.6178 42.3537 64.1958 42.225 63.0598 41.519L57.8217 38.0882C57.3631 37.8033 57.0974 37.3123 57.1106 36.7742C57.1213 36.3432 57.312 35.9529 57.6295 35.6794V35.3283C57.1415 35.6504 56.8432 36.1768 56.8287 36.7673C56.8128 37.4053 57.1281 37.9881 57.6717 38.3258L62.9097 41.7565C64.1221 42.5099 65.6392 42.6463 66.9677 42.1221C67.5731 41.883 67.9644 41.3097 67.9644 40.6615V39.011L69.068 39.6346L69.0581 41.638C69.0237 42.2892 68.6765 42.8925 68.1291 43.2516C66.023 44.6336 63.3601 44.7077 61.1778 43.444L56.0147 40.4584C54.3597 39.4995 53.365 37.7897 53.3535 35.8845C53.3423 33.9795 54.3164 32.2581 55.9599 31.2801L57.6293 30.2867V29.9596L55.8148 31.0393C54.0848 32.0689 53.0594 33.8808 53.0714 35.8862C53.0834 37.8916 54.1304 39.6917 55.8736 40.7012L61.0367 43.6868C62.1164 44.3122 63.3095 44.6234 64.5002 44.6234C65.8172 44.6234 67.1309 44.2425 68.2849 43.4854C68.9063 43.0775 69.3008 42.3924 69.3402 41.6459L69.3514 39.4715L67.6822 38.5284Z" fill="#BB8CFF"/>
<path d="M65.3864 43.2504L65.3627 42.9707C65.7293 42.9399 66.093 42.8737 66.4439 42.7735L66.5217 43.0433C66.1531 43.1487 65.7715 43.2184 65.3864 43.2504ZM64.2316 43.2352C63.8483 43.1931 63.4682 43.1132 63.1021 42.9982L63.1871 42.7306C63.5358 42.84 63.8979 42.9159 64.2628 42.9563L64.2316 43.2352ZM67.5949 42.6198L67.4653 42.3703C67.6096 42.2959 67.7527 42.2141 67.8898 42.1273C68.0493 42.0266 68.1879 41.891 68.2908 41.735L68.5266 41.889C68.4017 42.0779 68.234 42.2424 68.0411 42.3641C67.8973 42.4554 67.7472 42.5412 67.5949 42.6198ZM62.0411 42.5461L61.0516 42.0038L61.1876 41.7581L62.1759 42.2999L62.0411 42.5461ZM60.0631 41.462L59.0743 40.9199L59.2104 40.6742L60.1992 41.2162L60.0631 41.462ZM57.8269 40.2275L57.4834 40.0391C57.2611 39.9151 57.049 39.7738 56.8526 39.6185L57.0285 39.3986C57.2132 39.5446 57.4121 39.6778 57.6205 39.7936L57.963 39.9816L57.8269 40.2275ZM56.0443 38.788C55.8117 38.4763 55.6228 38.1351 55.4827 37.7743L55.7462 37.6734C55.877 38.0104 56.0535 38.3293 56.2708 38.6207L56.0443 38.788ZM55.2143 36.648C55.2013 36.5153 55.1941 36.3807 55.1934 36.2453C55.1931 35.9753 55.2136 35.731 55.2539 35.4922L55.5323 35.5388C55.4947 35.7622 55.4753 35.9909 55.4753 36.2185C55.4763 36.3703 55.483 36.4963 55.4954 36.6207L55.2143 36.648ZM55.8563 34.5065L55.6011 34.387C55.7656 34.0386 55.9782 33.7112 56.2322 33.4154L56.4466 33.5974C56.209 33.8747 56.0104 34.1804 55.8563 34.5065Z" fill="url(#paint12_radial)"/>
<path d="M85.4258 50.3054L82.9872 48.326V54.9733C86.9509 58.3448 87.4845 64.2602 84.1654 68.2797C78.4906 75.1516 68.6406 76.907 60.9213 72.4221L32.2726 55.7772L17.1074 64.7182L48.6625 82.7828C61.8956 90.3584 78.7384 86.8183 87.761 74.5649L88.4257 73.662C93.8303 66.3224 92.5118 56.0572 85.4258 50.3054Z" fill="url(#paint13_linear)"/>
<path d="M85.5832 50.1133L83.0598 48.0653L83.0287 48.1035V48.6798L85.2684 50.4975C92.2544 56.1684 93.553 66.2794 88.2246 73.5158L87.5599 74.4187C78.5989 86.5886 61.9301 90.0922 48.787 82.5682L17.602 64.7154L32.2734 56.0653L60.7955 72.6365C68.6633 77.2084 78.5732 75.4423 84.3577 68.4373C87.7743 64.2998 87.193 58.1413 83.0621 54.7088L83.0287 54.7488V55.3397C86.6881 58.6402 87.135 64.2931 83.9726 68.1226C78.3439 74.9379 68.7025 76.6559 61.0467 72.2085L32.3981 55.5636L32.2714 55.49L16.6133 64.7218L48.5383 82.9984C53.2774 85.711 58.4666 87.0141 63.598 87.0139C72.9366 87.0139 82.0816 82.6981 87.9622 74.7118L88.6269 73.8089C94.1118 66.3595 92.7748 55.9509 85.5832 50.1133Z" fill="#BB8CFF"/>
<path d="M30.4501 64.1207L29.5859 63.626L29.8347 63.196L30.6988 63.6908L30.4501 64.1207Z" fill="url(#paint14_radial)"/>
<path d="M67.4151 80.9983L67.3966 80.5029C68.0374 80.479 68.6867 80.4287 69.326 80.3533L69.3843 80.8458C68.7318 80.9227 68.0693 80.974 67.4151 80.9983ZM65.4393 80.9919C64.7838 80.9631 64.1218 80.9073 63.4718 80.8262L63.5336 80.3342C64.1707 80.4136 64.8192 80.4684 65.4613 80.4964L65.4393 80.9919ZM71.3354 80.5356L71.2369 80.0493C71.867 79.9228 72.4994 79.7698 73.117 79.594L73.2543 80.0706C72.6242 80.2502 71.9785 80.4064 71.3354 80.5356ZM61.5237 80.5033C60.8814 80.3704 60.2369 80.2095 59.608 80.0257L59.7486 79.5501C60.3645 79.7302 60.9958 79.8874 61.6252 80.0181L61.5237 80.5033ZM75.1294 79.4549L74.9542 78.9904C75.5566 78.7658 76.1565 78.5143 76.7372 78.243L76.9491 78.6921C76.3564 78.9689 75.744 79.2255 75.1294 79.4549ZM57.7372 79.3969C57.1253 79.164 56.5149 78.9029 55.923 78.6212L56.1381 78.1736C56.7181 78.4496 57.316 78.7055 57.9154 78.9339L57.7372 79.3969ZM78.7023 77.7883L78.4555 77.3573C79.0151 77.0401 79.5671 76.6972 80.0965 76.3383L80.3774 76.748C79.8366 77.1143 79.273 77.4644 78.7023 77.7883ZM54.1778 77.7039L52.4829 76.7339L52.7317 76.3039L54.4265 77.274L54.1778 77.7039ZM50.7881 75.7633L49.0933 74.7932L49.342 74.3632L51.0368 75.3333L50.7881 75.7633ZM81.9629 75.578L81.6503 75.1915C82.1498 74.7915 82.6398 74.3654 83.1069 73.9255L83.4496 74.2858C82.9728 74.7349 82.4726 75.1696 81.9629 75.578ZM47.3987 73.8229L45.7038 72.8528L45.9525 72.4228L47.6474 73.3929L47.3987 73.8229ZM84.8269 72.8788L84.456 72.5475C84.8855 72.0719 85.3005 71.573 85.6888 71.0651L86.0856 71.3654C85.6888 71.884 85.2651 72.3933 84.8269 72.8788ZM44.009 71.8825L42.3141 70.9124L42.5628 70.4824L44.2577 71.4525L44.009 71.8825ZM40.6193 69.9421L38.9247 68.972L39.1734 68.542L40.868 69.5121L40.6193 69.9421ZM87.2077 69.7806L86.8029 69.5093C87.1531 68.9923 87.4656 68.4468 87.7328 67.8876L88.1737 68.0959C87.8966 68.6769 87.5713 69.2438 87.2077 69.7806ZM37.2301 68.0016L35.5352 67.0316L35.7839 66.6016L37.4788 67.5717L37.2301 68.0016ZM88.8036 66.2857L88.346 66.1488C88.5217 65.5675 88.6545 64.9674 88.741 64.3646L89.2141 64.4315C89.1241 65.0577 88.986 65.6816 88.8036 66.2857ZM33.8404 66.061L32.1455 65.0909L32.3942 64.6609L34.0891 65.631L33.8404 66.061ZM88.8624 62.5412C88.8572 61.9334 88.8058 61.3209 88.7094 60.7201L89.1812 60.6454C89.2811 61.2693 89.3349 61.9059 89.3402 62.537L88.8624 62.5412ZM88.2854 58.9426C88.1004 58.3636 87.8697 57.7937 87.5995 57.2482L88.0279 57.0379C88.3088 57.6048 88.5486 58.1972 88.7408 58.7988L88.2854 58.9426ZM86.6651 55.6755C86.3555 55.2344 86.0123 54.8088 85.6452 54.4106L85.5043 54.2873L85.8226 53.9327L85.9802 54.0726C86.3787 54.5026 86.7354 54.945 87.0571 55.4035L86.6651 55.6755Z" fill="url(#paint15_radial)"/>
<path d="M84.7074 53.4612L84.0713 52.8963L84.0459 52.2872L84.9913 53.1447L84.7074 53.4612Z" fill="url(#paint16_radial)"/>
<path d="M53.8853 64.9067L53.9693 66.2014C53.9818 66.3951 54.1971 66.5062 54.3634 66.4045L55.1871 65.9016C55.2741 65.8485 55.3217 65.7496 55.3085 65.6489L55.1412 64.3599C55.1166 64.1697 54.8992 64.072 54.7392 64.1792L53.9987 64.6766C53.9227 64.7277 53.8793 64.8155 53.8853 64.9067Z" fill="url(#paint17_radial)"/>
<path d="M54.1109 66.3825L54.0269 65.0879C54.0209 64.9966 54.0643 64.9088 54.1405 64.8575L54.881 64.3601C54.9623 64.3055 55.0585 64.3043 55.1365 64.3412C55.0999 64.1639 54.8937 64.0756 54.7395 64.1793L53.999 64.6767C53.9227 64.7281 53.8793 64.8156 53.8853 64.9071L53.9693 66.2018C53.9758 66.3022 54.0371 66.3796 54.1176 66.4175C54.1156 66.4056 54.1116 66.3947 54.1109 66.3825Z" fill="url(#paint18_radial)"/>
<path opacity="0.2" d="M18.337 64.525L42.3221 78.3072C45.4755 80.0976 49.347 80.0882 52.4917 78.2829L56.8046 75.8066C57.242 75.5554 57.2425 74.9275 56.8056 74.6756L28.1883 58.0622C27.9842 57.9447 27.7325 57.9449 27.5286 58.063L18.3318 63.3929C17.8949 63.6464 17.8979 64.2755 18.337 64.525Z" fill="black"/>
<path d="M41.242 75.002L44.626 73.0454L41.085 72.4049L41.242 75.002Z" fill="#58595B"/>
<path d="M22.1111 64.2627L25.4951 62.3064L21.9541 61.6656L22.1111 64.2627Z" fill="#58595B"/>
<path d="M27.5108 65.7979C27.5108 66.4262 27.2929 66.8714 26.9385 67.0869C26.9278 67.0933 25.8191 67.7318 25.8082 67.7378C25.4395 67.9429 25.6753 67.4774 25.1153 67.1558C23.9885 66.5086 23.075 64.9409 23.075 63.6544C23.075 63.0183 22.4838 63.0131 22.8459 62.8006C22.8559 62.7946 24.0358 62.1452 24.046 62.1395C24.4137 61.9414 24.9161 61.9778 25.4702 62.2962C26.5973 62.9439 27.5108 64.5114 27.5108 65.7979Z" fill="url(#paint19_linear)"/>
<path d="M26.3286 66.4653C26.3286 67.7518 25.4152 68.2698 24.2883 67.6226C23.1615 66.9753 22.248 65.4076 22.248 64.1211C22.248 62.8346 23.1615 62.3166 24.2883 62.9638C25.4152 63.6113 26.3286 65.1788 26.3286 66.4653Z" fill="url(#paint20_linear)"/>
<path d="M24.3862 62.9152C23.8461 62.605 23.3554 62.5631 22.9902 62.7446C23.3305 62.6499 23.7527 62.7206 24.21 62.9834C25.3368 63.6306 26.2503 65.1983 26.2503 66.4848C26.2503 67.1546 26.0023 67.6156 25.606 67.8127C26.1043 67.6741 26.4268 67.1811 26.4268 66.4166C26.4265 65.1301 25.5131 63.5624 24.3862 62.9152Z" fill="url(#paint21_radial)"/>
<path d="M24.3564 63.533C23.4885 63.0346 22.7852 63.4336 22.7852 64.4243C22.7852 65.4149 23.4888 66.6221 24.3564 67.1208C25.2242 67.6192 25.9276 67.2202 25.9276 66.2295C25.9276 65.2386 25.224 64.0315 24.3564 63.533ZM24.9563 65.5082L25.4438 65.4668C25.5169 65.4606 25.6113 65.5575 25.6335 65.6632C25.6637 65.807 25.6799 65.9496 25.6799 66.0872C25.6799 66.2248 25.6637 66.3486 25.6335 66.4579C25.6113 66.538 25.5171 66.5266 25.4438 66.4366L24.9563 65.8353C24.9144 65.7837 24.8878 65.7167 24.8903 65.6629C24.8908 65.6535 24.8908 65.6441 24.8908 65.6341C24.8908 65.6242 24.8905 65.6146 24.8903 65.6046C24.888 65.5478 24.9144 65.5116 24.9563 65.5082ZM25.2674 65.0177L24.7801 65.0591C24.7382 65.0626 24.6859 65.033 24.6455 64.9797C24.6315 64.9614 24.6171 64.9435 24.6021 64.9262C24.5588 64.8753 24.5326 64.8079 24.5326 64.7518V64.1111C24.5326 64.0136 24.6133 63.9893 24.6958 64.0617C24.9266 64.2641 25.1328 64.5215 25.296 64.8029C25.3551 64.9051 25.3404 65.0115 25.2674 65.0177ZM24.1802 63.9085V64.5495C24.1802 64.6055 24.154 64.643 24.1106 64.6437C24.0957 64.644 24.0812 64.6452 24.0673 64.6474C24.0266 64.6539 23.9743 64.6236 23.9327 64.5721L23.4454 63.971C23.3724 63.8807 23.3577 63.7577 23.417 63.7235C23.5802 63.6295 23.7864 63.6087 24.0172 63.6717C24.0994 63.694 24.1802 63.811 24.1802 63.9085ZM23.2687 64.2175L23.7562 64.8188C23.7981 64.8704 23.8247 64.9373 23.8223 64.9911C23.8218 65.0006 23.8215 65.0102 23.8215 65.0199C23.8215 65.0296 23.8218 65.0395 23.8223 65.0494C23.8245 65.106 23.7981 65.1422 23.7562 65.1459L23.2687 65.1873C23.1957 65.1935 23.1012 65.0965 23.079 64.9909C23.0489 64.8468 23.0327 64.7045 23.0327 64.5669C23.0327 64.4292 23.0489 64.3055 23.079 64.1961C23.1014 64.1158 23.1957 64.1272 23.2687 64.2175ZM23.4452 65.6361L23.9324 65.5947C23.9743 65.5912 24.0266 65.6208 24.067 65.6741C24.081 65.6924 24.0954 65.7103 24.1104 65.7276C24.1537 65.7785 24.1799 65.8459 24.1799 65.902V66.543C24.1799 66.6402 24.0992 66.6645 24.0167 66.5923C23.7859 66.39 23.5797 66.1326 23.4165 65.8511C23.3574 65.7485 23.3721 65.6423 23.4452 65.6361ZM24.5323 66.7451V66.1041C24.5323 66.0483 24.5585 66.0106 24.6019 66.0098C24.6168 66.0096 24.6313 66.0083 24.6453 66.0061C24.6859 65.9997 24.7382 66.0299 24.7798 66.0815L25.2671 66.6826C25.3401 66.7728 25.3548 66.8958 25.2955 66.9301C25.1323 67.024 24.9264 67.0449 24.6954 66.9819C24.6131 66.9596 24.5323 66.8425 24.5323 66.7451Z" fill="url(#paint22_linear)"/>
<path d="M24.2578 63.5719C23.3899 63.0734 22.6865 63.4724 22.6865 64.4631C22.6865 65.4538 23.3899 66.6609 24.2578 67.1596C25.1256 67.658 25.829 67.259 25.829 66.2684C25.829 65.2774 25.1254 64.0703 24.2578 63.5719ZM24.8577 65.547L25.3452 65.5056C25.4182 65.4994 25.5127 65.5963 25.5349 65.702C25.565 65.8461 25.5812 65.9884 25.5812 66.126C25.5812 66.2636 25.565 66.3874 25.5349 66.4967C25.5127 66.5768 25.4185 66.5654 25.3452 66.4754L24.8577 65.8741C24.8158 65.8225 24.7891 65.7555 24.7916 65.7017C24.7921 65.6923 24.7924 65.6826 24.7924 65.673C24.7924 65.6633 24.7921 65.6534 24.7916 65.6434C24.7894 65.5869 24.8158 65.5505 24.8577 65.547ZM25.1687 65.0565L24.6815 65.0979C24.6396 65.1014 24.5873 65.0719 24.5469 65.0186C24.5329 65.0002 24.5185 64.9823 24.5035 64.965C24.4601 64.9144 24.434 64.8467 24.434 64.7907V64.1499C24.434 64.0524 24.5147 64.0284 24.5972 64.1005C24.828 64.3029 25.0341 64.5603 25.1974 64.8417C25.2565 64.9439 25.2418 65.0503 25.1687 65.0565ZM24.0815 63.9473V64.5883C24.0815 64.6441 24.0554 64.6818 24.012 64.6825C23.997 64.6828 23.9826 64.684 23.9686 64.6863C23.928 64.6927 23.8757 64.6625 23.834 64.6109L23.3468 64.0098C23.2737 63.9195 23.259 63.7965 23.3184 63.7621C23.4816 63.6681 23.6877 63.6472 23.9185 63.7102C24.0008 63.7328 24.0815 63.8501 24.0815 63.9473ZM23.1701 64.2563L23.6576 64.8576C23.6994 64.9092 23.7259 64.9761 23.7236 65.03C23.7231 65.0394 23.7229 65.0491 23.7229 65.0587C23.7229 65.0684 23.7231 65.0783 23.7236 65.0882C23.7259 65.1448 23.6994 65.1812 23.6576 65.1847L23.1701 65.2261C23.097 65.2323 23.0026 65.1354 22.9804 65.0297C22.9502 64.8856 22.934 64.7433 22.934 64.6057C22.934 64.468 22.9502 64.3443 22.9804 64.2349C23.0028 64.1546 23.097 64.166 23.1701 64.2563ZM23.3468 65.6749L23.834 65.6335C23.8759 65.6301 23.9283 65.6596 23.9686 65.7129C23.9826 65.7312 23.997 65.7491 24.012 65.7664C24.0554 65.8173 24.0815 65.885 24.0815 65.9408V66.5818C24.0815 66.679 24.0008 66.7033 23.9183 66.6311C23.6875 66.4288 23.4814 66.1714 23.3181 65.8899C23.2588 65.7873 23.2735 65.6811 23.3468 65.6749ZM24.4337 66.7841V66.1434C24.4337 66.0873 24.4599 66.0499 24.5033 66.0491C24.5182 66.0489 24.5327 66.0476 24.5466 66.0454C24.5872 66.039 24.6396 66.0692 24.6812 66.1208L25.1685 66.7219C25.2415 66.8122 25.2562 66.9352 25.1969 66.9694C25.0336 67.0634 24.8275 67.0842 24.5967 67.0212C24.5145 66.9984 24.4337 66.8813 24.4337 66.7841Z" fill="url(#paint23_linear)"/>
<path d="M46.8669 76.8396C46.8669 77.468 46.6491 77.9131 46.2947 78.1286C46.284 78.135 45.1753 78.7736 45.1644 78.7795C44.7957 78.9846 45.0315 78.5192 44.4717 78.1975C43.3449 77.5503 42.4314 75.9826 42.4314 74.6961C42.4314 74.0601 41.8402 74.0548 42.2024 73.8423C42.2123 73.8364 43.3923 73.1869 43.4025 73.1812C43.7701 72.9831 44.2726 73.0196 44.8266 73.338C45.9535 73.9857 46.8669 75.5534 46.8669 76.8396Z" fill="url(#paint24_linear)"/>
<path d="M45.6861 77.5068C45.6861 78.7933 44.7726 79.3113 43.6458 78.6641C42.5189 78.0169 41.6055 76.4492 41.6055 75.1627C41.6055 73.8762 42.5189 73.3581 43.6458 74.0053C44.7726 74.6528 45.6861 76.2203 45.6861 77.5068Z" fill="url(#paint25_linear)"/>
<path d="M43.7437 73.957C43.2036 73.6467 42.7128 73.6048 42.3477 73.7864C42.6879 73.6916 43.1101 73.7623 43.5675 74.0252C44.6943 74.6724 45.6078 76.2401 45.6078 77.5266C45.6078 78.1964 45.3598 78.6573 44.9635 78.8545C45.4617 78.7159 45.784 78.2229 45.784 77.4584C45.784 76.1719 44.8705 74.6044 43.7437 73.957Z" fill="url(#paint26_radial)"/>
<path d="M43.7138 74.5747C42.8459 74.0762 42.1426 74.4752 42.1426 75.4659C42.1426 76.4566 42.8462 77.6639 43.7138 78.1624C44.5817 78.6608 45.285 78.2618 45.285 77.2712C45.285 76.2802 44.5814 75.0731 43.7138 74.5747ZM44.3137 76.5498L44.8013 76.5084C44.8743 76.5022 44.9687 76.5991 44.9909 76.7048C45.0211 76.8489 45.0373 76.9912 45.0373 77.1288C45.0373 77.2664 45.0211 77.3902 44.9909 77.4995C44.9687 77.5796 44.8745 77.5682 44.8013 77.478L44.3137 76.8766C44.2719 76.825 44.2452 76.7581 44.2477 76.7043C44.2482 76.6949 44.2482 76.6852 44.2482 76.6755C44.2482 76.6658 44.2479 76.6559 44.2477 76.646C44.2454 76.5897 44.2719 76.5533 44.3137 76.5498ZM44.6248 76.0593L44.1375 76.1007C44.0956 76.1042 44.0433 76.0747 44.0027 76.0214C43.9887 76.003 43.9743 75.9852 43.9593 75.9678C43.9159 75.917 43.8898 75.8493 43.8898 75.7935V75.1525C43.8898 75.0552 43.9705 75.0309 44.053 75.1031C44.2838 75.3055 44.4899 75.5629 44.6532 75.8443C44.7125 75.9467 44.6978 76.0531 44.6248 76.0593ZM43.5376 74.9501V75.5911C43.5376 75.6469 43.5114 75.6846 43.4681 75.6854C43.4531 75.6856 43.4386 75.6868 43.4247 75.6891C43.3841 75.6955 43.3317 75.6653 43.2901 75.6137L42.8028 75.0126C42.7298 74.9223 42.7151 74.7993 42.7744 74.7651C42.9377 74.6711 43.1438 74.6503 43.3746 74.7133C43.4568 74.7356 43.5376 74.8527 43.5376 74.9501ZM42.6261 75.2591L43.1136 75.8604C43.1555 75.912 43.1819 75.979 43.1797 76.0328C43.1792 76.0422 43.1789 76.0516 43.1789 76.0615C43.1789 76.0712 43.1792 76.0811 43.1797 76.091C43.1819 76.1476 43.1555 76.184 43.1136 76.1875L42.6261 76.2289C42.5531 76.2351 42.4586 76.1382 42.4364 76.0325C42.4063 75.8887 42.3901 75.7461 42.3901 75.6085C42.3901 75.4709 42.4063 75.3471 42.4364 75.2378C42.4589 75.1574 42.5531 75.1688 42.6261 75.2591ZM42.8026 76.6777L43.2898 76.6366C43.3317 76.6331 43.3841 76.6626 43.4244 76.7159C43.4384 76.7343 43.4529 76.7521 43.4678 76.7695C43.5112 76.8201 43.5373 76.8878 43.5373 76.9438V77.5849C43.5373 77.6823 43.4566 77.7064 43.3741 77.6342C43.1433 77.4319 42.9372 77.1744 42.7739 76.893C42.7148 76.7901 42.7295 76.6839 42.8026 76.6777ZM43.8898 77.787V77.1459C43.8898 77.0901 43.9159 77.0524 43.9593 77.0517C43.9743 77.0514 43.9887 77.0502 44.0027 77.048C44.0433 77.0415 44.0956 77.0718 44.1373 77.1234L44.6245 77.7245C44.6976 77.8147 44.7123 77.9377 44.653 77.9719C44.4897 78.0659 44.2836 78.0868 44.0528 78.0238C43.9705 78.0014 43.8898 77.8842 43.8898 77.787Z" fill="url(#paint27_linear)"/>
<path d="M43.6152 74.6134C42.7473 74.1149 42.0439 74.5139 42.0439 75.5046C42.0439 76.4953 42.7476 77.7024 43.6152 78.2011C44.483 78.6995 45.1864 78.3005 45.1864 77.3099C45.1864 76.3192 44.4828 75.1118 43.6152 74.6134ZM44.2151 76.5885L44.7026 76.5471C44.7756 76.5409 44.8701 76.6378 44.8923 76.7435C44.9224 76.8876 44.9386 77.0299 44.9386 77.1675C44.9386 77.3051 44.9224 77.4289 44.8923 77.5382C44.8701 77.6183 44.7759 77.6069 44.7026 77.5169L44.2151 76.9156C44.1732 76.864 44.1468 76.797 44.149 76.7432C44.1495 76.7338 44.1498 76.7241 44.1498 76.7145C44.1498 76.7048 44.1495 76.6949 44.149 76.6849C44.1468 76.6284 44.1732 76.592 44.2151 76.5885ZM44.5261 76.098L44.0389 76.1392C43.997 76.1426 43.9447 76.1131 43.9043 76.0598C43.8903 76.0415 43.8759 76.0236 43.8609 76.0062C43.8175 75.9554 43.7914 75.8877 43.7914 75.8319V75.1909C43.7914 75.0934 43.8721 75.0694 43.9546 75.1415C44.1854 75.3439 44.3916 75.6013 44.5548 75.8828C44.6139 75.9854 44.5992 76.0918 44.5261 76.098ZM43.439 74.9888V75.6296C43.439 75.6856 43.4128 75.7231 43.3694 75.7238C43.3545 75.724 43.34 75.7253 43.326 75.7275C43.2854 75.734 43.2331 75.7037 43.1915 75.6521L42.7042 75.051C42.6312 74.9608 42.6164 74.8378 42.6758 74.8036C42.839 74.7096 43.0449 74.6887 43.2759 74.7517C43.3582 74.7743 43.439 74.8916 43.439 74.9888ZM42.5277 75.2978L43.0152 75.8991C43.0571 75.9507 43.0835 76.0176 43.0813 76.0715C43.0808 76.0809 43.0808 76.0903 43.0808 76.1002C43.0808 76.1099 43.081 76.1198 43.0813 76.1297C43.0835 76.1863 43.0571 76.2227 43.0152 76.2262L42.5277 76.2676C42.4547 76.2738 42.3602 76.1769 42.338 76.0712C42.3079 75.9271 42.2917 75.7848 42.2917 75.6472C42.2917 75.5095 42.3079 75.3858 42.338 75.2764C42.3602 75.1961 42.4544 75.2078 42.5277 75.2978ZM42.7039 76.7164L43.1912 76.675C43.2331 76.6716 43.2854 76.7011 43.3258 76.7544C43.3398 76.7727 43.3542 76.7906 43.3692 76.8079C43.4125 76.8588 43.4387 76.9262 43.4387 76.9823V77.6233C43.4387 77.7205 43.3579 77.745 43.2754 77.6726C43.0446 77.4703 42.8385 77.2129 42.6753 76.9314C42.6162 76.8288 42.6309 76.7226 42.7039 76.7164ZM43.7911 77.8256V77.1846C43.7911 77.1288 43.8173 77.0911 43.8607 77.0904C43.8756 77.0901 43.8901 77.0889 43.904 77.0867C43.9447 77.0802 43.997 77.1105 44.0386 77.1621L44.5259 77.7632C44.5989 77.8534 44.6136 77.9764 44.5543 78.0109C44.3911 78.1049 44.1852 78.1257 43.9541 78.0627C43.8719 78.0401 43.7911 77.9228 43.7911 77.8256Z" fill="url(#paint28_linear)"/>
<path d="M56.8892 70.3312L49.0241 58.2305C48.9104 58.0564 48.7566 57.9116 48.5757 57.8079L27.6037 45.7945C27.2046 45.5659 26.7146 45.5607 26.3106 45.7806L20.3966 49.0021C20.1252 49.1499 19.9145 49.3879 19.8016 49.6743L17.9951 53.5018C17.9378 53.6469 17.9071 53.8009 17.9042 53.9566L17.7678 61.0133C17.7586 61.4953 18.0153 61.9439 18.437 62.1815L22.1373 64.2677C22.1031 64.0678 22.0842 63.8705 22.0842 63.6785C22.0842 62.2227 23.1178 61.6364 24.3932 62.3687C25.6683 63.1012 26.7022 64.8752 26.7022 66.3309C26.7022 66.5057 26.687 66.6674 26.6585 66.8164L41.2425 75.0013C41.2335 74.9021 41.2283 74.8037 41.2283 74.707C41.2283 73.2511 42.2619 72.6649 43.5373 73.3972C44.8124 74.1297 45.8462 75.9037 45.8462 77.3593C45.8462 77.4394 45.8425 77.5166 45.8365 77.5912L46.7006 78.0785C47.0812 78.2932 47.5443 78.3061 47.9366 78.1134L56.3675 73.9695C56.8179 73.7481 57.103 73.2916 57.103 72.7916V71.0471C57.1025 70.7929 57.0285 70.5445 56.8892 70.3312Z" fill="url(#paint29_radial)"/>
<path d="M47.3492 74.5046L46.1974 70.9965L41.4401 62.0238C41.2602 61.656 40.9731 61.351 40.6161 61.1481L19.9933 49.3435C19.9143 49.4434 19.849 49.5543 19.8016 49.6743L17.9951 53.5018C17.9378 53.6469 17.9071 53.8009 17.9042 53.9566L17.7678 61.0133C17.7586 61.4953 18.0153 61.9439 18.437 62.1815L22.1373 64.2677C22.1031 64.0678 22.0842 63.8704 22.0842 63.6785C22.0842 62.2226 23.1178 61.6364 24.3932 62.3687C25.6683 63.1012 26.7022 64.8752 26.7022 66.3308C26.7022 66.5057 26.687 66.6673 26.6586 66.8164L41.2425 75.0013C41.2335 74.9021 41.2283 74.8037 41.2283 74.707C41.2283 73.2511 42.2619 72.6649 43.5373 73.3972C44.8124 74.1297 45.8462 75.9037 45.8462 77.3593C45.8462 77.4394 45.8425 77.5165 45.8365 77.5912L46.7006 78.0785C46.9713 78.2312 47.2836 78.2798 47.5825 78.227V75.4834C47.5817 75.1439 47.502 74.8086 47.3492 74.5046Z" fill="#E6E7E8"/>
<path d="M47.6127 74.4754L46.4609 70.9673L41.7036 61.9946C41.5237 61.6268 41.2366 61.3218 40.8797 61.119L20.2568 49.3143C20.1865 49.4034 20.3012 49.4616 20.2556 49.5668L40.6728 61.2539C41.0297 61.4567 41.3168 61.7617 41.4968 62.1295L46.2541 71.1022L47.4058 74.6103C47.5586 74.9144 47.6381 75.2496 47.6381 75.5896V78.1698C47.7645 78.1837 47.7191 78.2204 47.845 78.1983V75.4547C47.845 75.1147 47.7655 74.7795 47.6127 74.4754Z" fill="url(#paint30_radial)"/>
<path d="M44.6034 65.4119L46.6133 64.6871C47.9253 64.2139 49.1605 63.5521 50.2796 62.7229L50.8115 62.3288C51.0463 62.155 51.3795 62.2125 51.5415 62.4551L54.3101 66.6022C54.4656 66.8351 54.4026 67.1492 54.169 67.305L52.7576 68.2463C51.6647 68.9751 50.4855 69.567 49.2468 70.0086L47.0352 70.797C46.7872 70.8852 46.5126 70.7717 46.4009 70.5344L44.3147 66.1048C44.1879 65.8345 44.3212 65.5138 44.6034 65.4119Z" fill="#10054D"/>
<path d="M44.8891 65.518L46.8043 64.8274C48.0543 64.3765 49.2312 63.7459 50.2977 62.9559L50.8044 62.5805C51.028 62.4148 51.3458 62.4696 51.5001 62.7007L54.1378 66.6522C54.2858 66.8742 54.226 67.1735 54.0034 67.3217L52.6585 68.2187C51.6172 68.9133 50.4936 69.4772 49.3134 69.898L47.2063 70.6491C46.9701 70.7334 46.7084 70.625 46.6019 70.3989L44.6142 66.1783C44.4933 65.9207 44.6205 65.6152 44.8891 65.518Z" fill="url(#paint31_linear)"/>
<path d="M40.1837 64.2674L40.3009 68.1599C40.3039 68.2581 40.3577 68.3476 40.4434 68.3962L45.1442 71.0741V70.4142L42.7445 65.1735L40.6032 64.0115C40.4106 63.9071 40.177 64.0497 40.1837 64.2674Z" fill="#10054D"/>
<path d="M40.4336 64.1639L40.5522 68.1082L43.9683 70.0754L43.8759 68.1239L42.6698 65.3775L40.4336 64.1639Z" fill="url(#paint32_linear)"/>
<path d="M45.6221 75.9668L47.3416 76.8833C47.9697 77.1836 48.6955 77.2079 49.3425 76.95L50.6505 76.4288C52.6883 75.6169 54.5751 74.3554 56.3525 73.2103L57.1797 72.5502L57.4439 72.5683L57.4058 74.3145L57.1421 74.5737C54.8166 76.4117 52.1717 77.8092 49.3388 78.697C48.6927 78.8993 47.9914 78.8307 47.3974 78.5068L45.7392 77.5387L45.6221 75.9668Z" fill="url(#paint33_linear)"/>
<path d="M47.2157 75.156C47.6631 75.4285 48.2184 75.4588 48.6932 75.2361C49.0987 75.0459 49.5793 75.2599 49.7069 75.6877L49.9387 76.4648L48.7373 76.9372C48.3363 77.0949 47.8872 77.08 47.4973 76.8963L47.1621 76.7381L47.2157 75.156Z" fill="url(#paint34_linear)"/>
<path d="M47.2149 75.156C47.6623 75.4285 48.2176 75.4588 48.6924 75.2361C49.0979 75.0459 49.5785 75.2599 49.7061 75.6877L49.9379 76.4648L48.5481 76.4003C47.1875 76.1186 47.2149 75.156 47.2149 75.156Z" fill="url(#paint35_linear)"/>
<path d="M56.2966 72.0325L56.1904 73.1665C56.1904 73.1665 57.166 72.5647 57.2245 72.3319C57.2831 72.099 57.1859 70.6704 57.1859 70.6704L56.9045 71.0096C56.5586 71.2435 56.3355 71.6184 56.2966 72.0325Z" fill="url(#paint36_linear)"/>
<path d="M56.2966 72.0325L56.1904 73.1665C56.1904 73.1665 56.8148 72.1136 56.8734 71.8805C56.9319 71.6477 57.1859 70.6704 57.1859 70.6704L56.9045 71.0096C56.5586 71.2435 56.3355 71.6184 56.2966 72.0325Z" fill="url(#paint37_linear)"/>
<path d="M54.3102 66.6025L54.0321 66.1859C54.0104 66.3416 53.9269 66.4879 53.7853 66.5822L52.1982 67.6405C50.9691 68.4601 49.6434 69.1257 48.2504 69.6221L46.2988 70.3179L46.4008 70.5347C46.5124 70.772 46.7873 70.8856 47.0351 70.7973L49.2464 70.009C50.4851 69.5673 51.6643 68.9754 52.7572 68.2466L54.1687 67.3053C54.4027 67.1495 54.4658 66.8354 54.3102 66.6025Z" fill="#10054D"/>
<path d="M44.5831 70.6812C44.9099 70.88 42.9087 71.7631 42.1238 71.9243C41.339 72.0854 42.0025 72.2811 41.9785 72.1514C41.8664 71.5401 43.4835 70.0116 44.5831 70.6812Z" fill="url(#paint38_linear)"/>
<path d="M42.2317 69.6016L42.3625 71.1457C42.3825 71.3818 42.6297 71.5283 42.8478 71.4336L44.5349 70.9275C44.6785 70.8653 44.7625 70.715 44.7401 70.5607L44.184 69.1155C44.1531 68.9035 43.9378 68.7704 43.7329 68.8363L42.471 69.2435C42.3172 69.2931 42.2182 69.4414 42.2317 69.6016Z" fill="url(#paint39_radial)"/>
<path d="M42.6893 71.3326L42.5585 69.7884C42.5448 69.6283 42.644 69.48 42.7975 69.4304L44.0594 69.0232C44.0886 69.0138 44.118 69.0093 44.1472 69.0078C44.0716 68.8623 43.8997 68.7826 43.7327 68.8365L42.4708 69.2436C42.3172 69.2932 42.218 69.4415 42.2317 69.6017L42.3626 71.1459C42.379 71.339 42.5478 71.4697 42.728 71.4598C42.7083 71.4211 42.6933 71.3792 42.6893 71.3326Z" fill="url(#paint40_radial)"/>
<path d="M42.0163 73.1769L26.001 64.0408C26.4322 64.7673 26.7011 65.5904 26.7011 66.3316C26.7011 66.5064 26.6859 66.6681 26.6575 66.8171L41.2414 75.002C41.2324 74.9029 41.2272 74.8044 41.2272 74.7077C41.227 73.9159 41.5328 73.3823 42.0163 73.1769Z" fill="url(#paint41_linear)"/>
<path d="M22.0842 63.6787C22.0842 62.9415 22.3496 62.4277 22.7768 62.1948L17.8 59.3466L17.7678 61.0137C17.7586 61.4958 18.0153 61.9444 18.437 62.1819L22.1373 64.2681C22.1031 64.0683 22.0842 63.8706 22.0842 63.6787Z" fill="url(#paint42_linear)"/>
<path d="M45.666 76.1414L47.3858 77.0579C48.0139 77.3582 48.7397 77.3825 49.3867 77.1246L50.6947 76.6034C52.7328 75.7915 54.6507 74.7089 56.3967 73.3849L57.45 72.5383V74.108C57.45 74.3488 57.3398 74.5767 57.1509 74.7272L57.011 74.8386C54.5468 76.4546 52.2637 77.8006 49.383 78.8716C48.7369 79.074 48.0356 79.0055 47.4416 78.6817L45.7832 77.7136L45.666 76.1414Z" fill="url(#paint43_linear)"/>
<path d="M49.4899 75.7232L49.0739 76.5988C49.0739 76.5988 47.8068 75.8195 47.9326 75.5499C48.0585 75.2806 49.4899 75.7232 49.4899 75.7232Z" fill="url(#paint44_linear)"/>
<path d="M48.9385 76.3448C48.9385 76.5655 49.0953 76.6546 49.2887 76.5435C49.4821 76.4324 49.6389 76.1633 49.6389 75.9426C49.6389 75.7219 49.4821 75.6329 49.2887 75.744C49.0953 75.8551 48.9385 76.1239 48.9385 76.3448Z" fill="url(#paint45_linear)"/>
<path d="M48.6273 75.8979L48.2965 76.5942C48.2965 76.5942 47.2889 75.9743 47.3888 75.7601C47.489 75.5458 48.6273 75.8979 48.6273 75.8979Z" fill="url(#paint46_linear)"/>
<path d="M48.1895 76.3923C48.1895 76.5679 48.3141 76.6386 48.4679 76.5503C48.6216 76.462 48.7463 76.248 48.7463 76.0724C48.7463 75.8969 48.6216 75.8262 48.4679 75.9145C48.3141 76.0028 48.1895 76.2168 48.1895 76.3923Z" fill="url(#paint47_linear)"/>
<path d="M56.9949 71.8875L56.7107 72.4857C56.7107 72.4857 56.2262 72.1192 56.3119 71.9349C56.3979 71.7509 56.9949 71.8875 56.9949 71.8875Z" fill="url(#paint48_linear)"/>
<path d="M56.6191 72.3126C56.6191 72.4634 56.7263 72.5241 56.8582 72.4482C56.9903 72.3724 57.0972 72.1886 57.0972 72.0378C57.0972 71.8871 56.99 71.8263 56.8582 71.9022C56.7263 71.9781 56.6191 72.1618 56.6191 72.3126Z" fill="url(#paint49_linear)"/>
<path d="M57.1104 71.3941L56.903 71.8306C56.903 71.8306 56.5494 71.563 56.6119 71.4286C56.6747 71.2945 57.1104 71.3941 57.1104 71.3941Z" fill="url(#paint50_linear)"/>
<path d="M56.8369 71.7041C56.8369 71.8142 56.9152 71.8586 57.0114 71.8031C57.1078 71.7478 57.1859 71.6136 57.1859 71.5035C57.1859 71.3934 57.1078 71.3493 57.0114 71.4046C56.9149 71.4601 56.8369 71.5943 56.8369 71.7041Z" fill="url(#paint51_linear)"/>
<path d="M48.029 75.3812C47.7461 75.3812 47.4642 75.3075 47.2157 75.156L47.1621 76.7378L47.4973 76.8961C47.7152 76.9987 47.9515 77.0468 48.1875 77.0433L48.029 75.3812Z" fill="url(#paint52_radial)"/>
<path d="M50.1018 74.9557L50.2708 75.4043C50.4069 75.7651 50.8256 75.9302 51.1728 75.7591C51.7969 75.4519 52.761 74.9619 53.5665 74.4863C54.4638 73.9564 55.2021 73.4768 55.5787 73.2268C55.7494 73.1135 55.8561 72.9273 55.8678 72.7234L55.9157 71.8989C55.9244 71.7481 55.7571 71.6517 55.6305 71.7352C55.1051 72.0827 53.9972 72.803 53.0543 73.3362C52.002 73.9311 50.6569 74.5257 50.2 74.7234C50.11 74.7625 50.0672 74.8644 50.1018 74.9557Z" fill="#10054D"/>
<path d="M55.7478 71.707C55.7623 71.7348 55.7708 71.7668 55.7685 71.8022L55.7207 72.6268C55.709 72.8306 55.602 73.0168 55.4316 73.1302C55.0549 73.3801 54.3167 73.8597 53.4194 74.3896C52.6141 74.8652 51.6498 75.355 51.0257 75.6625C50.836 75.756 50.6249 75.7483 50.4502 75.664C50.6421 75.8321 50.925 75.8812 51.172 75.7597C51.7961 75.4525 52.7602 74.9625 53.5657 74.4868C54.463 73.9569 55.2013 73.4773 55.5779 73.2274C55.7486 73.114 55.8553 72.9278 55.867 72.724L55.9148 71.8995C55.9211 71.7933 55.8401 71.716 55.7478 71.707Z" fill="url(#paint53_radial)"/>
<path d="M54.1155 68.1601L54.101 68.1385C54.0377 68.0438 53.9081 68.0379 53.8236 68.1145C53.8106 68.1261 53.7967 68.1371 53.7817 68.1472L52.7725 68.8202C51.9912 69.3412 51.148 69.7645 50.2624 70.0802L49.1655 70.4713C49.0882 70.4988 49.0516 70.5866 49.0865 70.6605C49.1575 70.8112 49.3323 70.8836 49.4898 70.8273L50.896 70.3259C51.6836 70.0452 52.4333 69.6688 53.1285 69.2053L54.026 68.607C54.1743 68.508 54.2144 68.3082 54.1155 68.1601Z" fill="#10054D"/>
<path d="M17.6344 59.494L18.5792 59.9855V62.3571C17.9681 62.0856 17.5815 61.4746 17.5992 60.809L17.6344 59.494Z" fill="url(#paint54_linear)"/>
<path d="M41.0619 73.3414L26.8262 65.2152L26.9137 65.064L41.1496 73.1899L41.0619 73.3414Z" fill="#D1D3D4"/>
<path d="M42.3511 63.9401L19.4078 50.8091L19.3203 50.9606L34.3182 59.5443V69.2277H34.4937V59.6447L39.6443 62.5926V72.3138H39.8198V62.6931L42.2636 64.0917L42.3511 63.9401Z" fill="url(#paint55_radial)"/>
<path d="M41.3983 70.0543C41.3983 70.3461 41.1912 70.4637 40.9355 70.3169C40.6798 70.1701 40.4727 69.8145 40.4727 69.5226C40.4727 69.2307 40.6798 69.1132 40.9355 69.26C41.1912 69.4068 41.3983 69.7624 41.3983 70.0543Z" fill="url(#paint56_linear)"/>
<path d="M41.3916 70.0352C41.4925 70.2388 41.3091 70.271 40.9818 70.1076C40.6546 69.9442 40.3074 69.6466 40.2064 69.4433C40.1055 69.2399 40.2889 69.2074 40.6162 69.3709C40.9434 69.5343 41.2906 69.8318 41.3916 70.0352Z" fill="url(#paint57_radial)"/>
<path d="M39.1142 68.8298C39.1142 69.1216 38.9068 69.2392 38.6513 69.0924C38.3958 68.9456 38.1885 68.59 38.1885 68.2981C38.1885 68.0062 38.3956 67.8887 38.6513 68.0355C38.907 68.1823 39.1142 68.5382 39.1142 68.8298Z" fill="url(#paint58_linear)"/>
<path d="M39.1074 68.8114C39.2083 69.0148 39.0249 69.0472 38.6976 68.8838C38.3704 68.7204 38.0232 68.4228 37.9222 68.2195C37.8213 68.0162 38.0047 67.9837 38.332 68.1471C38.6593 68.3103 39.0065 68.6078 39.1074 68.8114Z" fill="url(#paint59_radial)"/>
<path d="M38.9309 67.524C38.8619 67.524 38.7956 67.5072 38.7335 67.4742L35.443 65.716C35.1444 65.5564 34.959 65.2479 34.959 64.9106V61.5944C34.959 61.3651 35.1464 61.1786 35.377 61.1786C35.45 61.1786 35.5225 61.1982 35.5868 61.2356L38.8928 63.1542C39.1739 63.3174 39.3486 63.6199 39.3486 63.9438V67.1082C39.3486 67.2223 39.3035 67.3284 39.2215 67.407C39.1438 67.4814 39.0378 67.524 38.9309 67.524ZM35.3772 61.3534C35.2606 61.3534 35.1347 61.4457 35.1347 61.5947V64.9109C35.1347 65.1836 35.2847 65.4331 35.5263 65.5623L38.8168 67.3205C38.9092 67.3698 39.0254 67.3524 39.0999 67.2813C39.1473 67.2361 39.1732 67.1746 39.1732 67.1084V63.944C39.1732 63.6822 39.0319 63.4374 38.8045 63.3052L35.4986 61.3866C35.4607 61.3643 35.4198 61.3534 35.3772 61.3534Z" fill="#D1D3D4"/>
<path d="M38.9709 67.6603C38.9022 67.6603 38.8356 67.6437 38.7735 67.6104L35.483 65.8523C35.1845 65.6926 34.999 65.3841 34.999 65.0469V61.7307C34.999 61.5013 35.1864 61.3148 35.417 61.3148C35.49 61.3148 35.5626 61.3344 35.6269 61.3719L38.9328 63.2904C39.214 63.4536 39.3887 63.7561 39.3887 64.08V67.2444C39.3887 67.3587 39.3436 67.4646 39.2616 67.5432C39.1838 67.6176 39.0779 67.6603 38.9709 67.6603ZM35.4172 61.4896C35.3006 61.4896 35.1747 61.5819 35.1747 61.7309V65.0471C35.1747 65.3199 35.3248 65.5693 35.5663 65.6985L38.8568 67.4567C38.9493 67.506 39.0654 67.4887 39.1399 67.4175C39.1873 67.3724 39.2132 67.3109 39.2132 67.2447V64.0802C39.2132 63.8184 39.0719 63.5736 38.8446 63.4415L35.5386 61.5229C35.5005 61.5006 35.4596 61.4896 35.4172 61.4896Z" fill="url(#paint60_radial)"/>
<path d="M21.3775 55.1894C21.3775 55.5876 21.2784 55.8356 21.0797 55.9335C20.8811 56.0312 20.5944 55.9725 20.2193 55.757L19.6191 55.4123V52.9928L20.2846 53.3749C20.6306 53.5736 20.8992 53.8322 21.0907 54.1506C21.2818 54.4692 21.3775 54.8154 21.3775 55.1894ZM20.9107 54.9347C20.9107 54.4149 20.7096 54.0398 20.3078 53.8089L20.0685 53.6715V55.2469L20.2612 55.3577C20.6941 55.6062 20.9107 55.4654 20.9107 54.9347Z" fill="url(#paint61_linear)"/>
<path d="M23.0369 57.3758L21.8164 56.6747V54.2552L23.0369 54.9563V55.3766L22.2658 54.9337V55.4649L22.9834 55.877V56.2973L22.2658 55.8852V56.5091L23.0369 56.952V57.3758Z" fill="url(#paint62_linear)"/>
<path d="M23.4795 57.6298V55.2103L23.9289 55.4685V57.4644L24.7885 57.9581V58.3819L23.4795 57.6298Z" fill="url(#paint63_linear)"/>
<path d="M25.1572 58.5932V56.1737L25.6066 56.4318V58.8513L25.1572 58.5932Z" fill="url(#paint64_linear)"/>
<path d="M27.3471 57.4325L27.8007 57.6932L27.0802 59.6988L26.5902 59.4173L25.8711 56.5847L26.3247 56.8453L26.7232 58.514C26.7454 58.6117 26.7684 58.724 26.792 58.8507C26.8157 58.9774 26.8304 59.0645 26.8362 59.1118C26.8469 59.0164 26.883 58.8596 26.9448 58.6414L27.3471 57.4325Z" fill="url(#paint65_linear)"/>
<path d="M29.2899 60.967L28.0693 60.2659V57.8464L29.2899 58.5475V58.9678L28.5187 58.5249V59.0561L29.2363 59.4682V59.8885L28.5187 59.4764V60.1003L29.2899 60.5432V60.967Z" fill="url(#paint66_linear)"/>
<path d="M30.1808 60.5506V61.479L29.7314 61.2209V58.8014L30.3491 59.1562C30.6369 59.3216 30.85 59.5039 30.9884 59.703C31.1267 59.9022 31.1957 60.1236 31.1957 60.3674C31.1957 60.5097 31.1614 60.6166 31.0928 60.688C31.0243 60.7594 30.9271 60.7907 30.8014 60.7812C31.1202 61.5083 31.3281 61.9789 31.4248 62.1934L30.9261 61.907L30.4201 60.688L30.1808 60.5506ZM30.1808 60.1338L30.3259 60.2171C30.468 60.2987 30.5729 60.3319 30.6404 60.3165C30.708 60.3014 30.7419 60.2357 30.7419 60.1199C30.7419 60.0051 30.7072 59.9036 30.6382 59.8154C30.5691 59.7271 30.462 59.6413 30.3172 59.558L30.1808 59.4796V60.1338Z" fill="url(#paint67_linear)"/>
<path d="M32.351 61.3024L32.7932 60.5602L33.2774 60.8385L32.5743 61.9125V62.854L32.1279 62.5976V61.6727L31.4248 59.7744L31.9118 60.0541L32.351 61.3024Z" fill="url(#paint68_linear)"/>
<path d="M19.5762 56.0536V56.5195L20.464 57.0435V56.5681L19.5762 56.0536Z" fill="url(#paint69_linear)"/>
<path d="M20.9365 56.818V57.2839L21.8241 57.8079V57.3325L20.9365 56.818Z" fill="url(#paint70_linear)"/>
<path d="M22.2949 57.5829V58.0486L23.1825 58.5728V58.0972L22.2949 57.5829Z" fill="url(#paint71_linear)"/>
<path d="M23.6543 58.3473V58.813L24.5419 59.3372V58.8616L23.6543 58.3473Z" fill="url(#paint72_linear)"/>
<path d="M25.0127 59.1119V59.5779L25.9005 60.1019V59.6262L25.0127 59.1119Z" fill="url(#paint73_linear)"/>
<path d="M26.373 59.8763V60.3423L27.2609 60.8663V60.3909L26.373 59.8763Z" fill="url(#paint74_linear)"/>
<path d="M27.7314 60.6407V61.1067L28.6193 61.6307V61.1553L27.7314 60.6407Z" fill="url(#paint75_linear)"/>
<path d="M29.0908 61.4056V61.8713L29.9784 62.3956V61.9199L29.0908 61.4056Z" fill="url(#paint76_linear)"/>
<path d="M30.4502 62.1699V62.6356L31.3377 63.1598V62.6842L30.4502 62.1699Z" fill="url(#paint77_linear)"/>
<path d="M31.8096 62.9346V63.4005L32.6974 63.9245V63.4489L31.8096 62.9346Z" fill="url(#paint78_linear)"/>
<path d="M16.5258 64.5612V68.8016L12.415 66.4319V62.1581L16.5258 64.5612Z" fill="url(#paint79_linear)"/>
<path d="M16.5205 64.5613V68.8017L20.4227 66.5585V62.2847L16.5205 64.5613Z" fill="url(#paint80_linear)"/>
<path d="M20.423 62.2845L16.5208 64.5612L12.415 62.1581L16.3257 59.8931L20.423 62.2845Z" fill="url(#paint81_linear)"/>
<path d="M14.7822 63.5596V64.6971L13.8535 64.1689V62.9977L14.7822 63.5596Z" fill="url(#paint82_linear)"/>
<path d="M18.6793 61.2827L14.7772 63.5596L13.8535 62.9977L17.7641 60.7329L18.6793 61.2827Z" fill="url(#paint83_linear)"/>
<path d="M15.7447 66.1003L16.0705 67.1037L15.8591 66.9824V68.1786L15.63 68.0472V66.851L15.4189 66.7295L15.7447 66.1003Z" fill="url(#paint84_linear)"/>
<path d="M14.627 66.2746L14.9527 65.6455L15.2785 66.6491L15.0671 66.5276V67.724L14.8381 67.5924V66.3961L14.627 66.2746Z" fill="url(#paint85_linear)"/>
<path d="M10.6207 67.216V70.9505L7 68.8635V65.099L10.6207 67.216Z" fill="url(#paint86_linear)"/>
<path d="M10.6172 67.2158V70.9503L14.0542 68.9747V65.2102L10.6172 67.2158Z" fill="url(#paint87_linear)"/>
<path d="M14.0543 65.2103L10.6172 67.2159L7.00098 65.099L10.4455 63.1042L14.0543 65.2103Z" fill="url(#paint88_linear)"/>
<path d="M9.08462 66.3338V67.3354L8.2666 66.8704V65.8389L9.08462 66.3338Z" fill="url(#paint89_linear)"/>
<path d="M12.5174 64.3284L9.08038 66.3338L8.2666 65.8388L11.7111 63.8439L12.5174 64.3284Z" fill="url(#paint90_linear)"/>
<path d="M9.93239 68.5712L10.2195 69.455L10.0333 69.3481V70.4017L9.83169 70.2859V69.2323L9.64551 69.1254L9.93239 68.5712Z" fill="url(#paint91_linear)"/>
<path d="M8.94824 68.7249L9.23512 68.1707L9.522 69.0544L9.33606 68.9476V70.0012L9.13443 69.8854V68.8318L8.94824 68.7249Z" fill="url(#paint92_linear)"/>
<path d="M15.1064 68.6081V72.3428L18.7272 70.2559V66.4913L15.1064 68.6081Z" fill="url(#paint93_linear)"/>
<path d="M15.1106 68.6079V72.3427L11.6738 70.3671V66.6025L15.1106 68.6079Z" fill="url(#paint94_linear)"/>
<path d="M11.6738 66.6028L15.1106 68.6081L18.7271 66.4914L15.2826 64.4965L11.6738 66.6028Z" fill="url(#paint95_linear)"/>
<path d="M16.6426 67.7262V68.7277L17.4603 68.2628V67.2312L16.6426 67.7262Z" fill="url(#paint96_linear)"/>
<path d="M13.209 65.7207L16.646 67.7261L17.4596 67.2312L14.0153 65.2362L13.209 65.7207Z" fill="url(#paint97_linear)"/>
<path d="M15.7947 69.9637L15.5078 70.8475L15.694 70.7407V71.7943L15.8956 71.6785V70.6248L16.0816 70.518L15.7947 69.9637Z" fill="url(#paint98_linear)"/>
<path d="M16.7788 70.1175L16.492 69.5632L16.2051 70.447L16.391 70.3401V71.3938L16.5926 71.278V70.2243L16.7788 70.1175Z" fill="url(#paint99_linear)"/>
<path d="M13.3994 63.5967V66.747L16.4536 64.9866V61.811L13.3994 63.5967Z" fill="url(#paint100_linear)"/>
<path d="M13.4021 63.5967V66.747L10.5029 65.0806V61.905L13.4021 63.5967Z" fill="url(#paint101_linear)"/>
<path d="M10.5029 61.9049L13.4021 63.5966L16.4529 61.8109L13.5472 60.1282L10.5029 61.9049Z" fill="url(#paint102_linear)"/>
<path d="M14.6943 62.8525V63.6974L15.3842 63.3051V62.4349L14.6943 62.8525Z" fill="url(#paint103_linear)"/>
<path d="M11.7988 61.161L14.6983 62.8527L15.3844 62.4351L12.479 60.7523L11.7988 61.161Z" fill="url(#paint104_linear)"/>
<path d="M13.9783 64.74L13.7363 65.4857L13.8933 65.3954V66.2844L14.0633 66.1867V65.2977L14.2204 65.2077L13.9783 64.74Z" fill="url(#paint105_linear)"/>
<path d="M14.8085 64.8698L14.5665 64.4023L14.3242 65.1478L14.4812 65.0577V65.9465L14.6515 65.8488V64.96L14.8085 64.8698Z" fill="url(#paint106_linear)"/>
<path d="M26.2086 74.6669V74.5831H19.9703V74.7366H19.9716C19.9337 75.0168 20.083 75.2899 20.4284 75.4882L21.8606 76.311C22.546 76.7048 23.7436 76.6555 24.5352 76.2007L25.5588 75.6127C26.0284 75.3427 26.2497 74.9908 26.2086 74.6669Z" fill="url(#paint107_linear)"/>
<path d="M21.8607 76.0659L20.4285 75.2432C19.7431 74.8494 19.8291 74.1615 20.6205 73.7069L21.6441 73.119C22.4357 72.6642 23.6331 72.6149 24.3187 73.0087L25.7509 73.8314C26.4363 74.2252 26.3505 74.9131 25.559 75.3676L24.5353 75.9556C23.7437 76.4104 22.5461 76.4597 21.8607 76.0659Z" fill="url(#paint108_linear)"/>
<path d="M25.5602 75.3079L24.5365 75.8961C23.7449 76.3509 22.5476 76.4002 21.8619 76.0065L20.4297 75.1837C20.1396 75.017 19.9891 74.7976 19.9704 74.5655C19.9512 74.8316 20.1005 75.0885 20.4297 75.2777L21.8619 76.1004C22.5473 76.4942 23.7449 76.4449 24.5365 75.9901L25.5602 75.4019C26.0168 75.1398 26.2368 74.8001 26.2114 74.4839C26.1907 74.772 25.9716 75.0716 25.5602 75.3079Z" fill="url(#paint109_radial)"/>
<path opacity="0.2" d="M26.2086 75.0255V74.9417H26.2074C26.17 75.2176 25.9516 75.5006 25.5588 75.7262L24.5352 76.3144C23.7436 76.7692 22.5462 76.8186 21.8606 76.4248L20.4284 75.602C20.1423 75.4376 19.9925 75.2219 19.9703 74.9935V75.0952H19.9716C19.9337 75.3754 20.083 75.6484 20.4284 75.8468L21.8606 76.6695C22.546 77.0633 23.7436 77.014 24.5352 76.5592L25.5588 75.9712C26.0284 75.7012 26.2497 75.3493 26.2086 75.0255Z" fill="url(#paint110_linear)"/>
<path d="M23.7157 69.826H22.4909L21.1592 74.3109H21.1599C21.1597 74.3161 21.1592 74.3214 21.1592 74.3266C21.1592 74.9487 22.0295 75.4529 23.1033 75.4529C24.177 75.4529 25.0474 74.9485 25.0474 74.3266C25.0474 74.3214 25.0469 74.3161 25.0466 74.3109H25.0474L23.7157 69.826Z" fill="url(#paint111_linear)"/>
<path d="M23.717 69.8287C23.717 70.0246 23.4428 70.1836 23.1046 70.1836C22.7664 70.1836 22.4922 70.0246 22.4922 69.8287C22.4922 69.6328 22.7664 69.4739 23.1046 69.4739C23.4428 69.4739 23.717 69.6328 23.717 69.8287Z" fill="url(#paint112_linear)"/>
<path d="M25.0476 74.3108L24.7832 73.4205C24.7837 73.4312 24.7847 73.4416 24.7847 73.4523C24.7847 73.9901 24.0319 74.4263 23.1035 74.4263C22.1751 74.4263 21.4221 73.9901 21.4221 73.4523C21.4221 73.4416 21.4229 73.4309 21.4236 73.4205L21.1592 74.3108H21.1599C21.1597 74.316 21.1592 74.3212 21.1592 74.3264C21.1592 74.9486 22.0295 75.4527 23.1033 75.4527C24.177 75.4527 25.0474 74.9483 25.0474 74.3264C25.0474 74.3212 25.0469 74.316 25.0466 74.3108H25.0476Z" fill="url(#paint113_linear)"/>
<path d="M24.2489 71.6222C24.2492 71.6284 24.2499 71.6344 24.2499 71.6406C24.2499 72.0076 23.7365 72.3049 23.1032 72.3049C22.4699 72.3049 21.9564 72.0073 21.9564 71.6406C21.9564 71.6334 21.9579 71.6267 21.9582 71.6198L21.6885 72.5278C21.689 72.5363 21.6892 72.5427 21.6892 72.5467C21.6892 72.9992 22.3223 73.366 23.1032 73.366C23.8841 73.366 24.5171 72.9992 24.5171 72.5467C24.5171 72.543 24.5181 72.5368 24.5189 72.5313L24.2489 71.6222Z" fill="url(#paint114_linear)"/>
<path d="M23.7156 69.8262H23.7153C23.7153 69.8269 23.7156 69.8279 23.7156 69.8287C23.7156 70.0246 23.4414 70.1835 23.1032 70.1835C22.765 70.1835 22.4908 70.0246 22.4908 69.8287C22.4908 69.8279 22.4911 69.8269 22.4911 69.8262H22.4908L22.2236 70.7261C22.2236 70.7303 22.2236 70.7335 22.2236 70.7348C22.2236 71.0162 22.6174 71.2443 23.1032 71.2443C23.589 71.2443 23.9828 71.0162 23.9828 70.7348C23.9828 70.7333 23.9828 70.7303 23.9828 70.7261L23.7156 69.8262Z" fill="url(#paint115_linear)"/>
<path d="M23.1045 70.0642C23.3823 70.0642 23.6075 69.9498 23.6075 69.8088C23.6075 69.6677 23.3823 69.5533 23.1045 69.5533C22.8268 69.5533 22.6016 69.6677 22.6016 69.8088C22.6016 69.9498 22.8268 70.0642 23.1045 70.0642Z" fill="url(#paint116_linear)"/>
<path d="M23.1045 70.0642C23.3823 70.0642 23.6075 69.9498 23.6075 69.8088C23.6075 69.6677 23.3823 69.5533 23.1045 69.5533C22.8268 69.5533 22.6016 69.6677 22.6016 69.8088C22.6016 69.9498 22.8268 70.0642 23.1045 70.0642Z" fill="url(#paint117_linear)"/>
<path d="M69.3681 26.7088C68.2281 26.0539 67.2065 26.0344 66.4994 26.5251L65.6801 26.9055L65.7808 27.4287C65.6046 27.8322 65.5049 28.3239 65.5049 28.9005C65.5049 30.5688 66.4014 33.2006 67.3306 35.4812L68.2994 40.5142L69.3679 39.9827C69.3679 39.9827 73.2309 36.8017 73.2309 33.3385C73.2311 30.9024 71.5017 27.9343 69.3681 26.7088Z" fill="url(#paint118_linear)"/>
<path d="M72.1625 33.8698C72.1625 37.3331 68.2995 40.5141 68.2995 40.5141C68.2995 40.5141 64.4365 32.8953 64.4365 29.4318C64.4365 26.9962 66.166 26.015 68.2995 27.2404C70.4331 28.4662 72.1625 31.4342 72.1625 33.8698Z" fill="url(#paint119_linear)"/>
<path d="M69.7065 32.4586C69.7065 33.3454 69.0769 33.7027 68.3 33.2563C67.5234 32.8102 66.8936 31.7295 66.8936 30.8428C66.8936 29.956 67.5232 29.5987 68.3 30.045C69.0769 30.4912 69.7065 31.5716 69.7065 32.4586Z" fill="url(#paint120_linear)"/>
<path d="M68.734 33.0572C67.9571 32.6111 67.3275 31.5304 67.3275 30.6436C67.3275 30.2925 67.4274 30.0262 67.5949 29.858C67.1759 29.8955 66.8936 30.2498 66.8936 30.843C66.8936 31.7298 67.5231 32.8104 68.3 33.2565C68.7691 33.5261 69.1836 33.5008 69.4391 33.2444C69.2315 33.2627 68.9912 33.205 68.734 33.0572Z" fill="#D1D3D4"/>
<defs>
<linearGradient id="paint0_linear" x1="53.7053" y1="14.0437" x2="75.4736" y2="51.9401" gradientUnits="userSpaceOnUse">
<stop offset="0.0556" stop-color="#200041"/>
<stop offset="0.2576" stop-color="#210243"/>
<stop offset="0.3572" stop-color="#25084B"/>
<stop offset="0.4341" stop-color="#2C1358"/>
<stop offset="0.4697" stop-color="#311B61"/>
<stop offset="0.482" stop-color="#351F65"/>
<stop offset="0.4954" stop-color="#422C73"/>
<stop offset="0.5093" stop-color="#584188"/>
<stop offset="0.5235" stop-color="#765FA7"/>
<stop offset="0.5303" stop-color="#8770B8"/>
<stop offset="0.5366" stop-color="#7E67AE"/>
<stop offset="0.5617" stop-color="#5C468D"/>
<stop offset="0.5857" stop-color="#442E75"/>
<stop offset="0.6078" stop-color="#362066"/>
<stop offset="0.6263" stop-color="#311B61"/>
<stop offset="0.6724" stop-color="#2A1155"/>
<stop offset="0.7491" stop-color="#230446"/>
<stop offset="0.8131" stop-color="#200041"/>
<stop offset="1" stop-color="#200041"/>
</linearGradient>
<radialGradient id="paint1_radial" cx="0" cy="0" r="1" gradientUnits="userSpaceOnUse" gradientTransform="translate(87.794 29.4012) scale(41.1642 40.955)">
<stop stop-color="#711F56"/>
<stop offset="0.1614" stop-color="#6C1E52"/>
<stop offset="0.3626" stop-color="#5C1946"/>
<stop offset="0.5849" stop-color="#431233"/>
<stop offset="0.8208" stop-color="#200918"/>
<stop offset="1"/>
</radialGradient>
<radialGradient id="paint2_radial" cx="0" cy="0" r="1" gradientUnits="userSpaceOnUse" gradientTransform="translate(80.9085 26.4752) scale(24.2515 24.1282)">
<stop stop-color="#AF8AFC"/>
<stop offset="1" stop-color="#10054D"/>
</radialGradient>
<linearGradient id="paint3_linear" x1="82.8632" y1="48.9025" x2="15.8819" y2="27.8273" gradientUnits="userSpaceOnUse">
<stop offset="0.1869" stop-color="#3D065F"/>
<stop offset="0.9343" stop-color="#3D065F"/>
</linearGradient>
<linearGradient id="paint4_linear" x1="83.7369" y1="74.7174" x2="49.9736" y2="3.01039" gradientUnits="userSpaceOnUse">
<stop stop-color="#311B61"/>
<stop offset="0.2031" stop-color="#290F52"/>
<stop offset="0.4949" stop-color="#200041"/>
<stop offset="1" stop-color="#0F001F"/>
</linearGradient>
<linearGradient id="paint5_linear" x1="58.7841" y1="44.7322" x2="80.165" y2="44.7322" gradientUnits="userSpaceOnUse">
<stop stop-color="#311B61"/>
<stop offset="0.2031" stop-color="#290F52"/>
<stop offset="0.4949" stop-color="#200041"/>
<stop offset="1" stop-color="#0F001F"/>
</linearGradient>
<linearGradient id="paint6_linear" x1="78.5016" y1="74.0263" x2="60.8873" y2="16.2803" gradientUnits="userSpaceOnUse">
<stop stop-color="#A56EF4"/>
<stop offset="0.2124" stop-color="#A186D3"/>
<stop offset="0.4084" stop-color="#9E98BC"/>
<stop offset="0.5303" stop-color="#9D9EB3"/>
<stop offset="0.62" stop-color="#A4A4B8"/>
<stop offset="0.7488" stop-color="#B7B7C7"/>
<stop offset="0.9006" stop-color="#D6D4DF"/>
<stop offset="1" stop-color="#EEEBF2"/>
</linearGradient>
<linearGradient id="paint7_linear" x1="83.2316" y1="35.0236" x2="85.1297" y2="38.3279" gradientUnits="userSpaceOnUse">
<stop stop-color="#311B61"/>
<stop offset="0.2031" stop-color="#290F52"/>
<stop offset="0.4949" stop-color="#200041"/>
<stop offset="1" stop-color="#0F001F"/>
</linearGradient>
<linearGradient id="paint8_linear" x1="83.2593" y1="37.8128" x2="80.6214" y2="37.6988" gradientUnits="userSpaceOnUse">
<stop stop-color="#3D065F"/>
<stop offset="1" stop-color="#5F27BD"/>
</linearGradient>
<radialGradient id="paint9_radial" cx="0" cy="0" r="1" gradientUnits="userSpaceOnUse" gradientTransform="translate(81.9329 36.693) scale(1.54923 1.54134)">
<stop stop-color="#711F56"/>
<stop offset="0.1614" stop-color="#6C1E52"/>
<stop offset="0.3626" stop-color="#5C1946"/>
<stop offset="0.5849" stop-color="#431233"/>
<stop offset="0.8208" stop-color="#200918"/>
<stop offset="1"/>
</radialGradient>
<linearGradient id="paint10_linear" x1="59.3635" y1="77.7554" x2="69.7382" y2="49.4518" gradientUnits="userSpaceOnUse">
<stop stop-color="#112A6C"/>
<stop offset="0.14" stop-color="#114280"/>
<stop offset="0.4345" stop-color="#1380B4"/>
<stop offset="0.4848" stop-color="#138BBD"/>
<stop offset="0.7071" stop-color="#169AC7"/>
<stop offset="1" stop-color="#1CB5D7"/>
</linearGradient>
<linearGradient id="paint11_linear" x1="52.6665" y1="47.5844" x2="68.8333" y2="29.3798" gradientUnits="userSpaceOnUse">
<stop offset="0.0354" stop-color="#6B24D6"/>
<stop offset="0.2945" stop-color="#7733DC"/>
<stop offset="0.7943" stop-color="#975CED"/>
<stop offset="1" stop-color="#A56EF4"/>
</linearGradient>
<radialGradient id="paint12_radial" cx="0" cy="0" r="1" gradientUnits="userSpaceOnUse" gradientTransform="translate(51.6969 43.7724) scale(11.0997 11.0433)">
<stop stop-color="white"/>
<stop offset="1" stop-color="white"/>
</radialGradient>
<linearGradient id="paint13_linear" x1="51.5365" y1="51.0013" x2="62.2744" y2="96.5295" gradientUnits="userSpaceOnUse">
<stop offset="0.0354" stop-color="#6B24D6"/>
<stop offset="0.2945" stop-color="#7733DC"/>
<stop offset="0.7943" stop-color="#975CED"/>
<stop offset="1" stop-color="#A56EF4"/>
</linearGradient>
<radialGradient id="paint14_radial" cx="0" cy="0" r="1" gradientUnits="userSpaceOnUse" gradientTransform="translate(86.2167 99.0712) scale(38.6705 38.4739)">
<stop stop-color="white"/>
<stop offset="1"/>
</radialGradient>
<radialGradient id="paint15_radial" cx="0" cy="0" r="1" gradientUnits="userSpaceOnUse" gradientTransform="translate(86.2181 99.0712) scale(38.6707 38.4742)">
<stop stop-color="white"/>
<stop offset="1" stop-color="white"/>
</radialGradient>
<radialGradient id="paint16_radial" cx="0" cy="0" r="1" gradientUnits="userSpaceOnUse" gradientTransform="translate(86.218 99.0713) scale(38.6706 38.4744)">
<stop stop-color="white"/>
<stop offset="1" stop-color="white"/>
</radialGradient>
<radialGradient id="paint17_radial" cx="0" cy="0" r="1" gradientUnits="userSpaceOnUse" gradientTransform="translate(54.3709 65.0256) scale(0.962803 0.957905)">
<stop stop-color="#EEEBF2"/>
<stop offset="0.5808" stop-color="#D4D1D8"/>
<stop offset="0.9392" stop-color="#A5A6B9"/>
<stop offset="1" stop-color="#9D9EB3"/>
</radialGradient>
<radialGradient id="paint18_radial" cx="0" cy="0" r="1" gradientUnits="userSpaceOnUse" gradientTransform="translate(54.3336 64.9384) scale(0.924245 0.919544)">
<stop stop-color="white"/>
<stop offset="1" stop-color="white"/>
</radialGradient>
<linearGradient id="paint19_linear" x1="27.0389" y1="67.0541" x2="23.4822" y2="62.2637" gradientUnits="userSpaceOnUse">
<stop offset="0.0556" stop-color="#2D2F32"/>
<stop offset="0.1544" stop-color="#43464A"/>
<stop offset="0.2525" stop-color="#5D6066"/>
<stop offset="0.4798" stop-color="#1E1F21"/>
<stop offset="1" stop-color="#46484D"/>
</linearGradient>
<linearGradient id="paint20_linear" x1="22.248" y1="65.2933" x2="26.3286" y2="65.2933" gradientUnits="userSpaceOnUse">
<stop offset="0.0354" stop-color="#1E1F21"/>
<stop offset="0.3101" stop-color="#2C2E30"/>
<stop offset="0.84" stop-color="#515359"/>
<stop offset="1" stop-color="#5D6066"/>
</linearGradient>
<radialGradient id="paint21_radial" cx="0" cy="0" r="1" gradientUnits="userSpaceOnUse" gradientTransform="translate(24.7083 65.2248) scale(2.20428 2.19307)">
<stop stop-color="white"/>
<stop offset="1"/>
</radialGradient>
<linearGradient id="paint22_linear" x1="22.785" y1="65.3268" x2="25.9275" y2="65.3268" gradientUnits="userSpaceOnUse">
<stop stop-color="#BCBEC0"/>
<stop offset="1" stop-color="#E6E7E8"/>
</linearGradient>
<linearGradient id="paint23_linear" x1="22.6864" y1="65.3657" x2="25.8289" y2="65.3657" gradientUnits="userSpaceOnUse">
<stop offset="0.0354" stop-color="#9D9EB3"/>
<stop offset="0.5808" stop-color="#D4D1D8"/>
<stop offset="1" stop-color="#EEEBF2"/>
</linearGradient>
<linearGradient id="paint24_linear" x1="46.3951" y1="78.0959" x2="42.8383" y2="73.3055" gradientUnits="userSpaceOnUse">
<stop offset="0.0556" stop-color="#2D2F32"/>
<stop offset="0.1544" stop-color="#43464A"/>
<stop offset="0.2525" stop-color="#5D6066"/>
<stop offset="0.4798" stop-color="#1E1F21"/>
<stop offset="1" stop-color="#46484D"/>
</linearGradient>
<linearGradient id="paint25_linear" x1="41.6054" y1="76.3349" x2="45.686" y2="76.3349" gradientUnits="userSpaceOnUse">
<stop offset="0.0354" stop-color="#1E1F21"/>
<stop offset="0.3101" stop-color="#2C2E30"/>
<stop offset="0.84" stop-color="#515359"/>
<stop offset="1" stop-color="#5D6066"/>
</linearGradient>
<radialGradient id="paint26_radial" cx="0" cy="0" r="1" gradientUnits="userSpaceOnUse" gradientTransform="translate(44.0657 76.2665) scale(2.20428 2.19307)">
<stop stop-color="white"/>
<stop offset="1"/>
</radialGradient>
<linearGradient id="paint27_linear" x1="42.1424" y1="76.3685" x2="45.285" y2="76.3685" gradientUnits="userSpaceOnUse">
<stop stop-color="#BCBEC0"/>
<stop offset="1" stop-color="#E6E7E8"/>
</linearGradient>
<linearGradient id="paint28_linear" x1="42.0438" y1="76.4072" x2="45.1864" y2="76.4072" gradientUnits="userSpaceOnUse">
<stop offset="0.0354" stop-color="#9D9EB3"/>
<stop offset="0.5808" stop-color="#D4D1D8"/>
<stop offset="1" stop-color="#EEEBF2"/>
</linearGradient>
<radialGradient id="paint29_radial" cx="0" cy="0" r="1" gradientUnits="userSpaceOnUse" gradientTransform="translate(38.6312 52.4163) scale(30.0744 29.9216)">
<stop stop-color="#EEEBF2"/>
<stop offset="0.5808" stop-color="#D4D1D8"/>
<stop offset="0.9392" stop-color="#A5A6B9"/>
<stop offset="1" stop-color="#9D9EB3"/>
</radialGradient>
<radialGradient id="paint30_radial" cx="0" cy="0" r="1" gradientUnits="userSpaceOnUse" gradientTransform="translate(34.0392 63.7598) scale(14.167 14.095)">
<stop stop-color="white"/>
<stop offset="1" stop-color="white"/>
</radialGradient>
<linearGradient id="paint31_linear" x1="44.5685" y1="66.5811" x2="54.2192" y2="66.5811" gradientUnits="userSpaceOnUse">
<stop stop-color="#10054D"/>
<stop offset="1" stop-color="#363885"/>
</linearGradient>
<linearGradient id="paint32_linear" x1="40.4336" y1="67.1197" x2="43.9684" y2="67.1197" gradientUnits="userSpaceOnUse">
<stop stop-color="#10054D"/>
<stop offset="1" stop-color="#363885"/>
</linearGradient>
<linearGradient id="paint33_linear" x1="54.6948" y1="77.994" x2="53.1763" y2="76.5404" gradientUnits="userSpaceOnUse">
<stop offset="0.0354" stop-color="#1E1F21"/>
<stop offset="0.3101" stop-color="#2C2E30"/>
<stop offset="0.84" stop-color="#515359"/>
<stop offset="1" stop-color="#5D6066"/>
</linearGradient>
<linearGradient id="paint34_linear" x1="47.162" y1="76.1009" x2="49.9385" y2="76.1009" gradientUnits="userSpaceOnUse">
<stop stop-color="#BCBEC0"/>
<stop offset="1" stop-color="#E6E7E8"/>
</linearGradient>
<linearGradient id="paint35_linear" x1="48.6044" y1="76.7228" x2="48.5416" y2="74.6766" gradientUnits="userSpaceOnUse">
<stop stop-color="#9C9C9C"/>
<stop offset="0.0047" stop-color="#9D9D9D"/>
<stop offset="0.3149" stop-color="#C7C7C7"/>
<stop offset="0.595" stop-color="#E6E6E6"/>
<stop offset="0.8328" stop-color="#F8F8F8"/>
<stop offset="1" stop-color="white"/>
</linearGradient>
<linearGradient id="paint36_linear" x1="56.1904" y1="71.9185" x2="57.2431" y2="71.9185" gradientUnits="userSpaceOnUse">
<stop stop-color="#BCBEC0"/>
<stop offset="1" stop-color="#E6E7E8"/>
</linearGradient>
<linearGradient id="paint37_linear" x1="56.1904" y1="71.9185" x2="57.1859" y2="71.9185" gradientUnits="userSpaceOnUse">
<stop stop-color="#9C9C9C"/>
<stop offset="0.0047" stop-color="#9D9D9D"/>
<stop offset="0.3149" stop-color="#C7C7C7"/>
<stop offset="0.595" stop-color="#E6E6E6"/>
<stop offset="0.8328" stop-color="#F8F8F8"/>
<stop offset="1" stop-color="white"/>
</linearGradient>
<linearGradient id="paint38_linear" x1="44.4245" y1="70.4493" x2="41.9857" y2="71.9736" gradientUnits="userSpaceOnUse">
<stop stop-color="#696969"/>
<stop offset="0.2423" stop-color="#9C9C9C"/>
<stop offset="0.4796" stop-color="#C7C7C7"/>
<stop offset="0.6924" stop-color="#E6E6E6"/>
<stop offset="0.873" stop-color="#F8F8F8"/>
<stop offset="1" stop-color="white"/>
</linearGradient>
<radialGradient id="paint39_radial" cx="0" cy="0" r="1" gradientUnits="userSpaceOnUse" gradientTransform="translate(42.9603 69.7915) scale(1.29297 1.2864)">
<stop stop-color="#EEEBF2"/>
<stop offset="0.5808" stop-color="#D4D1D8"/>
<stop offset="0.9392" stop-color="#A5A6B9"/>
<stop offset="1" stop-color="#9D9EB3"/>
</radialGradient>
<radialGradient id="paint40_radial" cx="0" cy="0" r="1" gradientUnits="userSpaceOnUse" gradientTransform="translate(42.6856 68.7256) scale(1.49563 1.48803)">
<stop stop-color="white"/>
<stop offset="1" stop-color="white"/>
</radialGradient>
<linearGradient id="paint41_linear" x1="32.8396" y1="70.8007" x2="34.0258" y2="68.8384" gradientUnits="userSpaceOnUse">
<stop stop-color="#9C9C9C"/>
<stop offset="0.0047" stop-color="#9D9D9D"/>
<stop offset="0.3149" stop-color="#C7C7C7"/>
<stop offset="0.595" stop-color="#E6E6E6"/>
<stop offset="0.8328" stop-color="#F8F8F8"/>
<stop offset="1" stop-color="white"/>
</linearGradient>
<linearGradient id="paint42_linear" x1="19.2902" y1="62.9183" x2="20.3492" y2="61.1664" gradientUnits="userSpaceOnUse">
<stop stop-color="#9C9C9C"/>
<stop offset="0.0047" stop-color="#9D9D9D"/>
<stop offset="0.3149" stop-color="#C7C7C7"/>
<stop offset="0.595" stop-color="#E6E6E6"/>
<stop offset="0.8328" stop-color="#F8F8F8"/>
<stop offset="1" stop-color="white"/>
</linearGradient>
<linearGradient id="paint43_linear" x1="45.6661" y1="75.7624" x2="57.4499" y2="75.7624" gradientUnits="userSpaceOnUse">
<stop offset="0.0556" stop-color="#2D2F32"/>
<stop offset="0.1544" stop-color="#43464A"/>
<stop offset="0.2525" stop-color="#5D6066"/>
<stop offset="0.4798" stop-color="#1E1F21"/>
<stop offset="1" stop-color="#46484D"/>
</linearGradient>
<linearGradient id="paint44_linear" x1="47.9239" y1="76.0311" x2="49.4899" y2="76.0311" gradientUnits="userSpaceOnUse">
<stop stop-color="#BCBEC0"/>
<stop offset="1" stop-color="#E6E7E8"/>
</linearGradient>
<linearGradient id="paint45_linear" x1="49.6387" y1="76.1436" x2="48.9385" y2="76.1436" gradientUnits="userSpaceOnUse">
<stop stop-color="#BCBEC0"/>
<stop offset="0.6862" stop-color="#E9EAEA"/>
<stop offset="1" stop-color="white"/>
</linearGradient>
<linearGradient id="paint46_linear" x1="47.382" y1="76.1427" x2="48.6273" y2="76.1427" gradientUnits="userSpaceOnUse">
<stop stop-color="#BCBEC0"/>
<stop offset="1" stop-color="#E6E7E8"/>
</linearGradient>
<linearGradient id="paint47_linear" x1="48.7463" y1="76.2324" x2="48.1895" y2="76.2324" gradientUnits="userSpaceOnUse">
<stop stop-color="#BCBEC0"/>
<stop offset="0.6862" stop-color="#E9EAEA"/>
<stop offset="1" stop-color="white"/>
</linearGradient>
<linearGradient id="paint48_linear" x1="56.3019" y1="72.1623" x2="56.9948" y2="72.1623" gradientUnits="userSpaceOnUse">
<stop stop-color="#BCBEC0"/>
<stop offset="1" stop-color="#E6E7E8"/>
</linearGradient>
<linearGradient id="paint49_linear" x1="57.0974" y1="72.1752" x2="56.6192" y2="72.1752" gradientUnits="userSpaceOnUse">
<stop stop-color="#BCBEC0"/>
<stop offset="0.6862" stop-color="#E9EAEA"/>
<stop offset="1" stop-color="white"/>
</linearGradient>
<linearGradient id="paint50_linear" x1="56.6047" y1="71.5946" x2="57.1105" y2="71.5946" gradientUnits="userSpaceOnUse">
<stop stop-color="#BCBEC0"/>
<stop offset="1" stop-color="#E6E7E8"/>
</linearGradient>
<linearGradient id="paint51_linear" x1="57.1859" y1="71.6039" x2="56.8368" y2="71.6039" gradientUnits="userSpaceOnUse">
<stop stop-color="#BCBEC0"/>
<stop offset="0.6862" stop-color="#E9EAEA"/>
<stop offset="1" stop-color="white"/>
</linearGradient>
<radialGradient id="paint52_radial" cx="0" cy="0" r="1" gradientUnits="userSpaceOnUse" gradientTransform="translate(47.8357 75.9606) scale(0.532459 0.882776)">
<stop stop-color="#FEECA8"/>
<stop offset="1" stop-color="#FFA98C"/>
</radialGradient>
<radialGradient id="paint53_radial" cx="0" cy="0" r="1" gradientUnits="userSpaceOnUse" gradientTransform="translate(54.7407 75.3168) scale(4.37493 4.35269)">
<stop stop-color="white"/>
<stop offset="1"/>
</radialGradient>
<linearGradient id="paint54_linear" x1="17.5987" y1="60.9255" x2="18.5793" y2="60.9255" gradientUnits="userSpaceOnUse">
<stop offset="0.0354" stop-color="#6B24D6"/>
<stop offset="0.2945" stop-color="#7733DC"/>
<stop offset="0.7943" stop-color="#975CED"/>
<stop offset="1" stop-color="#A56EF4"/>
</linearGradient>
<radialGradient id="paint55_radial" cx="0" cy="0" r="1" gradientUnits="userSpaceOnUse" gradientTransform="translate(30.8357 61.5615) scale(11.167 11.1102)">
<stop stop-color="white"/>
<stop offset="1" stop-color="white"/>
</radialGradient>
<linearGradient id="paint56_linear" x1="40.7916" y1="69.7885" x2="41.7173" y2="69.7885" gradientUnits="userSpaceOnUse">
<stop stop-color="#9C9C9C"/>
<stop offset="0.0047" stop-color="#9D9D9D"/>
<stop offset="0.3149" stop-color="#C7C7C7"/>
<stop offset="0.595" stop-color="#E6E6E6"/>
<stop offset="0.8328" stop-color="#F8F8F8"/>
<stop offset="1" stop-color="white"/>
</linearGradient>
<radialGradient id="paint57_radial" cx="0" cy="0" r="1" gradientUnits="userSpaceOnUse" gradientTransform="translate(40.8366 69.4636) scale(0.897872 0.893311)">
<stop stop-color="#EEEBF2"/>
<stop offset="0.5808" stop-color="#D4D1D8"/>
<stop offset="0.9392" stop-color="#A5A6B9"/>
<stop offset="1" stop-color="#9D9EB3"/>
</radialGradient>
<linearGradient id="paint58_linear" x1="38.5075" y1="68.564" x2="39.4331" y2="68.564" gradientUnits="userSpaceOnUse">
<stop stop-color="#9C9C9C"/>
<stop offset="0.0047" stop-color="#9D9D9D"/>
<stop offset="0.3149" stop-color="#C7C7C7"/>
<stop offset="0.595" stop-color="#E6E6E6"/>
<stop offset="0.8328" stop-color="#F8F8F8"/>
<stop offset="1" stop-color="white"/>
</linearGradient>
<radialGradient id="paint59_radial" cx="0" cy="0" r="1" gradientUnits="userSpaceOnUse" gradientTransform="translate(38.5524 68.2397) scale(0.897872 0.893304)">
<stop stop-color="#EEEBF2"/>
<stop offset="0.5808" stop-color="#D4D1D8"/>
<stop offset="0.9392" stop-color="#A5A6B9"/>
<stop offset="1" stop-color="#9D9EB3"/>
</radialGradient>
<radialGradient id="paint60_radial" cx="0" cy="0" r="1" gradientUnits="userSpaceOnUse" gradientTransform="translate(37.194 63.6816) scale(3.55789 3.53981)">
<stop stop-color="white"/>
<stop offset="1" stop-color="white"/>
</radialGradient>
<linearGradient id="paint61_linear" x1="18.1735" y1="53.3909" x2="33.2171" y2="61.9585" gradientUnits="userSpaceOnUse">
<stop stop-color="#25054D"/>
<stop offset="1" stop-color="#45108A"/>
</linearGradient>
<linearGradient id="paint62_linear" x1="18.1617" y1="53.4111" x2="33.2053" y2="61.9786" gradientUnits="userSpaceOnUse">
<stop stop-color="#25054D"/>
<stop offset="1" stop-color="#45108A"/>
</linearGradient>
<linearGradient id="paint63_linear" x1="18.1542" y1="53.425" x2="33.1978" y2="61.9926" gradientUnits="userSpaceOnUse">
<stop stop-color="#25054D"/>
<stop offset="1" stop-color="#45108A"/>
</linearGradient>
<linearGradient id="paint64_linear" x1="18.1492" y1="53.4352" x2="33.1925" y2="62.0025" gradientUnits="userSpaceOnUse">
<stop stop-color="#25054D"/>
<stop offset="1" stop-color="#45108A"/>
</linearGradient>
<linearGradient id="paint65_linear" x1="18.1424" y1="53.4439" x2="33.1858" y2="62.0114" gradientUnits="userSpaceOnUse">
<stop stop-color="#25054D"/>
<stop offset="1" stop-color="#45108A"/>
</linearGradient>
<linearGradient id="paint66_linear" x1="18.1339" y1="53.4617" x2="33.1773" y2="62.0292" gradientUnits="userSpaceOnUse">
<stop stop-color="#25054D"/>
<stop offset="1" stop-color="#45108A"/>
</linearGradient>
<linearGradient id="paint67_linear" x1="18.1245" y1="53.477" x2="33.1681" y2="62.0446" gradientUnits="userSpaceOnUse">
<stop stop-color="#25054D"/>
<stop offset="1" stop-color="#45108A"/>
</linearGradient>
<linearGradient id="paint68_linear" x1="18.1183" y1="53.4885" x2="33.1617" y2="62.056" gradientUnits="userSpaceOnUse">
<stop stop-color="#25054D"/>
<stop offset="1" stop-color="#45108A"/>
</linearGradient>
<linearGradient id="paint69_linear" x1="17.2608" y1="54.9931" x2="32.3041" y2="63.5605" gradientUnits="userSpaceOnUse">
<stop stop-color="#25054D"/>
<stop offset="1" stop-color="#45108A"/>
</linearGradient>
<linearGradient id="paint70_linear" x1="17.2625" y1="54.9917" x2="32.306" y2="63.5593" gradientUnits="userSpaceOnUse">
<stop stop-color="#25054D"/>
<stop offset="1" stop-color="#45108A"/>
</linearGradient>
<linearGradient id="paint71_linear" x1="17.2625" y1="54.9906" x2="32.306" y2="63.5581" gradientUnits="userSpaceOnUse">
<stop stop-color="#25054D"/>
<stop offset="1" stop-color="#45108A"/>
</linearGradient>
<linearGradient id="paint72_linear" x1="17.2635" y1="54.9892" x2="32.3069" y2="63.5567" gradientUnits="userSpaceOnUse">
<stop stop-color="#25054D"/>
<stop offset="1" stop-color="#45108A"/>
</linearGradient>
<linearGradient id="paint73_linear" x1="17.2633" y1="54.988" x2="32.307" y2="63.5558" gradientUnits="userSpaceOnUse">
<stop stop-color="#25054D"/>
<stop offset="1" stop-color="#45108A"/>
</linearGradient>
<linearGradient id="paint74_linear" x1="17.2653" y1="54.9867" x2="32.3089" y2="63.5543" gradientUnits="userSpaceOnUse">
<stop stop-color="#25054D"/>
<stop offset="1" stop-color="#45108A"/>
</linearGradient>
<linearGradient id="paint75_linear" x1="17.2653" y1="54.9853" x2="32.3089" y2="63.553" gradientUnits="userSpaceOnUse">
<stop stop-color="#25054D"/>
<stop offset="1" stop-color="#45108A"/>
</linearGradient>
<linearGradient id="paint76_linear" x1="17.2661" y1="54.9842" x2="32.3097" y2="63.5517" gradientUnits="userSpaceOnUse">
<stop stop-color="#25054D"/>
<stop offset="1" stop-color="#45108A"/>
</linearGradient>
<linearGradient id="paint77_linear" x1="17.267" y1="54.9826" x2="32.3107" y2="63.5502" gradientUnits="userSpaceOnUse">
<stop stop-color="#25054D"/>
<stop offset="1" stop-color="#45108A"/>
</linearGradient>
<linearGradient id="paint78_linear" x1="17.2678" y1="54.9815" x2="32.3116" y2="63.5492" gradientUnits="userSpaceOnUse">
<stop stop-color="#25054D"/>
<stop offset="1" stop-color="#45108A"/>
</linearGradient>
<linearGradient id="paint79_linear" x1="23.0239" y1="67.3874" x2="5.54581" y2="63.4494" gradientUnits="userSpaceOnUse">
<stop offset="0.0354" stop-color="#FFA98C"/>
<stop offset="0.3169" stop-color="#FFB892"/>
<stop offset="0.8601" stop-color="#FEE1A3"/>
<stop offset="1" stop-color="#FEECA8"/>
</linearGradient>
<linearGradient id="paint80_linear" x1="19.649" y1="65.8939" x2="11.7245" y2="63.5089" gradientUnits="userSpaceOnUse">
<stop offset="0.0354" stop-color="#FFA98C"/>
<stop offset="0.3169" stop-color="#FFB892"/>
<stop offset="0.8601" stop-color="#FEE1A3"/>
<stop offset="1" stop-color="#FEECA8"/>
</linearGradient>
<linearGradient id="paint81_linear" x1="12.1335" y1="54.0956" x2="16.7104" y2="62.8628" gradientUnits="userSpaceOnUse">
<stop offset="0.0354" stop-color="#FFA98C"/>
<stop offset="0.3169" stop-color="#FFB892"/>
<stop offset="0.8601" stop-color="#FEE1A3"/>
<stop offset="1" stop-color="#FEECA8"/>
</linearGradient>
<linearGradient id="paint82_linear" x1="14.5106" y1="63.9048" x2="11.9766" y2="63.1421" gradientUnits="userSpaceOnUse">
<stop offset="0.0354" stop-color="#C97052"/>
<stop offset="0.3358" stop-color="#D47E61"/>
<stop offset="0.9155" stop-color="#F2A48A"/>
<stop offset="1" stop-color="#F7AA90"/>
</linearGradient>
<linearGradient id="paint83_linear" x1="15.1303" y1="59.986" x2="16.3464" y2="62.3154" gradientUnits="userSpaceOnUse">
<stop offset="0.0354" stop-color="#C97052"/>
<stop offset="0.3358" stop-color="#D47E61"/>
<stop offset="0.9155" stop-color="#F2A48A"/>
<stop offset="1" stop-color="#F7AA90"/>
</linearGradient>
<linearGradient id="paint84_linear" x1="15.8184" y1="67.1372" x2="14.5098" y2="67.5683" gradientUnits="userSpaceOnUse">
<stop offset="0.0354" stop-color="#C97052"/>
<stop offset="0.3358" stop-color="#D47E61"/>
<stop offset="0.9155" stop-color="#F2A48A"/>
<stop offset="1" stop-color="#F7AA90"/>
</linearGradient>
<linearGradient id="paint85_linear" x1="15.0264" y1="66.6824" x2="13.7179" y2="67.1136" gradientUnits="userSpaceOnUse">
<stop offset="0.0354" stop-color="#C97052"/>
<stop offset="0.3358" stop-color="#D47E61"/>
<stop offset="0.9155" stop-color="#F2A48A"/>
<stop offset="1" stop-color="#F7AA90"/>
</linearGradient>
<linearGradient id="paint86_linear" x1="16.3441" y1="69.705" x2="0.949753" y2="66.2365" gradientUnits="userSpaceOnUse">
<stop offset="0.0354" stop-color="#FFA98C"/>
<stop offset="0.3169" stop-color="#FFB892"/>
<stop offset="0.8601" stop-color="#FEE1A3"/>
<stop offset="1" stop-color="#FEECA8"/>
</linearGradient>
<linearGradient id="paint87_linear" x1="13.3729" y1="68.3893" x2="6.39315" y2="66.2887" gradientUnits="userSpaceOnUse">
<stop offset="0.0354" stop-color="#FFA98C"/>
<stop offset="0.3169" stop-color="#FFB892"/>
<stop offset="0.8601" stop-color="#FEE1A3"/>
<stop offset="1" stop-color="#FEECA8"/>
</linearGradient>
<linearGradient id="paint88_linear" x1="6.75303" y1="57.9978" x2="10.7843" y2="65.7198" gradientUnits="userSpaceOnUse">
<stop offset="0.0354" stop-color="#FFA98C"/>
<stop offset="0.3169" stop-color="#FFB892"/>
<stop offset="0.8601" stop-color="#FEE1A3"/>
<stop offset="1" stop-color="#FEECA8"/>
</linearGradient>
<linearGradient id="paint89_linear" x1="8.84549" y1="66.6377" x2="6.61356" y2="65.966" gradientUnits="userSpaceOnUse">
<stop offset="0.0354" stop-color="#C97052"/>
<stop offset="0.3358" stop-color="#D47E61"/>
<stop offset="0.9155" stop-color="#F2A48A"/>
<stop offset="1" stop-color="#F7AA90"/>
</linearGradient>
<linearGradient id="paint90_linear" x1="9.39133" y1="63.1861" x2="10.4625" y2="65.2378" gradientUnits="userSpaceOnUse">
<stop offset="0.0354" stop-color="#C97052"/>
<stop offset="0.3358" stop-color="#D47E61"/>
<stop offset="0.9155" stop-color="#F2A48A"/>
<stop offset="1" stop-color="#F7AA90"/>
</linearGradient>
<linearGradient id="paint91_linear" x1="9.99759" y1="69.4845" x2="8.84492" y2="69.8642" gradientUnits="userSpaceOnUse">
<stop offset="0.0354" stop-color="#C97052"/>
<stop offset="0.3358" stop-color="#D47E61"/>
<stop offset="0.9155" stop-color="#F2A48A"/>
<stop offset="1" stop-color="#F7AA90"/>
</linearGradient>
<linearGradient id="paint92_linear" x1="9.30018" y1="69.0839" x2="8.14758" y2="69.4637" gradientUnits="userSpaceOnUse">
<stop offset="0.0354" stop-color="#C97052"/>
<stop offset="0.3358" stop-color="#D47E61"/>
<stop offset="0.9155" stop-color="#F2A48A"/>
<stop offset="1" stop-color="#F7AA90"/>
</linearGradient>
<linearGradient id="paint93_linear" x1="16.1964" y1="69.6317" x2="25.6668" y2="66.7815" gradientUnits="userSpaceOnUse">
<stop offset="0.0354" stop-color="#FFA98C"/>
<stop offset="0.3169" stop-color="#FFB892"/>
<stop offset="0.8601" stop-color="#FEE1A3"/>
<stop offset="1" stop-color="#FEECA8"/>
</linearGradient>
<linearGradient id="paint94_linear" x1="7.54193" y1="70.7775" x2="19.4898" y2="68.0855" gradientUnits="userSpaceOnUse">
<stop offset="0.0354" stop-color="#FFA98C"/>
<stop offset="0.3169" stop-color="#FFB892"/>
<stop offset="0.8601" stop-color="#FEE1A3"/>
<stop offset="1" stop-color="#FEECA8"/>
</linearGradient>
<linearGradient id="paint95_linear" x1="18.975" y1="59.3902" x2="14.9437" y2="67.1122" gradientUnits="userSpaceOnUse">
<stop offset="0.0354" stop-color="#FFA98C"/>
<stop offset="0.3169" stop-color="#FFB892"/>
<stop offset="0.8601" stop-color="#FEE1A3"/>
<stop offset="1" stop-color="#FEECA8"/>
</linearGradient>
<linearGradient id="paint96_linear" x1="16.8817" y1="68.0301" x2="19.1136" y2="67.3583" gradientUnits="userSpaceOnUse">
<stop offset="0.0354" stop-color="#C97052"/>
<stop offset="0.3358" stop-color="#D47E61"/>
<stop offset="0.9155" stop-color="#F2A48A"/>
<stop offset="1" stop-color="#F7AA90"/>
</linearGradient>
<linearGradient id="paint97_linear" x1="16.3351" y1="64.5784" x2="15.2639" y2="66.6302" gradientUnits="userSpaceOnUse">
<stop offset="0.0354" stop-color="#C97052"/>
<stop offset="0.3358" stop-color="#D47E61"/>
<stop offset="0.9155" stop-color="#F2A48A"/>
<stop offset="1" stop-color="#F7AA90"/>
</linearGradient>
<linearGradient id="paint98_linear" x1="15.7297" y1="70.877" x2="16.8823" y2="71.2568" gradientUnits="userSpaceOnUse">
<stop offset="0.0354" stop-color="#C97052"/>
<stop offset="0.3358" stop-color="#D47E61"/>
<stop offset="0.9155" stop-color="#F2A48A"/>
<stop offset="1" stop-color="#F7AA90"/>
</linearGradient>
<linearGradient id="paint99_linear" x1="16.4268" y1="70.4765" x2="17.5794" y2="70.8563" gradientUnits="userSpaceOnUse">
<stop offset="0.0354" stop-color="#C97052"/>
<stop offset="0.3358" stop-color="#D47E61"/>
<stop offset="0.9155" stop-color="#F2A48A"/>
<stop offset="1" stop-color="#F7AA90"/>
</linearGradient>
<linearGradient id="paint100_linear" x1="14.3187" y1="64.4601" x2="22.3075" y2="62.0558" gradientUnits="userSpaceOnUse">
<stop offset="0.0354" stop-color="#FFA98C"/>
<stop offset="0.3169" stop-color="#FFB892"/>
<stop offset="0.8601" stop-color="#FEE1A3"/>
<stop offset="1" stop-color="#FEECA8"/>
</linearGradient>
<linearGradient id="paint101_linear" x1="7.01745" y1="65.4267" x2="17.0961" y2="63.1559" gradientUnits="userSpaceOnUse">
<stop offset="0.0354" stop-color="#FFA98C"/>
<stop offset="0.3169" stop-color="#FFB892"/>
<stop offset="0.8601" stop-color="#FEE1A3"/>
<stop offset="1" stop-color="#FEECA8"/>
</linearGradient>
<linearGradient id="paint102_linear" x1="16.6619" y1="55.8206" x2="13.2613" y2="62.3346" gradientUnits="userSpaceOnUse">
<stop offset="0.0354" stop-color="#FFA98C"/>
<stop offset="0.3169" stop-color="#FFB892"/>
<stop offset="0.8601" stop-color="#FEE1A3"/>
<stop offset="1" stop-color="#FEECA8"/>
</linearGradient>
<linearGradient id="paint103_linear" x1="14.8961" y1="63.1089" x2="16.7789" y2="62.5422" gradientUnits="userSpaceOnUse">
<stop offset="0.0354" stop-color="#C97052"/>
<stop offset="0.3358" stop-color="#D47E61"/>
<stop offset="0.9155" stop-color="#F2A48A"/>
<stop offset="1" stop-color="#F7AA90"/>
</linearGradient>
<linearGradient id="paint104_linear" x1="14.4359" y1="60.1974" x2="13.5323" y2="61.9282" gradientUnits="userSpaceOnUse">
<stop offset="0.0354" stop-color="#C97052"/>
<stop offset="0.3358" stop-color="#D47E61"/>
<stop offset="0.9155" stop-color="#F2A48A"/>
<stop offset="1" stop-color="#F7AA90"/>
</linearGradient>
<linearGradient id="paint105_linear" x1="13.9234" y1="65.5105" x2="14.8957" y2="65.8308" gradientUnits="userSpaceOnUse">
<stop offset="0.0354" stop-color="#C97052"/>
<stop offset="0.3358" stop-color="#D47E61"/>
<stop offset="0.9155" stop-color="#F2A48A"/>
<stop offset="1" stop-color="#F7AA90"/>
</linearGradient>
<linearGradient id="paint106_linear" x1="14.5114" y1="65.1727" x2="15.4838" y2="65.4931" gradientUnits="userSpaceOnUse">
<stop offset="0.0354" stop-color="#C97052"/>
<stop offset="0.3358" stop-color="#D47E61"/>
<stop offset="0.9155" stop-color="#F2A48A"/>
<stop offset="1" stop-color="#F7AA90"/>
</linearGradient>
<linearGradient id="paint107_linear" x1="26.2458" y1="75.5799" x2="19.8855" y2="75.5799" gradientUnits="userSpaceOnUse">
<stop offset="0.0354" stop-color="#9F19AB"/>
<stop offset="0.1305" stop-color="#A31CAC"/>
<stop offset="0.2214" stop-color="#AE25B1"/>
<stop offset="0.3104" stop-color="#C234B8"/>
<stop offset="0.3978" stop-color="#DC48C1"/>
<stop offset="0.4843" stop-color="#FF63CE"/>
<stop offset="0.4848" stop-color="#FF63CE"/>
<stop offset="0.6075" stop-color="#ED55C7"/>
<stop offset="0.7445" stop-color="#E04BC3"/>
<stop offset="0.8737" stop-color="#DC48C1"/>
</linearGradient>
<linearGradient id="paint108_linear" x1="26.7692" y1="67.5607" x2="22.6018" y2="75.5434" gradientUnits="userSpaceOnUse">
<stop offset="0.0354" stop-color="#9F19AB"/>
<stop offset="0.2438" stop-color="#AE25B1"/>
<stop offset="0.6455" stop-color="#D744BF"/>
<stop offset="1" stop-color="#FF63CE"/>
</linearGradient>
<radialGradient id="paint109_radial" cx="0" cy="0" r="1" gradientUnits="userSpaceOnUse" gradientTransform="translate(22.7694 75.4505) scale(1.78879 1.7797)">
<stop stop-color="white"/>
<stop offset="1"/>
</radialGradient>
<linearGradient id="paint110_linear" x1="26.2458" y1="75.9384" x2="19.8855" y2="75.9384" gradientUnits="userSpaceOnUse">
<stop offset="0.0354" stop-color="#9F19AB"/>
<stop offset="0.1305" stop-color="#A31CAC"/>
<stop offset="0.2214" stop-color="#AE25B1"/>
<stop offset="0.3104" stop-color="#C234B8"/>
<stop offset="0.3978" stop-color="#DC48C1"/>
<stop offset="0.4843" stop-color="#FF63CE"/>
<stop offset="0.4848" stop-color="#FF63CE"/>
<stop offset="0.6075" stop-color="#ED55C7"/>
<stop offset="0.7445" stop-color="#E04BC3"/>
<stop offset="0.8737" stop-color="#DC48C1"/>
</linearGradient>
<linearGradient id="paint111_linear" x1="21.6337" y1="72.3031" x2="24.8939" y2="72.9937" gradientUnits="userSpaceOnUse">
<stop offset="0.0101" stop-color="#C1A1D5"/>
<stop offset="0.0488" stop-color="#C8ABDA"/>
<stop offset="0.1149" stop-color="#DAC6E6"/>
<stop offset="0.1998" stop-color="#F7F2F9"/>
<stop offset="0.2222" stop-color="white"/>
<stop offset="0.255" stop-color="#F9F5FB"/>
<stop offset="0.3097" stop-color="#E8DBEF"/>
<stop offset="0.3586" stop-color="#D5BFE3"/>
<stop offset="0.4008" stop-color="#C7AFE1"/>
<stop offset="0.4788" stop-color="#B397DE"/>
<stop offset="0.551" stop-color="#A788DC"/>
<stop offset="0.6111" stop-color="#A383DB"/>
<stop offset="0.761" stop-color="#AE8DDC"/>
<stop offset="1" stop-color="#C8A6DE"/>
</linearGradient>
<linearGradient id="paint112_linear" x1="21.7084" y1="69.1342" x2="23.5394" y2="70.0544" gradientUnits="userSpaceOnUse">
<stop offset="0.0354" stop-color="#9F19AB"/>
<stop offset="0.2438" stop-color="#AE25B1"/>
<stop offset="0.6455" stop-color="#D744BF"/>
<stop offset="1" stop-color="#FF63CE"/>
</linearGradient>
<linearGradient id="paint113_linear" x1="21.3369" y1="73.9273" x2="24.5463" y2="74.6055" gradientUnits="userSpaceOnUse">
<stop stop-color="#C211A1"/>
<stop offset="0.0337" stop-color="#C518A5"/>
<stop offset="0.084" stop-color="#CE2DAF"/>
<stop offset="0.0909" stop-color="#CF30B1"/>
<stop offset="0.2071" stop-color="#FF63CE"/>
<stop offset="0.2805" stop-color="#EB48BF"/>
<stop offset="0.4091" stop-color="#C211A1"/>
<stop offset="0.5404" stop-color="#A919AB"/>
<stop offset="0.7309" stop-color="#AC18AA"/>
<stop offset="0.8963" stop-color="#B714A5"/>
<stop offset="1" stop-color="#C211A1"/>
</linearGradient>
<linearGradient id="paint114_linear" x1="21.7206" y1="72.1111" x2="24.9301" y2="72.7893" gradientUnits="userSpaceOnUse">
<stop stop-color="#C211A1"/>
<stop offset="0.0337" stop-color="#C518A5"/>
<stop offset="0.084" stop-color="#CE2DAF"/>
<stop offset="0.0909" stop-color="#CF30B1"/>
<stop offset="0.2071" stop-color="#FF63CE"/>
<stop offset="0.2805" stop-color="#EB48BF"/>
<stop offset="0.4091" stop-color="#C211A1"/>
<stop offset="0.5404" stop-color="#A919AB"/>
<stop offset="0.7309" stop-color="#AC18AA"/>
<stop offset="0.8963" stop-color="#B714A5"/>
<stop offset="1" stop-color="#C211A1"/>
</linearGradient>
<linearGradient id="paint115_linear" x1="22.1078" y1="70.2792" x2="25.3173" y2="70.9574" gradientUnits="userSpaceOnUse">
<stop stop-color="#C211A1"/>
<stop offset="0.0337" stop-color="#C518A5"/>
<stop offset="0.084" stop-color="#CE2DAF"/>
<stop offset="0.0909" stop-color="#CF30B1"/>
<stop offset="0.2071" stop-color="#FF63CE"/>
<stop offset="0.2805" stop-color="#EB48BF"/>
<stop offset="0.4091" stop-color="#C211A1"/>
<stop offset="0.5404" stop-color="#A919AB"/>
<stop offset="0.7309" stop-color="#AC18AA"/>
<stop offset="0.8963" stop-color="#B714A5"/>
<stop offset="1" stop-color="#C211A1"/>
</linearGradient>
<linearGradient id="paint116_linear" x1="23.5951" y1="69.8088" x2="22.4809" y2="69.8088" gradientUnits="userSpaceOnUse">
<stop offset="0.0354" stop-color="#9F19AB"/>
<stop offset="0.1641" stop-color="#AE25B1"/>
<stop offset="0.4123" stop-color="#D744BF"/>
<stop offset="0.6313" stop-color="#FF63CE"/>
<stop offset="0.8737" stop-color="#DC48C1"/>
</linearGradient>
<linearGradient id="paint117_linear" x1="23.1046" y1="69.6108" x2="23.1046" y2="71.5051" gradientUnits="userSpaceOnUse">
<stop stop-color="white"/>
<stop offset="1"/>
</linearGradient>
<linearGradient id="paint118_linear" x1="71.9458" y1="38.9173" x2="66.4283" y2="26.3175" gradientUnits="userSpaceOnUse">
<stop offset="0.0354" stop-color="#9F19AB"/>
<stop offset="0.1641" stop-color="#AE25B1"/>
<stop offset="0.4123" stop-color="#D744BF"/>
<stop offset="0.6313" stop-color="#FF63CE"/>
<stop offset="0.8737" stop-color="#DC48C1"/>
</linearGradient>
<linearGradient id="paint119_linear" x1="62.1582" y1="37.5942" x2="72.9323" y2="28.7705" gradientUnits="userSpaceOnUse">
<stop offset="0.0354" stop-color="#9F19AB"/>
<stop offset="0.2438" stop-color="#AE25B1"/>
<stop offset="0.6455" stop-color="#D744BF"/>
<stop offset="1" stop-color="#FF63CE"/>
</linearGradient>
<linearGradient id="paint120_linear" x1="69.3626" y1="33.3264" x2="66.4261" y2="30.8387" gradientUnits="userSpaceOnUse">
<stop offset="0.0354" stop-color="#9D9EB3"/>
<stop offset="0.5808" stop-color="#D4D1D8"/>
<stop offset="1" stop-color="#EEEBF2"/>
</linearGradient>
</defs>
</svg>
