<svg width="100" height="100" viewBox="0 0 100 100" fill="none" xmlns="http://www.w3.org/2000/svg">
<path d="M36.9015 63.9725C37.7945 64.3359 39.0335 64.3098 39.869 63.9198H39.8725L39.883 63.9268C40.6993 63.4538 41.6736 63.3763 42.189 64.1298C42.2184 64.1716 46.6666 70.4683 46.776 70.6232C47.1739 71.1994 47.9133 71.137 48.5325 70.7773V71.5025C47.9095 71.8632 47.1876 72.0035 46.6491 71.6881C46.2932 71.4858 46.6613 71.9037 41.6396 64.8058C41.2346 64.2278 40.5026 64.2944 39.883 64.6516C39.186 65.051 38.1581 65.1208 37.345 64.8899C37.2149 64.6869 37.06 64.5009 36.877 64.3471C36.877 64.2247 36.877 64.1054 36.877 63.9864C36.884 63.9829 36.8945 63.9759 36.9015 63.9725Z" fill="#5B869C"/>
<path d="M68.3357 36.2336V42.6782L68.2582 42.72C61.9956 39.1229 62.3627 39.3186 59.5771 37.736C59.5771 36.6735 59.5771 33.7789 59.5771 31.2249C69.3584 36.8448 67.3315 35.657 68.3357 36.2336Z" fill="#9A8DC3"/>
<path d="M68.6179 22.1499V29.5087L59.0674 24.0203C59.0674 21.7812 59.0674 18.8863 59.0674 16.6619L68.6179 22.1499Z" fill="#EC624D"/>
<path d="M59.5754 31.2254L58.4629 30.5881V25.2085L67.3234 30.2975V35.6527C58.9807 30.8626 59.5754 31.1835 59.5754 31.2254Z" fill="#FBB819"/>
<path d="M58.4644 23.8593L59.0664 23.5161V24.0205L68.6169 29.5089L76.7384 24.8437V22.83L78.5338 23.8597C79.1562 24.2214 79.2088 24.8155 78.5338 25.2082L69.6698 30.2972C69.0184 30.6719 67.9729 30.6719 67.3253 30.2972L58.4648 25.2082C57.7863 24.8172 57.8473 24.2151 58.4644 23.8593Z" fill="#FED37B"/>
<path d="M58.4645 25.2077V30.5873C58.1054 30.3808 57.9785 30.1181 57.9785 29.9113C57.9785 28.1215 57.9785 26.3317 57.9785 24.5387C57.9785 24.7769 58.13 25.0148 58.4645 25.2077Z" fill="#FBB819"/>
<path d="M27.6748 39.4207C25.7808 38.3383 23.8939 37.2528 21.9999 36.1669C21.8519 36.0793 21.7148 35.8763 21.7148 35.5331C21.7148 35.155 21.8733 34.7835 22.0809 34.458C22.2429 34.1988 22.4364 33.9711 22.7214 33.8277C22.9329 33.7192 23.1965 33.663 23.3904 33.7715C25.2739 34.8539 27.157 35.9395 29.0404 37.0219L29.0369 37.0289C29.0054 37.0184 28.97 37.0079 28.9349 37.0009C28.3532 36.9068 27.4424 37.8751 27.4424 38.8222C27.4424 39.1089 27.5304 39.3088 27.6748 39.4207Z" fill="#6D8192"/>
<path d="M50.5713 71.9513V72.6761L48.5332 71.503V70.7778L50.5713 71.9513Z" fill="#5B869C"/>
<path d="M46.6368 50.3165C46.6368 51.4199 46.6368 52.5197 46.6368 53.6227C46.5947 53.6227 47.006 53.8184 42.4793 51.2339V51.2304C42.1343 51.0344 41.7893 50.8345 41.4443 50.6385C41.4443 50.1508 41.4443 49.2132 41.4443 48.7541C41.7294 48.285 42.0253 47.8472 42.3279 47.4338C42.8173 47.7139 43.3064 47.9944 43.7924 48.2745H43.7959C43.8099 48.5829 43.9368 48.765 44.0774 48.8455C44.9329 49.336 45.7848 49.8264 46.6368 50.3165Z" fill="#EB599B"/>
<path d="M59.306 65.7592C58.0372 66.4879 55.983 66.4949 54.6521 65.7383C47.0232 61.3543 47.5186 61.6539 47.2525 61.4512C47.0166 61.2692 46.802 60.9925 46.7035 60.6981C46.26 60.9172 48.4369 59.712 41.585 63.6366C41.8101 63.7713 41.9917 63.8396 42.1905 64.1306C47.221 71.2529 46.8279 70.761 47.0979 70.9218C47.5099 71.1566 48.0519 71.0586 48.534 70.7781L50.5724 71.9516L59.521 66.8134C59.535 66.4 59.5735 65.9832 59.637 65.5702L59.306 65.7592Z" fill="#A1B5C2"/>
<path d="M68.2583 42.7196L57.7464 48.7578C57.3274 48.9995 56.6374 48.9821 56.2114 48.7369L49.1779 44.6985C48.7484 44.4498 48.7239 44.0542 49.1428 43.816C59.735 37.7294 59.6123 37.7778 59.6544 37.7778L68.2583 42.7196Z" fill="#EE76AB"/>
<path d="M48.0399 43.7077C54.5542 39.9599 51.0702 41.9688 59.5759 37.0811V37.7361L59.6499 37.778L49.1419 43.8162C48.7229 44.0544 48.7475 44.45 49.1769 44.6987L56.2105 48.737C56.6364 48.9823 57.3264 48.9997 57.7454 48.758L68.2573 42.7198L68.3348 42.7652L75.0622 38.8984C75.8932 39.4168 76.5478 40.5759 76.5478 41.5429L59.3053 51.4478C58.0063 52.1939 55.9223 52.1552 54.6513 51.4268L47.6178 47.385C47.1038 47.0909 46.6357 46.6214 46.6357 46.0295C46.6354 45.1051 47.1389 44.2225 48.0399 43.7077Z" fill="#EB599B"/>
<path d="M47.6181 47.3849L54.6517 51.4267C55.9226 52.1551 58.0066 52.1938 59.3056 51.4477V59.314C59.0697 59.7134 58.8481 60.116 58.6437 60.5189H58.6472C58.6892 60.5398 59.2635 60.8761 59.3056 60.9005V65.7582C58.0368 66.4869 55.9826 66.4939 54.6517 65.7373C47.0228 61.3533 47.5182 61.6529 47.2521 61.4502C46.8559 61.1443 46.6361 60.6839 46.6361 60.3399C46.6361 56.9985 46.6361 53.6568 46.6361 50.3161C47.6921 50.922 48.7481 51.5279 49.8042 52.1338L49.8077 52.1268C49.9788 52.2402 50.1804 52.2137 50.3672 52.1303C51.2038 51.7815 51.9005 50.2094 51.1947 49.7416H51.1912C49.6702 48.866 48.1532 47.9975 46.6357 47.125C46.6357 46.7574 46.6357 46.3932 46.6357 46.0287C46.6361 46.6217 47.1042 47.0909 47.6181 47.3849Z" fill="#EB599B"/>
<path d="M45.8442 53.1679C44.8726 55.28 44.3762 57.2694 44.4782 59.5772C44.5133 60.3269 44.6682 61.0343 44.9428 61.7068C44.6367 61.8854 44.3303 62.0605 44.0238 62.2356C43.9744 62.2042 43.9218 62.176 43.8689 62.1446C42.5804 61.4054 41.8024 60.1448 41.4434 58.7296V54.3972C41.6618 53.35 41.9924 52.3133 42.4784 51.2344C44.1753 52.2031 45.3789 52.9018 45.8442 53.1679Z" fill="#204D5E"/>
<path d="M49.8054 52.1346C44.6718 49.1894 45.603 49.72 44.0779 48.8458C43.4184 48.4684 44.0011 46.9036 44.7994 46.5063C44.81 46.5028 44.817 46.4958 44.8275 46.4923C45.0315 46.3978 45.2815 46.3451 45.468 46.4539C45.5322 46.4909 51.136 49.7102 51.1921 49.7427C50.6111 49.3994 49.5481 50.4326 49.52 51.5046C49.5053 51.8126 49.6305 52.0201 49.8086 52.1279L49.8054 52.1346Z" fill="#6D8192"/>
<path d="M72.1165 57.7734C69.941 59.0236 67.5786 61.4406 65.9451 64.7119C65.9136 64.6944 63.3156 63.2021 63.291 63.1882C65.2446 59.3741 68.0046 56.593 70.5111 55.1537C74.7159 52.7329 77.1067 54.4986 77.1575 54.4986C80.3266 56.3885 81.0124 60.2249 80.4104 63.8185C80.3754 64.0463 80.1254 64.1792 79.8684 64.2458C80.8999 57.9485 77.066 54.9294 72.1165 57.7734Z" fill="#E94690"/>
<path d="M77.4723 58.3446C78.5882 59.15 79.2642 60.6528 79.2712 62.6944H79.2642C78.8803 62.4771 78.5002 62.2567 78.1167 62.0359C78.1766 60.7504 78.0006 59.4685 77.4688 58.3477L77.4723 58.3446Z" fill="#E24612"/>
<path d="M78.5332 25.2077C78.8642 25.0152 79.0191 24.7769 79.0191 24.5387C79.0191 26.332 79.0191 28.1218 79.0191 29.9113C79.0191 30.1949 78.8007 30.4331 78.5332 30.5873V25.2077Z" fill="#F18528"/>
<path d="M78.533 25.208V30.5876L77.0899 31.4143V31.4178L69.6689 35.6766V30.297L78.533 25.208Z" fill="#F18528"/>
<path d="M68.3359 42.7658C68.3359 40.4552 68.3359 38.6943 68.3359 36.2337L68.8604 35.9327C69.1564 35.8975 69.4379 35.8099 69.6703 35.677L77.0913 31.4178V37.7361C74.3976 39.2807 76.2134 38.2381 68.3359 42.7658Z" fill="#624D9B"/>
<path d="M76.7367 24.8437L68.6152 29.5089V22.15L76.7367 17.4849C76.7367 19.1917 76.7367 23.1055 76.7367 24.8437Z" fill="#EC624D"/>
<path d="M76.7397 17.4849L68.6183 22.1501L59.0674 16.662L67.1888 12L76.7397 17.4849Z" fill="#EF7E74"/>
<path d="M76.5482 54.1484V54.208C74.6367 53.4549 72.3907 54.0713 70.5107 55.1537C68.0043 56.5933 65.2443 59.3741 63.2907 63.1882C62.9362 62.9844 59.8123 61.1908 59.5098 61.0167C61.4637 57.2027 64.2237 54.4215 66.7302 52.9822C68.7826 51.8018 71.3136 51.1506 73.3766 52.3272C74.4326 52.9331 75.4922 53.539 76.5482 54.1484Z" fill="#EE76AB"/>
<path d="M76.5491 41.5433V54.1485C75.4931 53.5391 74.4336 52.9332 73.3772 52.3273C71.4198 51.203 68.6528 51.0732 65.5552 52.8526C63.0101 54.3131 60.8381 56.7298 59.3066 59.3146V51.4482L76.5491 41.5433Z" fill="#E94690"/>
<path d="M71.5111 64.6557L71.5146 64.6522C71.5216 64.6522 71.5286 64.6557 71.5391 64.6627C71.6888 64.737 71.8631 64.8933 71.9721 65.083C72.3644 65.7702 71.9391 66.6374 71.1555 66.7466C70.9196 66.778 70.6805 66.7361 70.4761 66.6276L70.4796 66.6206C70.4021 66.5819 70.3316 66.5191 70.2895 66.449C70.0925 66.148 70.2545 65.2686 70.9056 64.7959C71.0931 64.6571 71.3017 64.5633 71.5111 64.6557Z" fill="#CD4793"/>
<path d="M73.254 62.7782C73.254 65.7659 70.6805 69.0651 68.5015 69.454C67.3715 69.6571 66.5546 69.1457 66.2061 68.1442C66.3396 65.2615 68.3816 61.7872 70.7825 60.2566C70.7825 60.2566 70.7825 60.2566 70.786 60.2566C72.1169 60.0009 73.254 60.8133 73.254 62.7782ZM70.1493 63.8606C70.0859 63.8327 70.0189 63.8184 69.9523 63.8184C69.6143 63.8184 68.9562 64.3438 68.8433 65.1457C68.8065 65.4119 68.8339 65.6532 69.0653 65.7973L69.0582 65.8113C70.2212 66.474 70.4179 66.5947 70.4417 66.6062C71.0918 67.0374 72.1208 66.5483 72.1208 65.6396C72.1208 65.2479 71.9199 64.8809 71.5609 64.673C71.4326 64.6092 70.1911 63.8791 70.1493 63.8606Z" fill="#9FB7BF"/>
<path d="M66.2048 68.1441C66.5533 69.1459 67.3699 69.6569 68.5002 69.4539C70.6793 69.065 73.2527 65.7658 73.2527 62.7781C73.2527 60.8132 72.1157 60.0008 70.7851 60.2565C71.4808 59.8054 72.6388 59.3049 73.3621 59.7032C73.3691 59.7032 73.3726 59.7067 73.3796 59.7102C73.9182 60.029 74.2951 60.614 74.5026 61.2234C74.7947 62.0885 74.7351 62.9958 74.5591 63.8748C74.1156 66.1164 72.9431 68.1092 71.2395 69.5907C70.5636 70.1826 69.8031 70.687 68.902 70.8656C68.0388 71.0432 67.2843 70.8496 66.987 70.6274C66.2935 70.1826 66.1666 68.9673 66.2055 68.1511C66.2048 68.1476 66.2048 68.1476 66.2048 68.1441Z" fill="#204D5E"/>
<path d="M69.0574 65.8114L69.0644 65.7975C68.8333 65.6538 68.806 65.4127 68.8424 65.1459C68.955 64.3439 69.6134 63.8186 69.9514 63.8186C70.1407 63.8186 70.0464 63.8123 71.539 64.6628C71.5284 64.6558 71.5214 64.6523 71.5144 64.6523L71.5109 64.6558C71.3012 64.5633 71.093 64.6572 70.9054 64.796C70.254 65.2687 70.0924 66.1481 70.2894 66.4491C70.3315 66.5192 70.4019 66.5823 70.4794 66.6207L70.4759 66.6277C70.4293 66.5966 69.5458 66.0898 69.0574 65.8114Z" fill="#CD4793"/>
<path d="M67.3262 30.2969C67.9741 30.6715 69.0196 30.6715 69.6707 30.2969V35.6768C69.0768 36.0169 68.1827 36.0357 67.5621 35.7888L67.3262 35.652V30.2969Z" fill="#FBB819"/>
<path d="M68.335 36.2332L67.5605 35.7885C67.9476 35.9426 68.4195 35.988 68.8596 35.9322L68.335 36.2332Z" fill="#9A8DC3"/>
<path d="M65.9443 64.7119C67.5778 61.4406 69.9399 59.024 72.1157 57.7734C77.0652 54.9295 80.8988 57.9486 79.8676 64.2459C79.6212 64.3125 79.3747 64.3791 79.1282 64.4419C80.0387 58.7142 76.5071 56.1197 72.1157 58.6525C70.1372 59.7872 67.9722 62.0078 66.4902 65.0269C66.4468 65.0021 66.025 64.7576 65.9443 64.7119Z" fill="#E94690"/>
<path d="M70.7827 60.2569C68.3817 61.7875 66.3401 65.2618 66.2062 68.1445C66.2062 68.148 66.2062 68.148 66.2062 68.1515C66.1673 68.9674 66.2942 70.183 66.9877 70.6278C67.2892 70.8528 68.0441 71.0425 68.9027 70.866C69.8038 70.6874 70.5642 70.183 71.2402 69.5911C72.9441 68.1096 74.1162 66.1168 74.5597 63.8752C74.7357 62.9962 74.7957 62.0889 74.5033 61.2238C74.2957 60.6144 73.9188 60.0294 73.3803 59.7106C73.3733 59.7071 73.3698 59.7036 73.3628 59.7036C72.6391 59.3053 71.4811 59.8062 70.7858 60.2569C70.7827 60.2569 70.7827 60.2569 70.7827 60.2569ZM65.2592 70.9428C64.8297 68.9813 65.3682 66.6767 66.1673 64.8415C66.2763 64.9011 66.3822 64.9643 66.4912 65.0271C67.9732 62.008 70.1382 59.7874 72.1167 58.6526C72.8453 58.2323 73.5458 57.9557 74.2077 57.8085C75.6 57.8161 76.7163 58.5658 77.2882 60.064C78.8021 64.0566 75.3626 71.3418 70.6592 73.4187C69.7967 73.8004 68.8357 74.0351 67.9273 73.8495C67.2478 73.7128 66.5932 73.3382 66.1354 72.8163C65.6747 72.2948 65.4071 71.6258 65.2592 70.9428Z" fill="#426D7C"/>
<path d="M66.1663 64.8412C65.3673 66.6764 64.8288 68.9811 65.2583 70.9425C65.4062 71.6255 65.6737 72.2946 66.1348 72.8164C66.5923 73.3382 67.2473 73.7129 67.9267 73.8496C68.8352 74.0352 69.7962 73.8004 70.6587 73.4188C75.3617 71.3419 78.8012 64.0567 77.2876 60.0641C76.7158 58.5652 75.5991 57.8159 74.2072 57.8086C75.4851 57.5215 76.6116 57.7245 77.4741 58.3444L77.4706 58.3478C78.0021 59.4686 78.1781 60.7506 78.1185 62.036C77.9608 65.6118 75.9486 69.7705 72.919 72.4487C70.6681 74.4357 67.5285 75.7375 64.942 74.249C64.0196 73.7202 63.0975 73.1914 62.1785 72.6626C60.3691 71.6224 59.5981 69.6191 59.5241 67.5383C59.4357 66.1378 59.7779 63.9817 60.7845 61.7489C61.5734 62.2027 66.084 64.7903 66.1663 64.8412Z" fill="#204D5E"/>
<path d="M60.7851 61.7488C60.2501 62.9362 59.8347 64.2495 59.6376 65.5698L59.3066 65.7589V60.9011C59.4984 61.0086 60.7431 61.7243 60.7851 61.7488Z" fill="#E94690"/>
<path d="M65.5544 52.8526C68.6523 51.0732 71.4193 51.203 73.3764 52.3273C71.3134 51.1503 68.7824 51.8019 66.7299 52.9823C64.2235 54.4219 61.4635 57.2028 59.5096 61.0168C59.499 61.0098 59.418 60.9645 59.3055 60.9014C59.2911 60.893 58.6621 60.5271 58.6471 60.5198H58.6436C60.1834 57.4829 62.6286 54.5315 65.5544 52.8526Z" fill="#E94690"/>
<path d="M50.5713 72.676V71.9512L59.5198 66.813C59.5072 67.0757 59.5093 67.3139 59.5233 67.5378C59.4813 67.5378 59.5437 67.5225 50.5713 72.676Z" fill="#5B869C"/>
<path d="M50.3671 52.1313C49.8658 52.3546 49.4948 52.0065 49.5187 51.5045C49.5467 50.4326 50.6101 49.3994 51.1907 49.7426H51.1942C51.8947 50.2065 51.2159 51.7773 50.3671 52.1313Z" fill="#526978"/>
<path d="M46.7045 60.6978C46.6631 60.7184 46.0801 61.0599 44.9445 61.7066C44.67 61.0341 44.515 60.3267 44.4799 59.577C44.3779 57.2689 44.8744 55.2795 45.8459 53.1677C46.2473 53.399 46.6344 53.6229 46.6379 53.6229C46.6376 60.9476 46.6085 60.4278 46.7045 60.6978Z" fill="#204D5E"/>
<path d="M43.7915 48.2118C43.7915 48.2327 43.7915 48.2537 43.795 48.2749C43.753 48.2749 43.8508 48.2913 40.926 46.6288C40.4303 46.3512 40.8685 45.183 41.461 44.8882C41.6195 44.8076 41.8166 44.7623 41.961 44.8463C42.1928 44.9782 42.3207 45.0553 44.8265 46.4924C44.816 46.4959 44.809 46.5029 44.7985 46.5064C44.2543 46.7767 43.7915 47.6164 43.7915 48.2118Z" fill="#A1B5C2"/>
<path d="M36.5677 46.5199C36.5677 44.7056 37.6907 42.7163 39.0283 41.606C39.3663 41.7846 39.7043 41.9632 40.0423 42.1383L40.0387 42.1452C41.1828 42.7372 41.2392 42.7651 41.4257 42.8143C41.9783 42.9545 42.5452 42.7128 42.8548 42.0716C42.8864 42.0085 42.9113 41.9492 42.9288 41.8896C43.6223 42.9053 43.7033 44.2957 43.2387 45.5812C43.0802 45.4901 42.9253 45.3991 42.7707 45.3115C42.8306 44.9718 42.8341 44.5026 42.6122 44.2434C42.4362 44.0369 42.1157 43.9668 41.8342 44.0156C41.1477 44.1381 40.0847 45.3185 40.0847 46.5199C40.0847 46.7124 40.1057 46.9158 40.2042 47.0909C40.2957 47.2625 40.4647 47.4097 40.6513 47.462C41.0138 47.5635 41.4468 47.3326 41.7353 47.0944C41.8903 47.1819 42.0453 47.273 42.1999 47.3605C41.9534 47.6511 41.7174 47.8719 41.4429 48.0854C41.4429 55.9995 41.4429 54.2132 41.4429 63.0304C39.9795 63.8704 39.9876 63.8966 39.5174 64.0567C38.589 64.3336 37.5968 64.2555 36.9019 63.9726C36.9019 63.598 36.9019 63.223 36.9019 62.8449C36.7788 62.7852 36.6729 62.7294 36.5674 62.6663V58.2463C37.3345 57.1541 37.0579 55.3835 36.5674 54.1378C36.5677 46.9472 36.5677 52.7268 36.5677 46.5199Z" fill="#E94690"/>
<path d="M40.8221 40.7373C41.3529 40.6815 41.789 40.8277 42.0015 40.9965C42.2091 41.1224 42.3956 41.2731 42.5614 41.4378C42.3539 42.1521 41.741 42.4605 41.1534 42.1626C40.59 41.879 40.0234 41.5881 39.46 41.2871C39.9101 40.9825 40.3782 40.7865 40.8221 40.7373Z" fill="#EE76AB"/>
<path d="M46.5793 71.6466C37.527 66.4554 37.8422 66.6068 37.7997 66.6068C37.8243 66.0009 37.6623 65.388 37.3457 64.8906C38.1588 65.1218 39.1867 65.0517 39.8837 64.6523C40.5033 64.2951 41.2357 64.2285 41.6403 64.8065C46.6333 71.8636 46.2876 71.4586 46.5793 71.6466Z" fill="#3F7287"/>
<path d="M40.085 46.52C40.085 45.3187 41.148 44.1382 41.8345 44.0158C42.116 43.9666 42.4365 44.0367 42.6125 44.2436C42.8344 44.5028 42.8306 44.9719 42.771 45.3117C42.4999 45.1575 42.2324 44.9998 41.9614 44.846C41.817 44.7619 41.6199 44.8073 41.4615 44.8879C40.8598 45.1871 40.4352 46.3536 40.9264 46.6285C41.1974 46.7827 41.465 46.9403 41.736 47.0942C41.4474 47.3324 41.0144 47.5633 40.6519 47.4618C40.4654 47.4092 40.2964 47.2623 40.2049 47.0907C40.106 46.9159 40.085 46.7129 40.085 46.52Z" fill="#A12E74"/>
<path d="M40.0413 42.1386C39.7033 41.9635 39.3653 41.7849 39.0273 41.6063C39.1679 41.4874 39.3124 41.3785 39.4568 41.2875C40.0203 41.5885 40.5869 41.8794 41.1503 42.163C41.7382 42.4606 42.3507 42.1526 42.5583 41.4382C42.6989 41.5784 42.8223 41.7287 42.9278 41.8899C42.9103 41.9495 42.8858 42.0088 42.8539 42.072C42.5439 42.7131 41.9774 42.9545 41.4248 42.8146C41.2383 42.7654 41.1818 42.7375 40.0378 42.1456L40.0413 42.1386Z" fill="#D2C5E3"/>
<path d="M39.6177 76.8516C40.0787 74.0338 39.6195 70.683 37.0127 69.6086C37.2132 68.9326 37.4141 68.253 37.6112 67.577C40.1881 69.5873 40.7056 73.153 40.1597 76.4068C40.1597 76.4138 40.1562 76.4173 40.1562 76.4243C40.1177 76.6587 39.8533 76.7884 39.6177 76.8516Z" fill="#A1B5C2"/>
<path d="M41.5652 63.647C41.0582 63.465 40.4387 63.6048 39.8826 63.9272L39.8721 63.9202C40.054 63.834 40.0081 63.8549 40.9845 63.2933C41.1851 63.4053 41.386 63.5211 41.583 63.6366C41.5757 63.6401 41.5722 63.6436 41.5652 63.647Z" fill="#A1B5C2"/>
<path d="M39.6175 76.8512C39.3711 76.9178 39.1246 76.9844 38.875 77.0472C39.2568 74.6312 38.9076 71.7203 36.71 70.6483C36.812 70.3016 36.914 69.9549 37.0125 69.6082C39.62 70.6829 40.0782 74.0344 39.6175 76.8512Z" fill="#5B869C"/>
<path d="M39.4582 41.2877C39.3137 41.3787 39.1696 41.4872 39.0287 41.6065C36.9412 40.4962 34.8677 39.3088 32.8682 38.0481C33.0021 37.9397 33.1357 37.8381 33.2731 37.7502C35.2831 39.0074 37.3636 40.1878 39.4582 41.2877Z" fill="#D2C5E3"/>
<path d="M39.0088 75.2997C38.6287 75.0828 38.2448 74.862 37.8648 74.6412C37.9212 73.3627 37.7487 72.0843 37.2207 70.9635C38.5541 71.9297 38.9948 73.655 39.0088 75.2997Z" fill="#316274"/>
<path d="M36.5442 64.113C37.6311 64.7493 38.0287 66.2136 37.6882 67.3142C37.6462 67.4544 37.3082 67.4401 37.1567 67.4192C36.8611 67.3773 36.6357 67.3142 36.3577 67.1844C36.2202 67.1213 35.9247 66.9531 35.9667 66.8098C36.1049 66.3971 35.9124 65.8114 35.6498 65.6611H35.6463C35.4878 65.57 35.4493 65.3457 35.4668 65.1497C35.4948 64.8169 35.7378 64.4001 36.0088 64.2145C36.1708 64.1025 36.3854 64.022 36.5403 64.113H36.5442Z" fill="#EF7E74"/>
<path d="M37.1548 67.4189C37.3062 67.4399 37.6442 67.4542 37.6863 67.314C37.4658 68.0981 34.4369 78.3434 34.4369 78.3675C34.4369 78.3675 34.4369 78.371 34.4334 78.371C34.3878 78.5109 34.0568 78.4934 33.9054 78.4725C33.6098 78.4303 33.3844 78.3675 33.1063 78.2378C32.9692 78.1746 32.6768 78.01 32.7154 77.8666C32.7154 77.8233 35.9511 66.8549 35.9648 66.8092C35.9224 66.9529 36.2183 67.121 36.3557 67.1838C36.6338 67.3139 36.8592 67.3771 37.1548 67.4189Z" fill="#AACEE1"/>
<path d="M35.7155 37.3822C37.7749 38.5626 39.8309 39.7462 41.89 40.9266C41.5766 40.748 41.186 40.6988 40.82 40.7376C40.3765 40.7864 39.9084 40.9828 39.4575 41.2873C37.363 40.1875 35.2825 39.007 33.2725 37.7499C34 37.2542 34.9424 36.9552 35.7155 37.3822Z" fill="#B1CDDD"/>
<path d="M35.4675 65.1496C35.45 65.3456 35.4886 65.5699 35.647 65.661C35.761 65.661 36.1302 66.2093 35.9745 66.7818C35.7385 66.8972 35.45 66.9778 35.1965 66.915C34.9409 66.8456 34.7169 66.6283 34.6085 66.3932C34.2036 65.5385 34.964 63.6123 36.1926 63.0064C36.4145 62.8944 36.6641 62.8208 36.9036 62.8453C36.9036 63.2234 36.9036 63.5984 36.9036 63.973C36.8966 63.9765 36.8861 63.9835 36.8791 63.987C36.8791 64.1063 36.8791 64.2252 36.8791 64.3477C36.777 64.2601 36.6641 64.183 36.5446 64.1129H36.5411C36.3861 64.0218 36.1715 64.1024 36.0096 64.2144C35.7385 64.4 35.4956 64.8168 35.4675 65.1496Z" fill="#ED6D12"/>
<path d="M25.6935 77.317C25.669 77.3065 23.0604 75.8076 23.0391 75.7933C24.993 71.9723 27.7565 69.1946 30.2591 67.7588C31.8326 66.8519 33.2196 66.5048 34.371 66.4839C34.5716 66.5993 34.769 66.7117 34.9695 66.8271L34.9765 66.8167C35.2707 67.0172 35.6518 66.9388 35.9726 66.7818C35.9726 66.8236 35.2423 69.2689 35.2297 69.3104C34.2722 69.3453 33.1386 69.6467 31.8607 70.3785C29.6925 71.6256 27.3305 74.0352 25.6935 77.317Z" fill="#EE76AB"/>
<path d="M30.5907 64.3123C31.8512 65.0375 33.1113 65.7588 34.3717 66.4837C33.2206 66.5046 31.8336 66.8514 30.2598 67.7586C27.7568 69.1948 24.9933 71.9721 23.0397 75.7931C22.7824 75.6452 19.5049 73.7633 19.2588 73.6217C21.2127 69.8007 23.9762 67.023 26.4788 65.5872C28.0562 64.6799 29.4432 64.3332 30.5907 64.3123Z" fill="#E94690"/>
<path d="M32.5781 37.3121C33.6626 36.7979 34.7866 36.8736 35.6196 37.333C34.8767 36.9768 33.9686 37.2751 33.2716 37.7498C33.0395 37.6065 32.8071 37.4593 32.5781 37.3121Z" fill="#EE76AB"/>
<path d="M32.1172 37.5642C32.2651 37.4697 32.4198 37.3856 32.5782 37.312C32.8072 37.4592 33.0393 37.6061 33.2717 37.7498C33.1343 37.8373 33.0007 37.9388 32.8668 38.0477C32.6172 37.89 32.3672 37.7289 32.1172 37.5642Z" fill="#D2C5E3"/>
<path d="M32.4038 78.1681C32.4073 78.1681 32.4073 78.1716 32.4108 78.1716H32.4143C32.4641 78.1964 32.497 78.2121 32.5552 78.1541C32.6327 78.084 32.6857 77.9651 32.7137 77.8671H32.7172C32.6787 78.0108 32.9707 78.1754 33.1081 78.2382C33.3862 78.3676 33.6116 78.4308 33.9072 78.473C34.0586 78.4939 34.3896 78.5113 34.4352 78.3715C34.0481 79.7277 32.6639 80.3936 31.5132 79.7162C31.3583 79.6286 31.3197 79.4008 31.3337 79.2048C31.3618 78.879 31.6012 78.4587 31.8758 78.2696C32.022 78.1677 32.2523 78.0774 32.4038 78.1681Z" fill="#EF7E74"/>
<path d="M31.6525 77.7339C31.885 77.8706 32.1206 78.0035 32.3495 78.1368C32.3495 78.1403 32.346 78.1403 32.346 78.1437C32.2016 78.1015 32.015 78.1716 31.8741 78.2697C31.5996 78.4587 31.3601 78.8791 31.3321 79.2049C31.318 79.4009 31.3566 79.6287 31.5116 79.7162C31.4905 79.7058 30.715 79.2411 30.695 79.2293C30.2711 78.7465 31.1059 77.4782 31.6525 77.7339Z" fill="#E24612"/>
<path d="M28.8247 78.431C29.2787 78.6902 29.7331 78.9529 30.1871 79.2121L30.1941 79.2051C30.3347 79.2892 30.5146 79.2961 30.6342 79.1315C30.6517 79.1664 30.6731 79.2016 30.6976 79.2295C30.9511 79.3767 31.2011 79.5344 31.4546 79.6812C29.5623 82.296 26.7477 83.0279 25.9557 80.7493H25.9521C26.0864 77.8879 28.1115 74.4028 30.5286 72.8652C30.8277 72.8056 31.1446 72.7916 31.4402 72.8617C31.9012 72.9667 32.3202 73.2681 32.5842 73.6637C32.9117 74.1576 33.0032 74.8019 33.0032 75.3834C33.0032 76.1504 32.8167 77.1031 32.3521 78.1363C32.1232 78.0034 31.8876 77.8701 31.6551 77.7334C31.5952 77.7055 31.5321 77.695 31.4686 77.7055C31.5496 77.5269 31.4511 77.3692 31.3066 77.2852L31.3101 77.2782C30.8456 77.012 30.3807 76.7459 29.9161 76.4797L29.9126 76.4867C29.8491 76.4588 29.7787 76.4445 29.7156 76.4445C29.3741 76.441 28.7195 76.9698 28.6066 77.7718C28.5698 78.0386 28.5975 78.28 28.8285 78.4234L28.8247 78.431Z" fill="#9FB7BF"/>
<path d="M31.4389 72.8621C31.1434 72.792 30.8264 72.806 30.5273 72.8656C31.2103 72.4128 32.3978 71.9057 33.1148 72.3124C33.1183 72.3124 33.1218 72.3124 33.1253 72.3159C33.4879 72.5259 33.8118 72.8586 34.0478 73.3282H34.0513C34.0387 73.3714 32.7169 77.8256 32.7169 77.8674H32.7134C32.6853 77.9654 32.6324 78.0844 32.5549 78.1545C32.496 78.2131 32.4616 78.1957 32.414 78.1719H32.4105C32.4069 78.1719 32.4069 78.1685 32.4034 78.1685C32.3859 78.158 32.3684 78.1475 32.3505 78.1367C32.815 77.1035 33.0016 76.1509 33.0016 75.3838C33.0016 74.8023 32.9101 74.158 32.5826 73.6641C32.3189 73.2685 31.9003 72.9675 31.4389 72.8621Z" fill="#204D5E"/>
<path d="M30.0403 79.0644C29.8468 78.7808 29.9699 77.9227 30.6283 77.4148C30.7763 77.3028 30.9488 77.2083 31.1283 77.2257C31.3569 77.2526 31.5753 77.465 31.4663 77.7054C30.9649 77.7448 30.4186 78.6398 30.6318 79.131C30.467 79.3574 30.1764 79.2611 30.0403 79.0644Z" fill="#EF7E74"/>
<path d="M30.3926 42.9721C30.3926 41.1544 31.5226 39.158 32.8672 38.0477C34.8667 39.3087 36.9402 40.4958 39.0277 41.6061C37.6898 42.7164 36.5671 44.7058 36.5671 46.52C36.5671 54.1746 36.5671 46.8957 36.5671 54.1376C35.6731 51.8717 33.6876 49.9873 32.0892 49.8715C31.5973 49.8359 31.207 49.943 30.8712 50.1516C30.7092 50.2392 30.5507 50.3302 30.3926 50.4247C30.3926 48.5746 30.3926 44.3866 30.3926 42.9721Z" fill="#AACEE1"/>
<path d="M30.9921 38.5489C31.5962 37.8446 32.0737 37.6095 32.1186 37.5648C32.3686 37.7295 32.6185 37.8906 32.8682 38.0483C31.5236 39.1586 30.3936 41.1549 30.3936 42.9727C30.3936 44.0216 30.3936 47.4861 30.3936 50.426C30.2109 50.5285 29.6703 50.8393 29.665 50.8428C29.665 49.7594 29.665 43.0473 29.665 41.9642C29.665 40.8204 30.1338 39.5507 30.9921 38.5489Z" fill="#E94690"/>
<path d="M29.77 51.7981C30.6892 51.5567 31.8182 52.2837 32.5019 52.9786C33.7798 54.264 34.4523 55.9872 34.4523 57.3145C34.4558 58.0428 34.2588 58.5964 33.9278 58.9571H33.9243C31.6818 59.5909 29.0028 56.9433 28.9359 54.1377C28.9145 53.2691 29.1574 52.3971 29.77 51.7981Z" fill="#FDEFBB"/>
<path d="M30.1128 58.9469C30.3572 59.1088 35.7502 62.1972 36.5693 62.6664C37.1877 63.0358 36.8901 62.6539 36.1927 63.0062C34.9642 63.6121 34.2037 65.5383 34.6087 66.3929C34.6862 66.5611 34.8201 66.7152 34.9782 66.8167L34.9712 66.8272C34.2781 66.4281 28.2101 62.9469 28.1806 62.9291C27.7929 62.7086 27.6996 62.1557 27.7231 61.7103C27.7834 60.4601 29.0715 58.8234 30.1128 58.9469Z" fill="#ED6D12"/>
<path d="M28.6041 77.7721C28.7167 76.9702 29.3716 76.4414 29.7131 76.4448C29.7765 76.4448 29.847 76.4588 29.9101 76.487L29.9136 76.4801C30.3782 76.7462 30.8431 77.0124 31.3076 77.2785L31.3041 77.2855C31.0776 77.1505 30.8371 77.2566 30.6282 77.4149C29.9697 77.9228 29.8467 78.7809 30.0402 79.0645C30.0788 79.1203 30.1317 79.1695 30.1917 79.2044L30.1846 79.2114C29.7306 78.9522 29.2766 78.6895 28.8222 78.4304L28.8257 78.4234C28.5953 78.2804 28.5677 78.039 28.6041 77.7721Z" fill="#EF7E74"/>
<path d="M30.1121 58.9471C29.9641 58.9296 29.813 58.9506 29.665 58.9998C29.665 58.6987 29.665 58.3973 29.665 58.0959C30.3161 58.9122 31.0976 59.5739 31.9391 59.9276C32.7416 60.2674 33.4491 60.2499 33.9845 59.9381L33.988 59.9416C36.1516 58.6816 36.2154 58.7496 36.5685 58.2463V62.6662C35.7737 62.211 30.3568 59.1093 30.1121 58.9471Z" fill="#9BBCCE"/>
<path d="M28.9463 51.2553C29.1805 51.1182 30.7249 50.2315 30.8718 50.152C31.2081 49.9434 31.5979 49.8363 32.0898 49.8718C34.2117 50.0253 37.0428 53.3144 37.0428 56.488C37.0428 57.1291 36.9398 57.7166 36.5678 58.2461C36.2126 58.7522 36.1253 58.6961 33.9873 59.9414L33.9838 59.9379C34.6352 59.5667 35.0328 58.761 35.0293 57.6437C35.0297 54.0815 31.2186 49.9315 28.9463 51.2553Z" fill="#D9406C"/>
<path d="M30.4296 58.2182C29.6235 57.4023 28.9791 56.3234 28.6695 55.1887C28.4655 54.4425 28.374 53.5216 28.6625 52.7999C28.8676 52.2854 29.2372 51.9177 29.7715 51.7981C29.159 52.397 28.916 53.2691 28.9371 54.1377C29.004 56.9433 31.683 59.5908 33.9255 58.957C33.8161 59.0826 33.6706 59.1925 33.5805 59.2371C32.7986 59.6892 31.5982 59.3952 30.4296 58.2182Z" fill="#D9406C"/>
<path d="M28.499 37.3787C28.6582 37.3079 28.8149 37.2919 28.9601 37.3787C29.1217 37.4705 30.2735 38.1322 30.9912 38.5487C30.5441 39.0705 30.1886 39.6834 29.9597 40.3281C29.3075 39.9517 28.0853 39.2561 27.9356 39.1689V39.1654C27.395 38.923 27.8273 37.6815 28.499 37.3787Z" fill="#A1B5C2"/>
<path d="M30.429 58.2182C31.5976 59.3952 32.7981 59.6892 33.5796 59.2375C33.6644 59.1953 33.8103 59.0886 33.9246 58.9574H33.9281C34.2591 58.5967 34.4561 58.0431 34.4526 57.3148C34.4526 54.3704 31.3287 50.8905 29.3762 51.9457C27.7669 52.839 28.4271 56.1919 30.429 58.2182ZM28.1231 52.2572C28.5477 51.1929 29.576 50.6728 30.9921 51.2662C33.0937 52.1487 35.0301 55.1364 35.0301 57.6441C35.0364 59.6202 33.7556 60.6966 31.9391 59.9278C29.244 58.7945 27.2038 54.5514 28.1231 52.2572Z" fill="#EC6390"/>
<path d="M27.2805 61.9661C27.129 61.9029 26.7805 61.7208 26.83 61.5632H26.8264C27.0449 60.7996 27.622 60.1518 28.407 59.9872C27.9631 60.5913 27.6374 61.3623 27.7345 62.1168C27.6623 62.1168 27.3808 62.0093 27.2805 61.9661Z" fill="#EF7E74"/>
<path d="M27.9363 39.165V39.1685C28.0808 39.2525 28.2284 39.3366 28.3728 39.4172C27.8623 39.6743 27.4434 39.4423 27.4434 38.8217C27.4434 38.3208 27.7179 37.7746 28.0629 37.4174C28.6968 36.7661 29.3668 36.8934 29.404 37.6343C29.3444 37.5991 28.9408 37.364 28.9075 37.3507C28.802 37.3054 28.6645 37.3054 28.499 37.3786C27.8234 37.6835 27.4002 38.925 27.9363 39.165Z" fill="#526978"/>
<path d="M27.2813 61.9659C27.4661 62.0461 27.6915 62.1166 27.7353 62.1166C27.7774 62.4563 27.9078 62.7748 28.1788 62.929C28.2139 62.9499 28.2458 62.9677 28.2809 62.9887C28.1469 63.4508 28.0098 63.9134 27.8724 64.3791C27.1403 64.5716 26.4325 64.8591 25.7603 65.2093L25.7568 65.2058C26.1159 63.9905 26.4714 62.7787 26.8304 61.5634C26.7813 61.7207 27.1298 61.9028 27.2813 61.9659Z" fill="#AACEE1"/>
<path d="M28.102 74.6481C27.4155 75.5237 26.7784 76.5255 26.2364 77.6323C26.1936 77.6069 25.7368 77.3414 25.6943 77.317C27.3313 74.0353 29.6934 71.6256 31.8619 70.3785C33.1398 69.6463 34.2733 69.3453 35.2308 69.3104C35.1358 69.6362 35.0373 69.9655 34.9423 70.291C32.3303 70.3517 29.7204 72.5618 28.102 74.6481Z" fill="#5B869C"/>
<path d="M25.9553 80.7496C26.3463 81.8739 27.3669 82.4554 28.8208 81.8913C29.8663 81.4849 30.8028 80.5815 31.4539 79.6812C31.4749 79.6916 31.4925 79.7056 31.5138 79.716C31.9363 79.9647 32.3974 80.0349 32.8304 79.9473C32.1088 81.0785 31.1089 82.1714 29.9508 82.837C28.6799 83.5692 27.1628 83.7617 26.2404 82.6235C25.9799 82.0668 25.9269 81.3695 25.9518 80.7566C25.9518 80.7531 25.9518 80.7531 25.9518 80.7496H25.9553Z" fill="#204D5E"/>
<path d="M36.4346 71.5837C34.4053 78.474 34.4386 78.3257 34.4386 78.3679C34.4386 78.3679 34.4386 78.3714 34.4351 78.3714C34.1851 79.247 33.5446 79.8076 32.83 79.9474C32.1085 81.0787 31.1086 82.1715 29.9505 82.8371C28.6796 83.5693 27.1625 83.7618 26.24 82.6236C25.9795 82.0669 25.9266 81.3696 25.9515 80.7567C25.9515 80.7532 25.9515 80.7532 25.9515 80.7497C26.0858 77.8883 28.1109 74.4032 30.528 72.8656C31.2085 72.4142 32.3977 71.9053 33.1154 72.312C33.1189 72.312 33.1224 72.312 33.1259 72.3155C33.4885 72.5255 33.8124 72.8583 34.0484 73.3278H34.0519C34.1536 72.9783 34.9291 70.3352 34.9424 70.2913C32.3209 70.352 29.7166 72.5677 28.1025 74.6484C27.416 75.524 26.7789 76.5258 26.2369 77.6326C26.1313 77.5695 26.0219 77.5098 25.9164 77.4471C23.269 83.4992 25.8319 88.133 30.4929 85.9894C33.7279 84.5045 36.8648 80.1403 37.3364 75.8289C37.4942 74.3854 37.3392 72.7219 36.4346 71.5837Z" fill="#426D7C"/>
<path d="M67.4404 48.3373L59.9995 52.6115L57.2637 52.6833L70.2866 45.2028C70.6123 45.0158 70.7389 45.3643 70.4668 45.6984C69.5679 46.8021 68.5157 47.7195 67.4404 48.3373Z" fill="#FCC345"/>
<path d="M65.5866 51.2538L63.1759 52.6386L60.4404 52.7105L68.4332 48.1193C68.7589 47.9323 68.8855 48.2808 68.6131 48.615C67.7141 49.7186 66.6623 50.636 65.5866 51.2538Z" fill="#FCC345"/>
<path d="M25.916 77.4463C23.2685 83.4988 25.8314 88.1322 30.4924 85.9887C33.7275 84.5038 36.8643 80.1396 37.3359 75.8281C37.4944 74.385 37.3394 72.7215 36.4349 71.5833C36.5264 71.2714 36.6179 70.9599 36.7094 70.6481C36.8889 70.7356 37.0614 70.8406 37.2234 70.9634C39.1643 75.0827 36.5986 81.5799 32.6644 85.0538C30.4079 87.0467 27.2749 88.3391 24.6909 86.8541C23.7685 86.3253 22.8464 85.7965 21.9239 85.2677C19.9735 84.1469 19.2239 81.8914 19.259 79.6355C19.287 77.8388 19.7975 75.9827 20.5334 74.354C20.5755 74.3781 25.8108 77.3867 25.916 77.4463Z" fill="#204D5E"/>
<path d="M26.4786 65.5875C23.9756 67.0236 21.2122 69.801 19.2586 73.622C19.2165 73.5979 18.5086 73.1912 18.4666 73.1703C18.4666 73.1703 18.4631 73.1703 18.4631 73.1668C18.448 73.1619 18.4066 73.1354 18.3926 73.1284V73.1249C19.9205 70.1024 22.3671 67.1429 25.303 65.4581C26.7847 64.601 28.5023 64.0338 30.235 64.1095C30.3546 64.1762 30.471 64.2463 30.5905 64.3126C29.4427 64.3335 28.0557 64.6802 26.4786 65.5875Z" fill="#EE76AB"/>
<path opacity="0.5" d="M41.8907 40.9266C35.6492 37.3494 35.7267 37.3797 35.6208 37.333C34.7898 36.875 33.6686 36.7958 32.5793 37.3121C32.2413 37.0947 31.9033 36.8778 31.5688 36.657C31.0583 36.3207 30.7098 35.3122 30.9493 34.4189C32.2658 29.4876 34.0013 24.6155 36.0362 19.9116C36.1807 19.5754 36.4307 19.2391 36.7683 19.0992C37.0008 19.0012 37.2543 19.0117 37.4758 19.1554C39.9578 20.7457 42.5063 22.1849 45.0623 23.5091C45.6078 23.7926 45.9458 24.6124 45.7102 25.474C43.143 34.8211 42.7476 40.8066 42.5596 41.438C42.3212 41.2011 42.0243 40.9995 41.8907 40.9266Z" fill="#E2E1EF"/>
<path d="M30.5264 34.1283C31.857 29.1513 33.603 24.2761 35.6134 19.6175C36.0394 18.5038 36.8949 18.2446 37.5284 18.63C42.2893 21.6746 44.9788 22.8114 45.4209 23.1937C46.0829 23.7612 46.3364 24.791 46.139 25.6735C45.023 29.7467 44.1889 33.6696 43.6009 37.3926C43.0554 40.846 43.1115 41.4031 42.9284 41.8897C42.8229 41.7285 42.6995 41.5778 42.5589 41.4379C42.7444 40.8153 43.1458 34.8089 45.7095 25.474C45.9454 24.6124 45.6074 23.7926 45.0615 23.509C42.506 22.1852 39.9571 20.7456 37.4751 19.1554C37.2535 19.0116 37 19.0012 36.7676 19.0992C36.4296 19.2394 36.1796 19.5757 36.0355 19.9116C34.0006 24.6155 32.2651 29.4872 30.9486 34.4189C30.7091 35.3119 31.0576 36.3207 31.5681 36.6569C31.9026 36.8777 32.2406 37.0947 32.5785 37.312C32.4201 37.3856 32.2651 37.4697 32.1175 37.5642C32.114 37.5677 32.1105 37.5677 32.107 37.5712C31.864 37.4135 31.445 37.1439 31.3679 37.0808C30.625 36.4822 30.2694 35.1615 30.5264 34.1283Z" fill="#D2C5E3"/>
</svg>
