<svg width="14" height="19" viewBox="0 0 14 19" fill="none" xmlns="http://www.w3.org/2000/svg">
<path fill-rule="evenodd" clip-rule="evenodd" d="M13.5076 6.76498C13.5076 4.90428 12.849 3.31194 11.5317 1.98707C10.2145 0.662432 8.62189 0 6.75382 0C4.88575 0 3.29318 0.662432 1.97591 1.9873C0.658637 3.31194 0 4.9045 0 6.76521C0 8.26824 0.446533 9.61922 1.3396 10.8173L5.76028 18.4753V18.4865H5.77145C6.00967 18.8288 6.33698 19 6.75382 19C7.11841 19 7.42362 18.8549 7.66921 18.5646H7.69154L7.73619 18.4865C7.80317 18.3822 7.85519 18.2929 7.89248 18.2186L12.1457 10.8508C13.0537 9.63017 13.5076 8.26801 13.5076 6.76498ZM9.0423 4.50999C9.68978 5.15769 10.0135 5.94269 10.0135 6.86545C10.0135 7.78844 9.68978 8.57344 9.0423 9.22114C8.39483 9.86861 7.60982 10.1924 6.68684 10.1924C5.77145 10.1924 4.99001 9.86839 4.34254 9.22114C3.69506 8.57344 3.37133 7.78844 3.37133 6.86545C3.37133 5.94269 3.69506 5.15746 4.34254 4.50999C4.99001 3.85537 5.77145 3.52784 6.68684 3.52784C7.6096 3.52784 8.39483 3.85515 9.0423 4.50999Z" fill="white"/>
</svg>
