<svg width="14" height="19" viewBox="0 0 14 19" fill="none" xmlns="http://www.w3.org/2000/svg">
<path d="M5.08121 4.87421L5.73211 4.48254C5.92364 4.37127 6.00515 4.13677 5.92391 3.93069L4.43956 0.381179C4.28785 0.018344 3.74854 -0.0696999 3.06396 0.0505976L5.08121 4.87421Z" fill="white"/>
<path d="M9.3814 13.7333L9.01793 13.952C8.07985 14.5165 6.64738 12.8169 5.25049 10.4955C3.85361 8.1741 3.02281 6.11245 3.96089 5.54797L4.32436 5.32926L2.21372 0.282227C1.79239 0.434503 1.38685 0.627374 1.00283 0.858119C-0.894885 2.00004 -0.0197346 6.93011 2.95637 11.876C5.93248 16.8218 9.87857 19.904 11.7763 18.762C12.16 18.5308 12.5204 18.2628 12.8522 17.9619L9.3814 13.7333Z" fill="white"/>
<path d="M13.8075 15.949L11.3665 12.9751C11.2225 12.8068 10.9771 12.769 10.7891 12.8861L10.1382 13.2778L13.4553 17.3192C13.8822 16.7707 14.057 16.253 13.8075 15.949Z" fill="white"/>
</svg>
