<svg width="18" height="14" viewBox="0 0 18 14" fill="none" xmlns="http://www.w3.org/2000/svg">
<path fill-rule="evenodd" clip-rule="evenodd" d="M15.375 0.0912377C15.5809 0.00967765 15.8057 -0.0179006 16.0264 0.0113273C16.2471 0.0405552 16.4557 0.125539 16.6308 0.257572C16.806 0.389605 16.9414 0.563942 17.0233 0.762721C17.1051 0.9615 17.1304 1.17758 17.0965 1.38881C16.6084 4.43443 15.7135 10.0153 15.2384 12.9778C15.2055 13.1828 15.1181 13.3761 14.9845 13.5392C14.851 13.7023 14.6758 13.8296 14.476 13.9088C14.2762 13.9879 14.0584 14.0163 13.8439 13.9911C13.6293 13.9659 13.4251 13.888 13.2511 13.765C11.5705 12.5771 9.05098 10.7961 7.77176 9.89155C7.67304 9.82176 7.5915 9.73202 7.53289 9.62868C7.47429 9.52533 7.44004 9.4109 7.43258 9.29347C7.42512 9.17604 7.44462 9.05847 7.48971 8.94906C7.5348 8.83965 7.60437 8.74107 7.69352 8.66029C8.86568 7.5982 11.2003 5.48286 12.8065 4.02736C12.8444 3.99286 12.8674 3.94605 12.8711 3.8961C12.8749 3.84615 12.859 3.79667 12.8267 3.75734C12.7944 3.71801 12.748 3.69168 12.6965 3.6835C12.645 3.67531 12.5922 3.68588 12.5484 3.71311C10.4888 5.00184 7.33461 6.97533 5.7887 7.94258C5.49899 8.12387 5.17339 8.24581 4.83228 8.30078C4.49117 8.35575 4.14191 8.34257 3.80636 8.26205C2.95513 8.05791 1.7273 7.76336 0.634641 7.50135C0.463571 7.46034 0.31035 7.36859 0.196804 7.23916C0.0832566 7.10974 0.0151739 6.94923 0.00225275 6.78052C-0.0106684 6.6118 0.0322313 6.44347 0.124841 6.29951C0.21745 6.15555 0.355047 6.0433 0.518032 5.97874C4.32172 4.4714 11.7655 1.52182 15.375 0.0912377Z" fill="#fff"/>
</svg>
