<svg width="350" height="350" viewBox="0 0 350 350" fill="none" xmlns="http://www.w3.org/2000/svg">
<path d="M294.202 219.916C268.212 280.664 199.608 306.757 145.855 302.308C131.178 301.093 101.649 298.649 78.5917 276.845C34.3122 234.971 41.1317 147.443 83.5199 95.9118C88.9785 89.2756 126.763 44.8139 185.643 45.409C228.752 45.8447 259.009 70.1963 262.688 73.23C267.336 77.0625 277.588 86.1695 286.826 100.617C308.534 134.564 310.443 181.955 294.202 219.916Z" fill="url(#paint0_linear)"/>
<path d="M45.6807 44.2418C45.4342 43.1923 46.9105 42.4946 47.8146 43.2277C56.995 50.6722 79.0529 72.9648 73.5556 111.923C66.6585 160.801 78.4499 178.637 93.1274 189.516C93.1274 189.516 72.9704 184.4 60.2885 166.302C29.1517 121.868 50.0645 62.903 45.6807 44.2418Z" fill="#BDD0FB"/>
<path d="M52.6669 59.5085C53.8154 64.9499 54.839 70.4079 55.63 75.8906C56.4543 81.3686 57.0858 86.8658 57.5181 92.3719C57.9258 97.8791 58.2137 103.392 58.2301 108.907C58.2752 114.422 58.0459 119.933 57.7933 125.465C57.5766 130.995 57.3219 136.564 57.7267 142.174C58.1248 147.771 59.3032 153.418 61.6414 158.712C62.2259 160.031 62.8405 161.346 63.5387 162.617C64.21 163.899 64.9472 165.157 65.7102 166.402C67.2509 168.886 68.9851 171.287 70.9178 173.565C74.7971 178.115 79.4757 182.15 84.6298 185.565C85.1723 185.925 85.9496 185.837 86.3659 185.368C86.7746 184.908 86.6833 184.253 86.1663 183.889L86.1626 183.886C84.9362 183.025 83.7228 182.153 82.5585 181.236C81.9678 180.786 81.4014 180.315 80.825 179.852C80.2696 179.372 79.6924 178.909 79.1548 178.414C76.9663 176.466 74.9387 174.388 73.0993 172.191C69.3993 167.816 66.4373 162.942 64.1931 157.888C63.1038 155.35 62.2331 152.746 61.5972 150.094C60.9637 147.441 60.5652 144.742 60.3448 142.022C59.9035 136.577 60.1029 131.062 60.2735 125.532C60.4359 119.999 60.555 114.439 60.4091 108.883C60.3448 106.105 60.2227 103.329 60.0431 100.555C59.9625 99.1684 59.8509 97.783 59.7421 96.3977C59.618 95.0132 59.4849 93.6296 59.339 92.2471C58.7431 86.718 57.952 81.2073 56.9605 75.7259C55.9385 70.2486 54.7486 64.7965 53.3174 59.3933C53.2765 59.2388 53.0983 59.1423 52.9196 59.1777C52.7459 59.2118 52.6356 59.3587 52.6669 59.5085Z" fill="white"/>
<path d="M69.4621 161.237C68.3365 162.431 66.3569 162.088 65.6799 160.593C61.9434 152.344 53.4885 128.067 67.4523 100.098C79.2441 76.4798 83.3936 62.5524 84.8393 56.0993C85.1449 54.7348 87.015 54.5536 87.5795 55.833C93.8068 69.9484 110.25 117.961 69.4621 161.237Z" fill="#91B3FA"/>
<path d="M67.4175 160.367C67.3775 160.374 67.3363 160.377 67.294 160.377C66.9402 160.371 66.6578 160.08 66.6632 159.726C66.6693 159.325 67.45 119.231 82.3621 85.6505C82.5057 85.3274 82.8842 85.1815 83.2079 85.3249C83.5313 85.4687 83.677 85.8472 83.5334 86.1708C68.7297 119.507 67.9505 159.347 67.9444 159.746C67.9398 160.057 67.7133 160.314 67.4175 160.367Z" fill="white"/>
<path d="M63.6449 103.958L280.308 100.297C289.031 100.149 296.032 107.631 295.514 116.546L288.056 244.795C287.648 251.814 282.002 257.312 275.134 257.38L66.8682 259.44C61.7239 259.491 57.4738 255.343 57.278 250.081L52.2952 116.229C52.0486 109.604 57.17 104.068 63.6449 103.958Z" fill="url(#paint1_linear)"/>
<path d="M66.9657 107.225L277.974 103.742C286.469 103.602 293.288 110.72 292.783 119.201L285.52 241.218C285.122 247.896 279.624 253.127 272.935 253.191L70.1049 255.151C65.095 255.199 60.9558 251.253 60.765 246.247L55.9121 118.899C55.672 112.597 60.6599 107.33 66.9657 107.225Z" fill="#91B3FA"/>
<path d="M70.9119 111.431L271.842 108.114C279.931 107.981 286.424 114.759 285.944 122.835L279.027 239.024C278.649 245.383 273.413 250.364 267.043 250.425L73.9012 252.291C69.1306 252.337 65.1891 248.58 65.0075 243.812L60.3863 122.548C60.1577 116.546 64.9073 111.53 70.9119 111.431Z" fill="#BDD0FB"/>
<path d="M278.462 103.641L66.5692 107.139C60.2368 107.244 55.2282 112.533 55.4693 118.862L55.8114 127.839H292.816L293.333 119.165C293.84 110.648 286.992 103.5 278.462 103.641Z" fill="url(#paint2_linear)"/>
<g opacity="0.85">
<path opacity="0.85" d="M73.2325 111.478C73.2325 112.531 72.3793 113.384 71.3268 113.384C70.2742 113.384 69.4209 112.531 69.4209 111.478C69.4209 110.426 70.2742 109.572 71.3268 109.572C72.3793 109.572 73.2325 110.426 73.2325 111.478Z" fill="white"/>
<path opacity="0.85" d="M73.2325 117.063C73.2325 118.115 72.3793 118.968 71.3268 118.968C70.2742 118.968 69.4209 118.115 69.4209 117.063C69.4209 116.01 70.2742 115.157 71.3268 115.157C72.3793 115.157 73.2325 116.01 73.2325 117.063Z" fill="white"/>
<path opacity="0.85" d="M73.2325 122.647C73.2325 123.699 72.3793 124.553 71.3268 124.553C70.2742 124.553 69.4209 123.699 69.4209 122.647C69.4209 121.594 70.2742 120.741 71.3268 120.741C72.3793 120.741 73.2325 121.594 73.2325 122.647Z" fill="white"/>
</g>
<g opacity="0.8">
<path opacity="0.8" d="M145.828 239.656L128.805 240.544V214.479L145.828 213.868V239.656Z" fill="white"/>
<path opacity="0.8" d="M173.404 238.216L156.975 239.074V205.038L173.404 204.537V238.216Z" fill="white"/>
<path opacity="0.8" d="M200.034 236.826L184.167 237.654V193.197L200.034 192.827V236.826Z" fill="white"/>
<path opacity="0.8" d="M225.763 235.483L210.431 236.283V178.196L225.763 177.984V235.483Z" fill="white"/>
<path opacity="0.8" d="M219.512 143.143C218.264 142.423 216.63 142.774 215.87 143.937C215.053 145.181 214.209 146.398 213.335 147.588C197.006 169.782 170.172 182.931 132.43 186.484C131.2 186.599 130.228 186.688 129.508 186.781C129.038 186.843 128.367 186.932 127.714 187.194C127.057 187.456 126.427 187.9 126.058 188.677C125.419 190.027 126.134 191.55 127.648 192.083C128.025 192.216 128.42 192.274 128.802 192.265C129.238 192.256 129.668 192.158 130.055 191.994C130.605 191.91 131.791 191.794 132.937 191.683C139.846 191.008 155.788 189.459 172.885 183.095C192.046 175.963 207.011 164.999 217.664 150.483C218.61 149.2 219.521 147.885 220.395 146.544C221.155 145.385 220.759 143.862 219.512 143.143Z" fill="white"/>
<path opacity="0.8" d="M220.685 158.294C219.303 158.295 218.138 157.291 218.047 155.982L217.293 145.147L206.171 152.004C204.934 152.765 203.258 152.453 202.427 151.303C201.595 150.152 201.929 148.6 203.17 147.839L221.976 136.32L223.318 155.666C223.412 157.025 222.312 158.199 220.858 158.289C220.8 158.292 220.742 158.294 220.685 158.294Z" fill="white"/>
</g>
<path d="M241.501 271.203H239.013V298.109H241.501V271.203Z" fill="#7D97F4"/>
<path d="M251.153 298.628H229.361C229.361 297.734 230.087 297.008 230.981 297.008H249.533C250.428 297.008 251.153 297.734 251.153 298.628Z" fill="#7D97F4"/>
<path d="M254.387 270.269C254.387 271.741 253.183 272.945 251.711 272.945H229.664C228.192 272.945 226.988 271.741 226.988 270.269V267.85C226.988 266.378 228.192 265.174 229.664 265.174H251.711C253.183 265.174 254.387 266.378 254.387 267.85V270.269Z" fill="#7D97F4"/>
<path d="M221.889 253.263C221.889 253.263 218.192 253.836 214.036 256.615C213.381 257.052 213.023 257.814 213.121 258.595C213.619 262.538 215.665 275.298 222.414 287.762C222.77 288.419 222.872 289.184 222.715 289.915L221.542 295.371L219.368 297.41H224.968L228.697 287.319L227.103 286.815C225.867 286.424 225.018 285.287 224.996 283.99L224.809 273.166C224.968 268.343 221.852 265.016 221.852 265.016L230.796 264.581L221.889 253.263Z" fill="url(#paint3_linear)"/>
<path d="M217.181 298.394C216.671 299.062 222.67 299.942 225.701 298.482C225.701 298.482 229.903 291.172 229.903 287.408C229.903 287.408 229.569 286.641 227.102 286.815C227.102 286.815 225.692 295.471 224.202 296.44C222.712 297.41 220.034 296.538 220.034 296.538C220.034 296.538 217.933 297.409 217.181 298.394Z" fill="url(#paint4_linear)"/>
<path d="M229.664 265.174C229.616 265.092 220.034 264.022 220.034 264.022C220.034 264.022 220.348 266.936 219.368 270.946C218.388 274.957 204.32 292.332 204.32 292.332L205.795 297.009C201.234 298.597 196.748 298.851 192.333 297.818L201.475 292.332C201.475 292.332 210.03 263.176 215.271 257.975L224.876 254.652L229.664 265.174Z" fill="url(#paint5_linear)"/>
<path d="M251.152 248.21C251.152 248.21 256.673 256.421 257.126 260.166C257.579 263.912 255.614 265.434 249.821 265.685C244.029 265.936 228.565 265.931 228.565 265.931L215.367 254.652C215.367 254.652 224.985 251.22 227.486 250.25C229.987 249.279 251.152 248.21 251.152 248.21Z" fill="url(#paint6_linear)"/>
<path d="M205.237 295.434C205.237 295.434 206.825 296.972 205.752 298.683C205.752 298.683 193.172 300.913 189.756 299.901C189.756 299.901 190.466 298.283 194.312 296.44L194.028 296.658C193.669 296.934 193.879 297.508 194.331 297.482C196.866 297.338 202.111 296.873 205.237 295.434Z" fill="url(#paint7_linear)"/>
<path d="M226.107 209.304C226.107 210.069 232.998 238.398 232.998 238.398L252.63 244.172C256.416 245.285 260.481 243.749 262.583 240.409H262.583C267.808 232.112 265.312 221.15 257.01 215.932L254.23 214.184C248.302 210.458 243.185 205.577 239.183 199.833L238.136 198.33L226.107 209.304Z" fill="url(#paint8_linear)"/>
<path d="M259.546 236.675C259.519 236.675 259.493 236.661 259.478 236.636C259.455 236.598 259.467 236.549 259.505 236.526C261.827 235.131 262.05 231.962 262.038 230.665C262.014 228.09 261.33 225.546 260.059 223.308C257.775 219.282 253.822 216.544 249.999 213.896L249.207 213.347C245.299 210.628 240.983 207.328 239.225 202.546C239.21 202.504 239.231 202.458 239.273 202.443C239.314 202.428 239.36 202.449 239.375 202.491C241.117 207.228 245.411 210.511 249.298 213.216L250.09 213.765C253.928 216.423 257.896 219.171 260.199 223.228C261.482 225.491 262.174 228.062 262.198 230.663C262.21 231.988 261.981 235.225 259.588 236.663C259.575 236.671 259.56 236.675 259.546 236.675Z" fill="#7D97F4"/>
<path d="M257.954 232.461C257.949 232.461 257.944 232.46 257.939 232.459C257.895 232.451 257.867 232.409 257.875 232.365C258.392 229.738 258.315 227.393 257.646 225.394C256.437 221.777 253.225 219.144 250.562 217.254C250.026 216.874 249.472 216.493 248.937 216.125C246.466 214.424 243.911 212.666 242.056 210.268C242.029 210.233 242.035 210.183 242.07 210.156C242.105 210.129 242.155 210.135 242.182 210.17C244.022 212.548 246.567 214.299 249.028 215.993C249.563 216.361 250.117 216.742 250.654 217.123C253.337 219.027 256.574 221.682 257.798 225.343C258.476 227.369 258.555 229.742 258.032 232.396C258.025 232.434 257.992 232.461 257.954 232.461Z" fill="#7D97F4"/>
<path d="M236.223 247.122C236.223 247.122 229.794 241.001 226.63 236.947C224.919 234.755 224.382 231.87 225.173 229.204C226.618 224.337 229.185 219.296 229.419 218.511C229.778 217.308 236.987 217.358 236.987 217.358C236.987 217.358 251.171 226.564 256.744 242.158L250.485 244.107C250.485 244.107 246.782 237.893 243.122 233.943C243.122 233.943 249.454 242.308 249.677 245.732L236.223 247.122Z" fill="url(#paint9_linear)"/>
<path d="M227.482 210.138C227.557 210.388 230.504 218.277 230.651 218.406C230.798 218.536 234.777 218.749 236.65 217.469L232.004 208.383L227.482 210.138Z" fill="url(#paint10_linear)"/>
<path d="M223.126 247.577L227.849 243.024L234.383 245.785C234.383 245.785 240.887 246.792 244.61 245.785C248.332 244.777 248.332 244.777 248.332 244.777L256.744 242.158L258.065 245.892C258.401 246.84 258.064 247.892 257.244 248.475C256.516 248.992 255.663 249.56 255.119 249.798C254.012 250.282 227.812 249.463 227.812 249.463L223.126 247.577Z" fill="url(#paint11_linear)"/>
<path d="M228.247 197.092C228.247 197.092 224.839 198.764 222.752 203.944C220.664 209.124 222.569 211.353 224.814 211.546C227.059 211.74 230.387 211.502 233.724 208.043C237.062 204.584 232.686 195.086 228.247 197.092Z" fill="url(#paint12_linear)"/>
<path d="M231.203 205.484C231.203 205.484 233.418 197.953 226.869 198.237L225.39 199.401C225.39 199.401 222.757 195.444 226.587 193.267C230.417 191.09 236.396 192.495 238.375 197.71C240.354 202.924 239.567 206.409 236.921 209.107C234.275 211.806 232.961 208.991 232.961 208.991C232.961 208.991 234.346 206.529 233.655 205.293C232.964 204.056 231.625 205.672 231.625 205.672L231.203 205.484Z" fill="url(#paint13_linear)"/>
<path d="M231.226 206.801C231.226 206.801 234.276 203.557 235.392 205.883C236.507 208.209 232.359 208.783 230.795 208.872L231.226 206.801Z" fill="url(#paint14_linear)"/>
<path d="M241 249.723C240.979 249.724 240.958 249.725 240.937 249.725L213.539 249.695C212.861 249.694 212.313 249.145 212.313 248.467C212.314 247.79 212.866 247.23 213.541 247.242L240.94 247.272C241.617 247.273 242.166 247.822 242.165 248.5C242.164 249.156 241.648 249.691 241 249.723Z" fill="url(#paint15_linear)"/>
<path d="M188.908 224.847H211.726C213.409 224.847 214.941 225.818 215.659 227.341L226.208 249.709H197.851C196.767 249.709 195.792 249.046 195.393 248.037L187.213 227.339C186.741 226.143 187.622 224.847 188.908 224.847Z" fill="url(#paint16_linear)"/>
<path d="M204.984 236.316C205.478 237.852 205.113 239.344 204.168 239.648C203.223 239.952 202.056 238.953 201.561 237.417C201.067 235.881 201.432 234.389 202.377 234.085C203.322 233.78 204.489 234.779 204.984 236.316Z" fill="url(#paint17_linear)"/>
<path d="M272.237 295.237C272.237 295.237 272.524 296.833 272.638 298.729C272.686 299.536 272.088 300.238 271.282 300.316C268.478 300.588 262.094 301.091 258.018 300.502C257.447 300.42 257.221 299.719 257.643 299.325C259.323 297.76 263.382 294.714 270.063 294.048L272.237 295.237Z" fill="url(#paint18_linear)"/>
<path d="M273.632 291.637L272.214 295.113C272.019 295.589 271.536 295.885 271.025 295.831C270.677 295.795 270.266 295.728 269.866 295.607C269.066 295.364 268.615 294.516 268.854 293.715L269.924 290.135L273.632 291.637Z" fill="url(#paint19_linear)"/>
<path d="M297.873 298.005C297.873 298.005 295.033 300.38 293.927 303.428C293.623 304.266 294.266 305.149 295.158 305.149H301C301.856 305.149 302.511 304.379 302.362 303.537C301.99 301.433 300.917 298.013 297.873 298.005Z" fill="url(#paint20_linear)"/>
<path d="M301.39 294.913C301.39 294.913 300.817 297.451 300.376 299.129C300.296 299.433 299.971 299.6 299.674 299.494C298.79 299.178 298.071 299.038 297.548 299.109C297.306 299.141 297.095 298.94 297.092 298.696L297.037 294.48L301.39 294.913Z" fill="url(#paint21_linear)"/>
<path d="M286.289 237.792L269.019 290.479C269.019 290.479 272.332 292.649 273.91 292.558L294.423 250.216C294.423 250.216 298.012 276.306 296.273 295.036L302.148 295.484C302.148 295.484 311.702 247.618 304.466 231.224L286.289 237.792Z" fill="url(#paint22_linear)"/>
<path d="M294.311 249.76C294.318 249.76 294.325 249.76 294.332 249.759C294.424 249.748 294.489 249.664 294.477 249.572L293.807 244.253C293.796 244.161 293.713 244.097 293.62 244.108C293.529 244.119 293.464 244.203 293.475 244.294L294.146 249.614C294.156 249.699 294.228 249.76 294.311 249.76Z" fill="url(#paint23_linear)"/>
<path d="M283.051 191.43C283.051 191.43 297.043 192.673 295.064 202.642C295.064 202.642 302.799 217.198 306.415 234.344C306.532 234.902 306.159 235.446 305.597 235.543L282.295 239.532C281.652 239.642 281.032 239.241 280.869 238.61L275.301 217.093L273.132 227.097L266.238 225.301L272.041 195.903C272.041 195.904 272.851 191.615 283.051 191.43Z" fill="url(#paint24_linear)"/>
<path d="M275.183 216.13C275.195 216.13 275.208 216.129 275.22 216.126C275.314 216.106 275.373 216.014 275.353 215.92L273.411 207.001C273.39 206.908 273.299 206.849 273.204 206.869C273.111 206.889 273.051 206.981 273.071 207.075L275.014 215.994C275.032 216.075 275.103 216.13 275.183 216.13Z" fill="url(#paint25_linear)"/>
<path d="M276.59 242.67C277.324 242.266 278.183 242.155 278.996 242.357L280.617 242.76C280.962 242.846 281.303 242.609 281.343 242.256L283.02 227.323C285.118 228.319 288.144 228.2 289.143 228.128L285.281 245.732H271.769L276.59 242.67Z" fill="url(#paint26_linear)"/>
<path d="M240.687 210.279L241.095 208.922C241.33 208.14 241.908 207.509 242.665 207.204L250.052 204.234C250.052 204.234 250.163 203.286 248.491 202.642C246.819 201.999 247.209 200.126 247.209 200.126C247.209 200.126 249.494 201.168 252.839 202.821C254.752 203.766 255.825 205.435 256.394 206.692L273.132 227.097L271.167 228.447C268.583 230.223 265.029 229.35 263.56 226.58L254.492 209.192C249.94 210.56 245.333 210.821 240.687 210.279Z" fill="url(#paint27_linear)"/>
<path d="M278.518 181.911L282.822 193.956C282.822 193.956 279.011 196.935 276.23 195.928L274.062 189.024C274.062 189.023 275.718 180.585 278.518 181.911Z" fill="url(#paint28_linear)"/>
<path d="M265.674 177.586C265.674 177.771 269.819 189.321 269.819 189.321L276.364 186.814L274.061 175.283C274.061 175.283 265.674 174.478 265.674 177.586Z" fill="url(#paint29_linear)"/>
<path d="M272.914 178.092L274.601 184.067C274.623 184.144 274.634 184.221 274.634 184.301C274.635 184.788 274.514 186.465 272.806 186.237C271.256 186.03 269.838 185.864 268.937 186.289C268.532 186.479 268.339 186.945 268.49 187.366C268.867 188.415 269.76 190.764 270.847 192.686C271.068 193.076 271.552 193.228 271.96 193.042C273.189 192.483 275.748 191.231 277.571 189.742C277.818 189.54 277.937 189.223 277.878 188.909C277.591 187.381 276.737 182.732 276.699 181.4C276.664 180.149 278.067 179.194 278.685 178.836C278.887 178.718 279.031 178.524 279.086 178.297C279.28 177.492 279.445 175.67 277.121 175.269C276.635 175.185 276.318 174.719 276.416 174.236C276.613 173.273 276.55 171.856 274.722 171.335C272.864 170.804 271.695 171.923 271.101 172.78C270.86 173.127 270.41 173.24 270.025 173.067C269.806 172.969 269.541 172.965 269.256 173.205C268.872 173.529 268.288 173.43 268.006 173.015C267.464 172.218 266.48 171.422 264.814 171.961C261.857 172.917 261.999 176.326 263.082 178.18C264.166 180.033 267.313 178.813 268.803 177.585C269.935 176.652 271.66 177.21 272.421 177.532C272.663 177.634 272.842 177.84 272.914 178.092Z" fill="url(#paint30_linear)"/>
<path d="M277.292 183.581C277.292 183.581 275.542 180.271 276.699 179.231C277.856 178.192 279.817 178.362 279.764 180.951C279.699 184.17 277.292 183.581 277.292 183.581Z" fill="url(#paint31_linear)"/>
<path d="M287.785 228.351C288.74 228.351 289.421 228.279 289.495 228.271L289.619 228.257L294.714 204.502C294.734 204.409 294.674 204.316 294.581 204.296C294.486 204.275 294.395 204.336 294.375 204.429L289.333 227.937C288.574 228.004 284.525 228.273 282.388 226.759L286.801 206.121L285.88 204.385C285.835 204.3 285.73 204.268 285.646 204.313C285.561 204.358 285.529 204.463 285.574 204.547L286.436 206.172L282.002 226.905L282.09 226.971C283.635 228.132 286.123 228.351 287.785 228.351Z" fill="url(#paint32_linear)"/>
<path d="M258.696 249.169H285.661V246.386H258.696C259.273 246.386 259.273 249.169 258.696 249.169Z" fill="#91B3FA"/>
<path d="M285.567 249.169C285.619 249.169 285.661 249.126 285.661 249.074V246.48C285.661 246.428 285.619 246.386 285.567 246.386H257.968C257.916 246.386 257.874 246.343 257.874 246.292V245.851C257.874 245.799 257.916 245.757 257.968 245.757H287.205C287.848 245.757 288.37 246.278 288.37 246.921V248.7C288.37 249.306 287.878 249.798 287.272 249.798H257.968C257.916 249.798 257.874 249.755 257.874 249.703V249.263C257.874 249.211 257.916 249.169 257.968 249.169H285.567Z" fill="url(#paint33_linear)"/>
<path d="M172.866 302.132C172.749 302.132 172.63 302.107 172.516 302.053C172.065 301.842 171.857 301.272 172.051 300.78L190.669 253.541C190.862 253.05 191.384 252.823 191.835 253.034C192.285 253.245 192.493 253.815 192.3 254.307L173.682 301.546C173.538 301.913 173.21 302.132 172.866 302.132Z" fill="#7D97F4"/>
<path d="M193.84 302.133C193.496 302.133 193.169 301.913 193.024 301.546L174.406 254.307C174.213 253.815 174.421 253.245 174.871 253.034C175.321 252.822 175.843 253.049 176.037 253.541L194.655 300.781C194.849 301.272 194.641 301.842 194.191 302.054C194.076 302.107 193.957 302.133 193.84 302.133Z" fill="#7D97F4"/>
<path d="M261.397 301.097C261.28 301.097 261.161 301.071 261.047 301.018C260.597 300.806 260.388 300.236 260.582 299.745L279.2 252.505C279.394 252.014 279.915 251.787 280.366 251.998C280.817 252.21 281.025 252.779 280.831 253.271L262.213 300.51C262.069 300.877 261.741 301.097 261.397 301.097Z" fill="#7D97F4"/>
<path d="M282.371 301.097C282.027 301.097 281.699 300.877 281.555 300.51L262.937 253.271C262.743 252.779 262.952 252.21 263.402 251.998C263.852 251.787 264.374 252.014 264.568 252.505L283.186 299.745C283.38 300.236 283.172 300.806 282.721 301.018C282.607 301.071 282.488 301.097 282.371 301.097Z" fill="#7D97F4"/>
<path d="M289.577 251.044C289.646 250.734 289.552 250.413 289.32 250.169C289.089 249.925 288.744 249.783 288.38 249.783H165.164C164.685 249.783 164.24 249.995 163.982 250.346C163.724 250.696 163.69 251.137 163.89 251.515L165.226 254.028C165.532 254.604 166.194 254.972 166.923 254.972H287.535C288.213 254.972 288.796 254.554 288.925 253.975L289.577 251.044Z" fill="#7D97F4"/>
<g opacity="0.3">
<path opacity="0.3" d="M265.042 132.498C264.887 132.27 264.926 131.958 265.141 131.777C265.61 131.38 266.104 130.997 266.608 130.64C266.854 130.466 267.193 130.524 267.367 130.769C267.369 130.772 267.371 130.775 267.373 130.778C267.539 131.022 267.48 131.356 267.238 131.528C266.759 131.867 266.29 132.231 265.844 132.608C265.614 132.802 265.271 132.773 265.077 132.543C265.064 132.529 265.053 132.513 265.042 132.498ZM268.982 129.86C268.97 129.842 268.959 129.823 268.949 129.804C268.81 129.537 268.914 129.209 269.18 129.07C269.728 128.785 270.293 128.521 270.861 128.285C271.138 128.169 271.456 128.299 271.573 128.578C271.688 128.855 271.557 129.174 271.279 129.289C270.74 129.514 270.203 129.765 269.683 130.036C269.435 130.164 269.135 130.084 268.982 129.86ZM273.405 128.154C273.37 128.104 273.344 128.048 273.328 127.986C273.252 127.695 273.426 127.397 273.717 127.322C274.313 127.166 274.924 127.034 275.531 126.93C275.828 126.88 276.109 127.079 276.16 127.375C276.21 127.671 276.011 127.953 275.715 128.003C275.138 128.102 274.558 128.227 273.992 128.375C273.763 128.434 273.53 128.339 273.405 128.154ZM278.098 127.481C278.042 127.398 278.008 127.299 278.005 127.191C277.996 126.891 278.232 126.64 278.532 126.631C279.149 126.613 279.773 126.621 280.388 126.655C280.688 126.672 280.918 126.929 280.901 127.229C280.885 127.529 280.628 127.759 280.328 127.742C279.743 127.709 279.15 127.702 278.565 127.719C278.372 127.725 278.199 127.629 278.098 127.481ZM282.824 127.871C282.745 127.755 282.711 127.608 282.74 127.46C282.798 127.165 283.084 126.973 283.379 127.031C283.983 127.149 284.59 127.295 285.183 127.465C285.472 127.548 285.64 127.849 285.557 128.138C285.474 128.427 285.173 128.594 284.884 128.512C284.32 128.35 283.743 128.211 283.169 128.099C283.023 128.07 282.902 127.985 282.824 127.871ZM287.346 129.297C287.244 129.146 287.219 128.948 287.298 128.77C287.42 128.495 287.741 128.371 288.016 128.492C288.579 128.742 289.139 129.019 289.679 129.315C289.943 129.46 290.039 129.791 289.894 130.054C289.75 130.318 289.419 130.414 289.155 130.269C288.642 129.988 288.111 129.725 287.575 129.488C287.479 129.445 287.401 129.378 287.346 129.297ZM299.637 145.056C299.594 144.994 299.564 144.922 299.551 144.843C299.451 144.267 299.325 143.687 299.176 143.12C299.1 142.829 299.273 142.532 299.564 142.455C299.855 142.379 300.152 142.552 300.229 142.843C300.386 143.44 300.519 144.051 300.623 144.657C300.675 144.954 300.476 145.235 300.18 145.286C299.962 145.324 299.753 145.227 299.637 145.056ZM291.437 131.687C291.31 131.501 291.308 131.247 291.451 131.056C291.631 130.815 291.972 130.765 292.213 130.945C292.706 131.314 293.19 131.708 293.65 132.118C293.874 132.318 293.895 132.661 293.695 132.886C293.495 133.11 293.151 133.13 292.926 132.931C292.49 132.542 292.03 132.167 291.561 131.817C291.512 131.78 291.47 131.736 291.437 131.687ZM298.308 140.505C298.288 140.475 298.271 140.443 298.256 140.409C298.03 139.869 297.778 139.332 297.506 138.812C297.367 138.546 297.47 138.217 297.736 138.078C298.003 137.939 298.333 138.041 298.471 138.308C298.756 138.855 299.022 139.42 299.26 139.988C299.376 140.265 299.246 140.584 298.968 140.7C298.726 140.802 298.451 140.714 298.308 140.505ZM294.891 134.932C294.737 134.705 294.775 134.393 294.989 134.211C295.218 134.017 295.562 134.045 295.756 134.274C296.155 134.743 296.538 135.236 296.895 135.739C296.898 135.742 296.9 135.745 296.902 135.748C297.068 135.992 297.009 136.326 296.768 136.498C296.523 136.672 296.183 136.615 296.009 136.37C295.669 135.892 295.305 135.424 294.926 134.979C294.914 134.964 294.902 134.948 294.891 134.932Z" fill="#7D97F4"/>
<path opacity="0.3" d="M299.943 148.866C299.883 148.777 299.848 148.67 299.849 148.554C299.852 148.274 299.849 147.988 299.841 147.706C299.831 147.406 300.068 147.155 300.368 147.146C300.668 147.136 300.92 147.372 300.928 147.673C300.938 147.97 300.941 148.27 300.938 148.565C300.935 148.866 300.688 149.107 300.388 149.104C300.203 149.102 300.04 149.008 299.943 148.866Z" fill="#7D97F4"/>
</g>
<g opacity="0.3">
<path opacity="0.3" d="M293.308 164.074C293.161 163.857 293.188 163.559 293.385 163.373C293.589 163.18 293.793 162.98 293.99 162.778C294.2 162.563 294.544 162.559 294.759 162.769C294.975 162.98 294.979 163.323 294.769 163.539C294.561 163.751 294.347 163.962 294.132 164.165C293.913 164.371 293.569 164.361 293.363 164.142C293.343 164.121 293.324 164.098 293.308 164.074Z" fill="#7D97F4"/>
<path opacity="0.3" d="M261.237 160.61C261.096 160.403 260.958 160.193 260.823 159.979C260.663 159.725 260.738 159.389 260.992 159.228C261.246 159.068 261.584 159.144 261.743 159.397C262.055 159.89 262.385 160.368 262.73 160.825C262.911 161.066 262.863 161.406 262.623 161.587C262.383 161.769 262.042 161.721 261.861 161.481C261.648 161.198 261.438 160.905 261.237 160.61ZM259.457 157.451C259.44 157.426 259.425 157.399 259.412 157.37C259.16 156.818 258.928 156.249 258.724 155.679C258.622 155.396 258.769 155.084 259.052 154.983C259.335 154.881 259.648 155.028 259.748 155.311C259.942 155.853 260.162 156.394 260.402 156.919C260.527 157.192 260.406 157.515 260.133 157.64C259.888 157.751 259.604 157.666 259.457 157.451ZM263.741 163.642C263.597 163.43 263.619 163.138 263.807 162.951C264.02 162.738 264.365 162.739 264.577 162.952C264.983 163.359 265.411 163.755 265.852 164.127C266.081 164.322 266.109 164.665 265.915 164.895C265.721 165.124 265.377 165.152 265.148 164.958C264.685 164.566 264.233 164.149 263.806 163.72C263.781 163.696 263.76 163.669 263.741 163.642ZM257.999 153.018C257.96 152.961 257.932 152.895 257.916 152.824C257.792 152.23 257.691 151.624 257.617 151.022C257.581 150.723 257.793 150.452 258.091 150.415C258.39 150.379 258.661 150.59 258.698 150.889C258.768 151.46 258.863 152.036 258.982 152.6C259.043 152.894 258.855 153.183 258.561 153.244C258.338 153.291 258.119 153.195 257.999 153.018ZM267.378 166.56C267.259 166.386 267.248 166.151 267.368 165.962C267.529 165.708 267.865 165.633 268.119 165.794C268.604 166.102 269.11 166.394 269.621 166.661C269.888 166.8 269.991 167.129 269.852 167.395C269.713 167.661 269.384 167.765 269.117 167.625C268.579 167.344 268.047 167.038 267.536 166.713C267.471 166.672 267.418 166.62 267.378 166.56ZM271.567 168.61C271.472 168.471 271.443 168.29 271.504 168.12C271.606 167.837 271.918 167.69 272.201 167.792C272.743 167.986 273.3 168.161 273.856 168.31C274.147 168.387 274.319 168.685 274.241 168.976C274.163 169.267 273.865 169.439 273.575 169.361C272.989 169.205 272.403 169.021 271.833 168.816C271.72 168.775 271.629 168.702 271.567 168.61ZM276.103 169.698C276.031 169.592 275.996 169.461 276.013 169.324C276.051 169.026 276.323 168.814 276.622 168.852C277.194 168.924 277.776 168.973 278.351 168.998C278.651 169.01 278.884 169.263 278.871 169.564C278.859 169.865 278.605 170.098 278.305 170.085C277.7 170.06 277.088 170.008 276.485 169.932C276.324 169.912 276.188 169.823 276.103 169.698ZM280.769 169.771C280.719 169.697 280.686 169.611 280.677 169.516C280.649 169.217 280.868 168.952 281.167 168.923C281.742 168.869 282.32 168.789 282.886 168.686C283.182 168.633 283.465 168.829 283.519 169.124C283.572 169.42 283.376 169.703 283.08 169.757C282.484 169.865 281.875 169.949 281.271 170.007C281.066 170.026 280.877 169.93 280.769 169.771ZM285.338 168.817C285.31 168.776 285.287 168.73 285.271 168.68C285.177 168.395 285.333 168.087 285.618 167.993C286.165 167.814 286.711 167.609 287.241 167.384C287.518 167.266 287.838 167.396 287.955 167.672C288.073 167.949 287.943 168.268 287.667 168.386C287.108 168.623 286.533 168.839 285.958 169.028C285.722 169.105 285.471 169.012 285.338 168.817ZM289.583 166.884C289.577 166.875 289.571 166.865 289.565 166.856C289.412 166.597 289.497 166.263 289.755 166.11C290.12 165.893 290.482 165.662 290.832 165.424C290.959 165.338 291.084 165.25 291.208 165.162C291.453 164.987 291.793 165.044 291.967 165.289C292.149 165.533 292.085 165.874 291.84 166.048C291.71 166.141 291.578 166.233 291.444 166.324C291.076 166.574 290.695 166.817 290.311 167.045C290.063 167.193 289.744 167.12 289.583 166.884Z" fill="#7D97F4"/>
<path opacity="0.3" d="M257.553 148.359C257.492 148.27 257.457 148.162 257.459 148.045C257.463 147.751 257.474 147.451 257.491 147.153C257.508 146.853 257.765 146.624 258.065 146.641C258.365 146.658 258.594 146.914 258.577 147.215C258.561 147.497 258.551 147.782 258.547 148.062C258.542 148.362 258.295 148.602 257.995 148.598C257.81 148.595 257.649 148.501 257.553 148.359Z" fill="#7D97F4"/>
</g>
<path d="M263.185 145.415C263.154 145.519 263.192 145.632 263.281 145.695L265.799 147.496C265.714 148.939 265.858 150.407 266.25 151.842L264.159 154.122C264.085 154.202 264.071 154.32 264.123 154.415L265.891 157.68C265.943 157.776 266.05 157.828 266.157 157.81L269.209 157.304C270.198 158.416 271.348 159.338 272.603 160.055L272.737 163.149C272.742 163.257 272.815 163.35 272.918 163.381L276.478 164.439C276.582 164.47 276.694 164.432 276.758 164.343L278.559 161.825C280.002 161.91 281.469 161.766 282.905 161.374L285.185 163.465C285.265 163.539 285.383 163.553 285.478 163.502L288.743 161.733C288.839 161.681 288.891 161.574 288.873 161.467L288.366 158.415C289.479 157.427 290.401 156.276 291.118 155.021L294.211 154.887C294.32 154.883 294.413 154.81 294.444 154.706L295.502 151.146C295.533 151.042 295.494 150.93 295.406 150.867L292.888 149.065C292.973 147.622 292.828 146.155 292.437 144.719L294.528 142.439C294.601 142.359 294.616 142.242 294.564 142.146L292.795 138.881C292.743 138.785 292.637 138.733 292.53 138.751L289.478 139.258C288.489 138.146 287.339 137.223 286.083 136.506L285.95 133.413C285.945 133.305 285.872 133.211 285.768 133.18L282.208 132.122C282.104 132.091 281.992 132.13 281.929 132.218L280.128 134.736C278.685 134.651 277.217 134.796 275.782 135.187L273.502 133.096C273.422 133.023 273.304 133.008 273.209 133.06L269.943 134.829C269.848 134.881 269.796 134.987 269.814 135.094L270.32 138.146C269.208 139.135 268.286 140.285 267.568 141.54L264.475 141.674C264.367 141.679 264.273 141.752 264.242 141.856L263.185 145.415Z" fill="#7D97F4"/>
<path d="M276.256 150.379C275.232 148.874 275.438 146.802 276.816 145.534C278.331 144.14 280.697 144.238 282.09 145.753C282.766 146.487 283.115 147.44 283.073 148.436C283.032 149.432 282.605 150.352 281.871 151.027C280.356 152.421 277.99 152.322 276.597 150.808C276.471 150.671 276.357 150.528 276.256 150.379ZM281.713 146.675C281.634 146.559 281.546 146.448 281.45 146.343C280.381 145.181 278.567 145.106 277.406 146.174C276.244 147.243 276.168 149.057 277.237 150.218C278.306 151.38 280.12 151.455 281.281 150.387C281.844 149.869 282.171 149.163 282.203 148.4C282.229 147.779 282.057 147.18 281.713 146.675Z" fill="#BDD0FB"/>
<path d="M271.841 153.475C271.665 153.216 271.501 152.948 271.35 152.669C271.303 152.582 271.257 152.493 271.212 152.404C270.992 151.964 270.807 151.508 270.66 151.041C270.658 151.035 270.656 151.029 270.654 151.022C270.649 151.004 270.643 150.986 270.638 150.968C270.627 150.933 270.616 150.898 270.606 150.862C270.579 150.77 270.616 150.673 270.692 150.621C270.711 150.609 270.731 150.599 270.754 150.592C270.869 150.559 270.99 150.625 271.024 150.74C271.197 151.334 271.436 151.913 271.733 152.462C273.209 155.186 275.932 156.812 278.814 157.016C280.418 157.131 282.07 156.805 283.585 155.984C283.851 155.84 284.108 155.684 284.354 155.516C286.012 154.387 287.222 152.736 287.801 150.788C288.467 148.549 288.22 146.185 287.108 144.132C284.81 139.892 279.494 138.313 275.256 140.61C274.994 140.751 274.741 140.905 274.497 141.072C273.439 141.792 272.551 142.735 271.899 143.838C271.882 143.866 271.859 143.889 271.834 143.907C271.766 143.953 271.675 143.958 271.6 143.914C271.497 143.852 271.462 143.719 271.524 143.616C272.209 142.458 273.141 141.468 274.252 140.712C274.508 140.537 274.774 140.375 275.048 140.227C279.498 137.815 285.08 139.476 287.491 143.924C288.659 146.08 288.917 148.561 288.219 150.911C287.611 152.957 286.341 154.691 284.6 155.876C284.341 156.052 284.072 156.216 283.793 156.367C281.637 157.535 279.156 157.793 276.806 157.095C274.759 156.487 273.026 155.216 271.841 153.475Z" fill="#BDD0FB"/>
<g opacity="0.3">
<path opacity="0.3" d="M242.736 125.211C242.654 125.091 242.657 124.927 242.754 124.808C242.935 124.588 243.126 124.37 243.32 124.161C243.446 124.025 243.659 124.016 243.795 124.143C243.932 124.268 243.939 124.482 243.813 124.618C243.628 124.817 243.446 125.025 243.274 125.235C243.156 125.379 242.944 125.4 242.8 125.282C242.775 125.261 242.754 125.237 242.736 125.211Z" fill="#7D97F4"/>
<path opacity="0.3" d="M244.554 123.372C244.458 123.231 244.483 123.038 244.616 122.926C244.992 122.61 245.389 122.309 245.795 122.033C245.88 121.975 245.967 121.918 246.054 121.861C246.21 121.76 246.418 121.816 246.519 121.959C246.62 122.115 246.576 122.323 246.421 122.424C246.337 122.479 246.255 122.533 246.173 122.589C245.786 122.852 245.407 123.139 245.049 123.441C244.906 123.56 244.694 123.542 244.575 123.4C244.567 123.391 244.561 123.382 244.554 123.372ZM247.481 121.47C247.472 121.457 247.463 121.443 247.456 121.429C247.375 121.262 247.444 121.06 247.611 120.979C248.146 120.717 248.702 120.486 249.263 120.293C249.439 120.233 249.63 120.327 249.691 120.502C249.751 120.677 249.658 120.868 249.482 120.929C248.947 121.113 248.416 121.333 247.906 121.583C247.754 121.657 247.573 121.606 247.481 121.47ZM250.781 120.335C250.757 120.299 250.739 120.259 250.73 120.215C250.692 120.033 250.808 119.855 250.99 119.817C251.572 119.695 252.168 119.607 252.762 119.558C252.947 119.543 253.109 119.68 253.124 119.866C253.14 120.05 253.002 120.213 252.817 120.228C252.251 120.275 251.683 120.358 251.128 120.475C250.991 120.504 250.855 120.444 250.781 120.335ZM254.26 120.045C254.221 119.988 254.199 119.918 254.202 119.843C254.209 119.657 254.366 119.513 254.551 119.521C255.147 119.545 255.746 119.606 256.332 119.703C256.515 119.734 256.639 119.907 256.608 120.09C256.578 120.273 256.405 120.397 256.222 120.367C255.663 120.274 255.092 120.216 254.524 120.192C254.413 120.188 254.318 120.13 254.26 120.045ZM257.703 120.614C257.649 120.534 257.629 120.431 257.659 120.33C257.711 120.152 257.898 120.05 258.076 120.103C258.647 120.271 259.213 120.476 259.758 120.712C259.929 120.786 260.007 120.984 259.933 121.154C259.859 121.325 259.661 121.403 259.491 121.329C258.971 121.104 258.431 120.908 257.886 120.748C257.809 120.725 257.746 120.676 257.703 120.614ZM260.904 122.002C260.833 121.898 260.824 121.758 260.892 121.642C260.987 121.482 261.193 121.429 261.353 121.523C261.865 121.825 262.364 122.161 262.835 122.524C262.982 122.638 263.009 122.848 262.896 122.995C262.783 123.142 262.571 123.17 262.424 123.057C261.976 122.711 261.5 122.39 261.012 122.102C260.967 122.076 260.931 122.042 260.904 122.002ZM263.668 124.129C263.579 123.999 263.592 123.82 263.707 123.704C263.838 123.572 264.051 123.571 264.183 123.701C264.604 124.119 265.005 124.568 265.374 125.036C265.487 125.184 265.464 125.394 265.318 125.508C265.172 125.623 264.961 125.598 264.846 125.452C264.494 125.005 264.112 124.577 263.71 124.179C263.694 124.164 263.68 124.147 263.668 124.129ZM266.639 128.42C266.628 128.404 266.619 128.387 266.61 128.368C266.41 127.921 266.181 127.477 265.931 127.048C265.893 126.983 265.855 126.92 265.817 126.857C265.721 126.698 265.771 126.491 265.93 126.395C266.089 126.298 266.301 126.347 266.392 126.508C266.433 126.575 266.473 126.642 266.512 126.711C266.774 127.159 267.013 127.624 267.224 128.093C267.3 128.263 267.224 128.461 267.055 128.537C266.904 128.605 266.729 128.552 266.639 128.42Z" fill="#7D97F4"/>
</g>
<g opacity="0.3">
<path opacity="0.3" d="M242.082 142.359C241.979 142.207 242.017 142 242.168 141.895C242.32 141.788 242.529 141.825 242.636 141.977C242.956 142.435 243.307 142.878 243.679 143.292C243.801 143.43 243.792 143.643 243.653 143.767C243.515 143.891 243.303 143.879 243.179 143.741C242.789 143.307 242.421 142.843 242.085 142.363C242.084 142.362 242.083 142.36 242.082 142.359ZM241.183 140.893C241.176 140.883 241.17 140.873 241.164 140.862C240.888 140.346 240.641 139.808 240.429 139.262C240.362 139.089 240.448 138.895 240.621 138.828C240.794 138.76 240.989 138.847 241.056 139.019C241.258 139.539 241.494 140.053 241.757 140.545C241.844 140.709 241.783 140.913 241.619 141C241.466 141.082 241.278 141.033 241.183 140.893ZM244.376 144.913C244.292 144.79 244.298 144.621 244.4 144.503C244.522 144.363 244.734 144.348 244.874 144.47C245.296 144.837 245.744 145.182 246.205 145.494C246.359 145.599 246.399 145.807 246.295 145.961C246.191 146.114 245.982 146.155 245.828 146.051C245.344 145.723 244.875 145.362 244.433 144.977C244.411 144.958 244.392 144.936 244.376 144.913ZM239.942 137.691C239.92 137.66 239.904 137.624 239.894 137.584C239.75 137.017 239.64 136.434 239.567 135.854C239.544 135.67 239.674 135.501 239.859 135.478C240.042 135.455 240.211 135.586 240.234 135.77C240.304 136.323 240.409 136.878 240.546 137.42C240.591 137.6 240.482 137.782 240.302 137.828C240.162 137.863 240.019 137.805 239.942 137.691ZM247.218 146.836C247.151 146.738 247.139 146.607 247.197 146.494C247.281 146.328 247.484 146.263 247.649 146.347C248.145 146.602 248.663 146.829 249.187 147.021C249.361 147.085 249.45 147.278 249.386 147.452C249.322 147.627 249.129 147.716 248.954 147.652C248.405 147.45 247.863 147.213 247.342 146.946C247.291 146.919 247.249 146.881 247.218 146.836ZM250.439 148.021C250.388 147.946 250.367 147.85 250.39 147.755C250.432 147.574 250.613 147.462 250.794 147.505C251.338 147.633 251.895 147.73 252.449 147.792C252.633 147.812 252.766 147.979 252.745 148.163C252.725 148.347 252.559 148.48 252.374 148.46C251.794 148.395 251.21 148.294 250.64 148.159C250.555 148.139 250.485 148.088 250.439 148.021ZM253.852 148.401C253.816 148.348 253.794 148.284 253.794 148.215C253.792 148.03 253.941 147.878 254.126 147.876C254.686 147.87 255.249 147.83 255.801 147.757C255.985 147.733 256.154 147.862 256.179 148.046C256.203 148.23 256.074 148.399 255.89 148.424C255.311 148.5 254.719 148.542 254.133 148.548C254.016 148.549 253.913 148.491 253.852 148.401Z" fill="#7D97F4"/>
<path opacity="0.3" d="M239.511 134.268C239.475 134.215 239.453 134.15 239.453 134.08C239.452 133.793 239.46 133.504 239.476 133.221C239.487 133.036 239.645 132.894 239.831 132.905C240.016 132.915 240.158 133.074 240.148 133.259C240.132 133.528 240.125 133.804 240.126 134.079C240.126 134.265 239.976 134.415 239.79 134.416C239.674 134.416 239.572 134.358 239.511 134.268Z" fill="#7D97F4"/>
</g>
<path d="M243.259 132.057C243.238 132.126 243.264 132.201 243.323 132.244L245.008 133.449C244.951 134.415 245.048 135.397 245.31 136.357L243.911 137.883C243.862 137.936 243.852 138.015 243.887 138.079L245.07 140.264C245.105 140.328 245.176 140.362 245.248 140.351L247.29 140.012C247.952 140.756 248.721 141.373 249.561 141.853L249.651 143.923C249.654 143.995 249.703 144.058 249.772 144.079L252.154 144.787C252.224 144.807 252.299 144.781 252.341 144.722L253.547 143.037C254.512 143.094 255.494 142.998 256.455 142.736L257.98 144.135C258.034 144.184 258.113 144.194 258.177 144.159L260.362 142.975C260.425 142.941 260.46 142.869 260.448 142.798L260.109 140.755C260.854 140.094 261.471 139.324 261.951 138.484L264.02 138.395C264.093 138.392 264.155 138.343 264.176 138.273L264.884 135.891C264.905 135.822 264.879 135.747 264.82 135.704L263.135 134.499C263.192 133.533 263.095 132.551 262.833 131.591L264.232 130.065C264.281 130.012 264.291 129.933 264.257 129.869L263.073 127.684C263.038 127.62 262.967 127.585 262.895 127.597L260.853 127.936C260.192 127.192 259.422 126.575 258.582 126.095L258.492 124.025C258.489 123.953 258.44 123.89 258.371 123.869L255.989 123.161C255.919 123.141 255.844 123.166 255.802 123.226L254.597 124.91C253.631 124.854 252.649 124.95 251.688 125.213L250.163 123.813C250.109 123.764 250.03 123.754 249.967 123.789L247.782 124.973C247.718 125.007 247.683 125.078 247.695 125.15L248.034 127.193C247.29 127.854 246.672 128.624 246.192 129.464L244.123 129.553C244.05 129.556 243.988 129.605 243.967 129.675L243.259 132.057Z" fill="#7D97F4"/>
<path d="M251.966 135.4C251.661 134.952 251.508 134.42 251.531 133.868C251.559 133.19 251.85 132.563 252.35 132.103C253.381 131.154 254.993 131.221 255.943 132.252C256.891 133.287 256.825 134.896 255.793 135.845C255.293 136.305 254.644 136.543 253.966 136.514C253.287 136.486 252.66 136.195 252.2 135.695C252.114 135.602 252.036 135.503 251.966 135.4ZM255.619 132.923C255.568 132.848 255.511 132.776 255.448 132.707C254.749 131.949 253.564 131.899 252.805 132.598C252.438 132.936 252.224 133.397 252.203 133.896C252.182 134.395 252.357 134.872 252.695 135.241C253.033 135.608 253.495 135.822 253.994 135.843C254.493 135.864 254.97 135.689 255.338 135.35C256.028 134.715 256.132 133.676 255.619 132.923Z" fill="#BDD0FB"/>
<path d="M248.89 137.551C248.77 137.375 248.659 137.192 248.555 137.001C248.35 136.622 248.183 136.222 248.058 135.81C248.053 135.792 248.047 135.773 248.042 135.755C248 135.611 248.058 135.463 248.175 135.383C248.204 135.363 248.236 135.348 248.27 135.338C248.449 135.286 248.635 135.389 248.687 135.566C248.8 135.952 248.954 136.327 249.146 136.681L249.146 136.681C249.157 136.7 249.168 136.72 249.178 136.739C249.64 137.573 250.293 138.26 251.077 138.758C251.502 139.029 251.967 139.244 252.461 139.395C252.465 139.397 252.469 139.398 252.473 139.399C252.486 139.403 252.498 139.407 252.51 139.41C253.96 139.841 255.49 139.681 256.819 138.961C256.991 138.868 257.157 138.767 257.317 138.658C258.39 137.928 259.173 136.859 259.548 135.597C259.979 134.148 259.819 132.618 259.099 131.289C258.379 129.961 257.184 128.99 255.735 128.559C254.286 128.129 252.756 128.288 251.427 129.008C251.257 129.1 251.093 129.2 250.936 129.307C250.251 129.773 249.675 130.384 249.253 131.098C249.227 131.142 249.193 131.178 249.153 131.204C249.049 131.275 248.909 131.284 248.793 131.216C248.633 131.121 248.58 130.915 248.675 130.755C249.147 129.957 249.791 129.273 250.557 128.752C250.734 128.631 250.917 128.52 251.106 128.417C252.593 127.611 254.305 127.433 255.927 127.915C257.548 128.397 258.885 129.48 259.69 130.968C260.496 132.456 260.675 134.167 260.193 135.789C259.773 137.2 258.897 138.396 257.696 139.214C257.518 139.335 257.332 139.448 257.139 139.553C254.26 141.112 250.694 140.203 248.89 137.551Z" fill="#BDD0FB"/>
<path d="M95.777 298.533C95.777 298.533 95.2329 301.45 94.9523 304.341C94.8425 305.47 95.7048 306.46 96.8382 306.518C100.689 306.715 108.926 307.106 111.884 307.002C112.329 306.987 112.624 306.534 112.463 306.119C112.329 305.772 112.066 305.489 111.728 305.33L98.1768 298.944L95.777 298.533Z" fill="url(#paint34_linear)"/>
<path d="M95.3706 296.812L95.7519 300.311C95.7519 300.311 98.1257 301.444 99.7659 300.21L98.8156 296.305L95.3706 296.812Z" fill="url(#paint35_linear)"/>
<path d="M96.3092 231.1C96.1214 232.011 94.9131 276.642 99.4937 296.692C99.5684 297.019 99.3997 297.354 99.088 297.478C98.3533 297.77 96.9144 298.189 95.1945 298.23C94.6618 298.243 94.1877 297.892 94.0424 297.38C92.7228 292.726 86.4089 269.409 85.7683 247.187C85.0523 222.356 85.7764 246.342 85.7764 246.342L86.4815 231.004L96.3092 231.1Z" fill="url(#paint36_linear)"/>
<path d="M80.1051 299.908C80.1051 299.908 79.2694 301.375 78.4364 305.288C78.2861 305.995 78.7743 306.677 79.4925 306.754C80.7633 306.892 82.7199 307.071 84.2887 307.075C85.0118 307.077 85.5821 306.453 85.5019 305.734C85.3418 304.302 84.823 301.949 83.1682 300.103L80.1051 299.908Z" fill="url(#paint37_linear)"/>
<path d="M79.4263 295.405L80.3449 300.701C80.3449 300.701 81.2963 301.422 83.1966 300.924L82.7883 295.232L79.4263 295.405Z" fill="url(#paint38_linear)"/>
<path d="M77.4101 232.289C73.283 255.804 77.7013 290.507 79.2382 297.306C79.3323 297.722 79.6644 298.044 80.0847 298.118C80.7985 298.243 81.9746 298.351 83.1382 298.025C83.5391 297.913 83.8235 297.555 83.8437 297.139C84.1109 291.656 84.0454 257.985 87.8085 244.714C87.9991 244.042 88.4165 243.457 88.9902 243.058L96.0956 238.108L96.7141 230.003L77.4101 232.289Z" fill="url(#paint39_linear)"/>
<path d="M102.703 187.901C91.0095 187.596 78.0743 190.737 78.0743 190.737C74.3942 211.044 77.0468 234.533 77.0468 234.533C86.0781 236.994 96.3279 233.266 96.3279 233.266C97.9139 224.778 105.163 200.918 105.163 200.918C110.884 200.263 115.607 198.659 119.504 196.517C116.58 193.061 115.228 188.687 114.647 186.103C110.5 187.348 106.309 187.995 102.703 187.901Z" fill="url(#paint40_linear)"/>
<path d="M137.412 171.004C136.276 169.606 134.816 170.248 134.816 170.248C133.025 177.501 123.945 183.31 114.647 186.103C115.228 188.686 116.58 193.061 119.504 196.517C134.973 188.013 137.412 171.004 137.412 171.004Z" fill="url(#paint41_linear)"/>
<path d="M137.129 171.354C137.246 171.738 135.848 172.306 135.044 170.736C135.022 169.986 134.597 166.773 135.051 166.167C137.466 162.939 142.126 158.909 142.126 158.909C142.9 159.687 142.249 160.438 142.249 160.438L139.985 162.753C140.446 163.605 141.011 164.326 141.269 165.353C141.465 166.132 141.333 166.96 140.934 167.663C140.534 168.368 139.988 169.285 139.473 170.001C138.5 171.357 137.129 171.354 137.129 171.354Z" fill="url(#paint42_linear)"/>
<path d="M138.99 164.259L136.93 165.972L136.272 167.69L138.075 169.728C138.075 169.728 138.72 166.313 139.182 165.576C139.644 164.84 139.412 164.48 138.99 164.259Z" fill="url(#paint43_linear)"/>
<path d="M82.4524 202.104L78.0747 190.737C78.0747 190.737 67.0801 198.055 65.1938 207.448C67.2565 207.62 71.0072 208.193 74.6658 210.084C75.516 205.648 82.4524 202.104 82.4524 202.104Z" fill="url(#paint44_linear)"/>
<path d="M91.8966 212.851C91.8966 212.851 79.5659 219.665 75.484 213.707C74.6366 212.47 74.4427 211.246 74.6656 210.084C71.007 208.193 67.2561 207.62 65.1936 207.448C64.6249 210.28 64.8825 213.3 66.5204 216.365C73.6427 229.695 93.4907 215.89 93.4907 215.89L91.8966 212.851Z" fill="url(#paint45_linear)"/>
<path d="M90.9469 178.293L87.123 189.019C87.0597 189.197 87.131 189.395 87.2954 189.488C88.3043 190.058 91.9433 191.714 96.374 188.964C96.8356 188.677 97.1525 188.206 97.2272 187.668L98.5211 178.366L90.9469 178.293Z" fill="url(#paint46_linear)"/>
<path d="M99.1389 168.405C99.1389 168.405 103.152 176.136 102.598 179.238C102.045 182.34 96.9829 182.069 92.5847 179.503L89.5737 171.168L99.1389 168.405Z" fill="url(#paint47_linear)"/>
<path d="M92.8193 175.426C92.9998 175.348 93.0682 175.129 92.9622 174.964C92.6395 174.46 92.0356 173.434 91.8483 172.539C91.8483 172.539 91.1183 172.061 93.7284 171.463C96.3386 170.864 100.231 169.934 101.069 167.725C101.885 165.571 99.846 160.117 96.4686 164.415C96.3401 164.579 96.0914 164.58 95.9662 164.414C95.4262 163.697 94.0024 162.206 91.9975 163.082C90.1215 163.903 89.898 165.27 89.9171 165.96C89.9227 166.163 89.7397 166.319 89.5406 166.279C88.5978 166.09 86.3328 165.914 85.2526 168.229C84.363 170.135 84.919 171.225 85.4298 171.76C85.5953 171.933 85.5193 172.215 85.2895 172.283C84.6669 172.468 83.8605 172.986 83.9267 174.441C84.0185 176.453 86.268 176.297 86.9089 176.212C87.0139 176.198 87.1192 176.235 87.1894 176.314C87.7323 176.926 90.1802 179.529 92.8531 179.865C93.0845 179.894 93.2663 179.667 93.1925 179.446L92.0666 176.068C92.0143 175.912 92.0908 175.741 92.2425 175.675L92.8193 175.426Z" fill="url(#paint48_linear)"/>
<path d="M93.2801 175.909C93.2801 175.909 90.3897 173.885 90.161 175.564C89.9325 177.243 92.7577 178.024 94.1667 177.41L93.2801 175.909Z" fill="url(#paint49_linear)"/>
<path d="M89.3765 223.62L96.0936 200.162C96.1698 199.896 96.397 199.702 96.6721 199.67C97.8892 199.528 101.416 199.129 105.487 198.785C110.392 198.37 116.087 198.034 119.491 198.32C119.974 198.36 120.267 198.872 120.052 199.307C118.116 203.223 110.155 219.15 106.169 224.368C106.037 224.541 105.832 224.642 105.615 224.64L90.03 224.495C89.5764 224.491 89.2517 224.056 89.3765 223.62Z" fill="url(#paint50_linear)"/>
<path d="M90.9996 217.953C90.9996 217.953 90.0638 214.105 90.4413 212.74C90.8187 211.375 91.55 209.62 93.9875 210.01C96.4251 210.4 99.3004 211.427 99.3004 211.427C99.3004 211.427 99.1551 213.205 97.3026 212.631L98.4515 213.52C98.4515 213.52 98.2872 214.944 96.7224 214.183L97.7909 215.362C97.7909 215.362 97.1188 216.531 95.9676 215.781C94.8164 215.031 94.2645 218.416 90.9996 217.953Z" fill="url(#paint51_linear)"/>
<path d="M105.04 205.787C105.04 206.876 105.922 207.759 107.011 207.759C108.1 207.759 108.983 206.876 108.983 205.787C108.983 204.698 108.1 203.816 107.011 203.816C105.922 203.816 105.04 204.698 105.04 205.787Z" fill="#91B3FA"/>
<path d="M96.7555 207.058L96.4482 206.967L97.8158 202.328C98.0279 201.609 98.6082 201.069 99.33 200.918C103.655 200.016 115.428 199.825 115.546 199.823L115.551 200.144C115.433 200.145 103.691 200.336 99.3958 201.232C98.7895 201.359 98.3017 201.813 98.1231 202.419L96.7555 207.058Z" fill="#91B3FA"/>
<defs>
<linearGradient id="paint0_linear" x1="320.56" y1="336.256" x2="131.417" y2="132.102" gradientUnits="userSpaceOnUse">
<stop stop-color="#DAE3FE"/>
<stop offset="1" stop-color="#E9EFFD"/>
</linearGradient>
<linearGradient id="paint1_linear" x1="270.106" y1="104.198" x2="78.421" y2="250.149" gradientUnits="userSpaceOnUse">
<stop stop-color="#4F52FF"/>
<stop offset="1" stop-color="#4042E2"/>
</linearGradient>
<linearGradient id="paint2_linear" x1="156.362" y1="185.726" x2="212.07" y2="-12.8684" gradientUnits="userSpaceOnUse">
<stop stop-color="#4F52FF"/>
<stop offset="1" stop-color="#4042E2"/>
</linearGradient>
<linearGradient id="paint3_linear" x1="213.105" y1="275.336" x2="230.796" y2="275.336" gradientUnits="userSpaceOnUse">
<stop stop-color="#FEBBBA"/>
<stop offset="1" stop-color="#FF928E"/>
</linearGradient>
<linearGradient id="paint4_linear" x1="223.929" y1="286.863" x2="221.327" y2="326.761" gradientUnits="userSpaceOnUse">
<stop stop-color="#4F52FF"/>
<stop offset="1" stop-color="#4042E2"/>
</linearGradient>
<linearGradient id="paint5_linear" x1="192.333" y1="276.545" x2="229.664" y2="276.545" gradientUnits="userSpaceOnUse">
<stop stop-color="#FEBBBA"/>
<stop offset="1" stop-color="#FF928E"/>
</linearGradient>
<linearGradient id="paint6_linear" x1="215.367" y1="257.071" x2="257.188" y2="257.071" gradientUnits="userSpaceOnUse">
<stop stop-color="#09005D"/>
<stop offset="1" stop-color="#1A0F91"/>
</linearGradient>
<linearGradient id="paint7_linear" x1="198.82" y1="285.226" x2="196.218" y2="325.123" gradientUnits="userSpaceOnUse">
<stop stop-color="#4F52FF"/>
<stop offset="1" stop-color="#4042E2"/>
</linearGradient>
<linearGradient id="paint8_linear" x1="217.692" y1="193.76" x2="262.989" y2="248.032" gradientUnits="userSpaceOnUse">
<stop stop-color="#09005D"/>
<stop offset="1" stop-color="#1A0F91"/>
</linearGradient>
<linearGradient id="paint9_linear" x1="229.077" y1="237.305" x2="319.424" y2="191.811" gradientUnits="userSpaceOnUse">
<stop stop-color="#FE7062"/>
<stop offset="1" stop-color="#FF928E"/>
</linearGradient>
<linearGradient id="paint10_linear" x1="234.241" y1="227.757" x2="231.721" y2="211.587" gradientUnits="userSpaceOnUse">
<stop stop-color="#FEBBBA"/>
<stop offset="1" stop-color="#FF928E"/>
</linearGradient>
<linearGradient id="paint11_linear" x1="244.983" y1="246.055" x2="280.051" y2="246.055" gradientUnits="userSpaceOnUse">
<stop stop-color="#FEBBBA"/>
<stop offset="1" stop-color="#FF928E"/>
</linearGradient>
<linearGradient id="paint12_linear" x1="222.885" y1="201.562" x2="240.494" y2="212.116" gradientUnits="userSpaceOnUse">
<stop stop-color="#FEBBBA"/>
<stop offset="1" stop-color="#FF928E"/>
</linearGradient>
<linearGradient id="paint13_linear" x1="221.656" y1="187.984" x2="270.767" y2="240.466" gradientUnits="userSpaceOnUse">
<stop stop-color="#09005D"/>
<stop offset="1" stop-color="#1A0F91"/>
</linearGradient>
<linearGradient id="paint14_linear" x1="226.363" y1="196.545" x2="238.326" y2="215.777" gradientUnits="userSpaceOnUse">
<stop stop-color="#FEBBBA"/>
<stop offset="1" stop-color="#FF928E"/>
</linearGradient>
<linearGradient id="paint15_linear" x1="245.649" y1="242.443" x2="223.899" y2="249.577" gradientUnits="userSpaceOnUse">
<stop stop-color="#09005D"/>
<stop offset="1" stop-color="#1A0F91"/>
</linearGradient>
<linearGradient id="paint16_linear" x1="215.771" y1="228.182" x2="200.107" y2="244.738" gradientUnits="userSpaceOnUse">
<stop stop-color="#09005D"/>
<stop offset="1" stop-color="#1A0F91"/>
</linearGradient>
<linearGradient id="paint17_linear" x1="206.302" y1="232.305" x2="199.195" y2="243.007" gradientUnits="userSpaceOnUse">
<stop stop-color="#4F52FF"/>
<stop offset="1" stop-color="#4042E2"/>
</linearGradient>
<linearGradient id="paint18_linear" x1="264.799" y1="324.151" x2="264.567" y2="348.667" gradientUnits="userSpaceOnUse">
<stop stop-color="#09005D"/>
<stop offset="1" stop-color="#1A0F91"/>
</linearGradient>
<linearGradient id="paint19_linear" x1="270.709" y1="296.772" x2="271.981" y2="286.827" gradientUnits="userSpaceOnUse">
<stop stop-color="#FEBBBA"/>
<stop offset="1" stop-color="#FF928E"/>
</linearGradient>
<linearGradient id="paint20_linear" x1="297.922" y1="324.463" x2="297.691" y2="348.98" gradientUnits="userSpaceOnUse">
<stop stop-color="#09005D"/>
<stop offset="1" stop-color="#1A0F91"/>
</linearGradient>
<linearGradient id="paint21_linear" x1="298.512" y1="300.181" x2="299.752" y2="290.489" gradientUnits="userSpaceOnUse">
<stop stop-color="#FEBBBA"/>
<stop offset="1" stop-color="#FF928E"/>
</linearGradient>
<linearGradient id="paint22_linear" x1="307.174" y1="263.354" x2="269.019" y2="263.354" gradientUnits="userSpaceOnUse">
<stop stop-color="#09005D"/>
<stop offset="1" stop-color="#1A0F91"/>
</linearGradient>
<linearGradient id="paint23_linear" x1="299.26" y1="257.5" x2="297.872" y2="254.725" gradientUnits="userSpaceOnUse">
<stop stop-color="#4F52FF"/>
<stop offset="1" stop-color="#4042E2"/>
</linearGradient>
<linearGradient id="paint24_linear" x1="275.657" y1="232.962" x2="326.918" y2="166.003" gradientUnits="userSpaceOnUse">
<stop stop-color="#FE7062"/>
<stop offset="1" stop-color="#FF928E"/>
</linearGradient>
<linearGradient id="paint25_linear" x1="-155.931" y1="-558.529" x2="-51.8711" y2="-372.229" gradientUnits="userSpaceOnUse">
<stop stop-color="#E1473D"/>
<stop offset="1" stop-color="#E9605A"/>
</linearGradient>
<linearGradient id="paint26_linear" x1="289.143" y1="236.528" x2="271.769" y2="236.528" gradientUnits="userSpaceOnUse">
<stop stop-color="#FEBBBA"/>
<stop offset="1" stop-color="#FF928E"/>
</linearGradient>
<linearGradient id="paint27_linear" x1="273.132" y1="214.748" x2="240.687" y2="214.748" gradientUnits="userSpaceOnUse">
<stop stop-color="#FEBBBA"/>
<stop offset="1" stop-color="#FF928E"/>
</linearGradient>
<linearGradient id="paint28_linear" x1="284.813" y1="196.551" x2="273.521" y2="184.966" gradientUnits="userSpaceOnUse">
<stop stop-color="#FEBBBA"/>
<stop offset="1" stop-color="#FF928E"/>
</linearGradient>
<linearGradient id="paint29_linear" x1="268.436" y1="177.667" x2="282.514" y2="196.291" gradientUnits="userSpaceOnUse">
<stop stop-color="#FEBBBA"/>
<stop offset="1" stop-color="#FF928E"/>
</linearGradient>
<linearGradient id="paint30_linear" x1="279.188" y1="182.159" x2="262.372" y2="182.159" gradientUnits="userSpaceOnUse">
<stop stop-color="#09005D"/>
<stop offset="1" stop-color="#1A0F91"/>
</linearGradient>
<linearGradient id="paint31_linear" x1="289.056" y1="192.416" x2="277.764" y2="180.831" gradientUnits="userSpaceOnUse">
<stop stop-color="#FEBBBA"/>
<stop offset="1" stop-color="#FF928E"/>
</linearGradient>
<linearGradient id="paint32_linear" x1="-146.904" y1="-563.559" x2="-42.8427" y2="-377.263" gradientUnits="userSpaceOnUse">
<stop stop-color="#E1473D"/>
<stop offset="1" stop-color="#E9605A"/>
</linearGradient>
<linearGradient id="paint33_linear" x1="272.857" y1="263.135" x2="272.973" y2="256.199" gradientUnits="userSpaceOnUse">
<stop stop-color="#4F52FF"/>
<stop offset="1" stop-color="#4042E2"/>
</linearGradient>
<linearGradient id="paint34_linear" x1="111.571" y1="294.645" x2="61.2139" y2="348.385" gradientUnits="userSpaceOnUse">
<stop stop-color="#09005D"/>
<stop offset="1" stop-color="#1A0F91"/>
</linearGradient>
<linearGradient id="paint35_linear" x1="95.3544" y1="298.517" x2="99.7817" y2="298.559" gradientUnits="userSpaceOnUse">
<stop stop-color="#FEBBBA"/>
<stop offset="1" stop-color="#FF928E"/>
</linearGradient>
<linearGradient id="paint36_linear" x1="-2099.58" y1="2741.96" x2="-2059.09" y2="2696.21" gradientUnits="userSpaceOnUse">
<stop stop-color="#09005D"/>
<stop offset="1" stop-color="#1A0F91"/>
</linearGradient>
<linearGradient id="paint37_linear" x1="100.487" y1="284.257" x2="50.128" y2="338" gradientUnits="userSpaceOnUse">
<stop stop-color="#09005D"/>
<stop offset="1" stop-color="#1A0F91"/>
</linearGradient>
<linearGradient id="paint38_linear" x1="79.4004" y1="298.138" x2="83.2226" y2="298.174" gradientUnits="userSpaceOnUse">
<stop stop-color="#FEBBBA"/>
<stop offset="1" stop-color="#FF928E"/>
</linearGradient>
<linearGradient id="paint39_linear" x1="-2106.11" y1="2736.18" x2="-2065.62" y2="2690.42" gradientUnits="userSpaceOnUse">
<stop stop-color="#09005D"/>
<stop offset="1" stop-color="#1A0F91"/>
</linearGradient>
<linearGradient id="paint40_linear" x1="-897.336" y1="-1076.96" x2="-963.335" y2="-1162.5" gradientUnits="userSpaceOnUse">
<stop stop-color="#FE7062"/>
<stop offset="1" stop-color="#FF928E"/>
</linearGradient>
<linearGradient id="paint41_linear" x1="114.675" y1="183.186" x2="137.294" y2="183.401" gradientUnits="userSpaceOnUse">
<stop stop-color="#FEBBBA"/>
<stop offset="1" stop-color="#FF928E"/>
</linearGradient>
<linearGradient id="paint42_linear" x1="132.291" y1="179.562" x2="116.786" y2="213.951" gradientUnits="userSpaceOnUse">
<stop stop-color="#FEBBBA"/>
<stop offset="1" stop-color="#FF928E"/>
</linearGradient>
<linearGradient id="paint43_linear" x1="137.331" y1="168.109" x2="143.756" y2="158.431" gradientUnits="userSpaceOnUse">
<stop stop-color="#FEBBBA"/>
<stop offset="1" stop-color="#FF928E"/>
</linearGradient>
<linearGradient id="paint44_linear" x1="-907.085" y1="-1069.44" x2="-973.083" y2="-1154.98" gradientUnits="userSpaceOnUse">
<stop stop-color="#FE7062"/>
<stop offset="1" stop-color="#FF928E"/>
</linearGradient>
<linearGradient id="paint45_linear" x1="64.875" y1="214.753" x2="93.499" y2="215.025" gradientUnits="userSpaceOnUse">
<stop stop-color="#FEBBBA"/>
<stop offset="1" stop-color="#FF928E"/>
</linearGradient>
<linearGradient id="paint46_linear" x1="87.1455" y1="184.361" x2="98.463" y2="184.469" gradientUnits="userSpaceOnUse">
<stop stop-color="#FEBBBA"/>
<stop offset="1" stop-color="#FF928E"/>
</linearGradient>
<linearGradient id="paint47_linear" x1="101.224" y1="177.295" x2="88.8525" y2="169.587" gradientUnits="userSpaceOnUse">
<stop stop-color="#FEBBBA"/>
<stop offset="1" stop-color="#FF928E"/>
</linearGradient>
<linearGradient id="paint48_linear" x1="82.3423" y1="161.525" x2="98.2967" y2="174.374" gradientUnits="userSpaceOnUse">
<stop stop-color="#09005D"/>
<stop offset="1" stop-color="#1A0F91"/>
</linearGradient>
<linearGradient id="paint49_linear" x1="97.9284" y1="180.094" x2="86.798" y2="173.159" gradientUnits="userSpaceOnUse">
<stop stop-color="#FEBBBA"/>
<stop offset="1" stop-color="#FF928E"/>
</linearGradient>
<linearGradient id="paint50_linear" x1="101.174" y1="196.565" x2="116.969" y2="262.376" gradientUnits="userSpaceOnUse">
<stop stop-color="#09005D"/>
<stop offset="1" stop-color="#1A0F91"/>
</linearGradient>
<linearGradient id="paint51_linear" x1="90.3515" y1="213.976" x2="99.3005" y2="213.976" gradientUnits="userSpaceOnUse">
<stop stop-color="#FEBBBA"/>
<stop offset="1" stop-color="#FF928E"/>
</linearGradient>
</defs>
</svg>
