<svg width="350" height="350" viewBox="0 0 350 350" fill="none" xmlns="http://www.w3.org/2000/svg">
<path d="M292.7 218.458C267.727 277.26 201.204 310.202 143.515 301.316C134.128 299.87 108.393 295.563 85.6078 275.243C41.7453 236.127 32.3651 158.672 67.7475 104.087C93.4998 64.3589 139.663 41.8384 183.528 42.9649C192.976 43.2075 229.186 44.703 261.009 70.9431C265.683 74.7973 275.992 83.9558 285.283 98.4852C307.1 132.603 308.975 180.136 292.7 218.458Z" fill="url(#paint0_linear)"/>
<path d="M58.6748 44.3383C58.4287 43.2908 59.9024 42.5944 60.8047 43.3262C69.968 50.7566 91.9847 73.0078 86.4978 111.893C79.6135 160.681 91.3829 178.483 106.033 189.342C106.033 189.342 85.9137 184.235 73.2555 166.171C42.1767 121.82 63.0505 62.9649 58.6748 44.3383Z" fill="#91B3FA"/>
<path d="M65.6484 59.5766C66.7947 65.0079 67.8164 70.4558 68.6059 75.9282C69.4285 81.3959 70.059 86.8828 70.4903 92.3787C70.8973 97.8756 71.1848 103.378 71.2011 108.883C71.2461 114.388 71.0172 119.888 70.765 125.41C70.5487 130.929 70.2945 136.489 70.6986 142.087C71.096 147.675 72.2721 153.311 74.606 158.595C75.1894 159.911 75.8029 161.224 76.4999 162.492C77.1699 163.773 77.9057 165.027 78.6673 166.27C80.2051 168.75 81.9362 171.146 83.8651 173.421C87.7372 177.961 92.4071 181.989 97.5516 185.398C98.0931 185.757 98.8688 185.669 99.2844 185.201C99.6924 184.742 99.6013 184.088 99.0851 183.725L99.0815 183.722C97.8574 182.862 96.6462 181.992 95.4841 181.077C94.8945 180.628 94.3292 180.157 93.7539 179.696C93.1996 179.216 92.6234 178.754 92.0868 178.26C89.9024 176.316 87.8786 174.242 86.0426 172.048C82.3495 167.682 79.393 162.817 77.1531 157.772C76.0658 155.239 75.1966 152.64 74.562 149.993C73.9297 147.345 73.532 144.651 73.312 141.935C72.8716 136.501 73.0705 130.997 73.2408 125.476C73.4029 119.954 73.5218 114.404 73.3761 108.859C73.3119 106.086 73.1901 103.315 73.0107 100.547C72.9303 99.1622 72.8188 97.7795 72.7103 96.3967C72.5865 95.0149 72.4536 93.6338 72.308 92.2539C71.7132 86.7351 70.9235 81.2347 69.9339 75.7635C68.9139 70.2965 67.7262 64.8546 66.2977 59.4615C66.2568 59.3072 66.0791 59.2109 65.9006 59.2462C65.7272 59.2805 65.6171 59.4271 65.6484 59.5766Z" fill="#BDD0FB"/>
<path d="M77.5274 153.285C76.4039 154.477 74.4281 154.135 73.7522 152.642C70.0228 144.409 61.5836 120.177 75.5214 92.2605C87.2911 68.6862 91.4329 54.7848 92.8758 48.3438C93.1809 46.9818 95.0475 46.8009 95.6109 48.0779C101.827 62.167 118.239 110.09 77.5274 153.285Z" fill="#BDD0FB"/>
<path d="M75.4863 152.416C75.4463 152.424 75.4053 152.427 75.3631 152.426C75.01 152.421 74.728 152.13 74.7335 151.777C74.7396 151.377 75.5189 111.358 90.4032 77.8398C90.5465 77.5174 90.9243 77.3718 91.2474 77.5148C91.5702 77.6583 91.7156 78.0362 91.5724 78.3591C76.7963 111.633 76.0187 151.399 76.0124 151.797C76.0076 152.108 75.7815 152.364 75.4863 152.416Z" fill="url(#paint1_linear)"/>
<path d="M246.409 210.406C246.26 210.096 246.568 209.763 246.889 209.888C248.076 210.348 250.285 210.968 251.929 210.036C252.012 209.989 252.093 209.946 252.172 209.905C252.03 209.702 251.812 209.537 251.469 209.516C250.488 209.455 250.169 208.005 250.169 208.005C250.169 208.005 251 208.545 251.949 208.315C252.766 208.117 253.909 208.582 254.429 209.523C256.785 212.45 259.802 216.453 265.889 214.178C271.976 211.902 268.444 199.663 268.444 199.663L275.862 209.967C275.862 209.967 275.822 217.294 266.817 219.129C257.813 220.965 253.399 211.997 253.399 211.997C253.399 211.997 248.579 214.926 246.409 210.406Z" fill="url(#paint2_linear)"/>
<path d="M279.157 183.497C279.157 183.497 278.627 184.508 281.921 186.166C283.757 187.09 287.337 188.473 287.74 192.322C287.948 194.309 289.385 195.925 291.354 196.265C296.258 197.112 303.79 199.809 304.841 208.371C305.644 214.906 302.274 217.315 298.771 218.104C296.198 218.684 294.449 221.143 294.918 223.739C295.368 226.228 294.573 229.081 290.234 231.267C280.51 236.166 271.217 218.868 271.217 218.868L269.811 188.944L279.157 183.497Z" fill="url(#paint3_linear)"/>
<path d="M299.596 300.222L299.93 303.475C299.993 304.092 300.469 304.588 301.083 304.67C302.122 304.809 303.789 304.962 305.426 304.82C306.144 304.758 306.623 304.041 306.418 303.35C306.043 302.089 305.35 300.195 304.321 299.068L300.721 299C300.055 298.987 299.528 299.56 299.596 300.222Z" fill="url(#paint4_linear)"/>
<path d="M272.115 261.671L271.44 265.234C271.44 265.234 273.086 285.885 273.292 294.137C273.324 295.431 272.966 296.702 272.267 297.791L268.62 303.47L277.713 298.333L277.912 297.239L276.479 295.187L278.843 272.132C278.982 270.778 278.728 269.412 278.111 268.199L276.316 264.669L272.115 261.671Z" fill="url(#paint5_linear)"/>
<path d="M268.012 304.291L270.881 304.345C271.419 304.356 271.93 304.118 272.266 303.699C273.182 302.553 275.079 300.32 275.966 300.278C277.161 300.221 276.928 304.459 276.928 304.459L277.597 304.472L278.543 299.217C278.782 297.895 278.147 296.569 276.968 295.925C276.968 295.925 276.657 297.937 275.161 298.801C273.666 299.665 269.066 302.775 269.066 302.775C269.066 302.775 268.511 302.685 267.899 302.784C266.99 302.93 267.091 304.274 268.012 304.291Z" fill="url(#paint6_linear)"/>
<path d="M284.4 263.601C284.4 263.601 295.894 286.44 297.692 291.639C299.49 296.838 300.072 301.158 300.09 301.566C300.118 302.204 300.899 302.83 303.084 302.872C304.211 302.893 304.772 302.451 305.051 302.019C305.289 301.65 305.31 301.183 305.123 300.786C304.459 299.377 302.355 294.876 301.583 292.838C300.661 290.405 298.786 279.42 297.716 275.593C296.646 271.766 295.434 267.613 290.534 263.717C290.534 263.717 287.185 260.31 284.4 263.601Z" fill="url(#paint7_linear)"/>
<path d="M277.438 225.763C275.419 215.268 280.324 208.673 282.076 206.71C282.399 206.348 282.367 205.79 282.004 205.467C278.333 202.204 272.887 200.198 270.338 199.384C269.445 199.099 268.472 199.283 267.74 199.87C265.401 201.746 260.478 206.199 261.184 209.962C261.673 212.567 265.936 224.622 266.737 226.879C266.823 227.121 267.008 227.313 267.248 227.405C268.46 227.875 272.419 229.062 276.972 226.729C277.326 226.548 277.513 226.153 277.438 225.763Z" fill="url(#paint8_linear)"/>
<path d="M284.265 232.985C283.085 229.191 277.569 226.405 277.569 226.405C271.828 229.707 266.868 227.244 266.868 227.244C266.868 227.244 265.664 231.513 266.364 235.515C267.063 239.517 271.44 265.234 271.44 265.234C279.069 266.93 290.907 264.039 290.907 264.039C286.192 255.286 285.446 236.779 284.265 232.985Z" fill="url(#paint9_linear)"/>
<path d="M274.677 190.46L276.965 201.737C277.186 202.731 276.287 202.552 275.29 202.345C273.658 202.005 271.559 201.329 270.878 200.041C270.808 199.91 270.775 199.763 270.758 199.616L269.831 191.808C269.757 191.189 270.102 190.595 270.677 190.353L272.767 189.473C273.572 189.134 274.487 189.607 274.677 190.46Z" fill="url(#paint10_linear)"/>
<path d="M297.655 214.276C297.806 214.276 297.976 214.209 298.115 214.123C300.398 212.694 301.659 209.684 301.18 206.803C300.893 205.076 300.067 203.575 298.855 202.577C297.995 201.869 296.968 201.428 295.99 201.037C294.342 200.378 292.642 199.793 290.937 199.298C290.798 199.258 290.658 199.217 290.518 199.177C289.523 198.892 288.493 198.597 287.566 198.111C286.381 197.489 285.525 196.602 285.157 195.613C284.928 194.999 284.872 194.319 284.817 193.662C284.75 192.853 284.68 192.017 284.288 191.293C284.272 191.265 284.237 191.254 284.208 191.269C284.179 191.285 284.168 191.321 284.184 191.35C284.564 192.052 284.632 192.875 284.699 193.672C284.754 194.337 284.811 195.025 285.046 195.655C285.424 196.671 286.3 197.58 287.511 198.216C288.449 198.708 289.484 199.004 290.486 199.291C290.625 199.331 290.765 199.371 290.904 199.412C292.605 199.906 294.302 200.49 295.946 201.147C296.915 201.535 297.933 201.971 298.779 202.668C299.97 203.648 300.781 205.123 301.063 206.822C301.534 209.658 300.296 212.619 298.052 214.022C297.89 214.123 297.583 214.246 297.459 214.065C297.44 214.038 297.403 214.031 297.376 214.049C297.349 214.068 297.342 214.105 297.361 214.132C297.433 214.236 297.538 214.276 297.655 214.276Z" fill="#91B3FA"/>
<path d="M298.276 211.588C298.295 211.588 298.313 211.579 298.325 211.562C299.219 210.278 299.698 208.921 299.709 207.639C299.722 206.134 299.05 204.721 297.954 203.953C297.927 203.935 297.89 203.94 297.872 203.967C297.853 203.994 297.859 204.031 297.886 204.05C298.95 204.796 299.603 206.171 299.59 207.638C299.579 208.896 299.108 210.23 298.227 211.495C298.209 211.522 298.215 211.559 298.242 211.577C298.253 211.585 298.264 211.588 298.276 211.588Z" fill="#91B3FA"/>
<path d="M83.8112 298.84C81.3083 299.056 76.9642 299.407 73.5397 299.558C71.481 299.649 70.2959 299.447 69.6133 299.174C69.6144 299.251 69.6166 299.324 69.6196 299.391C69.6358 299.751 69.9287 300.04 70.2926 300.06C76.7637 300.421 81.91 300.185 83.7422 300.074C84.121 300.05 84.3468 299.639 84.153 299.316C84.0561 299.154 83.9388 298.996 83.8112 298.84Z" fill="url(#paint11_linear)"/>
<path d="M73.5391 299.558C76.9637 299.407 81.3076 299.056 83.8106 298.84C81.3497 295.82 73.5391 293.786 73.5391 293.786H71.333C69.8158 295.973 69.596 298.055 69.6127 299.174C70.2952 299.447 71.4804 299.649 73.5391 299.558Z" fill="url(#paint12_linear)"/>
<path d="M70.9619 290.184L71.1683 294.269C71.1907 294.712 71.5218 295.083 71.9648 295.147C72.4056 295.21 72.996 295.218 73.6219 295.01C74.007 294.881 74.2929 294.557 74.364 294.161L75.0773 290.184H70.9619Z" fill="url(#paint13_linear)"/>
<path d="M45.3583 303.552C44.2729 303.356 43.7817 302.628 43.5759 301.849C43.5746 301.856 43.5731 301.863 43.5718 301.87C43.4121 302.691 43.7823 303.543 44.5225 303.948C45.417 304.438 46.3951 304.521 47.1545 304.481C47.9692 304.437 48.7169 304.002 49.128 303.304L49.1341 303.294C48.3164 303.817 47.1685 303.878 45.3583 303.552Z" fill="url(#paint14_linear)"/>
<path d="M50.4763 291.443H48.657C45.8859 291.37 44.1458 298.923 43.5762 301.849C43.7821 302.628 44.2732 303.357 45.3586 303.552C47.1688 303.878 48.3166 303.817 49.1344 303.294C50.6314 300.748 51.3737 297.019 51.7304 294.843C52.1364 292.367 50.4763 291.443 50.4763 291.443Z" fill="url(#paint15_linear)"/>
<path d="M48.8906 287.651L47.8804 291.669C47.7565 292.162 47.9923 292.671 48.4478 292.905C49.0129 293.195 49.8085 293.5 50.5397 293.411C50.8836 293.37 51.1693 293.128 51.283 292.804L52.7661 288.577L48.8906 287.651Z" fill="url(#paint16_linear)"/>
<path d="M84.4269 234.733C84.4269 234.733 75.3993 291.164 75.548 291.474C75.548 291.474 73.0546 292.607 70.3365 291.618C70.3365 291.618 71.1528 261.452 73.0657 249.886C73.0657 249.886 57.6585 276.848 52.7658 290.283C52.7658 290.283 50.2139 289.979 48.1016 288.589C48.1016 288.589 64.6908 240.057 69.1166 233.593L84.4269 234.733Z" fill="url(#paint17_linear)"/>
<path d="M73.5621 249.41L73.291 249.24L76.7012 243.794L79.2516 243.28L79.3147 243.594L76.8991 244.08L73.5621 249.41Z" fill="url(#paint18_linear)"/>
<path d="M87.7416 195.704C87.1318 195.492 86.4956 195.368 85.8506 195.331C82.3284 195.124 73.0246 196.514 63.0507 198.195C59.5331 198.788 59.0241 201.323 58.7787 203.42C58.2239 208.163 61.165 209.353 65.2059 209.935C67.6391 216.505 68.7806 226.092 69.0191 230.334C69.0977 231.731 68.8526 233.125 68.3046 234.415L68.2447 234.556C68.1275 234.831 68.2889 235.149 68.5839 235.215C75.1575 236.692 81.9944 236.29 84.0371 236.122C84.4017 236.092 84.7047 235.831 84.7884 235.478C87.9849 222.009 87.9923 212.822 87.2096 207.014C99.6009 214.164 94.3577 197.996 87.7416 195.704Z" fill="url(#paint19_linear)"/>
<path d="M86.9322 206.625C86.0672 200.799 85.0726 199.07 84.8536 198.926C84.8711 198.937 84.927 198.95 84.9794 198.914C85.0273 198.881 85.041 198.826 85.035 198.799L84.7427 198.864C84.7194 198.759 84.7711 198.7 84.7945 198.679L84.9682 198.65C85.2652 198.759 86.3179 200.451 87.2282 206.581L86.9322 206.625Z" fill="url(#paint20_linear)"/>
<path d="M71 187.484C71 187.484 70.335 194.516 69.7495 196.596C69.6606 196.911 69.7977 197.244 70.0844 197.408C71.0782 197.976 73.4616 198.902 76.7218 197.304C77.25 197.045 77.5675 196.494 77.5429 195.912L77.2556 189.117L71 187.484Z" fill="url(#paint21_linear)"/>
<path d="M170.253 227.099C165.137 225.973 158.744 227.192 152.893 228.757C146.26 229.457 143.889 218.598 146.586 211.784C148.061 208.059 151.655 206.364 154.853 207.719C163.332 211.312 167.023 210.219 170.097 209.488C172.404 208.94 173.464 205.383 173.388 202.51L171.876 145.016C171.814 142.668 173.054 140.519 174.911 139.92C179.646 138.389 184.787 141.434 190.81 143.858C193.219 144.828 195.864 144.74 198.159 143.42C207.022 138.32 204.687 120.628 193.948 122.649C187.865 124.43 181.173 125.651 175.036 124.424C173.149 124.046 171.754 122.068 171.72 119.729L170.947 66.381C169.009 66.642 167.1 67.1945 165.294 68.0525L84.1868 106.573C77.9267 109.546 73.7502 115.673 73.3027 122.589C65.6949 240.187 141.097 283.035 165.815 293.859C168.469 295.021 171.319 295.548 174.153 295.452L173.535 231.971C173.535 229.596 172.164 227.519 170.253 227.099Z" fill="url(#paint22_linear)"/>
<path d="M173.511 295.942C170.804 295.942 168.09 295.378 165.623 294.298C152.714 288.645 127.941 275.187 107.059 248.56C95.3233 233.595 86.4257 216.443 80.6137 197.58C73.68 175.077 71.059 149.836 72.8237 122.557C73.2815 115.482 77.5567 109.191 83.9808 106.14L165.088 67.6192C166.908 66.7547 168.857 66.1779 170.882 65.9053L171.418 65.8331L172.199 119.722C172.23 121.84 173.463 123.62 175.13 123.953C180.26 124.979 186.197 124.418 193.813 122.189L193.859 122.178C198.119 121.377 201.625 123.51 203.242 127.885C205.171 133.105 203.868 140.688 198.397 143.835C196.027 145.199 193.269 145.365 190.631 144.303C189.506 143.85 188.412 143.376 187.353 142.917C182.732 140.914 178.743 139.184 175.058 140.376C173.435 140.9 172.298 142.846 172.355 145.004L173.867 202.497C173.953 205.75 172.723 209.357 170.208 209.954L169.881 210.033C166.811 210.77 162.991 211.688 154.666 208.16C153.344 207.6 151.888 207.596 150.566 208.15C149 208.805 147.745 210.159 147.032 211.96C145.232 216.507 145.789 222.868 148.273 226.139C149.488 227.74 151.013 228.463 152.806 228.284C158.084 226.874 164.839 225.416 170.356 226.63C172.476 227.097 174.014 229.343 174.014 231.97L174.637 295.915L174.168 295.931C173.95 295.939 173.73 295.942 173.511 295.942ZM170.475 66.9359C168.74 67.22 167.069 67.7403 165.5 68.4854L84.3924 107.006C78.2825 109.908 74.2165 115.891 73.7811 122.619C72.0239 149.781 74.6311 174.907 81.5306 197.298C87.3078 216.047 96.1508 233.095 107.814 247.968C128.566 274.429 153.181 287.803 166.008 293.419C168.402 294.467 171.05 294.996 173.668 294.983L173.055 231.975C173.055 229.79 171.833 227.938 170.15 227.567C164.762 226.383 157.791 227.943 153.017 229.221L152.943 229.235C150.808 229.459 148.929 228.59 147.509 226.719C144.799 223.151 144.198 216.513 146.14 211.608C146.95 209.563 148.39 208.021 150.196 207.265C151.757 206.611 153.478 206.615 155.04 207.277C163.074 210.681 166.724 209.805 169.657 209.1L169.986 209.022C171.91 208.564 172.983 205.358 172.909 202.522L171.396 145.029C171.327 142.414 172.712 140.126 174.763 139.463C178.79 138.162 182.936 139.958 187.735 142.037C188.788 142.493 189.877 142.965 190.989 143.413C193.349 144.363 195.81 144.218 197.919 143.004C201.841 140.748 204.647 134.453 202.342 128.218C200.273 122.621 195.88 122.779 194.059 123.116C186.3 125.386 180.226 125.951 174.942 124.894C172.834 124.473 171.277 122.303 171.24 119.736L170.475 66.9359Z" fill="#91B3FA"/>
<path d="M273.701 122.589C273.254 115.673 269.077 109.546 262.817 106.573L181.71 68.0523C178.323 66.4434 174.581 65.891 170.947 66.3808L171.719 119.729C171.753 122.068 173.149 124.046 175.036 124.424C181.173 125.651 187.865 124.43 193.948 122.649C204.687 120.628 207.022 138.32 198.158 143.42C195.863 144.74 193.219 144.828 190.81 143.858C184.787 141.434 179.646 138.389 174.91 139.919C173.053 140.519 171.814 142.667 171.876 145.016L173.388 202.51C173.463 205.382 172.404 208.94 170.097 209.488C167.022 210.219 163.332 211.311 154.853 207.719C151.655 206.364 148.061 208.058 146.586 211.784C143.889 218.598 146.26 229.457 152.893 228.757C158.743 227.192 165.137 225.973 170.253 227.099C172.164 227.519 173.535 229.595 173.535 231.971L174.152 295.452C176.552 295.37 178.941 294.843 181.189 293.858C205.907 283.035 281.309 240.187 273.701 122.589Z" fill="url(#paint23_linear)"/>
<path d="M173.678 295.948L173.055 231.975C173.055 229.79 171.833 227.938 170.15 227.567C164.763 226.383 157.792 227.943 153.017 229.221L152.943 229.234C150.808 229.459 148.93 228.59 147.509 226.719C144.799 223.151 144.198 216.513 146.14 211.608C146.95 209.563 148.39 208.021 150.196 207.265C151.758 206.612 153.479 206.615 155.04 207.277C163.075 210.681 166.724 209.805 169.657 209.1L169.986 209.022C171.911 208.564 172.983 205.358 172.909 202.522L171.396 145.029C171.327 142.414 172.712 140.126 174.763 139.463C178.79 138.162 182.936 139.958 187.735 142.037C188.788 142.493 189.877 142.966 190.989 143.413C193.349 144.363 195.81 144.218 197.919 143.004C201.84 140.748 204.647 134.453 202.342 128.218C200.274 122.622 195.878 122.779 194.06 123.116C186.3 125.386 180.225 125.951 174.942 124.894C172.834 124.473 171.277 122.303 171.24 119.736L170.461 65.9625L170.883 65.9057C174.666 65.3961 178.482 65.9881 181.916 67.6195L263.023 106.14C269.447 109.191 273.722 115.482 274.18 122.558C275.945 149.836 273.324 175.077 266.39 197.581C260.578 216.443 251.681 233.595 239.945 248.56C219.064 275.187 194.29 288.646 181.381 294.298C179.1 295.297 176.673 295.847 174.169 295.931L173.678 295.948ZM165.81 226.177C167.378 226.177 168.909 226.312 170.356 226.63C172.476 227.097 174.015 229.343 174.015 231.971L174.627 294.949C176.836 294.818 178.977 294.304 180.997 293.419C193.823 287.803 218.439 274.429 239.19 247.968C250.853 233.095 259.697 216.048 265.474 197.298C272.373 174.907 274.98 149.781 273.223 122.619C272.788 115.891 268.722 109.908 262.612 107.006L181.505 68.4854C178.366 66.9948 174.893 66.4171 171.433 66.8041L172.199 119.722C172.23 121.84 173.463 123.62 175.13 123.953C180.26 124.979 186.197 124.418 193.813 122.189L193.859 122.178C198.119 121.377 201.625 123.51 203.242 127.885C205.171 133.106 203.868 140.688 198.398 143.835C196.028 145.199 193.27 145.365 190.631 144.303C189.507 143.85 188.412 143.376 187.353 142.917C182.733 140.914 178.743 139.184 175.058 140.376C173.435 140.9 172.298 142.846 172.355 145.004L173.867 202.497C173.953 205.75 172.723 209.357 170.208 209.954L169.881 210.033C166.812 210.77 162.991 211.688 154.666 208.16C153.344 207.6 151.888 207.596 150.566 208.15C149.001 208.805 147.746 210.159 147.032 211.961C145.232 216.507 145.789 222.868 148.273 226.139C149.488 227.74 151.014 228.465 152.806 228.284C156.7 227.243 161.398 226.177 165.81 226.177Z" fill="#91B3FA"/>
<path d="M148.968 83.6095C148.788 83.6095 148.616 83.5086 148.534 83.3356C148.421 83.0964 148.522 82.81 148.762 82.6966L167.926 73.595C168.165 73.4816 168.452 73.5829 168.565 73.8224C168.679 74.0616 168.577 74.348 168.338 74.4614L149.173 83.563C149.107 83.5945 149.037 83.6095 148.968 83.6095Z" fill="#91B3FA"/>
<path d="M79.5052 147.083C79.2479 147.083 79.0349 146.879 79.0262 146.62C78.7697 138.992 78.9044 131.041 79.4256 122.985C79.7282 118.303 82.561 114.138 86.8187 112.116L141.38 86.2024C141.62 86.0878 141.906 86.1902 142.019 86.4297C142.133 86.669 142.031 86.9553 141.792 87.0687L87.2303 112.982C83.2867 114.855 80.6632 118.712 80.3831 123.047C79.8638 131.071 79.7298 138.991 79.9849 146.587C79.994 146.852 79.7864 147.074 79.5218 147.083C79.5162 147.083 79.5109 147.083 79.5052 147.083Z" fill="#91B3FA"/>
<path d="M282.43 205.862C282.43 205.862 284.233 214.026 273.732 222.538C268.715 226.604 258.419 226.16 257.628 220.965L259.629 219.142C259.629 219.142 267.153 221.372 269.468 219.122C271.783 216.871 274.435 211.701 274.435 211.701C274.435 211.701 279.664 205.145 282.43 205.862Z" fill="url(#paint24_linear)"/>
<path d="M257.798 221.539C257.798 221.539 260.523 219.254 260.977 218.065C261.43 216.877 261.836 215.217 259.864 214.202C257.893 213.187 255.266 212.399 255.266 212.399C255.266 212.399 254.425 213.762 256.07 214.334L254.766 214.365C254.766 214.365 254.127 215.483 255.664 215.766L254.263 216.05C254.263 216.05 254.127 217.253 255.359 217.324C256.591 217.394 255.189 220.137 257.798 221.539Z" fill="url(#paint25_linear)"/>
<path d="M270.081 180.131C270.081 180.131 267.385 181.883 266.154 186.45C264.924 191.017 266.752 192.698 268.659 192.633C270.566 192.568 273.34 192.031 275.795 188.784C278.251 185.538 273.61 177.996 270.081 180.131Z" fill="url(#paint26_linear)"/>
<path d="M273.416 186.888C273.416 186.888 274.516 180.332 269.038 181.234L267.913 182.363C267.913 182.363 265.297 179.303 268.297 177.084C271.297 174.866 275.389 175.526 277.581 179.709C279.773 183.893 280.542 186.819 278.591 189.356C276.639 191.893 275.25 189.659 275.25 189.659C275.25 189.659 277.383 187.023 276.229 185.868C275.381 185.02 273.79 187.004 273.79 187.004L273.416 186.888Z" fill="url(#paint27_linear)"/>
<path d="M78.6149 221.6C77.4934 221.413 76.4895 220.852 75.8302 220.213C72.6959 217.175 69.4799 209.598 69.4799 209.598C69.4799 209.598 64.7004 198.001 59.8095 199.882C59.8095 199.882 54.5643 209.006 67.7337 222.933C68.8863 224.152 72.9447 226.724 74.6339 227.325C76.3685 225.569 77.7091 223.784 78.6149 221.6Z" fill="url(#paint28_linear)"/>
<path d="M91.5577 222.481C88.4175 223.052 83.03 223.78 78.1584 221.476C77.8218 222.977 77.3456 223.996 74.4927 227.274C79.1837 228.355 86.374 228.556 93.4981 225.015L91.5577 222.481Z" fill="url(#paint29_linear)"/>
<path d="M94.5127 225.347C94.1302 225.791 93.4584 225.836 93.0247 225.442C92.2935 224.777 91.1686 223.68 90.9072 222.998C90.5121 221.967 90.1584 220.528 91.8677 219.644C93.5768 218.761 95.8553 218.074 95.8553 218.074C95.8553 218.074 96.5871 219.256 95.1598 219.754L96.2917 219.78C96.2917 219.78 96.8475 220.749 95.5143 220.996L96.7299 221.241C96.7299 221.241 96.8495 222.285 95.7805 222.347C94.8827 222.4 95.5993 224.085 94.5127 225.347Z" fill="url(#paint30_linear)"/>
<path d="M77.3989 178.489C77.3989 178.489 79.5259 183.375 79.6687 185.94C79.8116 188.504 80.3642 190.168 77.3989 190.685C74.4336 191.201 71.9357 189.724 70.5824 187.17C70.5824 187.17 68.462 183.233 68.9377 181.621C69.4134 180.009 77.3989 178.489 77.3989 178.489Z" fill="url(#paint31_linear)"/>
<path d="M71.5957 185.333L71.7644 185.258C71.9793 185.164 72.0712 184.908 71.9633 184.699C71.5452 183.891 70.73 182.04 71.783 181.608C73.1402 181.052 78.516 179.955 79.6758 178.048C80.7905 176.214 79.8028 173.848 78.3184 173.175C78.2191 173.13 78.1019 173.166 78.051 173.262L77.9273 173.496C77.8426 173.656 77.606 173.632 77.5556 173.458C77.5072 173.291 77.2849 173.259 77.1927 173.406C76.8362 173.977 75.8737 174.902 73.2996 175.377C69.6415 176.052 67.2229 177.533 67.1626 180.06C67.1589 180.221 66.988 180.31 66.8508 180.227C66.5807 180.062 66.1484 179.985 65.5708 180.471C64.5661 181.315 64.9772 183.507 67.1796 185.309C67.2842 185.395 67.2834 185.558 67.1701 185.632C66.7709 185.892 66.1757 186.51 67.7178 187.335C69.313 188.187 70.5043 188.117 70.9628 188.042C71.077 188.023 71.1505 187.912 71.1256 187.799L70.636 185.578C70.6083 185.452 70.7041 185.333 70.8328 185.333H71.5957V185.333Z" fill="url(#paint32_linear)"/>
<path d="M71.6877 185.802C71.6877 185.802 70.8763 182.68 69.4769 183.556C68.0776 184.431 70.2031 187.053 71.3281 187.17L71.6877 185.802Z" fill="url(#paint33_linear)"/>
<path d="M194.137 295.265C193.896 295.224 193.683 295.089 193.544 294.888C191.513 291.959 176.793 269.076 197.991 249.267C218.114 230.462 227.082 226.756 228.623 215.378C228.803 214.05 230.615 213.787 231.17 215.008C235.314 224.131 241.548 245.311 218.26 258.336C192.571 272.705 194.104 289.405 195.172 294.171C195.313 294.801 194.774 295.372 194.137 295.265Z" fill="#91B3FA"/>
<path d="M197.25 295.79C196.679 295.694 196.238 295.237 196.168 294.662C195.691 290.75 194.679 276.154 205.52 272.639C217.455 268.769 226.629 280.062 235.577 271.739C236.048 271.301 236.803 271.72 236.673 272.35C235.757 276.818 231.987 287.114 216.622 288.719C200.176 290.436 198.274 292.256 198.53 294.597C198.609 295.318 197.965 295.911 197.25 295.79Z" fill="#91B3FA"/>
<path d="M227.623 226.983C227.623 226.983 227.543 227.301 227.346 227.859C227.152 228.422 226.823 229.228 226.336 230.224C225.836 231.211 225.185 232.395 224.302 233.664C223.435 234.943 222.341 236.31 221.031 237.693C219.72 239.074 218.176 240.457 216.426 241.763C215.558 242.426 214.616 243.036 213.65 243.652C213.157 243.943 212.667 244.253 212.155 244.534C211.9 244.676 211.643 244.819 211.386 244.962C211.132 245.1 210.877 245.238 210.621 245.377C208.625 246.48 206.638 247.812 204.765 249.33C202.885 250.844 201.118 252.557 199.498 254.397C197.886 256.244 196.44 258.237 195.217 260.316C193.996 262.396 192.99 264.557 192.238 266.728C191.487 268.898 190.979 271.071 190.688 273.159C190.392 275.248 190.338 277.251 190.399 279.094C190.54 282.789 191.246 285.825 191.848 287.9C192.147 288.941 192.417 289.75 192.609 290.298C192.806 290.845 192.911 291.137 192.911 291.137L192.913 291.143C192.961 291.275 192.892 291.421 192.76 291.469C192.631 291.515 192.489 291.451 192.438 291.326C192.438 291.326 192.319 291.035 192.095 290.491C191.876 289.945 191.567 289.138 191.216 288.094C190.534 286.007 189.713 282.938 189.442 279.146C189.309 277.253 189.33 275.185 189.581 273.019C189.828 270.853 190.305 268.589 191.052 266.327C191.796 264.065 192.794 261.801 194.036 259.63C195.282 257.462 196.759 255.384 198.41 253.455C200.062 251.528 201.892 249.755 203.833 248.181C205.772 246.6 207.811 245.223 209.906 244.057C210.417 243.779 210.923 243.504 211.425 243.231C211.922 242.963 212.397 242.668 212.876 242.392C213.814 241.807 214.723 241.218 215.572 240.597C217.295 239.385 218.795 238.068 220.122 236.797C220.774 236.149 221.391 235.518 221.939 234.884C222.498 234.259 223.007 233.647 223.462 233.052C224.376 231.867 225.101 230.777 225.651 229.851C226.203 228.926 226.585 228.169 226.831 227.648C227.078 227.124 227.179 226.843 227.179 226.843C227.223 226.723 227.356 226.66 227.477 226.703C227.59 226.744 227.653 226.864 227.624 226.978L227.623 226.983Z" fill="#BDD0FB"/>
<path d="M196.699 293.126C196.699 293.126 196.717 293.074 196.728 292.977C196.738 292.879 196.73 292.735 196.732 292.547C196.733 292.171 196.742 291.62 196.777 290.919C196.853 289.521 197.017 287.515 197.54 285.16C197.805 283.985 198.163 282.722 198.688 281.437C199.211 280.154 199.912 278.842 200.898 277.667C201.875 276.495 203.177 275.48 204.707 274.924C206.231 274.348 207.919 274.243 209.534 274.439C211.137 274.668 212.695 274.966 214.245 275.259C215.791 275.556 217.307 275.869 218.772 276.171C220.238 276.472 221.653 276.759 222.999 276.987C224.344 277.207 225.622 277.375 226.799 277.386C227.975 277.408 229.044 277.267 229.947 276.995C230.847 276.714 231.574 276.309 232.131 275.919C232.691 275.532 233.087 275.163 233.354 274.911C233.614 274.651 233.753 274.512 233.753 274.512L233.76 274.505C233.841 274.424 233.973 274.424 234.054 274.505C234.133 274.585 234.134 274.714 234.056 274.796C234.056 274.796 233.915 274.941 233.65 275.215C233.379 275.48 232.975 275.87 232.393 276.288C231.815 276.708 231.05 277.151 230.096 277.468C229.142 277.776 228.01 277.941 226.793 277.917C225.573 277.91 224.271 277.744 222.91 277.526C221.549 277.302 220.127 277.019 218.66 276.724C217.193 276.428 215.679 276.122 214.137 275.832C212.599 275.545 211.017 275.261 209.461 275.03C207.917 274.827 206.326 274.912 204.895 275.436C203.457 275.941 202.223 276.878 201.277 277.989C200.322 279.1 199.63 280.365 199.099 281.609C198.568 282.857 198.197 284.093 197.919 285.249C197.369 287.564 197.176 289.552 197.081 290.937C197.036 291.631 197.019 292.177 197.013 292.55C197.012 292.736 197.005 292.878 197.017 292.974C197.03 293.07 197.051 293.117 197.051 293.117C197.093 293.214 197.049 293.325 196.953 293.368C196.857 293.409 196.745 293.365 196.703 293.27C196.683 293.224 196.682 293.175 196.697 293.132L196.699 293.126Z" fill="#BDD0FB"/>
<defs>
<linearGradient id="paint0_linear" x1="325.539" y1="306.268" x2="132.308" y2="137.191" gradientUnits="userSpaceOnUse">
<stop stop-color="#DAE3FE"/>
<stop offset="1" stop-color="#E9EFFD"/>
</linearGradient>
<linearGradient id="paint1_linear" x1="74.7333" y1="114.943" x2="91.6274" y2="114.943" gradientUnits="userSpaceOnUse">
<stop stop-color="#DAE3FE"/>
<stop offset="1" stop-color="#E9EFFD"/>
</linearGradient>
<linearGradient id="paint2_linear" x1="238.182" y1="207.176" x2="276.856" y2="210.41" gradientUnits="userSpaceOnUse">
<stop stop-color="#E1473D"/>
<stop offset="1" stop-color="#E9605A"/>
</linearGradient>
<linearGradient id="paint3_linear" x1="282.656" y1="200.776" x2="326.665" y2="299.795" gradientUnits="userSpaceOnUse">
<stop stop-color="#09005D"/>
<stop offset="1" stop-color="#1A0F91"/>
</linearGradient>
<linearGradient id="paint4_linear" x1="-72.6883" y1="311.546" x2="-22.3372" y2="310.257" gradientUnits="userSpaceOnUse">
<stop stop-color="#4F52FF"/>
<stop offset="1" stop-color="#4042E2"/>
</linearGradient>
<linearGradient id="paint5_linear" x1="269.709" y1="328.704" x2="281.905" y2="212.153" gradientUnits="userSpaceOnUse">
<stop stop-color="#FEBBBA"/>
<stop offset="1" stop-color="#FF928E"/>
</linearGradient>
<linearGradient id="paint6_linear" x1="-72.7539" y1="309.163" x2="-22.4022" y2="307.873" gradientUnits="userSpaceOnUse">
<stop stop-color="#4F52FF"/>
<stop offset="1" stop-color="#4042E2"/>
</linearGradient>
<linearGradient id="paint7_linear" x1="289.769" y1="330.82" x2="301.967" y2="214.239" gradientUnits="userSpaceOnUse">
<stop stop-color="#FEBBBA"/>
<stop offset="1" stop-color="#FF928E"/>
</linearGradient>
<linearGradient id="paint8_linear" x1="247.22" y1="245.988" x2="274.508" y2="209.746" gradientUnits="userSpaceOnUse">
<stop stop-color="#FF928E"/>
<stop offset="1" stop-color="#FE7062"/>
</linearGradient>
<linearGradient id="paint9_linear" x1="292.896" y1="216.721" x2="279.678" y2="244.009" gradientUnits="userSpaceOnUse">
<stop stop-color="#4F52FF"/>
<stop offset="1" stop-color="#4042E2"/>
</linearGradient>
<linearGradient id="paint10_linear" x1="270.787" y1="213.612" x2="272.923" y2="199.921" gradientUnits="userSpaceOnUse">
<stop stop-color="#FEBBBA"/>
<stop offset="1" stop-color="#FF928E"/>
</linearGradient>
<linearGradient id="paint11_linear" x1="69.6133" y1="299.546" x2="84.2238" y2="299.546" gradientUnits="userSpaceOnUse">
<stop stop-color="#4F52FF"/>
<stop offset="1" stop-color="#4042E2"/>
</linearGradient>
<linearGradient id="paint12_linear" x1="69.6119" y1="296.683" x2="83.8106" y2="296.683" gradientUnits="userSpaceOnUse">
<stop stop-color="#09005D"/>
<stop offset="1" stop-color="#1A0F91"/>
</linearGradient>
<linearGradient id="paint13_linear" x1="70.962" y1="292.685" x2="75.0775" y2="292.685" gradientUnits="userSpaceOnUse">
<stop stop-color="#FEBBBA"/>
<stop offset="1" stop-color="#FF928E"/>
</linearGradient>
<linearGradient id="paint14_linear" x1="43.5352" y1="303.169" x2="49.1342" y2="303.169" gradientUnits="userSpaceOnUse">
<stop stop-color="#4F52FF"/>
<stop offset="1" stop-color="#4042E2"/>
</linearGradient>
<linearGradient id="paint15_linear" x1="43.5762" y1="297.598" x2="51.7944" y2="297.598" gradientUnits="userSpaceOnUse">
<stop stop-color="#09005D"/>
<stop offset="1" stop-color="#1A0F91"/>
</linearGradient>
<linearGradient id="paint16_linear" x1="47.8477" y1="290.539" x2="52.7661" y2="290.539" gradientUnits="userSpaceOnUse">
<stop stop-color="#FEBBBA"/>
<stop offset="1" stop-color="#FF928E"/>
</linearGradient>
<linearGradient id="paint17_linear" x1="80.0597" y1="249.865" x2="38.0676" y2="318.652" gradientUnits="userSpaceOnUse">
<stop stop-color="#09005D"/>
<stop offset="1" stop-color="#1A0F91"/>
</linearGradient>
<linearGradient id="paint18_linear" x1="73.291" y1="246.345" x2="79.3147" y2="246.345" gradientUnits="userSpaceOnUse">
<stop stop-color="#4F52FF"/>
<stop offset="1" stop-color="#4042E2"/>
</linearGradient>
<linearGradient id="paint19_linear" x1="58.2058" y1="234.478" x2="86.3465" y2="201.221" gradientUnits="userSpaceOnUse">
<stop stop-color="#FF928E"/>
<stop offset="1" stop-color="#FE7062"/>
</linearGradient>
<linearGradient id="paint20_linear" x1="84.7368" y1="202.638" x2="87.2283" y2="202.638" gradientUnits="userSpaceOnUse">
<stop stop-color="#53D8FF"/>
<stop offset="1" stop-color="#3840F7"/>
</linearGradient>
<linearGradient id="paint21_linear" x1="72.0784" y1="203.317" x2="74.2095" y2="192.129" gradientUnits="userSpaceOnUse">
<stop stop-color="#FEBBBA"/>
<stop offset="1" stop-color="#FF928E"/>
</linearGradient>
<linearGradient id="paint22_linear" x1="172.347" y1="180.925" x2="73.5392" y2="179.486" gradientUnits="userSpaceOnUse">
<stop stop-color="#4F52FF"/>
<stop offset="1" stop-color="#4042E2"/>
</linearGradient>
<linearGradient id="paint23_linear" x1="276.706" y1="182.258" x2="173.102" y2="180.819" gradientUnits="userSpaceOnUse">
<stop stop-color="#4F52FF"/>
<stop offset="1" stop-color="#4042E2"/>
</linearGradient>
<linearGradient id="paint24_linear" x1="261.249" y1="225.301" x2="299.409" y2="193.963" gradientUnits="userSpaceOnUse">
<stop stop-color="#FF928E"/>
<stop offset="1" stop-color="#FE7062"/>
</linearGradient>
<linearGradient id="paint25_linear" x1="260.384" y1="219.007" x2="253.909" y2="214.242" gradientUnits="userSpaceOnUse">
<stop stop-color="#FEBBBA"/>
<stop offset="1" stop-color="#FF928E"/>
</linearGradient>
<linearGradient id="paint26_linear" x1="267.758" y1="197.019" x2="278.757" y2="165.455" gradientUnits="userSpaceOnUse">
<stop stop-color="#FEBBBA"/>
<stop offset="1" stop-color="#FF928E"/>
</linearGradient>
<linearGradient id="paint27_linear" x1="287.865" y1="215.166" x2="331.874" y2="314.184" gradientUnits="userSpaceOnUse">
<stop stop-color="#09005D"/>
<stop offset="1" stop-color="#1A0F91"/>
</linearGradient>
<linearGradient id="paint28_linear" x1="64.5434" y1="225.619" x2="77.761" y2="182.981" gradientUnits="userSpaceOnUse">
<stop stop-color="#FF928E"/>
<stop offset="1" stop-color="#FE7062"/>
</linearGradient>
<linearGradient id="paint29_linear" x1="85.0139" y1="224.501" x2="77.9007" y2="235.978" gradientUnits="userSpaceOnUse">
<stop stop-color="#FEBBBA"/>
<stop offset="1" stop-color="#FF928E"/>
</linearGradient>
<linearGradient id="paint30_linear" x1="91.4111" y1="223.798" x2="97.0231" y2="219.656" gradientUnits="userSpaceOnUse">
<stop stop-color="#FEBBBA"/>
<stop offset="1" stop-color="#FF928E"/>
</linearGradient>
<linearGradient id="paint31_linear" x1="73.7771" y1="185.903" x2="61.6179" y2="195.206" gradientUnits="userSpaceOnUse">
<stop stop-color="#FEBBBA"/>
<stop offset="1" stop-color="#FF928E"/>
</linearGradient>
<linearGradient id="paint32_linear" x1="69.2852" y1="175.424" x2="80.6096" y2="190.004" gradientUnits="userSpaceOnUse">
<stop stop-color="#09005D"/>
<stop offset="1" stop-color="#1A0F91"/>
</linearGradient>
<linearGradient id="paint33_linear" x1="76.3365" y1="180.819" x2="64.1771" y2="190.122" gradientUnits="userSpaceOnUse">
<stop stop-color="#FEBBBA"/>
<stop offset="1" stop-color="#FF928E"/>
</linearGradient>
</defs>
</svg>
