<svg width="350" height="350" viewBox="0 0 350 350" fill="none" xmlns="http://www.w3.org/2000/svg">
<path d="M350 0H0V350H350V0Z" fill="white"/>
<path d="M295.914 221.116C269.181 283.144 198.612 309.786 143.321 305.244C128.224 304.003 97.8493 301.508 74.1321 279.244C28.585 236.488 35.5997 147.115 79.2013 94.4978C84.8163 87.7217 123.682 42.323 184.248 42.9306C228.591 43.3755 259.714 68.2402 263.499 71.338C268.28 75.2512 278.825 84.5501 288.328 99.3024C310.657 133.965 312.62 182.354 295.914 221.116Z" fill="url(#paint0_linear)"/>
<path d="M193.144 149.423H88.9837C84.7612 149.423 81.2316 146.211 80.8354 142.007L74.2707 72.3595C73.8238 67.619 77.5025 63.4992 82.2631 63.4086L192.989 61.3005C197.569 61.2133 201.329 64.9023 201.329 69.4834V141.239C201.329 145.759 197.664 149.423 193.144 149.423Z" fill="#7D97F4"/>
<path opacity="0.87" d="M80.9284 78.567L85.5841 138.792C85.7864 141.408 87.9541 143.436 90.5779 143.463L190.549 144.51C193.365 144.54 195.664 142.265 195.664 139.449V74.6109C195.664 71.7477 193.291 69.4545 190.43 69.5521L85.8028 73.1179C82.9233 73.216 80.7063 75.6944 80.9284 78.567Z" fill="white"/>
<path d="M134.3 78.0163L190.675 76.3299C191.252 76.3127 191.73 76.7764 191.73 77.3546V78.2623C191.73 78.823 191.28 79.2795 190.719 79.2873L134.344 80.0658C133.773 80.0736 133.305 79.6125 133.305 79.0408C133.305 78.4866 133.746 78.0328 134.3 78.0163Z" fill="#7D97F4"/>
<path d="M133.305 83.7674V84.1543C133.305 84.7203 133.764 85.1793 134.33 85.1793H190.705C191.272 85.1793 191.73 84.7203 191.73 84.1543V83.7674C191.73 83.2013 191.272 82.7423 190.705 82.7423H134.33C133.764 82.7423 133.305 83.2013 133.305 83.7674Z" fill="#7D97F4"/>
<path d="M119.537 134.463C119.283 134.463 119.077 134.258 119.077 134.004L119.073 132.625C119.072 132.37 119.278 132.164 119.532 132.163C119.532 132.163 119.533 132.163 119.533 132.163C119.787 132.163 119.992 132.369 119.993 132.622L119.997 134.002C119.997 134.256 119.792 134.463 119.538 134.463H119.537V134.463ZM119.525 129.863C119.271 129.863 119.066 129.658 119.065 129.405L119.061 128.025C119.061 127.771 119.266 127.564 119.52 127.564H119.521C119.775 127.564 119.981 127.769 119.981 128.022L119.985 129.402C119.986 129.656 119.78 129.863 119.526 129.863C119.526 129.863 119.525 129.863 119.525 129.863ZM119.513 125.264C119.26 125.264 119.054 125.059 119.053 124.805L119.05 123.426C119.049 123.171 119.255 122.965 119.509 122.964C119.509 122.964 119.509 122.964 119.51 122.964C119.763 122.964 119.969 123.17 119.97 123.423L119.973 124.803C119.974 125.057 119.768 125.264 119.514 125.264C119.514 125.264 119.514 125.264 119.513 125.264ZM119.502 120.664C119.248 120.664 119.042 120.459 119.042 120.206L119.038 118.826C119.037 118.572 119.243 118.365 119.497 118.365H119.498C119.752 118.365 119.957 118.57 119.958 118.823L119.962 120.203C119.962 120.457 119.757 120.664 119.503 120.665C119.503 120.664 119.502 120.664 119.502 120.664Z" fill="url(#paint1_linear)"/>
<path d="M142.637 133.152C142.383 133.152 142.177 132.947 142.177 132.692V131.312C142.177 131.058 142.383 130.853 142.637 130.853C142.891 130.853 143.097 131.058 143.097 131.312V132.692C143.097 132.946 142.891 133.152 142.637 133.152ZM142.637 128.553C142.383 128.553 142.177 128.347 142.177 128.093V126.713C142.177 126.459 142.383 126.253 142.637 126.253C142.891 126.253 143.097 126.459 143.097 126.713V128.093C143.097 128.347 142.891 128.553 142.637 128.553ZM142.637 123.953C142.383 123.953 142.177 123.748 142.177 123.493V122.114C142.177 121.859 142.383 121.654 142.637 121.654C142.891 121.654 143.097 121.859 143.097 122.114V123.493C143.097 123.748 142.891 123.953 142.637 123.953ZM142.637 119.354C142.383 119.354 142.177 119.148 142.177 118.894V117.514C142.177 117.26 142.383 117.054 142.637 117.054C142.891 117.054 143.097 117.26 143.097 117.514V118.894C143.097 119.148 142.891 119.354 142.637 119.354ZM142.637 114.754C142.383 114.754 142.177 114.549 142.177 114.294V112.914C142.177 112.66 142.383 112.455 142.637 112.455C142.891 112.455 143.097 112.66 143.097 112.914V114.294C143.097 114.549 142.891 114.754 142.637 114.754Z" fill="url(#paint2_linear)"/>
<path d="M160.257 136.953C160.009 136.953 159.805 136.756 159.797 136.508L159.772 135.684C159.764 135.43 159.963 135.218 160.217 135.209C160.478 135.193 160.683 135.401 160.691 135.655L160.717 136.479C160.724 136.733 160.525 136.945 160.271 136.953C160.266 136.953 160.261 136.953 160.257 136.953ZM160.131 132.912C159.884 132.912 159.68 132.715 159.672 132.466L159.629 131.087C159.621 130.833 159.821 130.62 160.074 130.612C160.333 130.605 160.541 130.804 160.548 131.058L160.591 132.437C160.599 132.691 160.4 132.904 160.146 132.912C160.141 132.912 160.136 132.912 160.131 132.912ZM159.989 128.314C159.741 128.314 159.537 128.118 159.529 127.869L159.486 126.489C159.478 126.235 159.678 126.023 159.932 126.015C160.177 126.017 160.398 126.207 160.406 126.461L160.448 127.84C160.456 128.094 160.257 128.306 160.003 128.314C159.998 128.314 159.993 128.314 159.989 128.314ZM159.846 123.717C159.599 123.717 159.394 123.52 159.386 123.271L159.344 121.892C159.336 121.638 159.535 121.426 159.789 121.418C160.033 121.405 160.255 121.61 160.263 121.863L160.306 123.243C160.314 123.497 160.114 123.709 159.86 123.717C159.856 123.717 159.851 123.717 159.846 123.717ZM159.703 119.12C159.456 119.12 159.251 118.923 159.244 118.674L159.201 117.295C159.193 117.041 159.393 116.829 159.646 116.82C159.901 116.818 160.112 117.012 160.12 117.266L160.163 118.645C160.171 118.899 159.972 119.112 159.718 119.12C159.713 119.12 159.708 119.12 159.703 119.12ZM159.561 114.523C159.313 114.523 159.109 114.326 159.101 114.077L159.058 112.698C159.05 112.444 159.25 112.231 159.504 112.223C159.757 112.206 159.97 112.415 159.978 112.669L160.021 114.048C160.028 114.302 159.829 114.514 159.575 114.523C159.57 114.523 159.565 114.523 159.561 114.523ZM159.418 109.925C159.171 109.925 158.966 109.729 158.959 109.48L158.916 108.1C158.908 107.847 159.107 107.634 159.361 107.626C159.625 107.618 159.827 107.818 159.835 108.072L159.878 109.451C159.886 109.705 159.686 109.917 159.433 109.925C159.428 109.925 159.423 109.925 159.418 109.925Z" fill="url(#paint3_linear)"/>
<path d="M177.005 134.379C176.751 134.379 176.545 134.173 176.545 133.919V132.539C176.545 132.285 176.751 132.079 177.005 132.079C177.259 132.079 177.465 132.285 177.465 132.539V133.919C177.465 134.173 177.259 134.379 177.005 134.379ZM177.005 129.779C176.751 129.779 176.545 129.573 176.545 129.319V127.939C176.545 127.685 176.751 127.479 177.005 127.479C177.259 127.479 177.465 127.685 177.465 127.939V129.319C177.465 129.573 177.259 129.779 177.005 129.779ZM177.005 125.18C176.751 125.18 176.545 124.974 176.545 124.72V123.34C176.545 123.086 176.751 122.88 177.005 122.88C177.259 122.88 177.465 123.086 177.465 123.34V124.72C177.465 124.974 177.259 125.18 177.005 125.18ZM177.005 120.58C176.751 120.58 176.545 120.374 176.545 120.12V118.74C176.545 118.486 176.751 118.28 177.005 118.28C177.259 118.28 177.465 118.486 177.465 118.74V120.12C177.465 120.374 177.259 120.58 177.005 120.58ZM177.005 115.98C176.751 115.98 176.545 115.775 176.545 115.521V114.141C176.545 113.887 176.751 113.681 177.005 113.681C177.259 113.681 177.465 113.887 177.465 114.141V115.521C177.465 115.775 177.259 115.98 177.005 115.98ZM177.005 111.381C176.751 111.381 176.545 111.175 176.545 110.921V109.541C176.545 109.287 176.751 109.081 177.005 109.081C177.259 109.081 177.465 109.287 177.465 109.541V110.921C177.465 111.175 177.259 111.381 177.005 111.381ZM177.005 106.782C176.751 106.782 176.545 106.576 176.545 106.322V104.942C176.545 104.688 176.751 104.482 177.005 104.482C177.259 104.482 177.465 104.688 177.465 104.942V106.322C177.465 106.576 177.259 106.782 177.005 106.782ZM177.005 102.182C176.751 102.182 176.545 101.976 176.545 101.722V100.342C176.545 100.088 176.751 99.8825 177.005 99.8825C177.259 99.8825 177.465 100.088 177.465 100.342V101.722C177.465 101.976 177.259 102.182 177.005 102.182ZM177.005 97.5826C176.751 97.5826 176.545 97.3768 176.545 97.1227V95.7429C176.545 95.4886 176.751 95.283 177.005 95.283C177.259 95.283 177.465 95.4886 177.465 95.7429V97.1227C177.465 97.3768 177.259 97.5826 177.005 97.5826Z" fill="url(#paint4_linear)"/>
<path d="M94.808 139.808C94.4532 139.808 94.1518 139.536 94.1212 139.176L89.4063 83.4925C89.3742 83.1125 89.6558 82.7788 90.0355 82.7465C90.4175 82.7258 90.7488 82.9962 90.7812 83.3757L95.4961 139.06C95.5282 139.44 95.2466 139.773 94.8669 139.806C94.8471 139.807 94.8273 139.808 94.808 139.808Z" fill="url(#paint5_linear)"/>
<path d="M87.9947 86.3702L90.1282 83.8405L92.6566 85.9754L92.489 83.9964L89.9607 81.8628L87.8271 84.391L87.9947 86.3702Z" fill="url(#paint6_linear)"/>
<path d="M188.254 137.183H91.2309C90.8499 137.183 90.541 136.874 90.541 136.493C90.541 136.112 90.8499 135.803 91.2309 135.803H188.253C188.635 135.803 188.943 136.112 188.943 136.493C188.943 136.874 188.635 137.183 188.254 137.183Z" fill="url(#paint7_linear)"/>
<path d="M185.505 138.832L187.845 136.493L185.505 134.154H187.491L189.83 136.493L187.491 138.832H185.505Z" fill="url(#paint8_linear)"/>
<path d="M98.8443 121.183C98.5039 121.183 98.2074 120.931 98.1614 120.585C98.111 120.207 98.3766 119.86 98.7542 119.809C99.2641 119.742 150.063 112.785 177.871 92.2806C178.178 92.0538 178.61 92.1194 178.836 92.4261C179.062 92.7329 178.997 93.165 178.69 93.3909C150.594 114.108 99.4495 121.109 98.9361 121.177C98.9055 121.182 98.8747 121.183 98.8443 121.183Z" fill="url(#paint9_linear)"/>
<path d="M178.494 96.5056C178.476 96.5056 178.458 96.5047 178.439 96.5033C178.059 96.4738 177.776 96.1413 177.805 95.7617L178.019 93.0515L174.198 92.8246C173.818 92.8022 173.528 92.4757 173.55 92.0952C173.573 91.7147 173.897 91.4169 174.28 91.4475L178.803 91.7156C178.988 91.7263 179.16 91.8112 179.282 91.951C179.404 92.0907 179.464 92.2734 179.45 92.458L179.181 95.8695C179.153 96.2311 178.851 96.5056 178.494 96.5056Z" fill="url(#paint10_linear)"/>
<path d="M53.5411 125.332C53.1848 124.164 54.556 123.233 55.5223 123.98C65.335 131.566 89.3928 154.795 88.2571 199.543C86.8321 255.685 100.339 274.822 115.915 285.79C115.915 285.79 95.5963 281.882 81.188 262.531C45.8123 215.019 59.8761 146.105 53.5411 125.332Z" fill="#7D97F4"/>
<path d="M62.0567 142.006C63.7767 148.075 65.376 154.175 66.7501 160.325C68.1561 166.467 69.3755 172.648 70.4004 178.859C71.4013 185.072 72.2856 191.304 72.9038 197.564C73.5501 203.821 73.9269 210.099 74.2832 216.403C74.6745 222.701 75.0329 229.049 76.0422 235.379C77.0436 241.697 78.8152 247.996 81.6854 253.785C82.4025 255.228 83.1486 256.663 83.9718 258.04C84.7699 259.433 85.6298 260.791 86.5138 262.133C88.2954 264.808 90.2576 267.37 92.401 269.774C96.7007 274.573 101.728 278.714 107.153 282.105C107.725 282.462 108.477 282.289 108.834 281.718C109.184 281.157 109.023 280.421 108.477 280.057L108.473 280.054C107.177 279.192 105.892 278.316 104.65 277.386C104.022 276.931 103.415 276.448 102.8 275.978C102.203 275.484 101.587 275.014 101.006 274.503C98.6474 272.498 96.4328 270.329 94.3896 268.008C90.2848 263.39 86.8489 258.136 84.0972 252.61C82.7522 249.831 81.6142 246.957 80.7014 244.006C79.7908 241.054 79.1055 238.027 78.5924 234.959C77.5653 228.82 77.1587 222.54 76.7221 216.245C76.2773 209.949 75.787 203.625 75.0373 197.331C74.6709 194.183 74.2481 191.042 73.7692 187.911C73.5389 186.344 73.2781 184.782 73.0203 183.219C72.7475 181.659 72.466 180.101 72.1719 178.545C70.984 172.324 69.6069 166.142 68.0364 160.013C66.4366 153.89 64.6748 147.813 62.6819 141.813C62.6249 141.642 62.4398 141.549 62.2683 141.606C62.1018 141.662 62.0096 141.839 62.0567 142.006Z" fill="white"/>
<path d="M73.1403 297.547C72.4214 299.397 70.0472 299.911 68.6095 298.543C60.6764 290.997 40.1765 267.632 43.1216 229.95C45.6087 198.129 43.9333 180.638 42.6226 172.75C42.3454 171.082 44.3586 170.03 45.5721 171.207C58.9611 184.196 99.1921 230.53 73.1403 297.547Z" fill="#91B3FA"/>
<path d="M70.4536 297.5C70.412 297.526 70.3674 297.549 70.3198 297.567C69.9209 297.722 69.472 297.524 69.3174 297.125C69.1421 296.673 51.8081 251.39 53.2674 206.989C53.2815 206.562 53.6395 206.226 54.0673 206.24C54.495 206.254 54.8301 206.612 54.8163 207.04C53.3674 251.118 70.5881 296.116 70.762 296.565C70.8984 296.916 70.7611 297.306 70.4536 297.5Z" fill="white"/>
<path d="M124.391 238.88H61.1827C60.9933 238.88 60.8398 238.726 60.8398 238.537V227.052C60.8398 226.863 60.9933 226.709 61.1827 226.709H124.391C124.58 226.709 124.734 226.863 124.734 227.052V238.537C124.734 238.726 124.58 238.88 124.391 238.88Z" fill="url(#paint11_linear)"/>
<path d="M124.441 252.378H61.233C61.0436 252.378 60.8901 252.225 60.8901 252.035V240.551C60.8901 240.361 61.0436 240.208 61.233 240.208H124.441C124.63 240.208 124.784 240.361 124.784 240.551V252.035C124.784 252.225 124.63 252.378 124.441 252.378Z" fill="url(#paint12_linear)"/>
<path d="M124.491 265.876H61.2833C61.0939 265.876 60.9404 265.723 60.9404 265.533V254.049C60.9404 253.859 61.0939 253.706 61.2833 253.706H124.491C124.681 253.706 124.834 253.859 124.834 254.049V265.533C124.834 265.723 124.681 265.876 124.491 265.876Z" fill="url(#paint13_linear)"/>
<path d="M124.541 279.374H61.3331C61.1437 279.374 60.9902 279.221 60.9902 279.031V267.547C60.9902 267.357 61.1437 267.204 61.3331 267.204H124.541C124.73 267.204 124.884 267.357 124.884 267.547V279.031C124.884 279.221 124.73 279.374 124.541 279.374Z" fill="url(#paint14_linear)"/>
<path d="M124.591 292.872H61.3834C61.194 292.872 61.0405 292.719 61.0405 292.53V281.045C61.0405 280.856 61.194 280.702 61.3834 280.702H124.591C124.781 280.702 124.934 280.856 124.934 281.045V292.53C124.934 292.719 124.781 292.872 124.591 292.872Z" fill="url(#paint15_linear)"/>
<path d="M124.591 306.228H61.3834C61.194 306.228 61.0405 306.075 61.0405 305.885V294.401C61.0405 294.211 61.194 294.058 61.3834 294.058H124.591C124.781 294.058 124.934 294.211 124.934 294.401V305.885C124.934 306.075 124.781 306.228 124.591 306.228Z" fill="url(#paint16_linear)"/>
<path d="M91.4894 221.991C109.498 221.991 124.097 207.391 124.097 189.383C124.097 171.374 109.498 156.775 91.4894 156.775C73.4805 156.775 58.8813 171.374 58.8813 189.383C58.8813 207.391 73.4805 221.991 91.4894 221.991Z" fill="url(#paint17_linear)"/>
<path d="M91.4891 220.906C108.899 220.906 123.013 206.793 123.013 189.383C123.013 171.972 108.899 157.859 91.4891 157.859C74.079 157.859 59.9653 171.972 59.9653 189.383C59.9653 206.793 74.079 220.906 91.4891 220.906Z" fill="url(#paint18_linear)"/>
<path opacity="0.7" d="M65.4946 177.011C65.3852 177.011 65.274 176.986 65.1694 176.933C64.8127 176.753 64.6697 176.318 64.8498 175.961C69.9563 165.844 80.1642 159.56 91.4892 159.56C93.2976 159.56 95.1077 159.722 96.8687 160.043C97.2617 160.115 97.5223 160.492 97.4507 160.884C97.379 161.278 97.0022 161.538 96.6095 161.466C94.9336 161.161 93.2108 161.006 91.4893 161.006C80.7133 161.006 71.0003 166.986 66.1408 176.613C66.0138 176.865 65.7592 177.011 65.4946 177.011Z" fill="white"/>
<path opacity="0.78" d="M111.04 208.935C121.46 198.515 121.46 181.622 111.04 171.203C100.621 160.783 83.7274 160.783 73.308 171.203C62.8885 181.622 62.8885 198.515 73.308 208.935C83.7274 219.354 100.621 219.354 111.04 208.935Z" fill="white"/>
<path d="M89.5576 209.904V207.002C86.5315 206.88 83.5385 206.166 81.4127 205.236C80.6535 204.903 80.2666 204.051 80.4847 203.252L81.2221 200.548C81.4927 199.556 82.5713 199.043 83.5195 199.44C85.6282 200.324 88.2321 201.024 91.0396 201.024C93.9542 201.024 96.1277 200.036 96.1277 198.01C96.1277 196.183 94.4482 195.096 90.3974 194.009C84.6177 192.428 80.4678 189.909 80.4678 184.821C80.4678 180.226 83.8273 176.719 89.6563 175.781V172.877C89.6563 171.943 90.4136 171.186 91.3477 171.186H93.0531C93.9872 171.186 94.7445 171.943 94.7445 172.877V175.484C97.5445 175.596 99.5827 176.075 101.2 176.643C102.029 176.934 102.482 177.827 102.252 178.675L101.574 181.175C101.312 182.14 100.282 182.668 99.3472 182.315C97.8579 181.751 95.7524 181.165 93.0154 181.165C89.5573 181.165 88.5694 182.597 88.5694 183.882C88.5694 185.463 90.6442 186.549 95.1395 187.933C101.562 189.859 104.229 192.527 104.229 197.319C104.229 201.715 100.969 205.667 94.6457 206.655V209.904C94.6457 210.838 93.8884 211.595 92.9543 211.595H91.2487C90.3148 211.596 89.5576 210.838 89.5576 209.904Z" fill="url(#paint19_linear)"/>
<path d="M196.145 252.378H132.938C132.748 252.378 132.595 252.225 132.595 252.035V240.551C132.595 240.361 132.748 240.208 132.938 240.208H196.146C196.335 240.208 196.488 240.361 196.488 240.551V252.035C196.488 252.225 196.335 252.378 196.145 252.378Z" fill="url(#paint20_linear)"/>
<path d="M196.195 265.876H132.987C132.798 265.876 132.645 265.723 132.645 265.533V254.049C132.645 253.859 132.798 253.706 132.987 253.706H196.195C196.385 253.706 196.538 253.859 196.538 254.049V265.533C196.538 265.723 196.385 265.876 196.195 265.876Z" fill="url(#paint21_linear)"/>
<path d="M196.246 279.374H133.038C132.848 279.374 132.695 279.221 132.695 279.031V267.547C132.695 267.357 132.848 267.204 133.038 267.204H196.246C196.435 267.204 196.588 267.357 196.588 267.547V279.031C196.588 279.221 196.435 279.374 196.246 279.374Z" fill="url(#paint22_linear)"/>
<path d="M196.296 292.873H133.088C132.899 292.873 132.745 292.719 132.745 292.53V281.045C132.745 280.856 132.899 280.702 133.088 280.702H196.296C196.485 280.702 196.639 280.856 196.639 281.045V292.53C196.639 292.719 196.485 292.873 196.296 292.873Z" fill="url(#paint23_linear)"/>
<path d="M196.296 306.228H133.088C132.899 306.228 132.745 306.075 132.745 305.886V294.401C132.745 294.212 132.899 294.058 133.088 294.058H196.296C196.485 294.058 196.639 294.212 196.639 294.401V305.886C196.639 306.075 196.485 306.228 196.296 306.228Z" fill="url(#paint24_linear)"/>
<path d="M162.167 235.809C180.176 235.809 194.775 221.21 194.775 203.201C194.775 185.192 180.176 170.593 162.167 170.593C144.158 170.593 129.559 185.192 129.559 203.201C129.559 221.21 144.158 235.809 162.167 235.809Z" fill="url(#paint25_linear)"/>
<path d="M162.167 234.724C179.577 234.724 193.691 220.611 193.691 203.201C193.691 185.791 179.577 171.677 162.167 171.677C144.757 171.677 130.643 185.791 130.643 203.201C130.643 220.611 144.757 234.724 162.167 234.724Z" fill="url(#paint26_linear)"/>
<path opacity="0.7" d="M136.172 190.829C136.063 190.829 135.952 190.804 135.847 190.751C135.49 190.571 135.347 190.136 135.528 189.78C140.634 179.663 150.842 173.378 162.167 173.378C163.975 173.378 165.785 173.541 167.547 173.862C167.94 173.933 168.2 174.31 168.128 174.703C168.057 175.096 167.68 175.356 167.287 175.285C165.611 174.979 163.889 174.824 162.167 174.824C151.391 174.824 141.678 180.805 136.819 190.432C136.691 190.684 136.437 190.829 136.172 190.829Z" fill="white"/>
<path opacity="0.78" d="M181.717 222.753C192.137 212.334 192.137 195.441 181.717 185.021C171.298 174.602 154.405 174.602 143.985 185.021C133.566 195.441 133.566 212.334 143.985 222.753C154.405 233.173 171.298 233.173 181.717 222.753Z" fill="white"/>
<path d="M160.236 223.722V220.82C157.21 220.699 154.217 219.984 152.091 219.054C151.332 218.722 150.945 217.87 151.163 217.07L151.9 214.366C152.171 213.374 153.25 212.861 154.198 213.259C156.306 214.143 158.91 214.842 161.718 214.842C164.632 214.842 166.806 213.854 166.806 211.829C166.806 210.001 165.127 208.914 161.076 207.827C155.296 206.247 151.146 203.727 151.146 198.639C151.146 194.044 154.505 190.537 160.335 189.599V186.696C160.335 185.762 161.092 185.004 162.026 185.004H163.731C164.665 185.004 165.423 185.762 165.423 186.696V189.302C168.223 189.414 170.261 189.893 171.879 190.461C172.707 190.753 173.16 191.645 172.93 192.493L172.252 194.994C171.991 195.958 170.96 196.486 170.025 196.133C168.536 195.57 166.431 194.983 163.694 194.983C160.236 194.983 159.248 196.416 159.248 197.7C159.248 199.281 161.322 200.368 165.818 201.751C172.24 203.678 174.907 206.345 174.907 211.137C174.907 215.534 171.647 219.486 165.324 220.474V223.722C165.324 224.656 164.567 225.414 163.633 225.414H161.927C160.993 225.414 160.236 224.657 160.236 223.722Z" fill="url(#paint27_linear)"/>
<path d="M156.317 139.24C172.477 141.664 183.009 131.468 190.858 125.283C201.22 117.117 209.283 121.09 209.283 121.09L199.969 141.922C183.467 157.482 164.81 154.284 154.143 149.242C153.979 145.168 155.068 141.759 156.317 139.24Z" fill="url(#paint28_linear)"/>
<path d="M133.605 129.599L138.964 132.482C145.391 136.395 151.142 138.463 156.317 139.239C155.068 141.759 153.979 145.168 154.144 149.241C147.353 146.032 143.096 142.179 143.096 142.179C130.957 134.941 133.605 129.599 133.605 129.599Z" fill="url(#paint29_linear)"/>
<path d="M117.818 137.15C118.164 136 119.015 135.07 120.129 134.622L131.005 130.248C131.005 130.248 131.169 128.853 128.707 127.906C126.245 126.958 126.82 124.2 126.82 124.2C126.82 124.2 130.184 125.735 135.108 128.168C137.925 129.56 139.505 132.017 140.343 133.867L137.543 137.549C130.84 139.562 124.057 139.948 117.217 139.149L117.818 137.15Z" fill="url(#paint30_linear)"/>
<path d="M204.967 297.403C209.252 297.773 216.688 298.375 222.551 298.633C226.075 298.788 228.104 298.443 229.272 297.975C229.27 298.107 229.267 298.231 229.262 298.347C229.234 298.964 228.733 299.457 228.11 299.492C217.032 300.111 208.222 299.706 205.085 299.515C204.437 299.476 204.05 298.771 204.382 298.218C204.548 297.942 204.749 297.671 204.967 297.403Z" fill="url(#paint31_linear)"/>
<path d="M222.551 298.633C216.689 298.375 209.252 297.773 204.967 297.403C209.18 292.235 222.551 288.751 222.551 288.751H226.328C228.925 292.495 229.301 296.06 229.273 297.975C228.104 298.443 226.075 298.788 222.551 298.633Z" fill="url(#paint32_linear)"/>
<path d="M226.963 282.586L226.61 289.579C226.572 290.336 226.005 290.973 225.246 291.081C224.492 291.189 223.481 291.203 222.409 290.846C221.75 290.627 221.261 290.071 221.139 289.393L219.918 282.586H226.963V282.586Z" fill="url(#paint33_linear)"/>
<path d="M270.793 305.471C272.652 305.136 273.492 303.888 273.845 302.554C273.847 302.566 273.85 302.578 273.852 302.59C274.125 303.997 273.491 305.455 272.224 306.149C270.693 306.987 269.019 307.13 267.719 307.06C266.324 306.986 265.044 306.24 264.34 305.046L264.33 305.028C265.73 305.924 267.695 306.029 270.793 305.471Z" fill="url(#paint34_linear)"/>
<path d="M262.033 284.741H265.147C269.891 284.615 272.87 297.547 273.845 302.554C273.493 303.888 272.652 305.135 270.794 305.47C267.695 306.029 265.73 305.924 264.33 305.028C261.767 300.67 260.496 294.286 259.886 290.56C259.191 286.323 262.033 284.741 262.033 284.741Z" fill="url(#paint35_linear)"/>
<path d="M264.747 278.249L266.477 285.128C266.689 285.971 266.285 286.843 265.505 287.243C264.538 287.74 263.176 288.262 261.924 288.11C261.335 288.039 260.846 287.625 260.652 287.07L258.113 279.834L264.747 278.249Z" fill="url(#paint36_linear)"/>
<path d="M203.912 187.659C203.912 187.659 219.367 284.262 219.112 284.793C219.112 284.793 223.38 286.733 228.034 285.041C228.034 285.041 226.636 233.399 223.361 213.598C223.361 213.598 249.737 259.756 258.113 282.755C258.113 282.755 262.481 282.234 266.097 279.854C266.097 279.854 237.698 196.773 230.122 185.707L203.912 187.659Z" fill="url(#paint37_linear)"/>
<path opacity="0.49" d="M222.746 213.26C222.538 213.26 222.336 213.157 222.218 212.969L216.584 203.97L212.596 203.168C212.259 203.1 212.041 202.773 212.11 202.437C212.178 202.099 212.504 201.887 212.841 201.95L217.091 202.805C217.258 202.839 217.405 202.94 217.495 203.084L223.271 212.309C223.453 212.6 223.364 212.984 223.074 213.165C222.971 213.23 222.857 213.26 222.746 213.26Z" fill="url(#paint38_linear)"/>
<path d="M201.476 120.206C207.505 119.852 227.374 119.207 243.816 124.639C247.276 125.782 249.691 130.367 251.135 133.681C255.583 143.888 244.995 148.008 236.817 145.207C232.652 156.455 230.698 172.866 230.289 180.129C230.155 182.52 230.575 184.907 231.513 187.114L231.615 187.355C231.816 187.828 231.54 188.37 231.034 188.484C219.781 191.012 208.077 190.325 204.58 190.036C203.956 189.985 203.437 189.538 203.294 188.934C197.822 165.877 197.809 150.149 199.149 140.206C194.03 141.351 200.371 120.271 201.476 120.206Z" fill="url(#paint39_linear)"/>
<path d="M199.127 140.99C199.1 140.99 199.073 140.989 199.044 140.985C198.705 140.94 198.465 140.628 198.511 140.288C199.83 130.316 202.485 126.043 202.597 125.867C202.782 125.578 203.167 125.494 203.453 125.675C203.742 125.858 203.829 126.242 203.647 126.532C203.62 126.573 201.021 130.79 199.741 140.451C199.7 140.763 199.434 140.99 199.127 140.99Z" fill="url(#paint40_linear)"/>
<path d="M226.898 106.774C226.898 106.774 228.037 118.811 229.039 122.371C229.191 122.912 228.956 123.481 228.466 123.762C226.764 124.734 222.684 126.319 217.103 123.584C216.199 123.141 215.655 122.198 215.698 121.201L216.189 109.569L226.898 106.774Z" fill="url(#paint41_linear)"/>
<path d="M215.944 91.3754C215.944 91.3754 212.302 99.7397 212.058 104.13C211.814 108.52 210.868 111.369 215.944 112.253C221.02 113.137 225.296 110.608 227.613 106.235C227.613 106.235 231.243 99.4966 230.428 96.737C229.614 93.9773 215.944 91.3754 215.944 91.3754Z" fill="url(#paint42_linear)"/>
<path d="M225.878 103.091L225.589 102.963C225.222 102.801 225.064 102.363 225.249 102.006C225.965 100.623 227.36 97.4539 225.558 96.7145C223.234 95.7617 214.031 93.885 212.046 90.6196C210.138 87.4812 211.829 83.4301 214.37 82.2778C214.54 82.2006 214.74 82.2619 214.827 82.427L215.039 82.8276C215.184 83.1019 215.589 83.0604 215.676 82.7623C215.758 82.4763 216.139 82.4207 216.297 82.6733C216.907 83.6503 218.555 85.234 222.961 86.0473C229.224 87.2031 233.364 89.7373 233.467 94.0647C233.474 94.3396 233.766 94.4925 234.001 94.3494C234.463 94.0676 235.203 93.9355 236.192 94.767C237.912 96.2131 237.208 99.9644 233.438 103.05C233.259 103.197 233.26 103.476 233.454 103.603C234.138 104.048 235.157 105.106 232.517 106.518C229.786 107.977 227.747 107.858 226.961 107.728C226.766 107.696 226.64 107.507 226.683 107.313L227.521 103.51C227.568 103.295 227.404 103.091 227.184 103.091H225.878Z" fill="url(#paint43_linear)"/>
<path d="M225.721 103.893C225.721 103.893 227.11 98.5503 229.505 100.048C231.901 101.547 228.262 106.035 226.336 106.235L225.721 103.893Z" fill="url(#paint44_linear)"/>
<path d="M227.967 224.467L228.476 240.293C228.565 243.053 230.83 245.249 233.604 245.265L271.503 245.489C273.357 245.5 274.937 244.153 275.207 242.327C275.8 238.33 276.555 231.179 275.705 224.467H227.967V224.467Z" fill="url(#paint45_linear)"/>
<path d="M239.075 212.977L239.189 211.757C239.317 211.465 239.585 211.259 239.9 211.209C241.081 211.021 244.009 210.691 245.419 211.744L245.63 213.163L239.075 212.977Z" fill="url(#paint46_linear)"/>
<path d="M242.763 211.803C242.491 211.869 242.219 211.869 241.946 211.802C241.616 211.721 241.383 211.425 241.383 211.087V207.265H243.328V211.084C243.328 211.424 243.095 211.722 242.763 211.803Z" fill="url(#paint47_linear)"/>
<path d="M257.914 212.977L258.028 211.757C258.156 211.465 258.424 211.259 258.739 211.209C259.92 211.021 262.848 210.691 264.258 211.744L264.469 213.163L257.914 212.977Z" fill="url(#paint48_linear)"/>
<path d="M261.602 211.803C261.33 211.869 261.058 211.869 260.785 211.802C260.455 211.721 260.222 211.425 260.222 211.087V206.862H262.167V211.084C262.167 211.424 261.934 211.722 261.602 211.803Z" fill="url(#paint49_linear)"/>
<path d="M241.186 208.202L262.103 207.509C262.58 207.494 262.985 207.15 263.067 206.682C263.181 206.027 263.282 205.047 263.132 204.03C262.96 202.875 261.966 202.016 260.793 201.988C256.891 201.895 246.957 201.898 241.482 204.064C240.903 204.293 240.473 204.788 240.326 205.391C240.187 205.966 240.094 206.733 240.276 207.515C240.373 207.93 240.758 208.216 241.186 208.202Z" fill="url(#paint50_linear)"/>
<path d="M240.823 207.115C240.777 207.115 240.737 207.079 240.732 207.032C240.729 206.999 240.652 206.213 240.857 205.456C241.013 204.881 241.468 204.418 242.045 204.249C243.21 203.907 245.437 203.325 247.256 203.274C247.307 203.273 247.349 203.313 247.351 203.364C247.352 203.415 247.312 203.457 247.261 203.458C245.463 203.509 243.254 204.086 242.097 204.425C241.581 204.577 241.174 204.99 241.035 205.504C240.839 206.227 240.914 207.006 240.915 207.014C240.92 207.064 240.883 207.109 240.833 207.114C240.829 207.115 240.826 207.115 240.823 207.115Z" fill="#91B3FA"/>
<path d="M229.37 212.502C236.127 212.416 265.361 212.108 273.853 213.133C274.584 213.221 275.181 213.756 275.339 214.472C275.841 216.74 276.85 222.01 276.731 227.234C276.714 227.944 276.193 228.544 275.491 228.677L256.107 232.344H249.222L228.568 228.239C227.84 228.094 227.304 227.477 227.266 226.739C227.132 224.111 226.922 217.945 227.632 213.976C227.784 213.133 228.509 212.513 229.37 212.502Z" fill="url(#paint51_linear)"/>
<path d="M255.459 235.235H249.427C248.637 235.235 247.971 234.647 247.877 233.866L247.18 228.061C247.069 227.136 247.795 226.323 248.73 226.323H255.977C256.894 226.323 257.613 227.105 257.532 228.014L257.014 233.819C256.943 234.62 256.268 235.235 255.459 235.235Z" fill="url(#paint52_linear)"/>
<path d="M254.988 234.559H249.871C249.2 234.559 248.635 234.06 248.556 233.397L247.965 228.473C247.87 227.689 248.486 226.999 249.28 226.999H255.427C256.205 226.999 256.815 227.662 256.747 228.433L256.307 233.358C256.247 234.038 255.674 234.559 254.988 234.559Z" fill="#7D97F4"/>
<path d="M245.548 155.888C245.548 155.888 251.636 183.352 246.121 198.792C252.882 201.927 251.633 201.336 251.633 201.336C251.633 201.336 265.007 162.259 260.689 151.83C252.176 150.926 247.954 153.214 245.548 155.888Z" fill="url(#paint53_linear)"/>
<path d="M246.121 198.792C246.121 198.792 242.638 203.301 242.916 205.097C243.195 206.893 243.261 207.625 243.261 207.625C243.261 207.625 245.012 206.427 244.902 204.898C244.658 209.753 245.919 209.318 247.397 209.052C248.874 208.786 253.638 207.691 251.908 200.175C247.984 197.448 246.884 197.744 246.121 198.792Z" fill="url(#paint54_linear)"/>
<path d="M234.134 145.306L244.176 124.785C244.176 124.785 271.356 141.158 258.148 180.126C254.546 177.615 252.69 178.27 248.215 179.908C247.124 139.63 234.134 145.306 234.134 145.306Z" fill="url(#paint55_linear)"/>
<defs>
<linearGradient id="paint0_linear" x1="322.457" y1="340.484" x2="128.664" y2="131.311" gradientUnits="userSpaceOnUse">
<stop stop-color="#DAE3FE"/>
<stop offset="1" stop-color="#E9EFFD"/>
</linearGradient>
<linearGradient id="paint1_linear" x1="119.038" y1="126.414" x2="119.997" y2="126.414" gradientUnits="userSpaceOnUse">
<stop stop-color="#4F52FF"/>
<stop offset="1" stop-color="#4042E2"/>
</linearGradient>
<linearGradient id="paint2_linear" x1="142.177" y1="122.803" x2="143.097" y2="122.803" gradientUnits="userSpaceOnUse">
<stop stop-color="#4F52FF"/>
<stop offset="1" stop-color="#4042E2"/>
</linearGradient>
<linearGradient id="paint3_linear" x1="158.916" y1="122.289" x2="160.717" y2="122.289" gradientUnits="userSpaceOnUse">
<stop stop-color="#4F52FF"/>
<stop offset="1" stop-color="#4042E2"/>
</linearGradient>
<linearGradient id="paint4_linear" x1="176.545" y1="114.831" x2="177.465" y2="114.831" gradientUnits="userSpaceOnUse">
<stop stop-color="#4F52FF"/>
<stop offset="1" stop-color="#4042E2"/>
</linearGradient>
<linearGradient id="paint5_linear" x1="89.4038" y1="111.277" x2="95.4986" y2="111.277" gradientUnits="userSpaceOnUse">
<stop stop-color="#4F52FF"/>
<stop offset="1" stop-color="#4042E2"/>
</linearGradient>
<linearGradient id="paint6_linear" x1="87.8271" y1="84.1165" x2="92.6566" y2="84.1165" gradientUnits="userSpaceOnUse">
<stop stop-color="#4F52FF"/>
<stop offset="1" stop-color="#4042E2"/>
</linearGradient>
<linearGradient id="paint7_linear" x1="90.541" y1="136.493" x2="188.943" y2="136.493" gradientUnits="userSpaceOnUse">
<stop stop-color="#4F52FF"/>
<stop offset="1" stop-color="#4042E2"/>
</linearGradient>
<linearGradient id="paint8_linear" x1="185.505" y1="136.493" x2="189.83" y2="136.493" gradientUnits="userSpaceOnUse">
<stop stop-color="#4F52FF"/>
<stop offset="1" stop-color="#4042E2"/>
</linearGradient>
<linearGradient id="paint9_linear" x1="98.1553" y1="106.664" x2="178.971" y2="106.664" gradientUnits="userSpaceOnUse">
<stop stop-color="#4F52FF"/>
<stop offset="1" stop-color="#4042E2"/>
</linearGradient>
<linearGradient id="paint10_linear" x1="173.549" y1="93.9755" x2="179.452" y2="93.9755" gradientUnits="userSpaceOnUse">
<stop stop-color="#4F52FF"/>
<stop offset="1" stop-color="#4042E2"/>
</linearGradient>
<linearGradient id="paint11_linear" x1="104.43" y1="72.2767" x2="86.5012" y2="319.445" gradientUnits="userSpaceOnUse">
<stop stop-color="#FF928E"/>
<stop offset="1" stop-color="#FE7062"/>
</linearGradient>
<linearGradient id="paint12_linear" x1="105.461" y1="72.2587" x2="87.5317" y2="319.428" gradientUnits="userSpaceOnUse">
<stop stop-color="#FF928E"/>
<stop offset="1" stop-color="#FE7062"/>
</linearGradient>
<linearGradient id="paint13_linear" x1="106.492" y1="72.2428" x2="88.5626" y2="319.41" gradientUnits="userSpaceOnUse">
<stop stop-color="#FF928E"/>
<stop offset="1" stop-color="#FE7062"/>
</linearGradient>
<linearGradient id="paint14_linear" x1="107.522" y1="72.2243" x2="89.5927" y2="319.393" gradientUnits="userSpaceOnUse">
<stop stop-color="#FF928E"/>
<stop offset="1" stop-color="#FE7062"/>
</linearGradient>
<linearGradient id="paint15_linear" x1="108.553" y1="72.2074" x2="90.6234" y2="319.376" gradientUnits="userSpaceOnUse">
<stop stop-color="#FF928E"/>
<stop offset="1" stop-color="#FE7062"/>
</linearGradient>
<linearGradient id="paint16_linear" x1="109.523" y1="72.1862" x2="91.5938" y2="319.354" gradientUnits="userSpaceOnUse">
<stop stop-color="#FF928E"/>
<stop offset="1" stop-color="#FE7062"/>
</linearGradient>
<linearGradient id="paint17_linear" x1="46.8683" y1="241.175" x2="90.6059" y2="190.408" gradientUnits="userSpaceOnUse">
<stop stop-color="#FF928E"/>
<stop offset="1" stop-color="#FE7062"/>
</linearGradient>
<linearGradient id="paint18_linear" x1="88.4095" y1="118.551" x2="94.7695" y2="264.828" gradientUnits="userSpaceOnUse">
<stop stop-color="#FF928E"/>
<stop offset="1" stop-color="#FE7062"/>
</linearGradient>
<linearGradient id="paint19_linear" x1="99.8344" y1="131.172" x2="94.5878" y2="173.146" gradientUnits="userSpaceOnUse">
<stop stop-color="#FF928E"/>
<stop offset="1" stop-color="#FE7062"/>
</linearGradient>
<linearGradient id="paint20_linear" x1="178.015" y1="132.832" x2="153.622" y2="338.244" gradientUnits="userSpaceOnUse">
<stop stop-color="#FF928E"/>
<stop offset="1" stop-color="#FE7062"/>
</linearGradient>
<linearGradient id="paint21_linear" x1="179.659" y1="132.902" x2="155.267" y2="338.314" gradientUnits="userSpaceOnUse">
<stop stop-color="#FF928E"/>
<stop offset="1" stop-color="#FE7062"/>
</linearGradient>
<linearGradient id="paint22_linear" x1="181.304" y1="132.971" x2="156.911" y2="338.384" gradientUnits="userSpaceOnUse">
<stop stop-color="#FF928E"/>
<stop offset="1" stop-color="#FE7062"/>
</linearGradient>
<linearGradient id="paint23_linear" x1="182.949" y1="133.041" x2="158.557" y2="338.453" gradientUnits="userSpaceOnUse">
<stop stop-color="#FF928E"/>
<stop offset="1" stop-color="#FE7062"/>
</linearGradient>
<linearGradient id="paint24_linear" x1="184.528" y1="133.105" x2="160.135" y2="338.517" gradientUnits="userSpaceOnUse">
<stop stop-color="#FF928E"/>
<stop offset="1" stop-color="#FE7062"/>
</linearGradient>
<linearGradient id="paint25_linear" x1="117.546" y1="254.993" x2="161.284" y2="204.226" gradientUnits="userSpaceOnUse">
<stop stop-color="#FF928E"/>
<stop offset="1" stop-color="#FE7062"/>
</linearGradient>
<linearGradient id="paint26_linear" x1="167.72" y1="106.947" x2="160.088" y2="239.233" gradientUnits="userSpaceOnUse">
<stop stop-color="#FF928E"/>
<stop offset="1" stop-color="#FE7062"/>
</linearGradient>
<linearGradient id="paint27_linear" x1="201.214" y1="121.28" x2="183.566" y2="159.914" gradientUnits="userSpaceOnUse">
<stop stop-color="#FF928E"/>
<stop offset="1" stop-color="#FE7062"/>
</linearGradient>
<linearGradient id="paint28_linear" x1="233.597" y1="53.0677" x2="192.894" y2="117.303" gradientUnits="userSpaceOnUse">
<stop stop-color="#FF928E"/>
<stop offset="1" stop-color="#FE7062"/>
</linearGradient>
<linearGradient id="paint29_linear" x1="117.187" y1="100.891" x2="191.397" y2="195.836" gradientUnits="userSpaceOnUse">
<stop stop-color="#FEBBBA"/>
<stop offset="1" stop-color="#FF928E"/>
</linearGradient>
<linearGradient id="paint30_linear" x1="107.255" y1="108.653" x2="181.466" y2="203.599" gradientUnits="userSpaceOnUse">
<stop stop-color="#FEBBBA"/>
<stop offset="1" stop-color="#FF928E"/>
</linearGradient>
<linearGradient id="paint31_linear" x1="229.272" y1="298.613" x2="204.261" y2="298.613" gradientUnits="userSpaceOnUse">
<stop stop-color="#4F52FF"/>
<stop offset="1" stop-color="#4042E2"/>
</linearGradient>
<linearGradient id="paint32_linear" x1="229.274" y1="293.711" x2="204.967" y2="293.711" gradientUnits="userSpaceOnUse">
<stop stop-color="#09005D"/>
<stop offset="1" stop-color="#1A0F91"/>
</linearGradient>
<linearGradient id="paint33_linear" x1="226.963" y1="286.867" x2="219.918" y2="286.867" gradientUnits="userSpaceOnUse">
<stop stop-color="#FEBBBA"/>
<stop offset="1" stop-color="#FF928E"/>
</linearGradient>
<linearGradient id="paint34_linear" x1="273.915" y1="304.815" x2="264.33" y2="304.815" gradientUnits="userSpaceOnUse">
<stop stop-color="#4F52FF"/>
<stop offset="1" stop-color="#4042E2"/>
</linearGradient>
<linearGradient id="paint35_linear" x1="273.845" y1="295.277" x2="259.776" y2="295.277" gradientUnits="userSpaceOnUse">
<stop stop-color="#09005D"/>
<stop offset="1" stop-color="#1A0F91"/>
</linearGradient>
<linearGradient id="paint36_linear" x1="266.533" y1="283.193" x2="258.113" y2="283.193" gradientUnits="userSpaceOnUse">
<stop stop-color="#FEBBBA"/>
<stop offset="1" stop-color="#FF928E"/>
</linearGradient>
<linearGradient id="paint37_linear" x1="198.428" y1="192.333" x2="270.314" y2="310.089" gradientUnits="userSpaceOnUse">
<stop stop-color="#09005D"/>
<stop offset="1" stop-color="#1A0F91"/>
</linearGradient>
<linearGradient id="paint38_linear" x1="247.041" y1="129.227" x2="216.915" y2="209.782" gradientUnits="userSpaceOnUse">
<stop stop-color="#53D8FF"/>
<stop offset="1" stop-color="#3840F7"/>
</linearGradient>
<linearGradient id="paint39_linear" x1="267.077" y1="74.2823" x2="226.374" y2="138.517" gradientUnits="userSpaceOnUse">
<stop stop-color="#FF928E"/>
<stop offset="1" stop-color="#FE7062"/>
</linearGradient>
<linearGradient id="paint40_linear" x1="241.875" y1="37.5548" x2="187.847" y2="164.276" gradientUnits="userSpaceOnUse">
<stop stop-color="#E1473D"/>
<stop offset="1" stop-color="#E9605A"/>
</linearGradient>
<linearGradient id="paint41_linear" x1="225.052" y1="133.878" x2="221.404" y2="114.725" gradientUnits="userSpaceOnUse">
<stop stop-color="#FEBBBA"/>
<stop offset="1" stop-color="#FF928E"/>
</linearGradient>
<linearGradient id="paint42_linear" x1="215.18" y1="98.7378" x2="235.996" y2="114.665" gradientUnits="userSpaceOnUse">
<stop stop-color="#FEBBBA"/>
<stop offset="1" stop-color="#FF928E"/>
</linearGradient>
<linearGradient id="paint43_linear" x1="229.834" y1="86.1271" x2="210.447" y2="111.087" gradientUnits="userSpaceOnUse">
<stop stop-color="#09005D"/>
<stop offset="1" stop-color="#1A0F91"/>
</linearGradient>
<linearGradient id="paint44_linear" x1="217.762" y1="95.3634" x2="238.578" y2="111.29" gradientUnits="userSpaceOnUse">
<stop stop-color="#FEBBBA"/>
<stop offset="1" stop-color="#FF928E"/>
</linearGradient>
<linearGradient id="paint45_linear" x1="255.288" y1="198.596" x2="253.168" y2="218.736" gradientUnits="userSpaceOnUse">
<stop stop-color="#4F52FF"/>
<stop offset="1" stop-color="#4042E2"/>
</linearGradient>
<linearGradient id="paint46_linear" x1="244.218" y1="188.509" x2="243.582" y2="196.882" gradientUnits="userSpaceOnUse">
<stop stop-color="#4F52FF"/>
<stop offset="1" stop-color="#4042E2"/>
</linearGradient>
<linearGradient id="paint47_linear" x1="242.035" y1="184.153" x2="242.141" y2="192.421" gradientUnits="userSpaceOnUse">
<stop stop-color="#4F52FF"/>
<stop offset="1" stop-color="#4042E2"/>
</linearGradient>
<linearGradient id="paint48_linear" x1="262.949" y1="189.931" x2="262.313" y2="198.305" gradientUnits="userSpaceOnUse">
<stop stop-color="#4F52FF"/>
<stop offset="1" stop-color="#4042E2"/>
</linearGradient>
<linearGradient id="paint49_linear" x1="260.873" y1="183.911" x2="260.979" y2="192.179" gradientUnits="userSpaceOnUse">
<stop stop-color="#4F52FF"/>
<stop offset="1" stop-color="#4042E2"/>
</linearGradient>
<linearGradient id="paint50_linear" x1="252.341" y1="204.671" x2="259.973" y2="188.559" gradientUnits="userSpaceOnUse">
<stop stop-color="#4F52FF"/>
<stop offset="1" stop-color="#4042E2"/>
</linearGradient>
<linearGradient id="paint51_linear" x1="265.105" y1="197.555" x2="313.44" y2="111.06" gradientUnits="userSpaceOnUse">
<stop stop-color="#4F52FF"/>
<stop offset="1" stop-color="#4042E2"/>
</linearGradient>
<linearGradient id="paint52_linear" x1="254.224" y1="213.904" x2="251.51" y2="235.408" gradientUnits="userSpaceOnUse">
<stop stop-color="#09005D"/>
<stop offset="1" stop-color="#1A0F91"/>
</linearGradient>
<linearGradient id="paint53_linear" x1="241.15" y1="247.365" x2="255.82" y2="142.007" gradientUnits="userSpaceOnUse">
<stop stop-color="#FEBBBA"/>
<stop offset="1" stop-color="#FF928E"/>
</linearGradient>
<linearGradient id="paint54_linear" x1="244.894" y1="223.62" x2="252.521" y2="168.845" gradientUnits="userSpaceOnUse">
<stop stop-color="#FEBBBA"/>
<stop offset="1" stop-color="#FF928E"/>
</linearGradient>
<linearGradient id="paint55_linear" x1="291.066" y1="89.4831" x2="250.362" y2="153.718" gradientUnits="userSpaceOnUse">
<stop stop-color="#FF928E"/>
<stop offset="1" stop-color="#FE7062"/>
</linearGradient>
</defs>
</svg>
