<svg width="350" height="350" viewBox="0 0 350 350" fill="none" xmlns="http://www.w3.org/2000/svg">
<path d="M296.357 222.022C269.386 284.366 198.192 311.144 142.41 306.578C127.179 305.332 96.5348 302.823 72.6073 280.446C26.6561 237.473 33.733 147.645 77.7214 94.7602C83.3862 87.9497 122.597 42.3199 183.7 42.9306C228.436 43.3778 259.836 68.3691 263.654 71.4825C268.477 75.4156 279.116 84.762 288.703 99.5892C311.231 134.428 313.211 183.064 296.357 222.022Z" fill="url(#paint0_linear)"/>
<path d="M62.1747 268.001C62.1747 270.283 64.0435 272.15 66.3276 272.15H290.899C293.183 272.15 295.052 270.283 295.052 268.001L296.92 138.947C296.92 136.665 294.232 132.21 289.305 132.545L69.8292 126.866C66.9634 126.792 64.1924 127.895 62.163 129.917C60.1336 131.94 59.0231 134.706 59.0908 137.569L62.1747 268.001Z" fill="url(#paint1_linear)"/>
<path d="M66.2746 264.021C66.2746 266.182 68.0427 267.95 70.2035 267.95H285.483C287.644 267.95 289.412 266.182 289.412 264.021L291.175 146.864C290.968 139.814 284.787 137.28 281.04 137.43L70.6922 131.786C68.6788 131.732 66.7321 132.508 65.3061 133.93C63.8801 135.353 63.0959 137.299 63.1463 139.313L66.2746 264.021Z" fill="url(#paint2_linear)"/>
<path d="M287.086 208.363C287.083 208.363 287.08 208.363 287.077 208.363C286.759 208.359 286.505 208.097 286.51 207.779L286.649 198.277C286.654 197.963 286.911 197.71 287.224 197.71C287.227 197.71 287.23 197.71 287.233 197.71C287.551 197.715 287.805 197.976 287.8 198.295L287.661 207.796C287.656 208.111 287.4 208.363 287.086 208.363Z" fill="white"/>
<path opacity="0.62" d="M287.428 185.08C287.425 185.08 287.422 185.08 287.419 185.08C287.101 185.076 286.847 184.814 286.852 184.496L287.386 148.106C287.376 145.944 286.72 144.218 285.436 142.988C283.038 140.691 279.233 140.809 279.072 140.816L211.841 139.013C211.523 139.005 211.272 138.74 211.28 138.422C211.289 138.104 211.533 137.834 211.872 137.862L279.063 139.665C279.481 139.641 283.534 139.571 286.232 142.156C287.75 143.611 288.526 145.615 288.537 148.111L288.003 184.513C287.998 184.828 287.741 185.08 287.428 185.08Z" fill="white"/>
<path d="M44.4899 282.863H308.184C308.477 282.863 308.717 282.623 308.717 282.33V272.058C308.717 271.764 308.477 271.524 308.184 271.524H44.4899C44.1965 271.524 43.9565 271.764 43.9565 272.058V282.33C43.9566 282.623 44.1966 282.863 44.4899 282.863Z" fill="url(#paint3_linear)"/>
<path d="M237.202 44.268L82.5393 43.3211C77.4564 43.29 73.3912 47.5356 73.6429 52.6123L84.2833 272.351H256.394L265.95 76.0264L237.202 44.268Z" fill="#91B3FA"/>
<path d="M243.633 75.0849C238.595 74.9077 234.722 70.5654 235.119 65.5399L236.777 44.5574L265.981 75.8974L243.633 75.0849Z" fill="#7D97F4"/>
<path d="M177.707 157.899H103.387C102.891 157.899 102.489 157.497 102.489 157.001V147.162C102.489 146.666 102.891 146.264 103.387 146.264H177.707C178.203 146.264 178.605 146.666 178.605 147.162V157.001C178.605 157.497 178.203 157.899 177.707 157.899Z" fill="url(#paint4_linear)"/>
<path d="M231.761 158.293H210.315C208.62 158.293 207.246 156.919 207.246 155.224V149.727C207.246 148.032 208.62 146.658 210.315 146.658H231.761C233.456 146.658 234.83 148.032 234.83 149.727V155.224C234.83 156.919 233.456 158.293 231.761 158.293Z" fill="#BDD0FB"/>
<path d="M231.356 181.694H209.91C208.215 181.694 206.841 180.32 206.841 178.625V173.128C206.841 171.433 208.215 170.059 209.91 170.059H231.356C233.051 170.059 234.425 171.433 234.425 173.128V178.625C234.425 180.32 233.051 181.694 231.356 181.694Z" fill="#BDD0FB"/>
<path d="M231.263 203.87H209.817C208.122 203.87 206.748 202.496 206.748 200.801V195.305C206.748 193.61 208.122 192.236 209.817 192.236H231.263C232.958 192.236 234.332 193.61 234.332 195.305V200.801C234.332 202.496 232.958 203.87 231.263 203.87Z" fill="#BDD0FB"/>
<path d="M230.858 227.272H209.411C207.716 227.272 206.342 225.897 206.342 224.202V218.706C206.342 217.011 207.716 215.637 209.411 215.637H230.858C232.553 215.637 233.927 217.011 233.927 218.706V224.202C233.927 225.897 232.553 227.272 230.858 227.272Z" fill="#BDD0FB"/>
<path d="M168.502 182.078H104.285C103.827 182.078 103.456 181.706 103.456 181.248V171.272C103.456 170.814 103.827 170.443 104.285 170.443H168.502C168.96 170.443 169.331 170.814 169.331 171.272V181.248C169.331 181.706 168.96 182.078 168.502 182.078Z" fill="url(#paint5_linear)"/>
<path d="M181.743 204.503H104.833C104.429 204.503 104.101 204.175 104.101 203.77V193.6C104.101 193.196 104.429 192.868 104.833 192.868H181.743C182.147 192.868 182.475 193.196 182.475 193.6V203.77C182.475 204.175 182.147 204.503 181.743 204.503Z" fill="url(#paint6_linear)"/>
<path d="M191.19 226.903H106.675C106.323 226.903 106.037 226.617 106.037 226.265V215.908C106.037 215.555 106.323 215.269 106.675 215.269H191.19C191.543 215.269 191.829 215.555 191.829 215.908V226.265C191.829 226.617 191.543 226.903 191.19 226.903Z" fill="url(#paint7_linear)"/>
<path d="M230.923 113.966H107.917C107.158 113.966 106.542 113.35 106.542 112.592V100.79C106.542 100.031 107.158 99.4159 107.917 99.4159H230.923C231.682 99.4159 232.297 100.031 232.297 100.79V112.592C232.297 113.35 231.682 113.966 230.923 113.966Z" fill="url(#paint8_linear)"/>
<path d="M96.1555 141.686H242.506L242.798 133.879C242.942 129.986 239.702 126.852 235.654 126.852H102.871C98.7757 126.852 95.5175 130.059 95.7317 133.995L96.1555 141.686Z" fill="#BDD0FB"/>
<path d="M231.918 242.537H108.375C104.142 242.537 100.653 239.338 100.431 235.254L94.9264 134.115C94.8133 132.041 95.5502 130.055 97.0008 128.523C98.5046 126.936 100.644 126.025 102.871 126.025H235.653C237.854 126.025 239.976 126.918 241.476 128.474C242.924 129.976 243.68 131.934 243.604 133.986L239.868 235.124C239.714 239.281 236.222 242.537 231.918 242.537ZM102.871 127.638C101.085 127.638 99.3718 128.365 98.1716 129.632C97.0284 130.839 96.4478 132.4 96.5363 134.028L102.04 235.166C102.217 238.395 104.999 240.924 108.375 240.924H231.918C235.351 240.924 238.135 238.351 238.257 235.065L241.992 133.926C242.052 132.316 241.456 130.777 240.315 129.593C239.118 128.35 237.418 127.638 235.653 127.638H102.871Z" fill="#BDD0FB"/>
<path d="M148.62 84.7793H98.9018C96.6757 84.7793 94.8711 82.9747 94.8711 80.7485V65.6401C94.8711 63.414 96.6757 61.6094 98.9018 61.6094H148.62C150.846 61.6094 152.651 63.414 152.651 65.6401V80.7485C152.651 82.9747 150.846 84.7793 148.62 84.7793Z" fill="#BDD0FB"/>
<path d="M110.597 108.006C123.899 108.006 134.682 97.2226 134.682 83.921C134.682 70.6194 123.899 59.8363 110.597 59.8363C97.2953 59.8363 86.5122 70.6194 86.5122 83.921C86.5122 97.2226 97.2953 108.006 110.597 108.006Z" fill="url(#paint9_linear)"/>
<path d="M110.597 107.205C123.457 107.205 133.881 96.7803 133.881 83.921C133.881 71.0617 123.457 60.6372 110.597 60.6372C97.738 60.6372 87.3135 71.0617 87.3135 83.921C87.3135 96.7803 97.738 107.205 110.597 107.205Z" fill="url(#paint10_linear)"/>
<path opacity="0.62" d="M91.3969 74.5713C91.3482 74.5713 91.2986 74.5603 91.252 74.5367C91.093 74.4565 91.0291 74.2625 91.1094 74.1035C94.8453 66.7026 102.312 62.105 110.597 62.105C111.92 62.105 113.244 62.224 114.532 62.4589C114.707 62.4909 114.824 62.6589 114.791 62.834C114.76 63.0094 114.591 63.1254 114.416 63.0936C113.166 62.8655 111.881 62.75 110.597 62.75C102.557 62.75 95.3107 67.2119 91.685 74.3941C91.6283 74.5066 91.5147 74.5713 91.3969 74.5713Z" fill="white"/>
<path opacity="0.78" d="M125.038 98.3633C132.734 90.6674 132.734 78.1898 125.038 70.4938C117.342 62.7979 104.864 62.7979 97.1681 70.4938C89.4722 78.1898 89.4722 90.6674 97.1681 98.3633C104.864 106.059 117.342 106.059 125.038 98.3633Z" fill="white"/>
<path d="M109.17 99.0787V96.9346C106.935 96.8451 104.725 96.3177 103.154 95.6303C102.594 95.3848 102.308 94.7556 102.469 94.1651L103.014 92.168C103.213 91.4354 104.01 91.0564 104.711 91.35C106.268 92.0029 108.191 92.5195 110.265 92.5195C112.418 92.5195 114.023 91.7896 114.023 90.2936C114.023 88.9437 112.783 88.1411 109.791 87.3384C105.522 86.1708 102.457 84.3098 102.457 80.5516C102.457 77.1581 104.938 74.5676 109.243 73.8744V71.7302C109.243 71.0403 109.803 70.481 110.493 70.481H111.752C112.442 70.481 113.002 71.0403 113.002 71.7302V73.6554C115.07 73.7381 116.575 74.0919 117.77 74.5116C118.382 74.7267 118.717 75.3861 118.547 76.0123L118.046 77.8593C117.853 78.5715 117.092 78.9616 116.401 78.7007C115.301 78.2847 113.746 77.8515 111.725 77.8515C109.171 77.8515 108.441 78.9096 108.441 79.8583C108.441 81.026 109.973 81.8286 113.294 82.8503C118.037 84.2733 120.007 86.2436 120.007 89.7828C120.007 93.0302 117.599 95.9493 112.929 96.6792V99.0786C112.929 99.7685 112.369 100.328 111.68 100.328H110.42C109.73 100.328 109.17 99.7686 109.17 99.0787Z" fill="url(#paint11_linear)"/>
<path d="M126.337 190.905C135.121 190.905 142.242 183.784 142.242 175C142.242 166.216 135.121 159.095 126.337 159.095C117.553 159.095 110.432 166.216 110.432 175C110.432 183.784 117.553 190.905 126.337 190.905Z" fill="url(#paint12_linear)"/>
<path d="M126.337 190.376C134.829 190.376 141.713 183.492 141.713 175C141.713 166.508 134.829 159.624 126.337 159.624C117.845 159.624 110.961 166.508 110.961 175C110.961 183.492 117.845 190.376 126.337 190.376Z" fill="url(#paint13_linear)"/>
<path opacity="0.62" d="M113.658 168.935C113.609 168.935 113.559 168.924 113.513 168.901C113.354 168.82 113.29 168.626 113.37 168.467C115.856 163.543 120.825 160.483 126.337 160.483C127.217 160.483 128.098 160.563 128.956 160.719C129.131 160.751 129.247 160.919 129.215 161.094C129.183 161.27 129.015 161.386 128.84 161.354C128.02 161.204 127.178 161.128 126.337 161.128C121.069 161.128 116.321 164.052 113.946 168.758C113.889 168.87 113.775 168.935 113.658 168.935Z" fill="white"/>
<path opacity="0.78" d="M139.554 177.144C140.551 170.026 135.589 163.448 128.471 162.451C121.353 161.454 114.775 166.416 113.778 173.534C112.781 180.652 117.743 187.23 124.861 188.227C131.979 189.224 138.557 184.262 139.554 177.144Z" fill="white"/>
<path d="M125.395 185.01V183.594C123.919 183.535 122.459 183.186 121.423 182.733C121.052 182.571 120.864 182.155 120.97 181.765L121.329 180.446C121.461 179.962 121.988 179.712 122.45 179.906C123.479 180.337 124.749 180.678 126.118 180.678C127.54 180.678 128.6 180.196 128.6 179.208C128.6 178.317 127.781 177.787 125.805 177.257C122.986 176.486 120.962 175.257 120.962 172.775C120.962 170.534 122.6 168.823 125.444 168.365V166.949C125.444 166.494 125.813 166.124 126.269 166.124H127.1C127.556 166.124 127.925 166.494 127.925 166.949V168.221C129.291 168.275 130.285 168.509 131.074 168.786C131.479 168.928 131.699 169.364 131.587 169.777L131.257 170.997C131.129 171.467 130.626 171.725 130.17 171.553C129.444 171.278 128.417 170.992 127.082 170.992C125.395 170.992 124.914 171.691 124.914 172.317C124.914 173.088 125.926 173.618 128.118 174.293C131.251 175.233 132.552 176.534 132.552 178.871C132.552 181.015 130.962 182.943 127.877 183.425V185.01C127.877 185.465 127.508 185.835 127.052 185.835H126.22C125.765 185.835 125.395 185.465 125.395 185.01Z" fill="url(#paint14_linear)"/>
<path d="M149.784 213.326C155.532 213.326 160.192 208.666 160.192 202.918C160.192 197.17 155.532 192.51 149.784 192.51C144.036 192.51 139.376 197.17 139.376 202.918C139.376 208.666 144.036 213.326 149.784 213.326Z" fill="url(#paint15_linear)"/>
<path d="M149.785 212.981C155.342 212.981 159.847 208.476 159.847 202.919C159.847 197.362 155.342 192.857 149.785 192.857C144.228 192.857 139.723 197.362 139.723 202.919C139.723 208.476 144.228 212.981 149.785 212.981Z" fill="url(#paint16_linear)"/>
<path opacity="0.62" d="M141.487 199.061C141.438 199.061 141.388 199.05 141.342 199.026C141.183 198.946 141.119 198.752 141.199 198.593C142.845 195.333 146.134 193.307 149.784 193.307C150.366 193.307 150.949 193.36 151.518 193.463C151.693 193.495 151.809 193.663 151.777 193.838C151.745 194.014 151.58 194.129 151.402 194.098C150.871 194.001 150.327 193.952 149.784 193.952C146.379 193.952 143.31 195.842 141.775 198.884C141.718 198.996 141.605 199.061 141.487 199.061Z" fill="white"/>
<path opacity="0.78" d="M158.415 204.503C159.168 199.861 156.015 195.486 151.373 194.733C146.73 193.979 142.356 197.132 141.602 201.775C140.849 206.417 144.001 210.792 148.644 211.545C153.287 212.299 157.661 209.146 158.415 204.503Z" fill="white"/>
<path d="M149.168 209.468V208.542C148.202 208.503 147.246 208.275 146.568 207.978C146.326 207.872 146.202 207.6 146.272 207.345L146.507 206.482C146.593 206.165 146.938 206.001 147.24 206.128C147.913 206.411 148.745 206.634 149.641 206.634C150.571 206.634 151.265 206.318 151.265 205.672C151.265 205.088 150.729 204.742 149.436 204.395C147.591 203.89 146.266 203.086 146.266 201.462C146.266 199.996 147.339 198.876 149.199 198.577V197.65C149.199 197.352 149.441 197.11 149.739 197.11H150.284C150.582 197.11 150.823 197.352 150.823 197.65V198.482C151.717 198.518 152.368 198.67 152.884 198.852C153.149 198.945 153.293 199.23 153.22 199.5L153.003 200.299C152.92 200.606 152.591 200.775 152.293 200.662C151.817 200.482 151.145 200.295 150.272 200.295C149.168 200.295 148.853 200.752 148.853 201.162C148.853 201.667 149.515 202.014 150.95 202.455C152.999 203.07 153.851 203.922 153.851 205.451C153.851 206.854 152.81 208.116 150.792 208.431V209.468C150.792 209.766 150.55 210.008 150.252 210.008H149.708C149.409 210.008 149.168 209.766 149.168 209.468Z" fill="url(#paint17_linear)"/>
<path d="M108.984 153.67C119.498 153.67 128.02 145.147 128.02 134.634C128.02 124.121 119.498 115.599 108.984 115.599C98.4713 115.599 89.9487 124.121 89.9487 134.634C89.9487 145.147 98.4713 153.67 108.984 153.67Z" fill="url(#paint18_linear)"/>
<path d="M108.984 153.037C119.148 153.037 127.387 144.798 127.387 134.634C127.387 124.471 119.148 116.231 108.984 116.231C98.8208 116.231 90.5815 124.471 90.5815 134.634C90.5815 144.798 98.8208 153.037 108.984 153.037Z" fill="url(#paint19_linear)"/>
<path opacity="0.62" d="M93.8095 127.312C93.7608 127.312 93.7112 127.301 93.6646 127.278C93.5056 127.197 93.4417 127.003 93.522 126.844C96.486 120.972 102.411 117.324 108.984 117.324C110.033 117.324 111.083 117.419 112.107 117.605C112.282 117.637 112.398 117.805 112.366 117.98C112.335 118.155 112.167 118.27 111.992 118.24C111.006 118.06 109.994 117.969 108.984 117.969C102.656 117.969 96.9516 121.481 94.0977 127.135C94.041 127.248 93.9274 127.312 93.8095 127.312Z" fill="white"/>
<path opacity="0.78" d="M109.385 150.611C117.987 150.611 124.961 143.637 124.961 135.035C124.961 126.433 117.987 119.46 109.385 119.46C100.783 119.46 93.8096 126.433 93.8096 135.035C93.8096 143.637 100.783 150.611 109.385 150.611Z" fill="white"/>
<path d="M107.857 146.615V144.92C106.09 144.849 104.343 144.432 103.102 143.889C102.659 143.695 102.433 143.198 102.56 142.731L102.991 141.153C103.149 140.574 103.778 140.274 104.332 140.506C105.563 141.022 107.083 141.43 108.722 141.43C110.423 141.43 111.692 140.854 111.692 139.671C111.692 138.604 110.712 137.97 108.347 137.335C104.973 136.413 102.55 134.942 102.55 131.971C102.55 129.289 104.512 127.242 107.914 126.694V124.999C107.914 124.454 108.357 124.012 108.902 124.012H109.897C110.443 124.012 110.885 124.454 110.885 124.999V126.521C112.519 126.586 113.709 126.866 114.654 127.198C115.137 127.368 115.402 127.889 115.267 128.384L114.872 129.843C114.719 130.406 114.117 130.715 113.572 130.508C112.702 130.18 111.473 129.837 109.876 129.837C107.857 129.837 107.28 130.674 107.28 131.424C107.28 132.346 108.491 132.981 111.116 133.788C114.865 134.913 116.422 136.47 116.422 139.268C116.422 141.834 114.519 144.141 110.827 144.718V146.615C110.827 147.16 110.385 147.602 109.84 147.602H108.844C108.299 147.602 107.857 147.16 107.857 146.615Z" fill="url(#paint20_linear)"/>
<path d="M306.803 186.389C307.322 204.919 309.005 268.837 308.202 291.487C308.117 293.887 305.944 295.813 303.233 295.891C289.828 296.28 240.686 297.264 218.76 296.45C214.193 296.28 210.561 293.005 210.466 288.959C210.01 269.509 209.005 214.804 211.395 189.744C211.681 186.741 214.343 184.35 217.73 184.05C232.328 182.757 281.682 179.597 300.625 180.685C304.041 180.881 306.719 183.359 306.803 186.389Z" fill="url(#paint21_linear)"/>
<path d="M302.953 194.559V210.263C302.953 213.274 300.512 215.715 297.501 215.715H222.472C219.461 215.715 217.02 213.274 217.02 210.263V194.559C217.02 191.548 219.461 189.106 222.472 189.106H297.501C300.512 189.106 302.953 191.548 302.953 194.559Z" fill="url(#paint22_linear)"/>
<path opacity="0.2" d="M221.009 193.788C221.685 193.114 222.6 192.736 223.554 192.738L293.769 192.87C295.646 192.874 297.204 194.321 297.346 196.193L298.527 211.792C298.624 213.069 296.507 214.105 293.832 214.09L224.807 213.699C222.136 213.684 219.946 212.627 219.947 211.352L219.953 196.33C219.954 195.376 220.334 194.461 221.009 193.788Z" fill="white"/>
<path d="M284.196 231.637C284.196 234.408 286.442 236.654 289.213 236.654H295.32C298.09 236.654 300.336 234.408 300.336 231.637C300.336 228.867 298.09 226.621 295.32 226.621H289.213C286.442 226.621 284.196 228.867 284.196 231.637Z" fill="url(#paint23_linear)"/>
<path d="M261.513 231.637C261.513 234.408 263.759 236.654 266.53 236.654H272.637C275.407 236.654 277.653 234.408 277.653 231.637C277.653 228.867 275.407 226.621 272.637 226.621H266.53C263.759 226.621 261.513 228.867 261.513 231.637Z" fill="url(#paint24_linear)"/>
<path d="M239.702 231.637C239.702 234.408 241.948 236.654 244.719 236.654H250.826C253.596 236.654 255.842 234.408 255.842 231.637C255.842 228.867 253.596 226.621 250.826 226.621H244.719C241.948 226.621 239.702 228.867 239.702 231.637Z" fill="url(#paint25_linear)"/>
<path d="M217.593 232.373C217.593 235.189 219.876 237.471 222.691 237.471H228.593C231.409 237.471 233.691 235.189 233.691 232.373C233.691 229.558 231.409 227.276 228.593 227.276H222.691C219.876 227.276 217.593 229.558 217.593 232.373Z" fill="url(#paint26_linear)"/>
<path d="M284.196 247.341C284.196 250.111 286.442 252.357 289.213 252.357H295.32C298.09 252.357 300.336 250.111 300.336 247.341C300.336 244.57 298.09 242.324 295.32 242.324H289.213C286.442 242.324 284.196 244.57 284.196 247.341Z" fill="url(#paint27_linear)"/>
<path d="M261.513 247.341C261.513 250.111 263.759 252.357 266.53 252.357H272.637C275.407 252.357 277.653 250.111 277.653 247.341C277.653 244.57 275.407 242.324 272.637 242.324H266.53C263.759 242.324 261.513 244.57 261.513 247.341Z" fill="url(#paint28_linear)"/>
<path d="M239.702 247.341C239.702 250.111 241.948 252.357 244.719 252.357H250.826C253.596 252.357 255.842 250.111 255.842 247.341C255.842 244.57 253.596 242.324 250.826 242.324H244.719C241.948 242.324 239.702 244.57 239.702 247.341Z" fill="url(#paint29_linear)"/>
<path d="M217.02 247.341C217.02 250.111 219.265 252.357 222.036 252.357H228.143C230.913 252.357 233.159 250.111 233.159 247.341C233.159 244.57 230.913 242.324 228.143 242.324H222.036C219.265 242.324 217.02 244.57 217.02 247.341Z" fill="url(#paint30_linear)"/>
<path opacity="0.63" d="M284.196 261.248C284.196 264.019 286.442 266.265 289.212 266.265H295.319C298.09 266.265 300.336 264.019 300.336 261.248C300.336 258.478 298.09 256.232 295.319 256.232H289.212C286.442 256.232 284.196 258.478 284.196 261.248Z" fill="url(#paint31_linear)"/>
<path opacity="0.63" d="M261.513 261.248C261.513 264.019 263.759 266.265 266.529 266.265H272.636C275.406 266.265 277.652 264.019 277.652 261.248C277.652 258.478 275.406 256.232 272.636 256.232H266.529C263.759 256.232 261.513 258.478 261.513 261.248Z" fill="url(#paint32_linear)"/>
<path d="M239.702 261.248C239.702 264.019 241.948 266.265 244.719 266.265H250.826C253.596 266.265 255.842 264.019 255.842 261.248C255.842 258.478 253.596 256.232 250.826 256.232H244.719C241.948 256.232 239.702 258.478 239.702 261.248Z" fill="url(#paint33_linear)"/>
<path d="M284.196 276.516C284.196 279.286 286.442 281.532 289.212 281.532H295.319C298.09 281.532 300.336 279.286 300.336 276.516C300.336 273.745 298.09 271.499 295.319 271.499H289.212C286.442 271.499 284.196 273.745 284.196 276.516Z" fill="url(#paint34_linear)"/>
<path d="M261.513 276.516C261.513 279.286 263.759 281.532 266.529 281.532H272.636C275.406 281.532 277.652 279.286 277.652 276.516C277.652 273.745 275.406 271.499 272.636 271.499H266.529C263.759 271.499 261.513 273.745 261.513 276.516Z" fill="url(#paint35_linear)"/>
<path d="M239.702 276.516C239.702 279.286 241.948 281.532 244.719 281.532H250.826C253.596 281.532 255.842 279.286 255.842 276.516C255.842 273.745 253.596 271.499 250.826 271.499H244.719C241.948 271.499 239.702 273.745 239.702 276.516Z" fill="url(#paint36_linear)"/>
<path d="M219.2 276.106C219.2 279.613 222.043 282.456 225.55 282.456H225.937C229.444 282.456 232.287 279.613 232.287 276.106V263.941C232.287 260.435 229.444 257.592 225.937 257.592H225.55C222.043 257.592 219.2 260.435 219.2 263.941V276.106Z" fill="url(#paint37_linear)"/>
<path d="M281.04 201.606C281.04 201.147 281.081 200.72 281.164 200.324C281.247 199.929 281.392 199.545 281.6 199.172C281.807 198.799 282.085 198.496 282.433 198.264C282.814 198.01 283.212 197.883 283.627 197.883C284.517 197.883 285.205 198.294 285.692 199.118C286.101 199.815 286.305 200.638 286.305 201.589C286.305 202.551 286.103 203.372 285.7 204.052C285.213 204.875 284.522 205.287 283.627 205.287C283.212 205.287 282.823 205.167 282.458 204.926C282.093 204.686 281.803 204.375 281.587 203.994C281.399 203.651 281.261 203.274 281.172 202.862C281.084 202.45 281.04 202.031 281.04 201.606ZM283.677 203.695C284.086 203.695 284.362 203.421 284.506 202.874C284.589 202.559 284.63 202.125 284.63 201.572C284.63 200.997 284.592 200.564 284.514 200.27C284.371 199.723 284.091 199.45 283.677 199.45C283.262 199.45 282.983 199.729 282.839 200.287C282.762 200.591 282.723 201.036 282.723 201.622C282.723 202.175 282.765 202.6 282.848 202.899C282.991 203.43 283.268 203.695 283.677 203.695ZM284.878 208.462L288.843 198.49C288.92 198.326 289.006 198.197 289.1 198.104C289.216 197.995 289.321 197.935 289.415 197.924C289.509 197.913 289.583 197.907 289.639 197.907C289.849 197.907 290.034 197.972 290.194 198.102C290.354 198.232 290.434 198.397 290.434 198.596C290.44 198.673 290.436 198.749 290.422 198.824C290.408 198.898 290.385 198.988 290.352 199.093L286.306 209.225C286.239 209.393 286.154 209.528 286.048 209.632C285.943 209.735 285.808 209.801 285.642 209.829C285.603 209.829 285.573 209.829 285.551 209.829C285.346 209.829 285.158 209.759 284.987 209.621C284.816 209.484 284.73 209.318 284.73 209.125C284.73 209.014 284.741 208.915 284.763 208.827C284.785 208.738 284.823 208.617 284.878 208.462ZM288.859 205.9C288.859 205.453 288.9 205.026 288.983 204.619C289.066 204.213 289.204 203.836 289.398 203.488C289.613 203.106 289.895 202.799 290.244 202.567C290.62 202.319 291.018 202.194 291.438 202.194C292.328 202.194 293.016 202.606 293.502 203.43C293.911 204.121 294.116 204.944 294.116 205.9C294.116 206.851 293.914 207.667 293.511 208.347C293.024 209.17 292.333 209.582 291.438 209.582C291.023 209.582 290.632 209.463 290.264 209.226C289.897 208.988 289.612 208.685 289.41 208.318C289.208 207.95 289.066 207.569 288.983 207.173C288.9 206.778 288.859 206.354 288.859 205.9ZM291.487 208.007C291.897 208.007 292.173 207.736 292.317 207.194C292.4 206.879 292.441 206.442 292.441 205.884C292.441 205.304 292.402 204.867 292.325 204.574C292.181 204.021 291.902 203.745 291.487 203.745C291.073 203.745 290.794 204.024 290.65 204.582C290.573 204.886 290.534 205.331 290.534 205.917C290.534 206.475 290.575 206.907 290.658 207.21C290.802 207.741 291.078 208.007 291.487 208.007Z" fill="white"/>
<defs>
<linearGradient id="paint0_linear" x1="322.844" y1="342.296" x2="127.722" y2="131.689" gradientUnits="userSpaceOnUse">
<stop stop-color="#DAE3FE"/>
<stop offset="1" stop-color="#E9EFFD"/>
</linearGradient>
<linearGradient id="paint1_linear" x1="199.125" y1="262.229" x2="146.086" y2="103.112" gradientUnits="userSpaceOnUse">
<stop stop-color="#09005D"/>
<stop offset="1" stop-color="#1A0F91"/>
</linearGradient>
<linearGradient id="paint2_linear" x1="267.166" y1="121.004" x2="73.72" y2="290.845" gradientUnits="userSpaceOnUse">
<stop stop-color="#FE7062"/>
<stop offset="1" stop-color="#FF928E"/>
</linearGradient>
<linearGradient id="paint3_linear" x1="177.257" y1="144.281" x2="176.288" y2="284.258" gradientUnits="userSpaceOnUse">
<stop stop-color="#09005D"/>
<stop offset="1" stop-color="#1A0F91"/>
</linearGradient>
<linearGradient id="paint4_linear" x1="102.489" y1="152.081" x2="178.605" y2="152.081" gradientUnits="userSpaceOnUse">
<stop stop-color="#DAE3FE"/>
<stop offset="1" stop-color="#E9EFFD"/>
</linearGradient>
<linearGradient id="paint5_linear" x1="103.456" y1="176.26" x2="169.331" y2="176.26" gradientUnits="userSpaceOnUse">
<stop stop-color="#DAE3FE"/>
<stop offset="1" stop-color="#E9EFFD"/>
</linearGradient>
<linearGradient id="paint6_linear" x1="104.101" y1="198.685" x2="182.475" y2="198.685" gradientUnits="userSpaceOnUse">
<stop stop-color="#DAE3FE"/>
<stop offset="1" stop-color="#E9EFFD"/>
</linearGradient>
<linearGradient id="paint7_linear" x1="106.037" y1="221.086" x2="191.829" y2="221.086" gradientUnits="userSpaceOnUse">
<stop stop-color="#DAE3FE"/>
<stop offset="1" stop-color="#E9EFFD"/>
</linearGradient>
<linearGradient id="paint8_linear" x1="106.543" y1="106.691" x2="232.297" y2="106.691" gradientUnits="userSpaceOnUse">
<stop stop-color="#DAE3FE"/>
<stop offset="1" stop-color="#E9EFFD"/>
</linearGradient>
<linearGradient id="paint9_linear" x1="77.6393" y1="122.175" x2="109.944" y2="84.6785" gradientUnits="userSpaceOnUse">
<stop stop-color="#E1473D"/>
<stop offset="1" stop-color="#E9605A"/>
</linearGradient>
<linearGradient id="paint10_linear" x1="128.199" y1="57.3295" x2="32.6721" y2="201.644" gradientUnits="userSpaceOnUse">
<stop stop-color="#FE7062"/>
<stop offset="1" stop-color="#FF928E"/>
</linearGradient>
<linearGradient id="paint11_linear" x1="125.349" y1="61.4645" x2="74.483" y2="146.861" gradientUnits="userSpaceOnUse">
<stop stop-color="#FE7062"/>
<stop offset="1" stop-color="#FF928E"/>
</linearGradient>
<linearGradient id="paint12_linear" x1="104.573" y1="200.262" x2="125.906" y2="175.5" gradientUnits="userSpaceOnUse">
<stop stop-color="#E1473D"/>
<stop offset="1" stop-color="#E9605A"/>
</linearGradient>
<linearGradient id="paint13_linear" x1="137.961" y1="157.439" x2="74.877" y2="252.741" gradientUnits="userSpaceOnUse">
<stop stop-color="#FE7062"/>
<stop offset="1" stop-color="#FF928E"/>
</linearGradient>
<linearGradient id="paint14_linear" x1="136.079" y1="160.17" x2="102.488" y2="216.564" gradientUnits="userSpaceOnUse">
<stop stop-color="#FE7062"/>
<stop offset="1" stop-color="#FF928E"/>
</linearGradient>
<linearGradient id="paint15_linear" x1="135.542" y1="219.449" x2="149.502" y2="203.245" gradientUnits="userSpaceOnUse">
<stop stop-color="#E1473D"/>
<stop offset="1" stop-color="#E9605A"/>
</linearGradient>
<linearGradient id="paint16_linear" x1="157.391" y1="191.428" x2="116.11" y2="253.791" gradientUnits="userSpaceOnUse">
<stop stop-color="#FE7062"/>
<stop offset="1" stop-color="#FF928E"/>
</linearGradient>
<linearGradient id="paint17_linear" x1="156.159" y1="193.214" x2="134.178" y2="230.117" gradientUnits="userSpaceOnUse">
<stop stop-color="#FE7062"/>
<stop offset="1" stop-color="#FF928E"/>
</linearGradient>
<linearGradient id="paint18_linear" x1="82.9358" y1="164.869" x2="108.469" y2="135.233" gradientUnits="userSpaceOnUse">
<stop stop-color="#E1473D"/>
<stop offset="1" stop-color="#E9605A"/>
</linearGradient>
<linearGradient id="paint19_linear" x1="122.896" y1="113.617" x2="47.3947" y2="227.679" gradientUnits="userSpaceOnUse">
<stop stop-color="#FE7062"/>
<stop offset="1" stop-color="#FF928E"/>
</linearGradient>
<linearGradient id="paint20_linear" x1="120.644" y1="116.885" x2="80.4407" y2="184.38" gradientUnits="userSpaceOnUse">
<stop stop-color="#FE7062"/>
<stop offset="1" stop-color="#FF928E"/>
</linearGradient>
<linearGradient id="paint21_linear" x1="297.694" y1="193.615" x2="158.364" y2="366.072" gradientUnits="userSpaceOnUse">
<stop stop-color="#09005D"/>
<stop offset="1" stop-color="#1A0F91"/>
</linearGradient>
<linearGradient id="paint22_linear" x1="310.551" y1="150.366" x2="208.338" y2="255.571" gradientUnits="userSpaceOnUse">
<stop stop-color="#FE7062"/>
<stop offset="1" stop-color="#FF928E"/>
</linearGradient>
<linearGradient id="paint23_linear" x1="355.31" y1="115.746" x2="222.8" y2="359.329" gradientUnits="userSpaceOnUse">
<stop stop-color="#4042E2"/>
<stop offset="1" stop-color="#4F52FF"/>
</linearGradient>
<linearGradient id="paint24_linear" x1="337.807" y1="106.224" x2="205.296" y2="349.806" gradientUnits="userSpaceOnUse">
<stop stop-color="#4042E2"/>
<stop offset="1" stop-color="#4F52FF"/>
</linearGradient>
<linearGradient id="paint25_linear" x1="320.977" y1="97.0689" x2="188.467" y2="340.652" gradientUnits="userSpaceOnUse">
<stop stop-color="#4042E2"/>
<stop offset="1" stop-color="#4F52FF"/>
</linearGradient>
<linearGradient id="paint26_linear" x1="220.661" y1="226.501" x2="256.613" y2="268.892" gradientUnits="userSpaceOnUse">
<stop stop-color="#FE7062"/>
<stop offset="1" stop-color="#FF928E"/>
</linearGradient>
<linearGradient id="paint27_linear" x1="361.902" y1="119.334" x2="229.394" y2="362.915" gradientUnits="userSpaceOnUse">
<stop stop-color="#4042E2"/>
<stop offset="1" stop-color="#4F52FF"/>
</linearGradient>
<linearGradient id="paint28_linear" x1="344.398" y1="109.813" x2="211.89" y2="353.394" gradientUnits="userSpaceOnUse">
<stop stop-color="#4042E2"/>
<stop offset="1" stop-color="#4F52FF"/>
</linearGradient>
<linearGradient id="paint29_linear" x1="327.569" y1="100.656" x2="195.061" y2="344.239" gradientUnits="userSpaceOnUse">
<stop stop-color="#4042E2"/>
<stop offset="1" stop-color="#4F52FF"/>
</linearGradient>
<linearGradient id="paint30_linear" x1="310.066" y1="91.135" x2="177.557" y2="334.717" gradientUnits="userSpaceOnUse">
<stop stop-color="#4042E2"/>
<stop offset="1" stop-color="#4F52FF"/>
</linearGradient>
<linearGradient id="paint31_linear" x1="582.39" y1="794.565" x2="714.899" y2="1038.15" gradientUnits="userSpaceOnUse">
<stop stop-color="#4042E2"/>
<stop offset="1" stop-color="#4F52FF"/>
</linearGradient>
<linearGradient id="paint32_linear" x1="350.236" y1="112.987" x2="217.727" y2="356.568" gradientUnits="userSpaceOnUse">
<stop stop-color="#4042E2"/>
<stop offset="1" stop-color="#4F52FF"/>
</linearGradient>
<linearGradient id="paint33_linear" x1="333.407" y1="103.832" x2="200.898" y2="347.414" gradientUnits="userSpaceOnUse">
<stop stop-color="#4042E2"/>
<stop offset="1" stop-color="#4F52FF"/>
</linearGradient>
<linearGradient id="paint34_linear" x1="334.473" y1="175.343" x2="268.219" y2="334.158" gradientUnits="userSpaceOnUse">
<stop stop-color="#4042E2"/>
<stop offset="1" stop-color="#4F52FF"/>
</linearGradient>
<linearGradient id="paint35_linear" x1="356.645" y1="116.474" x2="224.138" y2="360.055" gradientUnits="userSpaceOnUse">
<stop stop-color="#4042E2"/>
<stop offset="1" stop-color="#4F52FF"/>
</linearGradient>
<linearGradient id="paint36_linear" x1="339.816" y1="107.319" x2="207.309" y2="350.901" gradientUnits="userSpaceOnUse">
<stop stop-color="#4042E2"/>
<stop offset="1" stop-color="#4F52FF"/>
</linearGradient>
<linearGradient id="paint37_linear" x1="320.092" y1="96.5881" x2="187.583" y2="340.17" gradientUnits="userSpaceOnUse">
<stop stop-color="#4042E2"/>
<stop offset="1" stop-color="#4F52FF"/>
</linearGradient>
</defs>
</svg>
